<?xml version="1.0" encoding="UTF-8"?>
<svg width="60px" height="57px" viewBox="0 0 60 57" version="1.1" xmlns="http://www.w3.org/2000/svg" xmlns:xlink="http://www.w3.org/1999/xlink">
    <title>02</title>
    <g id="页面-1" stroke="none" stroke-width="1" fill="none" fill-rule="evenodd" opacity="0.259263538">
        <g id="虚拟人" transform="translate(-751.000000, -1140.000000)" fill="#FFFFFF" fill-rule="nonzero">
            <g id="02" transform="translate(751.000000, 1140.000000)">
                <path d="M26.3764205,43.3295455 C26.3764205,46.999053 25.0847538,50.1107955 22.5014205,52.6647727 C19.9180871,55.21875 16.8210227,56.4957386 13.2102273,56.4957386 C9.5407197,56.4957386 6.42163826,55.211411 3.85298295,52.6427557 C1.28432765,50.0741004 0,46.969697 0,43.3295455 L0,13.2102273 C0,9.5407197 1.29166667,6.42163826 3.875,3.85298295 C6.45833333,1.28432765 9.57007576,0 13.2102273,0 C16.8797348,0 19.9914773,1.29166667 22.5454545,3.875 C25.0994318,6.45833333 26.3764205,9.57007576 26.3764205,13.2102273 L26.3764205,43.3295455 Z M17.7457386,13.0340909 C17.7457386,11.7130682 17.2760417,10.5828598 16.3366477,9.64346591 C15.3972538,8.70407197 14.2670455,8.234375 12.9460227,8.234375 C11.625,8.234375 10.5021307,8.70407197 9.57741477,9.64346591 C8.65269886,10.5828598 8.19034091,11.7130682 8.19034091,13.0340909 L8.19034091,43.1974432 C8.19034091,44.5184659 8.65269886,45.6486742 9.57741477,46.5880682 C10.5021307,47.5274621 11.625,47.9971591 12.9460227,47.9971591 C14.2670455,47.9971591 15.3972538,47.5274621 16.3366477,46.5880682 C17.2760417,45.6486742 17.7457386,44.5184659 17.7457386,43.1974432 L17.7457386,13.0340909 Z" id="0"></path>
                <path d="M32.2329545,16.2926136 C32.2329545,11.0672348 33.6420455,7.07481061 36.4602273,4.31534091 C38.8967803,1.87878788 42.0965909,0.660511364 46.0596591,0.660511364 C49.6998106,0.660511364 52.804214,2.02556818 55.3728693,4.75568182 C57.9415246,7.48579545 59.2258523,10.670928 59.2258523,14.3110795 C59.2258523,18.0686553 58.3892045,21.6941288 56.7159091,25.1875 C55.8058712,27.125 53.6775568,30.4569129 50.3309659,35.1832386 C49.420928,36.4749053 48.0705492,38.4857955 46.2798295,41.2159091 L44.7826705,43.4616477 C43.8139205,44.9294508 43.0800189,46.0890152 42.5809659,46.9403409 C42.3461174,47.3513258 42.2286932,47.6008523 42.2286932,47.6889205 L58.5653409,47.7329545 L58.5653409,55.8792614 L32.1008523,55.8792614 L32.1008523,48.2613636 C32.1008523,48.0852273 32.7173295,47.0724432 33.9502841,45.2230114 C34.5080492,44.3716856 35.1392045,43.4322917 35.84375,42.4048295 L38.0014205,39.2784091 C39.2637311,37.5464015 41.2452652,34.7722538 43.9460227,30.9559659 C46.5,27.3745265 48.4081439,24.1306818 49.6704545,21.2244318 C50.6979167,18.8465909 51.2116477,16.6302083 51.2116477,14.5752841 C51.2116477,12.9019886 50.7419508,11.4782197 49.8025568,10.3039773 C48.7750947,9.07102273 47.454072,8.45454545 45.8394886,8.45454545 C43.5203598,8.45454545 41.8764205,9.79024621 40.9076705,12.4616477 C40.5847538,13.3423295 40.4232955,14.3991477 40.4232955,15.6321023 L40.4232955,17.7457386 L32.2329545,17.7457386 L32.2329545,16.2926136 Z" id="2"></path>
            </g>
        </g>
    </g>
</svg>