<?xml version="1.0" encoding="UTF-8"?>
<svg width="60px" height="57px" viewBox="0 0 60 57" version="1.1" xmlns="http://www.w3.org/2000/svg" xmlns:xlink="http://www.w3.org/1999/xlink">
    <title>03</title>
    <g id="页面-1" stroke="none" stroke-width="1" fill="none" fill-rule="evenodd" opacity="0.259263538">
        <g id="虚拟人" transform="translate(-1094.000000, -1140.000000)" fill="#FFFFFF" fill-rule="nonzero">
            <g id="03" transform="translate(1094.000000, 1140.000000)">
                <path d="M26.3764205,43.3295455 C26.3764205,46.999053 25.0847538,50.1107955 22.5014205,52.6647727 C19.9180871,55.21875 16.8210227,56.4957386 13.2102273,56.4957386 C9.5407197,56.4957386 6.42163826,55.211411 3.85298295,52.6427557 C1.28432765,50.0741004 0,46.969697 0,43.3295455 L0,13.2102273 C0,9.5407197 1.29166667,6.42163826 3.875,3.85298295 C6.45833333,1.28432765 9.57007576,0 13.2102273,0 C16.8797348,0 19.9914773,1.29166667 22.5454545,3.875 C25.0994318,6.45833333 26.3764205,9.57007576 26.3764205,13.2102273 L26.3764205,43.3295455 Z M17.7457386,13.0340909 C17.7457386,11.7130682 17.2760417,10.5828598 16.3366477,9.64346591 C15.3972538,8.70407197 14.2670455,8.234375 12.9460227,8.234375 C11.625,8.234375 10.5021307,8.70407197 9.57741477,9.64346591 C8.65269886,10.5828598 8.19034091,11.7130682 8.19034091,13.0340909 L8.19034091,43.1974432 C8.19034091,44.5184659 8.65269886,45.6486742 9.57741477,46.5880682 C10.5021307,47.5274621 11.625,47.9971591 12.9460227,47.9971591 C14.2670455,47.9971591 15.3972538,47.5274621 16.3366477,46.5880682 C17.2760417,45.6486742 17.7457386,44.5184659 17.7457386,43.1974432 L17.7457386,13.0340909 Z" id="0"></path>
                <path d="M45.046875,47.9971591 C48.8631629,47.9971591 50.7713068,46.2211174 50.7713068,42.6690341 L50.7713068,39.4105114 C50.7713068,33.7447917 47.8063447,30.9119318 41.8764205,30.9119318 L41.8764205,23.7784091 C45.0762311,23.7784091 47.4393939,22.8830492 48.9659091,21.0923295 C50.375,19.4777462 51.0795455,17.2173295 51.0795455,14.3110795 L51.0795455,13.0340909 C51.0795455,9.42329545 49.4943182,7.61789773 46.3238636,7.61789773 C44.5625,7.61789773 43.2708333,8.29308712 42.4488636,9.64346591 C41.8323864,10.670928 41.5241477,12.0066288 41.5241477,13.6505682 L41.5241477,15.1036932 L33.3778409,15.1036932 L33.3778409,13.8267045 C33.3778409,9.89299242 34.375947,6.69318182 36.3721591,4.22727273 C38.6325758,1.40909091 41.8177083,0 45.9275568,0 C49.8319129,0 52.9583333,1.32102273 55.3068182,3.96306818 C57.4204545,6.34090909 58.4772727,9.30587121 58.4772727,12.8579545 L58.4772727,15.1917614 C58.4772727,18.6264205 57.4498106,21.5913826 55.3948864,24.0866477 C54.5142045,25.1434659 53.4867424,26.0388258 52.3125,26.7727273 C54.7784091,28.1524621 56.686553,30.2514205 58.0369318,33.0696023 C58.7414773,34.5080492 59.09375,36.2547348 59.09375,38.3096591 L59.09375,42.6690341 C59.09375,46.7495265 57.6993371,50.0961174 54.9105114,52.7088068 C52.2391098,55.233428 49.0246212,56.4957386 45.2670455,56.4957386 C41.5975379,56.4957386 38.4857955,55.204072 35.9318182,52.6207386 C33.3778409,50.0374053 32.1008523,46.9403409 32.1008523,43.3295455 L32.1008523,41.9644886 L40.0269886,41.3480114 L40.203125,43.2855114 C40.3205492,44.6652462 40.8122633,45.7954545 41.678267,46.6761364 C42.5442708,47.5568182 43.6671402,47.9971591 45.046875,47.9971591 Z" id="3"></path>
            </g>
        </g>
    </g>
</svg>