<?xml version="1.0" encoding="UTF-8"?>
<svg width="61px" height="57px" viewBox="0 0 61 57" version="1.1" xmlns="http://www.w3.org/2000/svg" xmlns:xlink="http://www.w3.org/1999/xlink">
    <title>04</title>
    <g id="页面-1" stroke="none" stroke-width="1" fill="none" fill-rule="evenodd" opacity="0.259263538">
        <g id="虚拟人" transform="translate(-1441.000000, -1140.000000)" fill="#FFFFFF" fill-rule="nonzero">
            <g id="04" transform="translate(1441.000000, 1140.000000)">
                <path d="M26.3764205,43.3295455 C26.3764205,46.999053 25.0847538,50.1107955 22.5014205,52.6647727 C19.9180871,55.21875 16.8210227,56.4957386 13.2102273,56.4957386 C9.5407197,56.4957386 6.42163826,55.211411 3.85298295,52.6427557 C1.28432765,50.0741004 0,46.969697 0,43.3295455 L0,13.2102273 C0,9.5407197 1.29166667,6.42163826 3.875,3.85298295 C6.45833333,1.28432765 9.57007576,0 13.2102273,0 C16.8797348,0 19.9914773,1.29166667 22.5454545,3.875 C25.0994318,6.45833333 26.3764205,9.57007576 26.3764205,13.2102273 L26.3764205,43.3295455 Z M17.7457386,13.0340909 C17.7457386,11.7130682 17.2760417,10.5828598 16.3366477,9.64346591 C15.3972538,8.70407197 14.2670455,8.234375 12.9460227,8.234375 C11.625,8.234375 10.5021307,8.70407197 9.57741477,9.64346591 C8.65269886,10.5828598 8.19034091,11.7130682 8.19034091,13.0340909 L8.19034091,43.1974432 C8.19034091,44.5184659 8.65269886,45.6486742 9.57741477,46.5880682 C10.5021307,47.5274621 11.625,47.9971591 12.9460227,47.9971591 C14.2670455,47.9971591 15.3972538,47.5274621 16.3366477,46.5880682 C17.2760417,45.6486742 17.7457386,44.5184659 17.7457386,43.1974432 L17.7457386,13.0340909 Z" id="0"></path>
                <path d="M32.1008523,35.6235795 L46.8082386,0.660511364 L55.1306818,0.660511364 L55.1306818,35.6235795 L60.4588068,35.6235795 L60.4588068,43.9900568 L55.1306818,43.9900568 L55.1306818,55.8792614 L46.8082386,55.8792614 L46.8082386,43.9900568 L32.1008523,43.9900568 L32.1008523,35.6235795 Z M46.8082386,35.6235795 L46.8082386,18.40625 L39.9389205,35.6235795 L46.8082386,35.6235795 Z" id="4"></path>
            </g>
        </g>
    </g>
</svg>