<?xml version="1.0" encoding="UTF-8"?>
<svg width="160px" height="160px" viewBox="0 0 160 160" version="1.1" xmlns="http://www.w3.org/2000/svg" xmlns:xlink="http://www.w3.org/1999/xlink">
    <title>编组 12</title>
    <defs>
        <linearGradient x1="0%" y1="50%" x2="100%" y2="50%" id="linearGradient-1">
            <stop stop-color="#D675A3" offset="0%"></stop>
            <stop stop-color="#8D86D7" offset="45.7084176%"></stop>
            <stop stop-color="#8CBFC6" offset="100%"></stop>
        </linearGradient>
        <polygon id="path-2" points="5.8814298e-15 0 98 0 98 40 0 40"></polygon>
    </defs>
    <g id="页面-1" stroke="none" stroke-width="1" fill="none" fill-rule="evenodd">
        <g id="核心技术" transform="translate(-300.000000, -1177.000000)">
            <g id="编组-12" transform="translate(300.000000, 1177.000000)">
                <circle id="椭圆形" fill="url(#linearGradient-1)" cx="80" cy="80" r="80"></circle>
                <g id="相框人像" transform="translate(31.000000, 50.000000)">
                    <path d="M53.9821992,9.97420273 C54.7885638,8.92719104 55.2863059,7.63632159 55.2863059,6.22215682 C55.2863059,2.79048955 52.4674594,0 49.000446,0 C45.5334326,0 42.7145861,2.79027933 42.7145861,6.22215682 C42.7145861,7.63787724 43.2131776,8.92708593 44.0186928,9.97420273 C40.5019838,11.3307876 38,14.7107192 38,18.6664705 L38,26.444692 C38,27.3036389 38.7043187,28 39.5712314,28 C40.4389723,28 41.1424627,27.3028191 41.1424627,26.444692 L41.1424627,18.6664705 C41.1424627,15.2348032 43.9613092,12.4443136 47.4283226,12.4443136 L50.5716774,12.4443136 C54.0384784,12.4443136 56.8575373,15.234593 56.8575373,18.6664705 L56.8575373,26.444692 C56.8575373,27.3036389 57.5601995,28 58.4287686,28 C59.2981873,28 60,27.3028191 60,26.444692 L60,18.6664705 C60,14.7109295 57.4980162,11.330136 53.9813072,9.97420273 L53.9821992,9.97420273 Z M49.0005309,3.11086819 C50.7335492,3.11086819 52.1438856,4.50604989 52.1438856,6.22236704 C52.1438856,7.93782228 50.7344199,9.3338659 49.0005309,9.3338659 C47.2675127,9.3338659 45.8571762,7.93868419 45.8571762,6.22236704 C45.8571762,4.50691181 47.266642,3.11086819 49.0005309,3.11086819 L49.0005309,3.11086819 Z" id="形状" fill="#FFFFFF" fill-rule="nonzero"></path>
                    <path d="M51.9977637,42 L45.999245,42 C45.2281603,42 44.5837421,41.4164018 44.5069518,40.6498729 L43.0075451,25.6497221 C42.9252119,24.8246084 43.5260872,24.089764 44.3510001,24.0074006 C45.181466,23.9282158 45.9105784,24.5276502 45.9929218,25.3511827 L47.3577581,39.001247 L50.6423716,39.001247 L52.0072079,25.3511827 C52.091124,24.5276502 52.8186637,23.9258481 53.6491296,24.0074006 C54.4740425,24.0897539 55.0741173,24.8245881 54.9925846,25.6497221 L53.4931779,40.6498729 C53.4163856,41.4163815 52.7719694,42 52.0008847,42 L51.9977637,42 Z" id="路径" fill="#FFFFFF" fill-rule="nonzero"></path>
                    <g id="Clipped" transform="translate(0.000000, 21.000000)">
                        <mask id="mask-3" fill="white">
                            <use xlink:href="#path-2"></use>
                        </mask>
                        <g id="路径"></g>
                        <path d="M97.8820474,37.8756477 L82.5697285,1.06943005 C82.332085,0.497056995 81.7735069,0.126259067 81.1567596,0.126259067 L62.7816044,0.126259067 C61.9344563,0.126259067 61.2506208,0.813595855 61.2506208,1.65960622 C61.2506208,2.50642487 61.935284,3.19295337 62.7816044,3.19295337 L64.6496634,3.19295337 L66.180647,9.32725389 L58.1878052,9.32725389 C57.3406571,9.32725389 56.6568217,10.0145907 56.6568217,10.860601 C56.6568217,11.7074197 57.3414849,12.3939482 58.1878052,12.3939482 L66.9469251,12.3939482 L68.4779087,18.5282487 L58.1876811,18.5282487 C57.340533,18.5282487 56.6566975,19.2155855 56.6566975,20.0615959 C56.6566975,20.9084145 57.3413607,21.594943 58.1876811,21.594943 L69.2433591,21.594943 L70.7743427,27.7292435 L50.5311905,27.7292435 L50.5311905,24.6616788 C50.5311905,23.8148601 49.8449132,23.1283316 49.0002069,23.1283316 C48.1546936,23.1283316 47.4692234,23.8156684 47.4692234,24.6616788 L47.4692234,27.7292435 L27.2277267,27.7292435 L28.7587102,21.594943 L39.8127328,21.594943 C40.6582461,21.594943 41.3437164,20.9076062 41.3437164,20.0615959 C41.3437164,19.2147772 40.6574391,18.5282487 39.8127328,18.5282487 L29.5241606,18.5282487 L31.0551442,12.3939482 L39.8126086,12.3939482 C40.658122,12.3939482 41.3435922,11.7066114 41.3435922,10.860601 C41.3435922,10.0137824 40.6573149,9.32725389 39.8126086,9.32725389 L31.8214224,9.32725389 L33.3524059,3.19295337 L35.2188509,3.19295337 C36.0643642,3.19295337 36.7498345,2.50561658 36.7498345,1.65960622 C36.7498345,0.812787565 36.0635572,0.126259067 35.2188509,0.126259067 L16.8436957,0.126259067 C16.2253136,0.126259067 15.6675632,0.498673575 15.4307268,1.06943005 L0.117580134,37.8756477 C-0.0796531948,38.3492642 -0.0279195912,38.8892435 0.256615229,39.3158964 C0.541150049,39.7425492 1.01887884,39.9983834 1.53054487,39.9983834 L96.4679155,39.9983834 C96.9796023,39.9983834 97.4573104,39.7425492 97.7418452,39.3158964 C98.02638,38.8892435 98.0789206,38.3484352 97.8808803,37.8756477 L97.8820474,37.8756477 Z M70.1011022,12.3937824 L79.6256725,12.3937824 C80.4728206,12.3937824 81.1566561,11.7064456 81.1566561,10.8604352 C81.1566561,10.0136166 80.4719929,9.32708808 79.6256725,9.32708808 L69.3354449,9.32708808 L67.8044613,3.19278756 L80.1356831,3.19278756 L86.5167127,18.5287461 L71.6344035,18.5287461 L70.1034199,12.3944456 L70.1011022,12.3937824 Z M72.3976604,21.5954404 L87.7917184,21.5954404 L90.3444613,27.7297409 L73.9295958,27.7297409 L72.3986123,21.5954404 L72.3976604,21.5954404 Z M71.5384066,30.7970984 L73.0693902,36.931399 L50.5300938,36.931399 L50.5300938,30.7970984 L71.5384066,30.7970984 Z M47.4677955,30.7970984 L47.4677955,36.931399 L24.9284991,36.931399 L26.4594827,30.7970984 L47.4677955,30.7970984 Z M24.0697213,27.7295337 L7.65733899,27.7295337 L10.2100819,21.5952332 L25.60414,21.5952332 L24.0731564,27.7295337 L24.0697213,27.7295337 Z M26.3662794,18.5278756 L11.4847979,18.5278756 L14.0375409,12.3935751 L27.8996634,12.3935751 L26.3686798,18.5278756 L26.3662794,18.5278756 Z M17.8633443,3.1919171 L30.1945661,3.1919171 L28.6635825,9.32621762 L15.3130018,9.32621762 L17.8657448,3.1919171 L17.8633443,3.1919171 Z M6.37931205,30.7981347 L23.3050986,30.7981347 L21.774115,36.9324352 L3.82896955,36.9324352 L6.38171249,30.7981347 L6.37931205,30.7981347 Z M76.225885,36.9324352 L74.6949014,30.7981347 L91.6198602,30.7981347 L94.1726032,36.9324352 L76.225885,36.9324352 Z" id="形状" fill="#FFFFFF" fill-rule="nonzero" mask="url(#mask-3)"></path>
                    </g>
                </g>
            </g>
        </g>
    </g>
</svg>