<?xml version="1.0" encoding="UTF-8"?>
<svg width="160px" height="160px" viewBox="0 0 160 160" version="1.1" xmlns="http://www.w3.org/2000/svg" xmlns:xlink="http://www.w3.org/1999/xlink">
    <title>编组 11</title>
    <defs>
        <linearGradient x1="0%" y1="50%" x2="100%" y2="50%" id="linearGradient-1">
            <stop stop-color="#757FD6" offset="0%"></stop>
            <stop stop-color="#86AAD7" offset="57.6072853%"></stop>
            <stop stop-color="#84BDB8" offset="100%"></stop>
        </linearGradient>
    </defs>
    <g id="页面-1" stroke="none" stroke-width="1" fill="none" fill-rule="evenodd">
        <g id="核心技术" transform="translate(-681.000000, -909.000000)">
            <g id="编组-18" transform="translate(671.000000, 909.000000)">
                <g id="编组-11" transform="translate(10.000000, 0.000000)">
                    <circle id="椭圆形" fill="url(#linearGradient-1)" cx="80" cy="80" r="80"></circle>
                    <g id="编组-7" transform="translate(37.000000, 40.000000)" fill="#FFFFFF" fill-rule="nonzero">
                        <g id="人脸扫描">
                            <path d="M70.8778598,54.2486522 C70.6719295,53.9781578 70.2799976,53.9192055 69.9993372,54.1170389 C68.3560398,55.2894499 66.9136241,55.3063997 66.9038458,55.3063997 L66.4280431,55.3063997 L66.2868817,55.7367599 C65.9015927,56.9188653 65.4839289,58.0686007 65.0438172,59.1626911 C64.9167707,59.4775858 65.0753716,59.8320645 65.3983894,59.9555915 C65.4722926,59.9846583 65.5511764,60 65.6300517,60 C65.8882857,59.9991926 66.1199692,59.8449711 66.213799,59.6108155 C66.616519,58.6168531 66.9993209,57.5720205 67.3588673,56.500523 L67.3596976,56.500523 C68.5836517,56.315619 69.7428561,55.8384257 70.7317467,55.1125392 C70.8704168,55.0180688 70.9642593,54.8735467 70.99166,54.7104357 C71.0190629,54.5481391 70.9783742,54.3818158 70.8778993,54.2485737 L70.8778598,54.2486522 Z" id="路径"></path>
                            <path d="M53.0806021,75.0475457 C51.0717323,76.0043452 48.8710313,76.6449987 46.5878852,76.938119 C46.2384859,76.9591017 45.9766339,77.2136926 46.0016535,77.506043 C46.026671,77.7990917 46.3302173,78.0194109 46.678784,77.9984264 C46.709638,78.0005245 46.7413267,78.0005245 46.7721806,77.9984264 C49.2079635,77.6864881 51.5553665,77.0031673 53.6976173,75.981982 C53.9869866,75.8337084 54.0853785,75.5196788 53.9194422,75.2713743 C53.7534972,75.0223894 53.3832497,74.9286575 53.080538,75.0580559 L53.0806021,75.0475457 Z" id="路径"></path>
                            <path d="M62.7159183,65.0879026 C62.4441961,64.91043 62.0947176,65.0100489 61.9339296,65.3114256 C60.8666345,67.3339554 59.6000791,69.2176138 58.1568328,70.9286472 C57.9394473,71.1831377 57.9492634,71.5849648 58.178722,71.8260611 C58.4074309,72.0671574 58.76974,72.0562705 58.9871255,71.8017843 C60.4891915,70.0245298 61.8071465,68.0672567 62.917455,65.9661831 C62.9967108,65.8205202 63.0201092,65.6455572 62.9823692,65.4806473 C62.9446291,65.3157375 62.848767,65.1742515 62.7159222,65.0880355 L62.7159183,65.0879026 Z" id="路径"></path>
                            <path d="M24.067793,65.3199961 C23.9916395,65.1718276 23.8657168,65.0646802 23.7179381,65.0211561 C23.5694009,64.9776277 23.4118224,65.0019028 23.2798716,65.0881245 C23.1479228,65.1751835 23.0536676,65.316653 23.0167229,65.4823919 C22.9797763,65.6473014 23.0046589,65.8222487 23.0853369,65.967072 C24.1944684,68.0690456 25.5116405,70.0261101 27.0137483,71.8024348 C27.1208164,71.928837 27.2708554,72.0008286 27.4269341,72 C27.6561493,72.0008299 27.8627422,71.8501506 27.9532316,71.6174262 C28.0437113,71.3838831 28.0007327,71.1134805 27.8431484,70.9293334 C26.39999,69.2224844 25.1332935,67.3406817 24.0678046,65.3198418 L24.067793,65.3199961 Z" id="路径"></path>
                            <path d="M40.4137887,76.9517837 C38.1360246,76.6614853 35.9412896,76.0222751 33.9387987,75.0676134 C33.6344227,74.9245579 33.250211,75.0159742 33.0805762,75.271376 C32.9100941,75.526785 33.0190368,75.8491859 33.3234043,75.9915303 C35.4606577,77.0075746 37.8008001,77.6879625 40.2299326,77.9984298 C40.2607023,78.0005234 40.2923044,78.0005234 40.3230741,77.9984298 C40.6706892,78.020062 40.9734046,77.8002409 40.9983559,77.5078524 C41.0233051,77.2161606 40.7613399,76.9621451 40.4137249,76.9412079 L40.4137887,76.9517837 Z" id="路径"></path>
                            <path d="M19.7220006,55.7407564 L19.5779386,55.314427 L19.1182822,55.314427 C19.103293,55.314427 17.6568342,55.2974386 16.0088546,54.1228128 L16.0096873,54.1228128 C15.7307213,53.9197606 15.3351679,53.973962 15.1261673,54.2449668 C14.9171667,54.5159716 14.9737784,54.9002417 15.2519087,55.1032794 C16.2445124,55.8305412 17.4060816,56.3086448 18.6344185,56.4938929 C18.9949893,57.5682074 19.3788819,58.6149781 19.7827494,59.6100782 C19.8768487,59.8446774 20.1091689,59.9991923 20.36816,60 C20.4481021,60 20.5263792,59.9846295 20.6004824,59.9555073 C20.9244077,59.8317339 21.0834605,59.4757883 20.9560648,59.1611048 C20.5272128,58.0770774 20.1083375,56.9250808 19.7219507,55.7406943 L19.7220006,55.7407564 Z" id="路径"></path>
                            <path d="M22.8890596,35.5586602 C22.9064201,35.5404776 24.6779946,33.6243594 30.1556094,33.6243594 C35.9183119,33.6243594 39.0151032,35.752609 39.0407105,35.7707848 C39.6119439,36.180338 40.3915066,36.0261986 40.7817112,35.4270411 C40.9693683,35.1395758 41.0396466,34.786323 40.978462,34.4443083 C40.9164606,34.1022935 40.727976,33.8001324 40.4535122,33.6035681 C40.3055359,33.4988003 36.7451084,31 30.155565,31 C23.4883531,31 21.2357565,33.5481542 21,33.8391881 L22.9146013,35.5344998 L22.8890596,35.5586602 Z" id="路径"></path>
                            <path d="M37.8782107,38.8312168 C31.9070427,35.2940664 30.2513438,35.1787799 24.3213312,37.8857616 L24.3213312,37.8865909 C23.5695184,38.230773 23.0620156,38.9871415 23.0052856,39.8488389 C22.9485456,40.7097083 23.3520403,41.5332529 24.0510369,41.9836557 C27.211128,44.0147359 29.2600226,45 31.3980873,45 C33.2106206,45 35.0861379,44.2983661 37.756197,42.9465207 L37.7569852,42.9465207 C38.4945953,42.5716592 38.9729464,41.7962037 38.998951,40.9345063 C39.0241688,40.0719809 38.5931061,39.266674 37.8783332,38.8437022 L37.8782107,38.8312168 Z M25.6090522,40.0329563 C30.4508669,37.8435748 31.4446494,37.9214303 36.3889492,40.8274775 C31.6851262,43.1877718 30.4004314,43.089895 25.6090522,40.0329563 Z" id="形状"></path>
                            <path d="M46.2499575,36 C46.4980002,36.0008595 46.741069,35.9228568 46.9461238,35.7772554 C46.9758873,35.7564549 50.0812112,33.6261385 55.8374787,33.6261385 C61.3107587,33.6261385 63.0819179,35.5441122 63.1049887,35.5623279 L63.0851457,35.538927 L65,33.8419602 C64.7643605,33.550753 62.5113181,31 55.8432252,31 C49.2528111,31 45.6918667,33.500499 45.5439173,33.6061101 L45.5430906,33.6043768 C45.0908396,33.9302626 44.8932351,34.5274093 45.0569319,35.0768756 C45.2198096,35.6263642 45.7051364,36.0007734 46.254962,35.9999081 L46.2499575,36 Z" id="路径"></path>
                            <path d="M61.6785525,37.8885681 C55.7477563,35.1775592 54.0999318,35.2930163 48.1217264,38.8354225 L48.1209384,38.8345917 C47.4069551,39.2581895 46.9751073,40.0646881 47.0011118,40.9276607 C47.0263295,41.7914625 47.5054655,42.5680443 48.2430727,42.9434818 C50.9137265,44.298157 52.7814492,45 54.6011574,45 C56.7509146,45 58.7881001,44.0257378 61.9481787,41.9791919 C62.6479796,41.5281864 63.0514626,40.703423 62.9947127,39.8412159 C62.9379729,38.9782433 62.4304619,38.2207555 61.6786723,37.876064 L61.6785525,37.8885681 Z M49.6119908,40.8413351 C54.5562711,37.9285422 55.5500496,37.8528465 60.3918453,40.0456381 C55.599678,43.0996162 54.314383,43.1976377 49.6119908,40.8413351 Z" id="形状"></path>
                            <path d="M82.1588777,66 C81.1423625,66 80.3177956,66.8245887 80.3177956,67.8419139 L80.3177956,77.317831 L70.8418908,77.317831 C69.8245669,77.317831 69,78.142399 69,79.1589155 C69,80.1762407 69.8245669,81 70.8418908,81 L82.1597278,81 L82.1589179,81 C82.647342,81 83.1155076,80.8064154 83.4613546,80.4613539 C83.8064136,80.1154857 84,79.6473195 84,79.1589155 L84,67.8418932 C84,67.3534684 83.8064157,66.8853023 83.4613546,66.5394548 C83.1154868,66.1943953 82.6473213,66 82.1589179,66 L82.1588777,66 Z" id="路径"></path>
                            <path d="M70.8419139,3.68299841 L80.317831,3.68299841 L80.317831,13.1589155 C80.317831,14.1762407 81.142399,15 82.1589155,15 C83.1762407,15 84,14.1762407 84,13.1589155 L84,1.84189318 C84,1.35346843 83.8064154,0.884493577 83.4613539,0.539454822 C83.1154857,0.194395332 82.6473195,0 82.1589155,0 L70.8418932,0 C69.824568,0 69,0.824567976 69,1.84189318 C69,2.8584097 69.824568,3.68297767 70.8418932,3.68297767 L70.8419139,3.68299841 Z" id="路径"></path>
                            <path d="M4.84110268,15 C5.32952676,15 5.79769228,14.8063947 6.14273056,14.4605244 C6.48859825,14.115465 6.68218463,13.6472988 6.68218463,13.1588948 L6.68218463,3.68297767 L16.1589181,3.68297767 C17.1754332,3.68297767 18,2.8584097 18,1.84189318 C18,0.824567976 17.1754332,0 16.1589181,0 L4.84108195,0 C3.82456684,0 3,0.824567976 3,1.84189318 L3,13.1589155 C3,14.1762407 3.82456684,15 4.84108195,15 L4.84110268,15 Z" id="路径"></path>
                            <path d="M16.1588973,77.3177956 L6.6821639,77.3177956 L6.6821639,67.8418908 C6.6821639,66.8245669 5.85759706,66 4.84108195,66 C3.82456684,66 3,66.8245669 3,67.8418908 L3,79.1597278 L3,79.1589179 C3,80.1762418 3.82456684,81 4.84108195,81 L16.1589181,81 C17.1754332,81 18,80.1762418 18,79.1589179 C18,78.1424027 17.1754332,77.3178358 16.1589181,77.3178358 L16.1588973,77.3177956 Z" id="路径"></path>
                            <path d="M84.1729056,46.3495628 L75.7088758,46.3495628 C75.8712425,45.5385761 76.010291,44.6842167 76.1252354,43.7864641 C76.6420735,39.5034645 75.9861786,36.4120826 74.1760166,34.6013251 L74.1768206,34.6021282 C73.4115947,33.8296836 72.4293615,33.3085538 71.3602101,33.1078267 C71.3602101,23.2001525 68.8242729,15.5848574 63.8077513,10.4738714 C59.0091425,5.58468217 51.8118466,3 43.0000617,3 C34.1888941,3 26.9915983,5.58468217 22.1841413,10.4812715 C17.1676197,15.5920519 14.6316825,23.2001525 14.6316825,33.1152268 C13.564239,33.3143608 12.5820057,33.8330753 11.8158951,34.6023132 C10.0129804,36.4129885 9.35794561,39.5036304 9.86667633,43.7874523 C9.97358119,44.6795314 10.1126359,45.5338908 10.2830359,46.3505509 L1.8270312,46.349748 C0.817471404,46.349748 0,47.1671686 0,48.174874 C0,49.183381 0.817471404,50 1.8270312,50 L84.1729688,50 C85.1817261,50 86,49.183381 86,48.174874 C86,47.1671686 85.1817261,46.349748 84.1729688,46.349748 L84.1729056,46.3495628 Z M23.9248496,12.1858776 C28.3248775,7.70533702 34.7414735,5.43454141 43.0005541,5.43454141 C51.2596348,5.43454141 57.6762308,7.70533702 62.0762587,12.1858776 C66.8098435,17.0068217 69.1118176,24.4173813 68.9198321,34.2093266 L68.8780336,35.601651 L70.2621812,35.4434682 L70.2621812,35.4426653 C71.0957234,35.4193797 71.901116,35.7477951 72.4789656,36.3483935 C73.6967257,37.5969919 74.1114803,40.0693985 73.6967257,43.4987171 L73.6975297,43.4987171 C73.5866061,44.4574587 73.4242436,45.4097662 73.2104256,46.3508298 L12.7915786,46.3508298 C12.5777607,45.4097662 12.4146038,44.4574587 12.3044745,43.4987171 C11.89293,40.0691929 12.3044745,37.5969508 13.5222347,36.3483935 C14.093726,35.7526051 14.8894884,35.4233839 15.7149438,35.4426653 L17.0990913,35.5984389 L17.0725652,34.2085196 C16.8893004,24.4180132 19.1914021,17.0074536 23.9249868,12.1871262 L23.9248496,12.1858776 Z" id="形状"></path>
                        </g>
                    </g>
                </g>
            </g>
        </g>
    </g>
</svg>