<?xml version="1.0" encoding="UTF-8"?>
<svg width="160px" height="160px" viewBox="0 0 160 160" version="1.1" xmlns="http://www.w3.org/2000/svg" xmlns:xlink="http://www.w3.org/1999/xlink">
    <title>编组 17</title>
    <defs>
        <linearGradient x1="0%" y1="50%" x2="100%" y2="50%" id="linearGradient-1">
            <stop stop-color="#CBD675" offset="0%"></stop>
            <stop stop-color="#D7B786" offset="57.6072853%"></stop>
            <stop stop-color="#BD9A84" offset="100%"></stop>
        </linearGradient>
        <polygon id="path-2" points="0 0 15 0 15 15 0 15"></polygon>
        <polygon id="path-4" points="0 0 15 0 15 15 0 15"></polygon>
        <polygon id="path-6" points="0 0 15 0 15 15 0 15"></polygon>
        <polygon id="path-8" points="0 0 15 0 15 15 0 15"></polygon>
        <polygon id="path-10" points="0 0 56 0 56 100 0 100"></polygon>
    </defs>
    <g id="页面-1" stroke="none" stroke-width="1" fill="none" fill-rule="evenodd">
        <g id="核心技术" transform="translate(-1448.000000, -1177.000000)">
            <g id="编组-17" transform="translate(1448.000000, 1177.000000)">
                <circle id="椭圆形" fill="url(#linearGradient-1)" cx="80" cy="80" r="80"></circle>
                <g id="人体" transform="translate(36.000000, 30.000000)">
                    <g id="Clipped">
                        <mask id="mask-3" fill="white">
                            <use xlink:href="#path-2"></use>
                        </mask>
                        <g id="路径"></g>
                        <path d="M1.642,14.8417548 C2.46076,14.8417548 3.12168,14.1781679 3.12168,13.3579002 L3.12168,2.96927356 L13.48108,2.96927356 C14.29984,2.96927356 14.96076,2.30568667 14.96076,1.48541898 C14.96076,0.664349035 14.29904,0.00156440118 13.48108,0.00156440118 L1.64208,0.000780997205 C0.82332,0.000780997205 0.16162,0.664367888 0.16162,1.48463557 L0.16162,13.3578389 C0.16162,14.1781065 0.82334,14.8417548 1.64208,14.8417548 L1.642,14.8417548 Z" id="路径" fill="#FFFFFF" fill-rule="nonzero" mask="url(#mask-3)"></path>
                    </g>
                    <g id="Clipped" transform="translate(0.000000, 84.000000)">
                        <mask id="mask-5" fill="white">
                            <use xlink:href="#path-4"></use>
                        </mask>
                        <g id="路径"></g>
                        <path d="M13.482,12.0312061 L3.1226,12.0312061 L3.1226,1.64313505 C3.1226,0.822109021 2.46088,0.159359833 1.64292,0.159359833 C0.82416,0.159359833 0.16324,0.822911235 0.16324,1.64313505 L0.16324,13.5157033 C0.16324,14.3367294 0.82496,14.9994786 1.64292,14.9994786 L13.48272,14.9994786 C14.30148,14.9994786 14.9624,14.3359272 14.9624,13.5157033 C14.9624,12.6946773 14.30068,12.031146 13.48194,12.031146 L13.482,12.0312061 Z" id="路径" fill="#FFFFFF" fill-rule="nonzero" mask="url(#mask-5)"></path>
                    </g>
                    <g id="Clipped" transform="translate(73.000000, 0.000000)">
                        <mask id="mask-7" fill="white">
                            <use xlink:href="#path-6"></use>
                        </mask>
                        <g id="路径"></g>
                        <path d="M13.358,0 L1.5182,0 C0.69944,0 0.03852,0.663586891 0.03852,1.48385458 C0.03852,2.30492452 0.70024,2.96770916 1.5182,2.96770916 L11.8776,2.96770916 L11.8776,13.3563358 C11.8776,14.1774058 12.53932,14.8401904 13.35728,14.8401904 C14.17604,14.8401904 14.83696,14.1766035 14.83696,13.3563358 L14.8377412,1.4839348 C14.8377412,0.663667117 14.1768012,0 13.3580612,0 L13.358,0 Z" id="路径" fill="#FFFFFF" fill-rule="nonzero" mask="url(#mask-7)"></path>
                    </g>
                    <g id="Clipped" transform="translate(73.000000, 84.000000)">
                        <mask id="mask-9" fill="white">
                            <use xlink:href="#path-8"></use>
                        </mask>
                        <g id="路径"></g>
                        <path d="M13.358,0.158437287 C12.53924,0.158437287 11.87832,0.821988689 11.87832,1.64221251 L11.87832,12.0302836 L1.51892,12.0302836 C0.70016,12.0302836 0.03924,12.693835 0.03924,13.5140588 C0.03924,14.3350848 0.70096,14.997834 1.51892,14.997834 L13.35872,14.997834 C14.17748,14.997834 14.8384,14.3342826 14.8384,13.5140588 L14.8384,1.64149051 C14.8376188,0.822048855 14.17668,0.158437287 13.35794,0.158437287 L13.358,0.158437287 Z" id="路径" fill="#FFFFFF" fill-rule="nonzero" mask="url(#mask-9)"></path>
                    </g>
                    <g id="Clipped" transform="translate(16.000000, 0.000000)">
                        <mask id="mask-11" fill="white">
                            <use xlink:href="#path-10"></use>
                        </mask>
                        <g id="路径"></g>
                        <path d="M51.1940299,50.2217154 L51.1940299,37.2775455 C53.8548657,36.5789096 55.8326269,34.1538916 55.8326269,31.2496305 C55.8326269,27.8026944 53.0591642,24.9997888 49.6479701,24.9997888 C46.7731642,24.9997888 44.3735224,26.998353 43.6829254,29.6872756 L33.9665075,29.6872756 C33.4033104,27.5013725 31.7104179,25.7890958 29.5475224,25.2217154 L29.5475224,21.7342371 C33.9282687,20.9877529 37.2788657,17.1373369 37.2788657,12.5003167 L37.2780495,9.37497361 C37.2780495,4.20499176 33.1169152,0 28.0008555,0 C22.8847958,0 18.7236614,4.20499176 18.7236614,9.37497361 L18.7236614,12.5003167 C18.7236614,17.1358588 22.0742584,20.986317 26.4550047,21.7342371 L26.4550047,25.2217154 C24.2919002,25.7908484 22.5974823,27.5015837 22.0360196,29.6872756 L12.3196017,29.6872756 C11.6282525,26.9983952 9.2285271,24.9997888 6.35455696,24.9997888 C2.94357188,24.9997888 0.169900239,27.8024832 0.169900239,31.2496305 C0.169900239,34.1547363 2.14761964,36.5796697 4.80849725,37.2775455 L4.80849725,50.2217154 C2.14766143,50.9203514 0.169900239,53.3453693 0.169900239,56.2496305 C0.169900239,59.6965666 2.94336293,62.4994721 6.35455696,62.4994721 C9.76575099,62.4994721 12.5392137,59.6967777 12.5392137,56.2496305 C12.5392137,53.3445247 10.5614943,50.9195912 7.90061666,50.2217154 L7.90061666,37.2775455 C10.0637211,36.7084125 11.758139,34.9976773 12.3196017,32.8119853 L22.0360196,32.8119853 C22.5992167,34.9978884 24.2921092,36.7101651 26.4550047,37.2775455 L26.4550047,47.0963723 C23.7941689,47.7950082 21.8164077,50.2200262 21.8164077,53.1242873 C21.8164077,53.9153047 21.977205,54.665083 22.2433032,55.3621352 L16.2799301,59.6670045 C15.8726346,59.9598167 15.6318346,60.4332742 15.6318346,60.9380675 L15.6318346,68.972824 C12.9709987,69.6714599 10.9932376,72.0964779 10.9932376,75.0007391 C10.9932376,77.9058448 12.970957,80.3307783 15.6318346,81.0286541 L15.6318346,87.7221378 C12.9709987,88.4207737 10.9932376,90.8457916 10.9932376,93.7500528 C10.9932376,97.1969889 13.7667002,99.9998944 17.1778943,99.9998944 C20.5890883,99.9998944 23.362551,97.1972001 23.362551,93.7500528 C23.362551,90.844947 21.3848316,88.4200135 18.723954,87.7221378 L18.723954,81.0286541 C21.3847898,80.3300182 23.362551,77.9050002 23.362551,75.0007391 C23.362551,72.0956333 21.3848316,69.6706998 18.723954,68.972824 L18.723954,61.7432113 L24.0523122,57.8961316 C25.1272823,58.8051016 26.4929092,59.3750581 28.001148,59.3750581 C29.5103689,59.3750581 30.875954,58.8051016 31.9499838,57.8953081 L37.278342,61.7423878 L37.278342,68.9720005 C34.6175062,69.6706364 32.639745,72.0956544 32.639745,74.9999155 C32.639745,77.9050213 34.6174644,80.3299548 37.278342,81.0278306 L37.278342,87.7213142 C34.6175062,88.4199502 32.639745,90.8449681 32.639745,93.7492293 C32.639745,97.1961654 35.4132077,99.9998944 38.8244017,99.9998944 C42.2355958,99.9998944 45.0090584,97.1963765 45.0090584,93.7492293 C45.0090584,90.8441235 43.031339,88.41919 40.3704614,87.7213142 L40.3704614,81.0278306 C43.0312973,80.3291946 45.0090584,77.9041767 45.0090584,74.9999155 C45.0090584,72.0948097 43.031339,69.6698763 40.3704614,68.9720005 L40.3712778,60.9380886 C40.3712778,60.4332953 40.1296838,59.9598378 39.7231823,59.6678491 L33.7598092,55.3629799 C34.0258927,54.665991 34.1867047,53.9162127 34.1867047,53.125132 C34.1867047,50.2200262 32.2089853,47.7950927 29.5481077,47.0972169 L29.5481077,37.2783901 C31.7112121,36.7092571 33.4056301,34.9985219 33.9670927,32.8128299 L43.6835107,32.8128299 C44.2467077,34.9987331 45.9396002,36.7110098 48.1024957,37.2783901 L48.1024957,50.2225601 C45.4416599,50.921196 43.4638987,53.3462139 43.4638987,56.2504751 C43.4638987,59.6974112 46.2373614,62.5003167 49.6485554,62.5003167 C53.0595405,62.5003167 55.8332121,59.6976224 55.8332121,56.2504751 C55.8332121,53.3453693 53.8554927,50.9204358 51.1946151,50.2217154 L51.1940299,50.2217154 Z M20.2707463,93.7497361 C20.2707463,95.472824 18.8839731,96.8750792 17.178,96.8750792 C15.4728836,96.8750792 14.0852537,95.4736898 14.0852537,93.7497361 C14.0852537,92.0266481 15.4720269,90.6243929 17.178,90.6243929 C18.8839313,90.6252177 20.2707463,92.0266059 20.2707463,93.7497361 Z M20.2707463,75.0004223 C20.2707463,76.7235103 18.8839731,78.1257654 17.178,78.1257654 C15.4728836,78.1257654 14.0852537,76.724376 14.0852537,75.0004223 C14.0852537,73.2773343 15.4720269,71.8750792 17.178,71.8750792 C18.8839731,71.8750792 20.2707463,73.2764686 20.2707463,75.0004223 Z M41.9164179,93.7497361 C41.9164179,95.472824 40.5296448,96.8750792 38.8236716,96.8750792 C37.1185552,96.8750792 35.7309254,95.4736898 35.7309254,93.7497361 C35.7309254,92.0266481 37.1176985,90.6243929 38.8236716,90.6243929 C40.529603,90.6252177 41.9164179,92.0266059 41.9164179,93.7497361 Z M41.9164179,75.0004223 C41.9164179,76.7235103 40.5296448,78.1257654 38.8236716,78.1257654 C37.1185552,78.1257654 35.7309254,76.724376 35.7309254,75.0004223 C35.7309254,73.2773343 37.1176985,71.8750792 38.8236716,71.8750792 C40.5296448,71.8750792 41.9164179,73.2764686 41.9164179,75.0004223 Z M21.8159701,12.4998944 L21.8159701,9.37455129 C21.8159701,5.92761519 24.5894328,3.12470966 28.0006269,3.12470966 C31.4118209,3.12470966 34.1852836,5.92740403 34.1852836,9.37455129 L34.1852836,12.4998944 C34.1852836,15.9468305 31.4118209,18.7497361 28.0006269,18.7497361 C24.5894328,18.7497361 21.8159701,15.9461971 21.8159701,12.4998944 Z M9.44602985,56.2496305 C9.44602985,57.9727184 8.05925672,59.3749736 6.35328358,59.3749736 C4.64816716,59.3749736 3.26053731,57.9735842 3.26053731,56.2496305 C3.26053731,54.5265425 4.64731045,53.1242873 6.35328358,53.1242873 C8.05921493,53.1242873 9.44602985,54.5256768 9.44602985,56.2496305 Z M6.3541194,34.3737067 C4.64900299,34.3737067 3.26137313,32.9723172 3.26137313,31.2483635 C3.26137313,29.5252756 4.64814627,28.1230204 6.3541194,28.1230204 C8.05923582,28.1230204 9.44686567,29.5244098 9.44686567,31.2483635 C9.44604949,32.972275 8.05927761,34.3737067 6.3541194,34.3737067 Z M31.0923284,53.123865 C31.0923284,53.7969298 30.8760179,54.4163816 30.5168866,54.9269606 C30.5136216,54.9302599 30.5103567,54.9319095 30.5095405,54.9343841 C30.507908,54.9360336 30.507908,54.9376834 30.5062756,54.9393332 C29.9438935,55.7287035 29.0329741,56.2491647 27.9996487,56.2491647 C26.9671174,56.2491647 26.056198,55.7287035 25.4930219,54.9409802 C25.4913895,54.9393306 25.4913895,54.9376809 25.489757,54.9360311 C25.486492,54.932732 25.4832271,54.9310822 25.4807784,54.9286076 C25.1240918,54.4163816 24.9077813,53.7969298 24.9077813,53.123865 C24.9077813,51.4007771 26.2945545,49.9985219 28.0005276,49.9985219 C29.705644,49.9985219 31.0924381,51.4007348 31.0924381,53.123865 L31.0923284,53.123865 Z M27.9995821,34.3737067 C26.2944657,34.3737067 24.9068358,32.9723172 24.9068358,31.2483635 C24.9068358,29.5252756 26.293609,28.1230204 27.9995821,28.1230204 C29.7046985,28.1230204 31.0923284,29.5244098 31.0923284,31.2483635 C31.0923284,32.9723172 29.7055552,34.3737067 27.9995821,34.3737067 Z M46.5541791,31.2483635 C46.5541791,29.5252756 47.9409522,28.1230204 49.6469254,28.1230204 C51.3520418,28.1230204 52.7396716,29.5244098 52.7396716,31.2483635 C52.7396716,32.9714515 51.3528985,34.3737067 49.6469254,34.3737067 C47.940994,34.3737067 46.5541791,32.9723172 46.5541791,31.2483635 Z M49.6469254,59.3745513 C47.941809,59.3745513 46.5541791,57.9731619 46.5541791,56.2492082 C46.5541791,54.5261202 47.9409522,53.123865 49.6469254,53.123865 C51.3520418,53.123865 52.7396716,54.5252544 52.7396716,56.2492082 C52.7396716,57.9731196 51.3520836,59.3745513 49.6469254,59.3745513 Z" id="形状" fill="#FFFFFF" fill-rule="nonzero" mask="url(#mask-11)"></path>
                    </g>
                </g>
            </g>
        </g>
    </g>
</svg>