<?xml version="1.0" encoding="UTF-8"?>
<svg width="160px" height="160px" viewBox="0 0 160 160" version="1.1" xmlns="http://www.w3.org/2000/svg" xmlns:xlink="http://www.w3.org/1999/xlink">
    <title>编组 16</title>
    <defs>
        <linearGradient x1="0%" y1="50%" x2="100%" y2="50%" id="linearGradient-1">
            <stop stop-color="#75D5D6" offset="0%"></stop>
            <stop stop-color="#A0D786" offset="57.6072853%"></stop>
            <stop stop-color="#B8BD84" offset="100%"></stop>
        </linearGradient>
        <polygon id="path-2" points="0 0 10 0 10 10 0 10"></polygon>
        <polygon id="path-4" points="0 0 10 0 10 10 5.38402118e-15 10"></polygon>
        <polygon id="path-6" points="0 0 10 0 10 10 5.38402118e-15 10"></polygon>
        <polygon id="path-8" points="0 0 10 0 10 10 0 10"></polygon>
    </defs>
    <g id="页面-1" stroke="none" stroke-width="1" fill="none" fill-rule="evenodd">
        <g id="核心技术" transform="translate(-1070.000000, -1177.000000)">
            <g id="编组-20" transform="translate(1063.000000, 1177.000000)">
                <g id="编组-16" transform="translate(7.000000, 0.000000)">
                    <g id="编组-9" fill="url(#linearGradient-1)">
                        <rect id="矩形" x="0" y="0" width="160" height="160" rx="80"></rect>
                    </g>
                    <g id="人体扫描备份" transform="translate(49.000000, 45.000000)">
                        <g id="Clipped" transform="translate(53.000000, 0.000000)">
                            <mask id="mask-3" fill="white">
                                <use xlink:href="#path-2"></use>
                            </mask>
                            <g id="路径"></g>
                            <path d="M1.58998352,0 C0.816036217,0 0.187846874,0.627498153 0.187846874,1.4015041 C0.187846874,2.17624884 0.816036217,2.80374699 1.58998352,2.80374699 L7.19640861,2.80374699 L7.19640861,8.4105969 C7.19640861,9.18460285 7.82385922,9.81210101 8.59780653,9.81210101 C9.37249257,9.81210101 9.99994317,9.18460285 9.99994317,8.4105969 L9.99994317,1.40156093 C9.99994317,1.03010097 9.85195954,0.67341681 9.58928267,0.410729508 C9.32661527,0.148042206 8.96997708,0 8.59778759,0 L1.58998352,0 Z" id="路径" fill="#FFFFFF" fill-rule="nonzero" mask="url(#mask-3)"></path>
                        </g>
                        <g id="Clipped">
                            <mask id="mask-5" fill="white">
                                <use xlink:href="#path-4"></use>
                            </mask>
                            <g id="路径"></g>
                            <path d="M8.41084317,-5.68300215e-05 L1.40180719,-5.68300215e-05 C0.627801246,-5.68300215e-05 0.000303093448,0.627498153 0.000303093448,1.4015041 L0.000303093448,8.41054007 C0.000303093448,9.18454602 0.627801246,9.81204418 1.40180719,9.81204418 C2.17655193,9.81204418 2.80405009,9.18454602 2.80405009,8.41054007 L2.80405009,2.80369016 L8.4109,2.80369016 C9.18490595,2.80369016 9.8124041,2.17619201 9.8124041,1.40144727 C9.8124041,0.627441323 9.18490595,-5.68300215e-05 8.4109,-5.68300215e-05 L8.41084317,-5.68300215e-05 Z" id="路径" fill="#FFFFFF" fill-rule="nonzero" mask="url(#mask-5)"></path>
                        </g>
                        <g id="Clipped" transform="translate(0.000000, 61.000000)">
                            <mask id="mask-7" fill="white">
                                <use xlink:href="#path-6"></use>
                            </mask>
                            <g id="路径"></g>
                            <path d="M8.41084317,7.19602978 L2.80399326,7.19602978 L2.80399326,1.58960468 C2.80399326,0.815657379 2.1764951,0.187468036 1.40175036,0.187468036 C0.627744416,0.187468036 0.000246263426,0.815657379 0.000246263426,1.58960468 L0.000246263426,8.5981096 L0.000246263426,8.59736973 C0.000246263426,8.96954028 0.148241111,9.32619741 0.410937885,9.58886481 C0.673625187,9.85153221 1.0302904,9.99952532 1.40176931,9.99952532 L8.41080528,9.99952532 C9.18481123,9.99952532 9.81230938,9.37207471 9.81230938,8.59738867 C9.81230938,7.82344137 9.18481123,7.19599076 8.41080528,7.19599076 L8.41084317,7.19602978 Z" id="路径" fill="#FFFFFF" fill-rule="nonzero" mask="url(#mask-7)"></path>
                        </g>
                        <g id="Clipped" transform="translate(53.000000, 61.000000)">
                            <mask id="mask-9" fill="white">
                                <use xlink:href="#path-8"></use>
                            </mask>
                            <g id="路径"></g>
                            <path d="M8.59773076,0.187524861 C7.82378346,0.187524861 7.19633285,0.815714205 7.19633285,1.58966151 L7.19633285,7.1960866 L1.58990775,7.1960866 C0.815960449,7.1960866 0.187771106,7.82353721 0.187771106,8.59748451 C0.187771106,9.37217055 0.815960449,9.99962116 1.58990775,9.99962116 L8.59841267,9.99962116 L8.5976728,9.99962116 C8.96984335,9.99962116 9.32650048,9.85163753 9.58916788,9.58896066 C9.85183528,9.32628379 9.99982839,8.96965507 9.99982839,8.59746557 L9.99982839,1.58971833 C9.99982839,1.21754778 9.85184475,0.861629383 9.58916788,0.598223249 C9.32650048,0.33555585 8.96986229,0.187524861 8.5976728,0.187524861 L8.59773076,0.187524861 Z" id="路径" fill="#FFFFFF" fill-rule="nonzero" mask="url(#mask-9)"></path>
                        </g>
                        <path d="M48.5824348,52.13132 L38.7902393,52.13132 L38.7902393,42.6524666 C40.6277819,41.295631 41.7224392,39.1384563 41.7410181,36.8359063 L41.7410181,31.0269055 C41.7297953,29.5080443 41.2502112,28.0300433 40.3688466,26.7995873 C39.4874819,25.5691894 38.249327,24.647646 36.8254604,24.1638372 C38.0794169,22.7645908 38.7459757,20.927009 38.6854317,19.039263 C38.6248283,17.1516527 37.8407267,15.3616571 36.5000243,14.0480464 C35.1592836,12.7343776 33.3659472,12 31.499253,12 C29.6332867,12 27.8399885,12.7344551 26.4992478,14.0480464 C25.1577601,15.3617152 24.3743653,17.1517109 24.3138405,19.039263 C24.2524901,20.9268733 24.9198744,22.7645521 26.1730648,24.1638372 C24.7500217,24.6476654 23.5111199,25.5683753 22.6304448,26.7988119 C21.7490801,28.0292098 21.2694972,29.5080249 21.2582733,31.0267116 L21.2582733,36.8357125 C21.256777,39.1716018 22.3962557,41.3566886 24.3011801,42.6749513 L24.3011801,52.1311262 L14.417048,52.1311262 C13.6344577,52.1311262 13,52.7739561 13,53.5659411 C13,54.357926 13.6344577,55 14.417048,55 L48.582952,55 C49.3655423,55 50,54.357926 50,53.5659411 C50,52.7739561 49.3655423,52.1311262 48.582952,52.1311262 L48.5824348,52.13132 Z M31.4992913,14.9171965 C32.6544735,14.9179536 33.7611209,15.3820872 34.5772489,16.2089234 C35.393511,17.0349843 35.8521401,18.1555948 35.8521401,19.3238302 C35.8521401,20.4921238 35.393511,21.6128119 34.5764828,22.4395124 C33.7602207,23.2655733 32.6529029,23.729708 31.4985252,23.729708 C30.3441474,23.729708 29.2366956,23.2655733 28.4198014,22.4395124 C27.6035393,21.6142075 27.1449103,20.4936163 27.1441441,19.3253809 C27.1456404,18.1563314 27.6042672,17.0358178 28.4212954,16.2096987 C29.2375575,15.3836378 30.3448753,14.9187278 31.499253,14.9171965 L31.4992913,14.9171965 Z M27.1359464,52.13132 L27.1359464,41.8792642 C27.1359464,41.3545565 26.8523798,40.8714842 26.3974856,40.6201014 C25.7091493,40.261199 25.1308113,39.719085 24.7252947,39.0520259 C24.3190311,38.3857227 24.1005669,37.6194788 24.0930779,36.8357318 L24.0930779,31.026731 C24.1080416,29.8387439 24.5876197,28.7051853 25.4278428,27.8746081 C26.2672997,27.0439921 27.3985401,26.5844125 28.5732205,26.5962742 L34.4255537,26.5962742 L34.4248056,26.5962742 C35.5994476,26.5843931 36.730688,27.0439921 37.5709494,27.8738328 C38.4111533,28.7044488 38.8914832,29.8387245 38.9064612,31.026731 L38.9064612,36.8357318 C38.9012239,37.6140903 38.6902381,38.3757984 38.2966923,39.043691 C37.9023997,39.7122621 37.3397674,40.261199 36.6656621,40.6352398 C36.2264738,40.8919143 35.9563911,41.3658957 35.9571381,41.8792642 L35.9571381,52.1320954 L27.1359464,52.13132 Z" id="形状" fill="#FFFFFF" fill-rule="nonzero"></path>
                    </g>
                    <g id="编组备份-2" transform="translate(119.000000, 27.000000)" stroke="#FFFFFF" stroke-linecap="round" stroke-linejoin="round" stroke-width="2">
                        <line x1="0" y1="10" x2="9.44444444" y2="0.555555556" id="路径"></line>
                        <polyline id="路径" points="10 10 0 10 0 0"></polyline>
                    </g>
                    <g id="编组备份-7" transform="translate(124.000000, 129.000000) scale(1, -1) translate(-124.000000, -129.000000) translate(119.000000, 124.000000)" stroke="#FFFFFF" stroke-linecap="round" stroke-linejoin="round" stroke-width="2">
                        <line x1="0" y1="10" x2="9.44444444" y2="0.555555556" id="路径"></line>
                        <polyline id="路径" points="10 10 0 10 0 0"></polyline>
                    </g>
                    <g id="编组备份-3" transform="translate(40.000000, 32.000000) scale(-1, 1) translate(-40.000000, -32.000000) translate(35.000000, 27.000000)" stroke="#FFFFFF" stroke-linecap="round" stroke-linejoin="round" stroke-width="2">
                        <line x1="0" y1="10" x2="9.44444444" y2="0.555555556" id="路径"></line>
                        <polyline id="路径" points="10 10 0 10 0 0"></polyline>
                    </g>
                    <g id="编组备份-8" transform="translate(40.000000, 129.000000) scale(-1, -1) translate(-40.000000, -129.000000) translate(35.000000, 124.000000)" stroke="#FFFFFF" stroke-linecap="round" stroke-linejoin="round" stroke-width="2">
                        <line x1="0" y1="10" x2="9.44444444" y2="0.555555556" id="路径"></line>
                        <polyline id="路径" points="10 10 0 10 0 0"></polyline>
                    </g>
                </g>
            </g>
        </g>
    </g>
</svg>