<?xml version="1.0" encoding="UTF-8"?>
<svg width="160px" height="160px" viewBox="0 0 160 160" version="1.1" xmlns="http://www.w3.org/2000/svg" xmlns:xlink="http://www.w3.org/1999/xlink">
    <title>编组 15</title>
    <defs>
        <linearGradient x1="0%" y1="50%" x2="100%" y2="50%" id="linearGradient-1">
            <stop stop-color="#757FD6" offset="0%"></stop>
            <stop stop-color="#86AAD7" offset="57.6072853%"></stop>
            <stop stop-color="#84BDB8" offset="100%"></stop>
        </linearGradient>
        <polygon id="path-2" points="0 0 10 0 10 10 0 10"></polygon>
        <polygon id="path-4" points="0 0 10 0 10 10 5.38402118e-15 10"></polygon>
        <polygon id="path-6" points="0 0 10 0 10 10 5.38402118e-15 10"></polygon>
        <polygon id="path-8" points="0 0 10 0 10 10 0 10"></polygon>
    </defs>
    <g id="页面-1" stroke="none" stroke-width="1" fill="none" fill-rule="evenodd">
        <g id="核心技术" transform="translate(-681.000000, -1428.000000)">
            <g id="编组-15" transform="translate(681.000000, 1428.000000)">
                <g id="编组-8" fill="url(#linearGradient-1)">
                    <rect id="矩形" x="0" y="0" width="160" height="160" rx="80"></rect>
                </g>
                <g id="人体扫描" transform="translate(34.000000, 35.000000)">
                    <g id="Clipped" transform="translate(82.000000, 0.000000)">
                        <mask id="mask-3" fill="white">
                            <use xlink:href="#path-2"></use>
                        </mask>
                        <g id="路径"></g>
                        <path d="M8.59773076,0 L1.58998352,0 C0.816036217,0 0.187846874,0.627498153 0.187846874,1.4015041 C0.187846874,2.17624884 0.816036217,2.80374699 1.58998352,2.80374699 L7.19640861,2.80374699 L7.19640861,8.4105969 C7.19640861,9.18460285 7.82385922,9.81210101 8.59780653,9.81210101 C9.37249257,9.81210101 9.99994317,9.18460285 9.99994317,8.4105969 L9.99994317,1.40156093 C9.99994317,1.03010097 9.85195954,0.67341681 9.58928267,0.410729508 C9.32661527,0.148042206 8.96997708,0 8.59778759,0 L8.59773076,0 Z" id="路径" fill="#FFFFFF" fill-rule="nonzero" mask="url(#mask-3)"></path>
                    </g>
                    <g id="Clipped">
                        <mask id="mask-5" fill="white">
                            <use xlink:href="#path-4"></use>
                        </mask>
                        <g id="路径"></g>
                        <path d="M8.41084317,-5.68300215e-05 L1.40180719,-5.68300215e-05 C0.627801246,-5.68300215e-05 0.000303093448,0.627498153 0.000303093448,1.4015041 L0.000303093448,8.41054007 C0.000303093448,9.18454602 0.627801246,9.81204418 1.40180719,9.81204418 C2.17655193,9.81204418 2.80405009,9.18454602 2.80405009,8.41054007 L2.80405009,2.80369016 L8.4109,2.80369016 C9.18490595,2.80369016 9.8124041,2.17619201 9.8124041,1.40144727 C9.8124041,0.627441323 9.18490595,-5.68300215e-05 8.4109,-5.68300215e-05 L8.41084317,-5.68300215e-05 Z" id="路径" fill="#FFFFFF" fill-rule="nonzero" mask="url(#mask-5)"></path>
                    </g>
                    <g id="Clipped" transform="translate(0.000000, 81.000000)">
                        <mask id="mask-7" fill="white">
                            <use xlink:href="#path-6"></use>
                        </mask>
                        <g id="路径"></g>
                        <path d="M8.41084317,7.19602978 L2.80399326,7.19602978 L2.80399326,1.58960468 C2.80399326,0.815657379 2.1764951,0.187468036 1.40175036,0.187468036 C0.627744416,0.187468036 0.000246263426,0.815657379 0.000246263426,1.58960468 L0.000246263426,8.5981096 L0.000246263426,8.59736973 C0.000246263426,8.96954028 0.148241111,9.32619741 0.410937885,9.58886481 C0.673625187,9.85153221 1.0302904,9.99952532 1.40176931,9.99952532 L8.41080528,9.99952532 C9.18481123,9.99952532 9.81230938,9.37207471 9.81230938,8.59738867 C9.81230938,7.82344137 9.18481123,7.19599076 8.41080528,7.19599076 L8.41084317,7.19602978 Z" id="路径" fill="#FFFFFF" fill-rule="nonzero" mask="url(#mask-7)"></path>
                    </g>
                    <g id="Clipped" transform="translate(82.000000, 81.000000)">
                        <mask id="mask-9" fill="white">
                            <use xlink:href="#path-8"></use>
                        </mask>
                        <g id="路径"></g>
                        <path d="M8.59773076,0.187524861 C7.82378346,0.187524861 7.19633285,0.815714205 7.19633285,1.58966151 L7.19633285,7.1960866 L1.58990775,7.1960866 C0.815960449,7.1960866 0.187771106,7.82353721 0.187771106,8.59748451 C0.187771106,9.37217055 0.815960449,9.99962116 1.58990775,9.99962116 L8.59841267,9.99962116 L8.5976728,9.99962116 C8.96984335,9.99962116 9.32650048,9.85163753 9.58916788,9.58896066 C9.85183528,9.32628379 9.99982839,8.96965507 9.99982839,8.59746557 L9.99982839,1.58971833 C9.99982839,1.21754778 9.85184475,0.861629383 9.58916788,0.598223249 C9.32650048,0.33555585 8.96986229,0.187524861 8.5976728,0.187524861 L8.59773076,0.187524861 Z" id="路径" fill="#FFFFFF" fill-rule="nonzero" mask="url(#mask-9)"></path>
                    </g>
                    <path d="M69.122684,70.1973312 L56.1546412,70.1973312 L56.1546412,57.6323395 C58.5881436,55.8337435 60.0378249,52.9742327 60.0624293,49.9220153 L60.0624293,42.2217119 C60.0475668,40.2083378 59.4124419,38.2491272 58.2452292,36.6180575 C57.0780166,34.987065 55.438298,33.7654843 53.5526368,33.1241563 C55.2132818,31.2693413 56.0960219,28.8334771 56.015842,26.3311161 C55.9355834,23.828935 54.8971786,21.4561501 53.1216538,19.7148522 C51.3460783,17.9734772 48.9711192,17 46.4990108,17 C44.0278662,17 41.6529578,17.97358 39.8773823,19.7148522 C38.1008175,21.4562272 37.0633487,23.8290121 36.9831942,26.3311161 C36.9019464,28.8332972 37.7857797,31.2692899 39.4454101,33.1241563 C37.5608396,33.76551 35.9201317,34.9859858 34.7538322,36.6170298 C33.5866196,38.2480223 32.9514962,40.2083121 32.9366321,42.221455 L32.9366321,49.9217584 C32.9346506,53.0181699 34.4436899,55.9146803 36.9664276,57.6621448 L36.9664276,70.1970743 L23.8766311,70.1970743 C22.8402277,70.1970743 22,71.0491977 22,72.0990382 C22,73.1488787 22.8402277,74 23.8766311,74 L69.1233689,74 C70.1597723,74 71,73.1488787 71,72.0990382 C71,71.0491977 70.1597723,70.1970743 69.1233689,70.1970743 L69.122684,70.1973312 Z M47.0015837,21 C48.5934753,21.001031 50.1184839,21.6330417 51.2431441,22.7589449 C52.367989,23.8837923 53,25.4097281 53,27.0005147 C53,28.5913805 52.367989,30.1174218 51.2420883,31.2431402 C50.1172434,32.3679876 48.591311,33 47.0005279,33 C45.4097448,33 43.8836276,32.3679876 42.7579117,31.2431402 C41.6330668,30.1193222 41.0010558,28.5934129 41,27.0026262 C41.0020619,25.4107311 41.6340697,23.8849273 42.7599704,22.7600007 C43.8848154,21.6351533 45.4107477,21.0020852 47.0015309,21 L47.0015837,21 Z M41.1082695,69.9989677 L41.1082695,56.348735 C41.1082695,55.6501062 40.7254175,55.0069134 40.111251,54.6722064 C39.1819072,54.1943412 38.4010754,53.4725365 37.853575,52.5843719 C37.3050662,51.6972139 37.0101111,50.6769887 37,49.6334586 L37,41.8989891 C37.0202028,40.3172283 37.6676959,38.8079371 38.8021067,37.7020543 C39.935483,36.5961199 41.4628051,35.9842066 43.0487769,36 L50.9501902,36 L50.9491802,36 C52.5351002,35.9841808 54.0624224,36.5961199 55.1968848,37.7010219 C56.3312697,38.8069563 56.9797778,40.3172025 57,41.8989891 L57,49.6334586 C56.9929289,50.669814 56.7080705,51.6840001 56.1767325,52.5732744 C55.6443859,53.463452 54.8847589,54.1943412 53.9746289,54.6923626 C53.3816673,55.0341153 53.0170205,55.665204 53.018029,56.348735 L53.018029,70 L41.1082695,69.9989677 Z" id="形状" fill="#FFFFFF" fill-rule="nonzero"></path>
                </g>
            </g>
        </g>
    </g>
</svg>