<?xml version="1.0" encoding="UTF-8"?>
<svg width="105px" height="104px" viewBox="0 0 105 104" version="1.1" xmlns="http://www.w3.org/2000/svg" xmlns:xlink="http://www.w3.org/1999/xlink">
    <title>编组 40</title>
    <defs>
        <linearGradient x1="0%" y1="50%" x2="100%" y2="50%" id="linearGradient-1">
            <stop stop-color="#757FD6" offset="0%"></stop>
            <stop stop-color="#86AAD7" offset="57.6072853%"></stop>
            <stop stop-color="#84BDB8" offset="100%"></stop>
        </linearGradient>
        <polygon id="path-2" points="0 0 25 0 25 43 0 43"></polygon>
        <polygon id="path-4" points="0 0 19.5 0 19.5 47 0 47"></polygon>
        <polygon id="path-6" points="0 0 29.5 0 29.5 28.5 0 28.5"></polygon>
    </defs>
    <g id="页面-1" stroke="none" stroke-width="1" fill="none" fill-rule="evenodd">
        <g id="核心技术" transform="translate(-917.000000, -2837.000000)">
            <g id="编组-40" transform="translate(917.500000, 2837.000000)">
                <circle id="椭圆形" fill="url(#linearGradient-1)" cx="52" cy="52" r="52"></circle>
                <g id="侧脸" transform="translate(17.750000, 15.250000)">
                    <g id="Clipped" transform="translate(0.000000, 30.500000)">
                        <mask id="mask-3" fill="white">
                            <use xlink:href="#path-2"></use>
                        </mask>
                        <g id="路径"></g>
                        <path d="M20.6383333,43.0000297 L20.4957866,43.0000297 C20.0675628,42.9298651 19.7818691,42.5079016 19.8531493,42.0865227 C20.5670667,38.4325836 20.4245215,36.1836861 19.4249255,35.0592374 C18.6391548,34.215886 17.2826001,33.7945071 14.8545207,33.864633 C14.4262969,33.864633 13.9974699,33.864633 13.5692461,33.9347679 C12.7834755,34.0049027 11.9269525,34.0049027 11.1411667,33.9347679 C9.35576992,33.7944996 7.99923024,33.0212905 7.28476992,31.8968715 C6.78467786,31.1236609 6.42771913,29.8589751 7.21349579,27.961746 C7.6417196,27.0482687 7.28476992,26.4860295 6.92781722,25.783479 L6.78527048,25.5724928 C5.71380619,23.7455974 6.42831175,22.6210003 6.8565446,21.8477749 C7.0709581,21.4263959 7.28476841,21.1452689 7.28476841,20.7233113 C7.28476841,20.3720583 6.99908984,20.1610721 6.64213111,20.1610721 C5.49940175,20.0208039 4.35670254,19.5287069 3.6426946,18.826201 C2.92877714,18.0529904 2.78564381,16.9291203 3.35701603,16.0857096 C4.14278667,14.8209793 4.78543905,13.8368121 5.28491286,13.0641802 C7.64106365,9.55046337 7.64106365,9.55046337 8.49817476,3.64762683 C8.64072151,2.80427544 8.78385333,1.8207315 8.92639857,0.696134373 C8.9976727,0.274755444 9.35462238,-0.00637157942 9.78344937,0.0637692122 C10.2116732,0.133904068 10.4973668,0.485148142 10.4260867,0.907120605 C10.2835399,2.03158418 10.1404081,3.01520232 9.99786286,3.85861306 C9.06954698,9.97245067 9.06954698,10.1126729 6.64149778,13.8373908 C6.14140571,14.6106014 5.49876841,15.5942492 4.71360095,16.8589202 C4.49918746,17.1400324 4.57105421,17.5614261 4.78487508,17.7723975 C5.28496714,18.2644959 5.9988846,18.6157489 6.85587508,18.6858749 C7.99860444,18.8261431 8.85570048,19.7402125 8.85570048,20.7939566 C8.85570048,21.5671672 8.49874175,22.1995472 8.21306317,22.6910372 C7.78483937,23.3935432 7.49914571,23.8155008 8.14178905,24.8693043 L8.28433579,25.0802905 C8.7125596,25.8535011 9.42706516,26.9773711 8.7125596,28.5940073 C8.28433579,29.5776255 8.28433579,30.491088 8.7125596,31.1240912 C9.14078341,31.8265971 10.1409826,32.3186955 11.3549167,32.4589623 C12.0688342,32.5290971 12.7833398,32.4589623 13.5685675,32.4589623 C13.9967913,32.4589623 14.4256183,32.3888274 14.9251223,32.3888274 C16.9961223,32.3888274 19.3528763,32.5290957 20.709416,34.1456858 C21.9946906,35.6915432 22.2803842,38.221627 21.4233334,42.4377905 C21.2807867,42.7189027 20.9951096,43.0000297 20.6381509,43.0000297 L20.6383333,43.0000297 Z" id="路径" stroke="#FFFFFF" fill="#FFFFFF" fill-rule="nonzero" mask="url(#mask-3)"></path>
                    </g>
                    <g id="Clipped" transform="translate(43.000000, 26.500000)">
                        <mask id="mask-5" fill="white">
                            <use xlink:href="#path-4"></use>
                        </mask>
                        <g id="路径"></g>
                        <path d="M2.0637037,47 C1.78303704,47 1.50235556,46.7903658 1.36231111,46.5110549 C-0.391762963,41.8330224 0.0295555556,35.8285398 0.660918519,31.6395408 C1.01161481,29.5449675 2.20432593,27.6600433 3.9584,26.4724747 C6.76447407,24.657286 9.00995556,22.5625653 10.2726222,20.7473766 L10.6933333,21.0266875 L10.342637,20.6776853 C10.4126607,20.6079999 14.7627852,14.8126739 14.3414519,6.85294175 C14.2014059,4.40939584 13.4294222,1.05751843 13.4294222,1.05751843 C13.3593985,0.638839675 13.5694681,0.219571191 13.9907704,0.149894601 C14.4114815,0.0802091659 14.8327852,0.289263998 14.9028,0.708531008 C14.9028,0.847900405 15.7448148,4.19973211 15.8848593,6.78319144 C16.0955111,11.1819869 14.9028,14.9524251 13.9201185,17.395971 C13.2887556,18.7925547 12.2361185,20.8174366 11.6047111,21.5851175 C10.2013481,23.6099551 7.81597037,25.7742639 4.86915556,27.7295135 C3.46579259,28.6371373 2.48367407,30.1730594 2.20308148,31.8489244 C1.64173333,35.1304765 1.0804,41.3444606 2.83444444,45.952905 C2.97449037,46.3715838 2.76442074,46.7908523 2.41373333,46.9302202 C2.27426519,47 2.13364444,47 2.06361481,47 L2.0637037,47 Z" id="路径" stroke="#FFFFFF" fill="#FFFFFF" fill-rule="nonzero" mask="url(#mask-5)"></path>
                    </g>
                    <path d="M50.2944965,17.5 C50.0825748,17.5 49.9416862,17.4298328 49.7297646,17.2889164 C44.9301918,12.5083232 38.1540351,10.0478831 30.2485934,9.97707162 L30.1077033,9.97707162 C19.3086273,9.97707162 13.3793225,16.2340179 13.3092731,16.3042356 C13.0269146,16.5854776 12.5326345,16.6556507 12.2502611,16.3744029 C11.9678877,16.093155 11.8974508,15.6008354 12.1798153,15.3195786 C12.4621797,15.0383218 18.673539,8.5 30.1079775,8.5 L30.2488676,8.5 C38.5777353,8.57016723 45.7059273,11.2417562 50.7882311,16.2334479 C51.0705896,16.5146898 51.0705896,17.0070153 50.7882311,17.2882721 C50.647341,17.3590183 50.5058726,17.5 50.2945323,17.5 L50.2944965,17.5 Z" id="路径" stroke="#FFFFFF" fill="#FFFFFF" fill-rule="nonzero"></path>
                    <g id="Clipped" transform="translate(39.000000, 0.000000)">
                        <mask id="mask-7" fill="white">
                            <use xlink:href="#path-6"></use>
                        </mask>
                        <g id="路径"></g>
                        <path d="M17.389881,28.4160621 C17.1079613,28.4160621 16.8260268,28.2743705 16.6853571,27.9904071 C16.544686,27.6355897 16.6853571,27.1384975 17.037619,26.9968074 C23.3800298,24.1577583 24.3670833,17.9817285 22.5343452,13.0841028 C20.7022024,7.90183764 15.134494,3.35884945 7.52392857,5.70086636 C5.12779762,6.41050123 2.37958333,8.18512801 1.53375,11.0956742 C1.39307887,11.5213292 0.969895833,11.7344565 0.61764881,11.6636189 C0.195059524,11.5219273 -0.0165327381,11.0956742 0.0537946429,10.7408718 C0.82922619,7.83032556 3.57760417,5.34606391 7.03043155,4.2809521 C15.6281994,1.65444571 21.8299851,6.76521374 24.0140625,12.5863061 C25.9875744,17.981114 24.8598363,25.2215061 17.6716518,28.48654 C17.6007351,28.4156934 17.5303988,28.4156934 17.3897321,28.4156934 L17.389881,28.4160621 Z" id="路径" stroke="#FFFFFF" fill="#FFFFFF" fill-rule="nonzero" mask="url(#mask-7)"></path>
                    </g>
                    <path d="M29.3698825,55.5 L29.1567419,55.5 C26.9562328,55.4296967 24.7552739,54.0216039 24.8266256,51.4876392 C24.8266256,50.0795375 25.7494304,48.8125626 27.0271347,48.3904011 C27.6659569,48.179038 28.4470777,48.2498823 29.08584,48.53092 C29.7955192,48.8828005 30.2926424,49.4460293 30.505783,50.079539 C30.6474835,50.5016707 30.434932,50.9243971 30.0086598,51.0649144 C29.5829782,51.2054332 29.156697,50.9946542 29.014998,50.5719368 C28.944147,50.2903224 28.7310154,50.0789593 28.4470178,49.9384419 C28.1630202,49.7979246 27.8081956,49.7979231 27.524213,49.8681818 C26.8853908,50.079545 26.3882676,50.7832911 26.3882676,51.4871115 C26.3882676,53.1767979 27.8082106,53.9508101 29.227494,54.0217154 L29.3691945,54.0217154 C31.2856461,54.0217154 33.2026973,52.7547256 33.4152533,49.8683304 C33.4861043,48.5310746 33.0604137,47.1932538 32.2793079,45.9964855 C27.6652839,39.5198747 21.0633067,36.9858654 20.9918051,36.9149601 L20.8501046,36.8446999 C19.5016032,35.9998419 17.655469,35.366347 15.8806714,34.7328521 C14.603027,34.3107204 13.3962546,33.887994 12.3310762,33.3247504 C9.06553861,31.7761313 6.86502945,29.8750669 5.800001,27.6227463 C4.380058,24.665981 4.87719619,20.8644468 7.0776454,18.4007482 C9.2072526,15.9370496 12.9700034,14.880754 16.0932874,15.8661443 C16.306428,15.9364044 21.7015878,17.6261413 23.3341317,21.3569189 C23.4758322,21.7087994 23.3341317,22.201777 22.9084501,22.3422943 C22.4827685,22.4828131 22.0564873,22.3422943 21.9147883,21.9201626 C20.5662869,18.8229245 15.6676207,17.3446161 15.5968687,17.2737108 C13.0409503,16.4288528 9.98856827,17.2737108 8.21377068,19.315248 C6.4389731,21.3567851 6.01326151,24.4540232 7.22010888,26.8475598 C8.14291369,28.8189349 10.0593353,30.437716 13.0409653,31.8458623 C14.0346271,32.3388399 15.1705725,32.6907203 16.4481569,33.1831182 C18.2937066,33.8166131 20.2109077,34.5203741 21.6301462,35.4360334 C22.482109,35.7879138 28.8709905,38.4629608 33.5563662,45.0098823 C34.6214696,46.4882353 35.1180082,48.177877 34.9763092,49.7968068 C34.6940804,53.8109082 31.9255761,55.5 29.3698076,55.5 L29.3698825,55.5 Z" id="路径" stroke="#FFFFFF" fill="#FFFFFF" fill-rule="nonzero"></path>
                </g>
            </g>
        </g>
    </g>
</svg>