<?xml version="1.0" encoding="UTF-8"?>
<svg width="180px" height="181px" viewBox="0 0 180 181" version="1.1" xmlns="http://www.w3.org/2000/svg" xmlns:xlink="http://www.w3.org/1999/xlink">
    <title>编组 64</title>
    <defs>
        <linearGradient x1="0%" y1="50%" x2="100%" y2="50%" id="linearGradient-1">
            <stop stop-color="#757FD6" offset="0%"></stop>
            <stop stop-color="#86AAD7" offset="57.6072853%"></stop>
            <stop stop-color="#84BDB8" offset="100%"></stop>
        </linearGradient>
        <polygon id="path-2" points="7.7758526e-15 0 129.566038 0 129.566038 126 0 126"></polygon>
    </defs>
    <g id="页面-1" stroke="none" stroke-width="1" fill="none" fill-rule="evenodd">
        <g id="核心技术" transform="translate(-1349.000000, -3722.000000)">
            <g id="编组-64" transform="translate(1349.000000, 3722.845786)">
                <g id="编组-60">
                    <path d="M16,0 L164,0 C172.836556,-1.623249e-15 180,7.163444 180,16 L180,164 C180,172.836556 172.836556,180 164,180 L16,180 C7.163444,180 1.082166e-15,172.836556 0,164 L0,16 C-1.082166e-15,7.163444 7.163444,1.623249e-15 16,0 Z" id="矩形-1" fill="url(#linearGradient-1)"></path>
                    <g id="Clipped" transform="translate(25.216981, 27.000000)">
                        <mask id="mask-3" fill="white">
                            <use xlink:href="#path-2"></use>
                        </mask>
                        <g id="路径"></g>
                        <path d="M96.040504,113.767043 C87.7773108,121.265413 76.8124312,125.832091 64.7830189,125.832091 C52.7536065,125.832091 41.7887269,121.265413 33.5255337,113.767043 C22.7081184,111.027913 11.8969955,106.865804 1.09708985,101.284826 C-0.121227061,100.654607 -0.375582281,99.0207704 0.593741744,98.050187 C4.20073241,94.4389174 6.07399281,88.1849348 6.07399281,79.2142826 L6.07399281,58.945813 C6.07399281,26.4816391 32.3587335,0.166813043 64.7833472,0.166813043 C97.2079608,0.166813043 123.492702,26.4838304 123.492702,58.945813 L123.492702,79.2142826 C123.492702,88.1849348 125.366153,94.4389174 128.972953,98.050187 C129.942277,99.0206609 129.687921,100.654497 128.469604,101.284826 C117.669152,106.865804 106.858302,111.027913 96.0411606,113.767043 L96.040504,113.767043 Z M101.351951,108.074857 C109.009146,105.731613 116.670718,102.6522 124.337762,98.8357696 C121.045124,94.3066174 119.44299,87.749687 119.44299,79.2145565 L119.44299,58.946087 C119.44299,28.7225217 94.970773,4.221 64.7827453,4.221 C34.5949911,4.221 10.1225006,28.7222478 10.1225006,58.946087 L10.1225006,79.2145565 C10.1225006,87.749687 8.52050318,94.3066174 5.22772889,98.8357696 C12.8944992,102.652474 20.5549769,105.731804 28.2135396,108.074857 C21.9552028,100.136857 18.2201728,90.112187 18.2201728,79.2153783 L18.2201728,65.0275043 C18.2201728,63.9072548 19.1264346,62.9999178 20.2442899,62.9999178 L33.2246958,62.9999178 L42.7682832,45.8011917 C43.7824757,43.972603 46.5621348,44.6937613 46.5621348,46.7855804 L46.5621348,62.999863 L80.979567,62.999863 L80.979567,46.7855804 C80.979567,44.6937887 83.7592261,43.9724935 84.7734186,45.8011917 L94.3181003,62.9999178 L109.321693,62.9999178 C110.440615,62.9999178 111.346877,63.9072548 111.346877,65.0275043 L111.346877,79.2153783 C111.346877,90.1130087 107.611847,100.137678 101.35351,108.074857 L101.351951,108.074857 Z M22.2684617,67.0536391 L22.2684617,79.2148304 C22.2684617,102.722048 41.302013,121.778178 64.7813773,121.778178 C88.261836,121.778178 107.294293,102.720952 107.294293,79.2148304 L107.294293,67.0536391 L93.1232299,67.0536391 C92.3879609,67.0536391 91.7103916,66.6545478 91.3534407,66.0114822 L85.0256125,54.6065648 L85.0256125,65.0270387 C85.0256125,66.14622 84.1182836,67.053557 83.0004284,67.053557 L44.5366224,67.053557 C43.4187672,67.053557 42.5125053,66.14622 42.5125053,65.0270387 L42.5125053,54.6065648 L36.1835827,66.0114822 C35.8266318,66.6545478 35.1490899,67.0536391 34.4148878,67.0536391 L22.2684617,67.0536391 Z" id="形状" stroke="#FFFFFF" stroke-width="1.4" fill="#FFFFFF" fill-rule="nonzero" mask="url(#mask-3)"></path>
                    </g>
                </g>
                <path d="M76.0336441,131.220766 C75.2826501,130.400862 75.3627521,129.149058 76.2124738,128.424417 C78.63698,126.35793 81.8146167,125.19195 85.1810077,125.19195 C91.360817,125.19195 96.6977106,129.134682 98.0480959,134.640639 C98.3092971,135.705259 97.6264993,136.772985 96.5231621,137.025018 C95.4198249,137.277054 94.3132692,136.618216 94.0520708,135.553595 C93.1460058,131.859844 89.4837342,129.153449 85.1809244,129.153449 C82.818208,129.153449 80.6073162,129.966037 78.9317508,131.393527 C78.0819736,132.118042 76.7846382,132.040671 76.0336441,131.220766 Z" id="路径" fill="#FFFFFF" fill-rule="nonzero" transform="translate(86.811321, 131.135346) scale(-1, -1) translate(-86.811321, -131.135346) "></path>
                <path d="M73.9528302,107.361761 C73.9528302,110.643627 71.2911932,113.305157 68.009434,113.305157 C64.7264967,113.305157 62.0660377,110.64352 62.0660377,107.361761 C62.0660377,104.078824 64.7266306,101.418365 68.009434,101.418365 C71.2913003,101.418365 73.9528302,104.078958 73.9528302,107.361761" id="路径" fill="#FFFFFF" fill-rule="nonzero"></path>
                <path d="M117.933962,107.361761 C117.933962,110.643627 115.273369,113.305157 111.990566,113.305157 C108.707629,113.305157 106.04717,110.64352 106.04717,107.361761 C106.04717,104.078824 108.707763,101.418365 111.990566,101.418365 C115.273503,101.418365 117.933962,104.078958 117.933962,107.361761" id="路径" fill="#FFFFFF" fill-rule="nonzero"></path>
            </g>
        </g>
    </g>
</svg>