<?xml version="1.0" encoding="UTF-8"?>
<svg width="161px" height="161px" viewBox="0 0 161 161" version="1.1" xmlns="http://www.w3.org/2000/svg" xmlns:xlink="http://www.w3.org/1999/xlink">
    <title>编组 47</title>
    <defs>
        <linearGradient x1="0%" y1="50%" x2="100%" y2="50%" id="linearGradient-1">
            <stop stop-color="#CBD675" offset="0%"></stop>
            <stop stop-color="#D7B786" offset="57.6072853%"></stop>
            <stop stop-color="#BD9A84" offset="100%"></stop>
        </linearGradient>
        <polygon id="path-2" points="0 0 123.19777 0 123.19777 132 0 132"></polygon>
    </defs>
    <g id="页面-1" stroke="none" stroke-width="1" fill="none" fill-rule="evenodd">
        <g id="核心技术" transform="translate(-1239.000000, -4137.000000)">
            <g id="编组-47" transform="translate(1239.600000, 4137.345786)">
                <rect id="路径" fill="url(#linearGradient-1)" x="0" y="0" width="160" height="160" rx="16"></rect>
                <g id="表情3" transform="translate(18.401115, 14.000000)">
                    <g id="Clipped">
                        <mask id="mask-3" fill="white">
                            <use xlink:href="#path-2"></use>
                        </mask>
                        <g id="路径"></g>
                        <path d="M100.258457,103.126568 C93.6581781,120.028912 77.2154567,132.002787 57.9754213,132.002787 C38.7353858,132.002787 22.2954517,120.029469 15.6923857,103.126568 C9.28387179,103.126568 2.28724186,92.9878373 2.28724186,84.7848727 C2.28724186,81.8788547 2.76085646,79.3965032 3.65585202,77.4225516 C1.39553528,72.0843532 0.224153047,65.8804257 0.224153047,58.7803877 C0.224153047,50.4751299 0.41904523,45.7955657 1.2868035,40.1688838 C2.94936019,29.3974408 6.72422906,21.3742557 13.5182237,16.8460408 C15.0468795,15.8269555 17.0446902,17.1639579 16.6842949,18.9659065 C15.8034588,23.3731534 15.8339516,26.7309895 16.6810285,29.0870772 C28.2220396,11.0491955 46.8366094,1.34277208 72.3039856,0.00459901178 C74.7667982,-0.124964906 75.3396121,3.39393133 72.9616164,4.05172938 C65.3478827,6.1574357 61.1190217,9.368187 59.915753,13.7288864 C78.8299554,9.09280375 95.7824703,11.4914532 110.644247,20.9484987 C112.518051,22.1407019 111.443415,25.0444064 109.246258,24.7308375 C103.582506,23.9218852 98.7025362,23.8522032 94.6055135,24.5032811 C110.083557,28.7115163 119.532157,34.6397818 122.865744,42.5116176 C123.613739,44.2765232 121.758441,46.0185732 120.043623,45.1606205 C116.893718,43.5851663 114.00526,42.489849 111.383545,41.8682856 C114.307959,46.7546659 115.723339,53.7774963 115.723339,62.9058378 C115.723339,68.4073708 114.601905,73.4191788 112.495112,77.8949928 C113.258353,79.787305 113.661198,82.1062939 113.661198,84.7848699 C113.661198,92.9878345 106.663732,103.126565 100.25494,103.126565 L100.258457,103.126568 Z M103.109844,72.2964652 C103.531197,72.2246064 103.955839,72.1875885 104.383715,72.1875885 C106.461102,72.1875885 108.23685,72.7918708 109.662265,73.9252903 C110.935049,70.5434836 111.602463,66.8612082 111.602463,62.9046644 C111.602463,51.7555449 109.388973,44.3943388 105.180849,40.7457894 C103.739296,39.4958616 104.623393,37.1256703 106.533126,37.1256703 C109.150549,37.1256703 111.982536,37.6232555 115.033214,38.611848 C109.729857,33.7168271 100.21046,29.7218188 86.4189991,26.7670234 C84.5125554,26.3587427 84.1848271,23.7771083 85.9290511,22.9060834 C89.7484607,20.9963507 94.4138097,20.0153954 99.9253769,19.9423687 C87.4152287,14.6390113 73.4844039,14.1478926 58.0520715,18.4833949 C56.7368098,18.8535735 55.4324743,17.8649532 55.4324743,16.498545 C55.4324743,12.0486527 57.2115393,8.3663773 60.6630837,5.46593387 C41.4144077,8.93916331 27.4164095,18.4496409 18.5194121,34.0216161 C17.8443608,35.2018619 16.2318915,35.4185172 15.2694438,34.4571286 C12.833835,32.0215198 11.7580286,28.4480319 11.9344634,23.7913235 C8.60282782,27.804449 6.48616749,33.5490328 5.36707462,40.7970754 C4.54070189,46.1528337 4.35342455,50.6777038 4.35342455,58.7794902 C4.35342455,64.337605 5.13517294,69.2872566 6.66382871,73.6490708 C8.02154061,72.6942045 9.67102496,72.187923 11.5719498,72.187923 C11.9987381,72.187923 12.4244672,72.2249408 12.8458203,72.2967997 C13.5959889,66.1235322 16.0642924,60.3441074 19.9597948,55.5405093 C20.5684252,54.7903408 21.6169163,54.5627873 22.481419,54.9939516 C32.6898315,60.0796225 45.0171342,62.8724769 57.9774281,62.8724769 C70.937722,62.8724769 83.2664183,60.0796225 93.4734372,54.9939516 C94.339027,54.5627873 95.386431,54.7903492 95.9950614,55.5405093 C99.8916787,60.3441074 102.360094,66.1235322 103.110151,72.2967997 L103.109844,72.2964652 Z M103.351554,76.462055 L103.351554,86.625871 C103.351554,90.7828202 102.793011,94.8101609 101.745607,98.63626 C105.3058,96.9998201 109.53912,90.1841125 109.53912,84.7837578 C109.53912,78.9892816 107.596721,76.3129355 104.383768,76.3129355 C104.044054,76.3129355 103.698933,76.3641072 103.35161,76.4620996 L103.351554,76.462055 Z M14.2088253,98.63626 C13.1613655,94.8101609 12.6017355,90.7828202 12.6017355,86.625871 L12.6017355,76.462055 C12.2554996,76.3640654 11.9103507,76.3128909 11.5706649,76.3128909 C8.35776739,76.3128909 6.41419714,78.9891256 6.41419714,84.7837132 C6.41419714,90.1840679 10.648354,96.9998034 14.2088253,98.63626 L14.2088253,98.63626 Z M57.9774253,66.9950589 C45.0285592,66.9950589 32.6513642,64.3297225 22.1776027,59.4259217 C18.6608917,64.293906 16.7281918,70.1524895 16.7281918,76.3118206 L16.7281918,86.6247561 C16.7281918,109.406309 35.1961508,127.873711 57.9771466,127.873711 C80.7581424,127.873711 99.2288886,109.405752 99.2288886,86.6247561 L99.2288886,76.3118206 C99.2288886,70.1524895 97.2963003,64.293906 93.7794778,59.4259217 C83.3054375,64.3298619 70.9282425,66.9950589 57.9768679,66.9950589 L57.9774253,66.9950589 Z" id="形状" fill="#FFFFFF" fill-rule="nonzero" mask="url(#mask-3)"></path>
                    </g>
                    <path d="M49.0282529,111.644495 C48.1746484,112.399012 46.8713721,112.318459 46.1169391,111.464847 C45.362506,110.611234 45.4429748,109.307966 46.2965876,108.553533 C48.7321964,106.402087 51.9243844,105.188171 55.3061911,105.188171 C61.5142995,105.188171 66.8756323,109.292998 68.2322014,115.025318 C68.4945988,116.133708 67.8086743,117.245331 66.7002846,117.507725 C65.5918948,117.770122 64.4802719,117.084198 64.2178774,115.975808 C63.3076632,112.130198 59.6286211,109.312537 55.3061074,109.312537 C52.9325714,109.312537 50.7115553,110.158532 49.028317,111.64471 L49.0282529,111.644495 Z" id="路径" fill="#FFFFFF" fill-rule="nonzero" transform="translate(56.943970, 111.375914) scale(1, -1) translate(-56.943970, -111.375914) "></path>
                    <path d="M41.4747244,86.625871 C41.4747244,90.0425187 38.703778,92.8133536 35.2872419,92.8133536 C31.8694793,92.8133536 29.0997593,90.0424072 29.0997593,86.625871 C29.0997593,83.2081085 31.8696186,80.4383884 35.2872419,80.4383884 C38.7038895,80.4383884 41.4747244,83.2082478 41.4747244,86.625871" id="路径" fill="#FFFFFF" fill-rule="nonzero"></path>
                    <path d="M86.8516407,86.625871 C86.8516407,90.0425187 84.0817813,92.8133536 80.6641581,92.8133536 C77.2463955,92.8133536 74.4766755,90.0424072 74.4766755,86.625871 C74.4766755,83.2081085 77.2465349,80.4383884 80.6641581,80.4383884 C84.0819207,80.4383884 86.8516407,83.2082478 86.8516407,86.625871" id="路径" fill="#FFFFFF" fill-rule="nonzero"></path>
                </g>
            </g>
        </g>
    </g>
</svg>