<?xml version="1.0" encoding="UTF-8"?>
<svg width="105px" height="105px" viewBox="0 0 105 105" version="1.1" xmlns="http://www.w3.org/2000/svg" xmlns:xlink="http://www.w3.org/1999/xlink">
    <title>编组 26</title>
    <defs>
        <linearGradient x1="0%" y1="50%" x2="100%" y2="50%" id="linearGradient-1">
            <stop stop-color="#757FD6" offset="0%"></stop>
            <stop stop-color="#86AAD7" offset="57.6072853%"></stop>
            <stop stop-color="#84BDB8" offset="100%"></stop>
        </linearGradient>
    </defs>
    <g id="页面-1" stroke="none" stroke-width="1" fill="none" fill-rule="evenodd">
        <g id="核心技术" transform="translate(-1232.000000, -2130.000000)">
            <g id="编组-27" transform="translate(1221.000000, 2130.250000)">
                <g id="编组-26" transform="translate(11.500000, 0.000000)">
                    <rect id="矩形" fill="url(#linearGradient-1)" x="0" y="0" width="104" height="104" rx="52"></rect>
                    <g id="编组-25" transform="translate(19.500000, 13.000000)" fill="#FFFFFF" fill-rule="nonzero">
                        <g id="人脸">
                            <path d="M60.8255567,29.9206101 C60.8248524,29.8950977 60.824148,29.8688741 60.8227394,29.8440711 C60.7840029,28.6626665 60.7452645,27.4416018 60.7452645,26.2184144 C60.7452645,22.4530582 59.9937568,18.9393426 58.6147905,15.7814073 C58.7000131,15.6347064 58.7626958,15.4731248 58.7626958,15.2909893 C58.7626958,14.7934775 58.3929281,14.4001416 57.9196296,14.3285683 C53.5775448,5.9282716 44.5756791,0.388368354 33.3658086,0.025512402 L33.3658086,0 L32.4889354,0.00425212747 L32.2543957,0 L31.6141717,0.0113392485 L31.6141717,0.0269306245 C15.7629114,0.539319514 4.32693955,11.4300418 4.32693955,26.1271592 C4.32693955,27.3978626 4.27622901,28.6735009 4.22622345,29.9108397 C4.08888216,29.9321012 3.95225127,29.9569061 3.81913271,29.9944671 C0.363783713,30.9490867 -0.980744436,36.6973237 0.760272569,43.082137 C2.04634611,47.7943658 4.65790768,51.4214739 7.36247013,52.5305431 C7.62870726,54.3022962 7.87379471,56.1200956 8.0780613,57.9272997 C8.76898685,64.0582953 14.8345992,68.6676544 18.8497927,71.7172773 C19.9189423,72.5294578 20.8416127,73.231076 21.4697925,73.8122261 C24.387835,76.5124187 26.9133555,77.4812441 31.6147865,77.6314664 L31.6147865,77.6541449 L31.7669182,77.6534363 C31.9472223,77.8610806 32.2043,78 32.500107,78 C32.7987268,78 33.0565076,77.8589688 33.2368118,77.6484833 L33.3671104,77.647066 L33.3671104,77.6314744 C38.0683612,77.4805209 40.5940619,76.5117191 43.5121045,73.8122341 C43.9177889,73.4366238 44.4565918,73.0064399 45.0686343,72.5323142 C45.0953986,72.535149 45.1179366,72.5486144 45.1454042,72.5486144 C45.6222185,72.5486144 45.9990362,72.2013431 46.0898915,71.7506216 C46.104682,71.7392823 46.117359,71.7300694 46.1307412,71.7187302 C49.420571,69.2191969 54.0830563,65.6713729 56.0418808,61.0988436 C56.4694,60.9911207 56.7933885,60.6183497 56.7933885,60.1555633 C56.7933885,59.925948 56.7039414,59.7253794 56.5736338,59.5574134 C56.719426,59.0258838 56.8398709,58.4858634 56.9032479,57.9280994 C57.1067932,56.1237438 57.3504923,54.3073413 57.6160082,52.5391443 C60.3276026,51.4399447 62.9490448,47.8064141 64.2380393,43.0829367 C65.9812199,36.6975791 64.6380981,30.9484894 61.182064,29.9938154 C61.0657345,29.9602975 60.9452967,29.9404547 60.8255567,29.9206101 Z M2.34766725,42.0787796 C1.45402294,38.8005013 2.04404857,35.6596067 3.6373102,35.2197625 C3.64024985,35.2193398 3.64402933,35.2193398 3.6473889,35.2189173 C3.58775635,36.8601659 3.57935798,38.4071931 3.94891121,39.7598277 C4.31636699,41.1044573 4.90344696,43.8574322 5.40314597,46.9792878 C4.17650158,46.2060014 2.9624354,44.3318928 2.34760812,42.0787999 L2.34766725,42.0787796 Z M54.8755423,57.3489768 C54.8380579,57.6767883 54.7814894,57.9991046 54.709246,58.3186822 L54.5927015,58.158207 L54.3255444,58.3543461 L54.5954408,58.726733 C54.5845361,58.764451 54.5736313,58.8014843 54.5634088,58.8392023 C54.2887493,59.0072215 54.0965469,59.2980014 54.0965469,59.6450019 C54.0965469,59.6594036 54.1040439,59.6690049 54.1040439,59.6834064 L53.4245485,59.8329089 L53.4954293,60.1579816 L54.1497129,60.013279 C52.4090392,64.1281276 48.0906972,67.4411794 45.0136446,69.7789781 C44.9434461,69.7563462 44.8698383,69.7392025 44.7928283,69.7330297 L44.7280821,69.1219822 L44.4002598,69.1576426 L44.4656882,69.773483 C44.0697157,69.8900674 43.7746076,70.2418854 43.7746076,70.6787216 C43.7746076,70.6944949 43.7827863,70.7061533 43.7827863,70.7219259 C43.2136991,71.1642572 42.7059401,71.5730033 42.3072458,71.9433186 C39.6880174,74.3676699 37.501663,75.1864963 33.1847866,75.3113217 C33.0477953,75.1611327 32.8624079,75.068553 32.6545376,75.0301398 L32.6545376,74.9629325 L32.3239935,74.9629325 L32.3239935,75.0301398 C32.1168037,75.0685442 31.9307429,75.160441 31.7937446,75.3113217 C27.467272,75.1892509 25.2774282,74.3704087 22.6548847,71.9433186 C22.0026424,71.3398203 21.0880062,70.6444323 20.0274559,69.8386678 C16.3116481,67.0159638 10.6970218,62.7510087 10.0891486,57.3496334 C9.23039696,49.7359871 7.62869307,41.8602251 6.7652131,38.6995621 C6.12865615,36.3712438 6.24382752,33.5388838 6.36514044,30.5406167 C6.41557437,29.2965939 6.4673727,28.0114543 6.4673727,26.7186074 C6.4673727,13.0206452 17.3155705,2.91751378 32.2618523,2.69279297 L32.4008884,2.6886783 L32.7000793,2.69279297 C42.9655284,2.84641071 51.3026727,7.64700895 55.5424309,15.0692914 L55.4735951,15.0329446 L55.3175214,15.3264686 L55.8334458,15.6048941 C55.9043266,15.7379376 55.9772522,15.8702929 56.0460968,16.0040194 C56.0276948,16.0787706 56.000433,16.1514643 56.000433,16.2317072 C56.000433,16.322231 56.028377,16.404528 56.0515491,16.4875027 L55.5076736,16.7535861 L55.6521604,17.051903 L56.1967164,16.7858195 C56.283272,16.9058327 56.3902796,17.0045888 56.5224973,17.0731637 L56.473426,17.2322678 L56.656765,17.2898753 C57.9060455,20.1722708 58.5834996,23.3770002 58.5834996,26.8059237 C58.5834996,28.0101814 58.6223483,29.2020093 58.6598327,30.3556346 C58.7586574,33.4135932 58.852035,36.3021334 58.1970709,38.6989213 C58.1118779,39.0082108 58.019193,39.3751202 57.9217309,39.7701373 C57.5298411,39.8880946 57.2394962,40.2399091 57.2394962,40.6733218 C57.2394962,40.950378 57.3601304,41.1952183 57.5475504,41.3700967 C56.6731308,45.264087 55.5450934,51.3833399 54.8745835,57.3484483 L54.8755423,57.3489768 Z M61.848643,42.1908335 C61.2228275,44.482711 59.97416,46.385163 58.7297903,47.1718268 C59.0945933,44.8923836 59.5046808,42.8090286 59.8451191,41.3079962 C59.9694249,41.1979579 60.0518689,41.0410653 60.0518689,40.861824 C60.0518689,40.7784359 60.0347819,40.6993414 60.0048794,40.6271343 C60.0774988,40.327533 60.1458511,40.0580273 60.2077907,39.8315024 C60.5854103,38.4492014 60.595668,36.8811557 60.5508099,35.2189173 C62.1599935,35.6814192 62.7545658,38.8661365 61.8485457,42.1908335 L61.848643,42.1908335 Z" id="形状"></path>
                            <path d="M27.3700339,53.1978717 C27.0443556,53.3311897 26.9081705,53.6632698 27.0652546,53.9402981 C27.2216119,54.2161053 27.6135916,54.3347445 27.9399893,54.1989779 C28.3852884,54.0185768 29.1382442,54.1494416 29.3745712,54.3274035 C29.4480665,54.3836671 29.5316479,54.4747882 29.6332361,54.5799775 C30.1131209,55.0765619 31.0037006,56 32.4808922,56 L33.5199048,56 C34.9609797,56 35.8062565,55.1383238 36.3098257,54.6240015 C36.4243905,54.5065834 36.5187792,54.4038505 36.6045336,54.3432941 C36.8732883,54.156161 37.602486,54.0142731 38.0600145,54.2001912 C38.3842541,54.3365668 38.7769458,54.2173155 38.9347493,53.9415115 C39.0918259,53.6650937 38.9556446,53.3330199 38.62997,53.199085 C37.6766932,52.807081 36.4055961,53.0425276 35.7723532,53.484677 C35.6145553,53.5953678 35.4704515,53.7433568 35.3025582,53.9133781 C34.8760001,54.3475743 34.3471233,54.8881983 33.5199417,54.8881983 L32.4809291,54.8881983 C31.6249352,54.8881983 31.0593145,54.3029398 30.6464431,53.8760861 C30.4929689,53.7164759 30.3596669,53.5837622 30.2479779,53.4993777 C29.6484907,53.0419327 28.319105,52.8077072 27.3700707,53.1978795 L27.3700339,53.1978717 Z" id="路径" stroke="#FFFFFF"></path>
                            <path d="M52,38.5374486 C52,36.8186123 48.5952157,35 45.3753404,35 C42.0462654,35 39.7395343,36.7381148 38.905306,38.4824678 C38,39.6678321 38,39.8963547 38,40.0650153 C38,40.604003 38.4425703,41.0424923 38.9867337,41.0424923 L39.1760071,41.0142688 C39.1787906,41.0135805 39.5211528,40.9089489 39.9268304,40.9640178 C40.014509,40.9757199 40.2831098,41.0672724 40.5196972,41.148503 C41.4507622,41.4672152 43.0095559,42 44.9995547,42 C49.0438605,41.9986234 52,39.7228798 52,38.5376213 L52,38.5374486 Z M45.0003563,40.7463715 C43.2231276,40.7463715 41.7902787,40.2562673 40.9337829,39.9643934 C40.571233,39.8411766 40.3089044,39.7510081 40.0966688,39.7220903 C39.9540181,39.7028153 39.8155465,39.6952449 39.6861102,39.6952449 C39.6492299,39.6952449 39.6130444,39.6959332 39.5775554,39.6966216 C39.6923718,39.5341675 39.823887,39.3545072 39.9554076,39.1844898 L40.0277768,39.0626492 C40.6672628,37.6632124 42.569118,36.2499952 45.375531,36.2499952 C48.2222036,36.2499952 50.6035753,37.8222161 50.7280949,38.4830603 C50.4796791,38.9456389 48.4436313,40.7464353 45.0005469,40.7464353 L45.0003563,40.7463715 Z" id="形状" stroke="#FFFFFF"></path>
                            <path d="M25.0731696,40.9652162 C25.4774577,40.9094471 25.8191297,41.0134116 25.8198244,41.0134116 L26.0132663,41.0437064 C26.5574297,41.0437064 27,40.6058164 27,40.066033 C27,39.8973509 27,39.6680826 26.094694,38.4831676 C25.2603588,36.7385169 22.9535564,35 19.6246596,35 C16.405675,35 13,36.8189601 13,38.5381594 C13,39.7237618 15.9560504,42 19.9996437,42 C21.989108,42 23.5478305,41.4677955 24.4782542,41.1497067 C24.7176384,41.0684633 24.9869322,40.9768931 25.0732052,40.9651844 L25.0731696,40.9652162 Z M20.0017101,40.747646 C16.5586258,40.747646 14.5224889,38.9464877 14.272737,38.4852262 C14.3972958,37.8242669 16.7791627,36.2517125 19.6253009,36.2517125 C22.4324265,36.2517125 24.3335335,37.665196 24.9730551,39.0649316 L25.0454244,39.1867967 C25.1762466,39.3568553 25.3084655,39.5365587 25.4232765,39.6990313 C25.2646217,39.6955889 25.0871803,39.69972 24.9034648,39.7238182 C24.6919239,39.7520473 24.4295776,39.8422392 24.0663507,39.96617 C23.2111375,40.2580849 21.7783242,40.747646 20.001915,40.747646 L20.0017101,40.747646 Z" id="形状" stroke="#FFFFFF"></path>
                            <path d="M16.1423519,30.7740715 C16.2153497,30.776868 23.4830698,30.685981 27.1482676,34.5465409 C28.6812115,36.1622166 29.3757909,38.2735502 29.2116988,40.8232512 C29.1887562,41.1742065 29.4536367,41.4769276 29.801932,41.4986017 C29.8165314,41.4993007 29.8297404,41.5 29.8429496,41.5 C30.1738746,41.5 30.451265,41.2413251 30.4735117,40.9057439 C30.661221,37.9868141 29.8506025,35.5511211 28.0632091,33.668287 C24.0191046,29.4070325 16.4393674,29.4924043 16.12026,29.5015321 C15.7712706,29.5085235 15.4931862,29.7979532 15.5,30.1489264 C15.5049937,30.5005797 15.8011525,30.7613665 16.1425067,30.7739486 L16.1423519,30.7740715 Z" id="路径" stroke="#FFFFFF"></path>
                            <path d="M35.6568456,42 C35.6700541,42 35.6839571,41.999359 35.6978616,41.9987182 C36.0468366,41.9782102 36.3103164,41.7013523 36.2880706,41.3796393 C36.2512261,40.8457916 36.2637389,40.3369308 36.3158779,39.8460187 L36.4278029,39.6159518 L36.3478567,39.5826271 C36.5647626,38.0361931 37.231426,36.7101955 38.3492708,35.6283578 C42.0073774,32.0926156 49.2824802,32.1669365 49.3568703,32.1669365 C49.6968224,32.1874445 49.9943472,31.9170015 49.9999176,31.5939924 C50.0054791,31.2722794 49.7288031,31.007595 49.3798103,31.0011801 C49.0488989,30.9941306 41.4825356,30.9146627 37.4385971,34.8200967 C35.6505652,36.5465417 34.8393927,38.7787958 35.0262578,41.455007 C35.0485553,41.7628784 35.3252402,42 35.6568456,42 Z" id="路径" stroke="#FFFFFF"></path>
                            <path d="M42.4657966,62.6696517 C36.4728321,61.7618141 35.8958087,62.0124793 35.7060151,62.0944051 C35.6356441,62.1251998 35.5439499,62.1695447 35.4344811,62.2237441 C34.9845265,62.444846 34.1450675,62.8556576 33.292161,62.8803016 L33.1713227,62.8803016 L33.1713227,62.5754291 L32.8265826,62.5754291 L32.8265826,62.8803016 L32.7292001,62.8803016 C31.8541843,62.8556655 31.0161264,62.4448618 30.5661355,62.2237441 C30.4566703,62.1701612 30.3642592,62.1251998 30.2938918,62.0944051 C30.1048079,62.0131068 29.5254916,61.7618141 23.5346562,62.6696517 C23.1828011,62.7232345 22.9475152,63.013327 23.0100762,63.3175845 C23.0719165,63.622457 23.4067138,63.8226202 23.7578592,63.7733481 C25.1716668,63.5590102 26.7432414,63.3514522 27.9240377,63.2214999 L29.9768291,63.2214999 C30.5333993,63.4931195 31.5271134,63.9667472 32.7085466,64 L33.3134477,64 C34.4749189,63.966126 35.4679597,63.4931195 36.0244207,63.2214999 L37.9854998,63.2214999 C39.1882052,63.3446803 40.7974655,63.5547058 42.2419348,63.7733481 C42.5944996,63.8220037 42.9285764,63.6224523 42.9897179,63.3175845 C43.0529812,63.013327 42.8177009,62.723244 42.4658476,62.6696517 L42.4657966,62.6696517 Z" id="路径" stroke="#FFFFFF"></path>
                            <path d="M32.8156119,40.20182 L32.8156119,41 L33.1629045,41 L33.1629045,40.2066303 C33.6355122,40.1150887 34,39.6758533 34,39.1217854 C34,38.5018741 33.5517367,38 32.9989281,38 C32.4475494,38 32,38.5026758 32,39.1217854 C31.999285,39.6670138 32.3551764,40.101441 32.8156119,40.20182 L32.8156119,40.20182 Z" id="路径"></path>
                            <path d="M46,44.9996425 C46,45.5524514 45.5524514,46 44.9996425,46 C44.4475486,46 44,45.5524514 44,44.9996425 C44,44.4475486 44.4475486,44 44.9996425,44 C45.5524514,44 46,44.4475486 46,44.9996425" id="路径"></path>
                            <path d="M43.1744551,28.9904079 C43.1744551,29.1669422 43.2273798,29.3222016 43.301865,29.4654204 L43,29.733418 L43.2012378,30 L43.5004934,29.733418 C43.659918,29.8815935 43.8611525,29.9808521 44.0872292,29.9808521 C44.5916367,29.9808521 45,29.5370389 45,28.9904261 C45,28.4438132 44.5909844,28 44.0872292,28 C43.5841265,28.0007089 43.1744585,28.4423976 43.1744585,28.9904261 L43.1744551,28.9904079 Z" id="路径"></path>
                            <path d="M44.0875202,62 C43.5832818,62 43.1763597,62.3901509 43.1763597,62.8706717 C43.1763597,62.9728835 43.20314,63.0663773 43.2364516,63.1567472 L43,63.2770346 L43.1489222,63.5444107 L43.3951723,63.4191374 C43.5591167,63.6079824 43.7968608,63.7345066 44.0731585,63.7388623 L44.1025507,64 L44.4167215,63.9675919 L44.3853696,63.6840213 C44.741995,63.5662278 45,63.2521159 45,62.8706765 C45,62.3901557 44.5917736,62 44.0875352,62 L44.0875202,62 Z" id="路径"></path>
                            <path d="M55,29.0003575 C55,29.5524514 54.5524514,30 54.0003575,30 C53.4475486,30 53,29.5524514 53,29.0003575 C53,28.4475486 53.4475486,28 54.0003575,28 C54.5524514,28 55,28.4475486 55,29.0003575" id="路径"></path>
                            <path d="M36,50.1905119 C36,50.6369466 36.4088923,51 36.9124832,51 C37.416074,51 37.8249563,50.6363685 37.8249563,50.1905119 C37.8249563,50.0833895 37.7988295,49.981473 37.7563728,49.8876709 L38,49.7521766 L37.8314843,49.5136097 L37.5839276,49.6514209 C37.4173699,49.488705 37.1815833,49.3810134 36.9131253,49.3810134 C36.8497672,49.3810134 36.7949017,49.401858 36.7354631,49.4128598 L36.5512629,49 L36.2566864,49.1024901 L36.4408866,49.514757 C36.181575,49.6572005 36,49.9004012 36,50.1904941 L36,50.1905119 Z" id="路径"></path>
                            <path d="M34,8.00035747 C34,8.5524514 33.5524514,9 33.0003575,9 C32.4475486,9 32,8.5524514 32,8.00035747 C32,7.4475486 32.4475486,7 33.0003575,7 C33.5524514,7 34,7.4475486 34,8.00035747" id="路径"></path>
                            <path d="M43.6031585,8.02954081 L43.5616116,8.01666203 L43.3252147,8.90000065 L43.6597389,9 L43.8961359,8.11666139 L43.6418409,8.04014623 C43.7528728,8.08635826 43.872498,8.11666139 43.9992879,8.11666139 C44.5530079,8.11666139 45,7.64166349 45,7.05833069 C45,6.47348517 44.5530079,6 43.9992879,6 C43.446283,6 43,6.47424153 43,7.05833069 C42.9985736,7.49393937 43.2478644,7.86591633 43.6031658,8.02954353 L43.6031585,8.02954081 Z" id="路径"></path>
                            <path d="M41,24.0003575 C41,24.5524514 40.5524514,25 40.0003575,25 C39.4475486,25 39,24.5524514 39,24.0003575 C39,23.4475486 39.4475486,23 40.0003575,23 C40.5524514,23 41,23.4475486 41,24.0003575" id="路径"></path>
                            <path d="M32.8160345,24.904265 L32.8160345,25 L33.1632032,25 L33.1632032,24.9092152 C33.6342129,24.8159543 34,24.3628672 34,23.7934051 C34,23.2231191 33.6349276,22.7716778 33.1632032,22.680067 L33.1632032,22 L32.8160345,22 L32.8160345,22.6850109 C32.3550486,22.7881745 32,23.232183 32,23.7934051 C32,24.3554513 32.3550486,24.8011034 32.8160345,24.9042713 L32.8160345,24.904265 Z" id="路径"></path>
                            <polygon id="路径" points="34.2473835 38 34 37.6722089 34.7526165 37 35 37.3277911"></polygon>
                            <polygon id="路径" points="35 36.6719226 35.7534185 36 36 36.3280774 35.2465815 37"></polygon>
                            <polygon id="路径" points="39 33.6719226 39.7534185 33 40 33.3280774 39.2465815 34"></polygon>
                            <polygon id="路径" points="38 34.6719226 38.7534185 34 39 34.3280774 38.2465815 35"></polygon>
                            <polygon id="路径" points="41.246384 33 41 32.6710341 41.753616 32 42 32.3289659"></polygon>
                            <polygon id="路径" points="37 35.6719226 37.7534185 35 38 35.3280774 37.2465815 36"></polygon>
                            <polygon id="路径" points="43 31.3280774 42.2465815 32 42 31.6719226 42.7534185 31"></polygon>
                            <polygon id="路径" points="44.1524902 44 45 44.5292803 44.8475098 45 44 44.4707197"></polygon>
                            <polygon id="路径" points="39.1526069 42 40 42.5297802 39.8473931 43 39 42.4702198"></polygon>
                            <polygon id="路径" points="42 43.4707197 42.1524902 43 43 43.5292803 42.8475098 44"></polygon>
                            <polygon id="路径" points="40.1526069 42 41 42.5297802 40.8473931 43 40 42.4702198"></polygon>
                            <polygon id="路径" points="37.1524902 41 38 41.5292803 37.8475098 42 37 41.4707197"></polygon>
                            <polygon id="路径" points="34.8473931 40 34 39.4702198 34.1526069 39 35 39.5297802"></polygon>
                            <polygon id="路径" points="50 43.5672394 49.1090645 44 49 43.4327606 49.8909355 43"></polygon>
                            <polygon id="路径" points="51 43.5672394 50.1090645 44 50 43.4327606 50.8909355 43"></polygon>
                            <polygon id="路径" points="52.8908518 42 53 42.5665479 52.1091482 43 52 42.4334521"></polygon>
                            <polygon id="路径" points="55 42.5665479 54.1091482 43 54 42.4334521 54.8908518 42"></polygon>
                            <polygon id="路径" points="47 44.4327606 47.8909355 44 48 44.5672394 47.1090645 45"></polygon>
                            <polygon id="路径" points="57.1091482 42 57 41.4334521 57.8908518 41 58 41.5665479"></polygon>
                            <polygon id="路径" points="55.1091482 42 55 41.4334521 55.8908518 41 56 41.5665479"></polygon>
                            <polygon id="路径" points="55.5624399 33 55 32.1707709 55.4375601 32 56 32.8292291"></polygon>
                            <polygon id="路径" points="54.4375601 30 55 30.8292291 54.5624399 31 54 30.1707709"></polygon>
                            <polygon id="路径" points="57.5624399 38 57 37.1707709 57.4375601 37 58 37.8292291"></polygon>
                            <polygon id="路径" points="56.4375601 35 57 35.8292291 56.5624399 36 56 35.1707709"></polygon>
                            <polygon id="路径" points="58.4375601 38 59 38.8292291 58.5624399 39 58 38.1707709"></polygon>
                            <polygon id="路径" points="56.5624399 34 56 33.1707709 56.4375601 33 57 33.8292291"></polygon>
                            <polygon id="路径" points="46 28.95 47 28.95 47 29.05 46 29.05"></polygon>
                            <polygon id="路径" points="48 28.95 49 28.95 49 29.05 48 29.05"></polygon>
                            <polygon id="路径" points="49 28.95 50 28.95 50 29.05 49 29.05"></polygon>
                            <polygon id="路径" points="51 28.95 52 28.95 52 29.05 51 29.05"></polygon>
                            <polygon id="路径" points="39 48.6098424 39.799223 48 40 48.3901576 39.200777 49"></polygon>
                            <polygon id="路径" points="40 47.6098424 40.799223 47 41 47.3901576 40.200777 48"></polygon>
                            <polygon id="路径" points="42 46.6098424 42.799223 46 43 46.3901576 42.200777 47"></polygon>
                            <polygon id="路径" points="43 45.6094732 43.799223 45 44 45.3905268 43.200777 46"></polygon>
                            <polygon id="路径" points="34.7477773 52 35 52.3229111 34.2522227 53 34 52.6770889"></polygon>
                            <polygon id="路径" points="35.7477773 51 36 51.3229111 35.2522227 52 35 51.6770889"></polygon>
                            <polygon id="路径" points="34 49.95 35 49.95 35 50.05 34 50.05"></polygon>
                            <polygon id="路径" points="35 42.8637051 34.4960956 43 34 42.1362949 34.5039044 42"></polygon>
                            <polygon id="路径" points="33.4972236 42 33 41.1370611 33.5027764 41 34 41.8629389"></polygon>
                            <polygon id="路径" points="36 45.8621747 35.4983378 46 35 45.1378273 35.5016622 45"></polygon>
                            <polygon id="路径" points="34.4977764 45 34 44.1370611 34.5022236 44 35 44.8629389"></polygon>
                            <polygon id="路径" points="36.5022236 47 37 47.8629389 36.4977764 48 36 47.1370611"></polygon>
                            <polygon id="路径" points="43.5932048 61 43 60.1890016 43.4067952 60 44 60.8109984"></polygon>
                            <polygon id="路径" points="41 56.8111482 40.5928101 57 40 56.1888518 40.4071899 56"></polygon>
                            <polygon id="路径" points="38.4067952 51 39 51.8109984 38.5932048 52 38 51.1890016"></polygon>
                            <polygon id="路径" points="42.4067952 59 43 59.8109984 42.5932048 60 42 59.1890016"></polygon>
                            <polygon id="路径" points="39.4067952 54 40 54.8109968 39.5932048 55 39 54.1890032"></polygon>
                            <polygon id="路径" points="41.4067952 57 42 57.8109984 41.5932048 58 41 57.1890016"></polygon>
                            <polygon id="路径" points="39.5932048 54 39 53.1890016 39.4067952 53 40 53.8109984"></polygon>
                            <polygon id="路径" points="49.0807453 62 49 61.3550904 49.9192547 61 50 61.6449096"></polygon>
                            <polygon id="路径" points="51.0807453 62 51 61.3550904 51.9192547 61 52 61.6449096"></polygon>
                            <polygon id="路径" points="53.0807453 61 53 60.3550904 53.9192547 60 54 60.6449096"></polygon>
                            <polygon id="路径" points="48.0807453 62 48 61.3550904 48.9192547 61 49 61.6449096"></polygon>
                            <polygon id="路径" points="46.0807453 63 46 62.3550904 46.9192547 62 47 62.6449096"></polygon>
                            <polygon id="路径" points="50 52.2260898 50.3531983 52 51 52.7739102 50.6468017 53"></polygon>
                            <polygon id="路径" points="53.6458998 57 53 56.2260898 53.3541002 56 54 56.7739102"></polygon>
                            <polygon id="路径" points="51.6455802 54 51 53.2253005 51.3544198 53 52 53.7746995"></polygon>
                            <polygon id="路径" points="52.3544198 54 53 54.7746995 52.6455802 55 52 54.2253005"></polygon>
                            <polygon id="路径" points="49.3544198 50 50 50.7740885 49.6455802 51 49 50.2259115"></polygon>
                            <polygon id="路径" points="54.6455802 58 54 57.2259115 54.3544198 57 55 57.7740885"></polygon>
                            <polygon id="路径" points="47.3544198 47 48 47.7746995 47.6455802 48 47 47.2253005"></polygon>
                            <polygon id="路径" points="46.6455802 47 46 46.2253005 46.3544198 46 47 46.7746995"></polygon>
                            <polygon id="路径" points="48.6455802 50 48 49.2259115 48.3544198 49 49 49.7740885"></polygon>
                            <polygon id="路径" points="44.96184 58 45.05 58.0210519 45.03816 59 44.95 58.9789481"></polygon>
                            <polygon id="路径" points="45.03816 47 44.95 46.978982 44.96184 46 45.05 46.021018"></polygon>
                            <polygon id="路径" points="44.96184 55 45.05 55.021018 45.03816 56 44.95 55.978982"></polygon>
                            <polygon id="路径" points="44.96184 48 45.05 48.021018 45.03816 49 44.95 48.978982"></polygon>
                            <polygon id="路径" points="44.96184 50 45.05 50.0210519 45.03816 51 44.95 50.9789481"></polygon>
                            <polygon id="路径" points="45.03816 61 44.95 60.9789481 44.96184 60 45.05 60.0210519"></polygon>
                            <polygon id="路径" points="44.96184 53 45.05 53.021018 45.03816 54 44.95 53.978982"></polygon>
                            <polygon id="路径" points="44.96184 52 45.05 52.0210519 45.03816 53 44.95 52.9789481"></polygon>
                            <polygon id="路径" points="44.96184 57 45.05 57.021018 45.03816 58 44.95 57.978982"></polygon>
                            <polygon id="路径" points="37 66.570572 37.8237112 66 38 66.429428 37.1762888 67"></polygon>
                            <path d="M36.5531801,67.1476326 C36.5841887,67.1341539 36.6138479,67.1270936 36.6448566,67.113615 C36.951561,66.9781854 37.0850421,66.6309472 36.9434849,66.3382574 C36.8012512,66.045584 36.4365675,65.9191291 36.1291728,66.0539146 C35.4887917,66.3363349 34.8470472,66.4974268 34.2309291,66.5840852 L33.162494,66.5840852 L33.162494,66.0982133 L32.8355646,66.0982133 L32.8355646,66.5840852 L31.9626141,66.5840852 C30.7303778,66.4216985 29.8878337,66.0622617 29.8716124,66.0551963 C29.564235,65.9184834 29.2008938,66.0468521 29.0573003,66.3382574 C28.9150667,66.6302899 29.0465149,66.975609 29.3532193,67.112317 C29.4462436,67.1533951 30.8840838,67.7695668 32.8356337,67.8266983 L32.8356337,68.2432633 C32.4069067,68.3267028 32.0772853,68.6713794 32.0772853,69.1039813 C32.0772853,69.5365831 32.4055607,69.8812614 32.8356337,69.9646993 L32.8356337,69.9878049 L32.9562964,69.9878049 C32.9785421,69.9890887 32.9974158,70 33.0203345,70 C33.0432532,70 33.0614539,69.9890887 33.0830249,69.9878049 L33.1632412,69.9878049 L33.1632412,69.9724006 C33.6128661,69.9037229 33.9606934,69.5500683 33.9606934,69.1033355 C33.9606934,68.6566028 33.6128661,68.3023122 33.1632412,68.2342704 L33.1632412,67.8343996 C34.1723648,67.8299068 35.3022167,67.6559727 36.4480657,67.1861376 L35.8272192,67.5012889 L35.9809114,67.7766438 L36.7015192,67.4101448 L36.5531801,67.1476326 Z" id="路径" stroke="#FFFFFF"></path>
                            <polygon id="路径" points="34 67.570572 34.8237112 67 35 67.429428 34.1762888 68"></polygon>
                            <polygon id="路径" points="40 64.5710007 40.8237112 64 41 64.4289993 40.1762888 65"></polygon>
                            <polygon id="路径" points="39 65.5710007 39.8237112 65 40 65.4289993 39.1762888 66"></polygon>
                            <polygon id="路径" points="44.9709837 69 44.95 68.0405733 45.0290163 68 45.05 68.9594267"></polygon>
                            <polygon id="路径" points="42.1762888 64 42 63.570572 42.8237112 63 43 63.429428"></polygon>
                            <polygon id="路径" points="44.95 66.0413676 45.0287581 66 45.05 66.9586324 44.9712419 67"></polygon>
                            <polygon id="路径" points="44.95 65.041302 45.0287581 65 45.05 65.958698 44.9712419 66"></polygon>
                            <polygon id="路径" points="38.9252333 71 38 70.6643394 38.0747667 70 39 70.3356606"></polygon>
                            <polygon id="路径" points="43.9252333 72 43 71.6643394 43.0747667 71 44 71.3356606"></polygon>
                            <polygon id="路径" points="41.9252333 71 41 70.6643394 41.0747667 70 42 70.3356606"></polygon>
                            <polygon id="路径" points="39.9252333 71 39 70.6643394 39.0747667 70 40 70.3356606"></polygon>
                            <polygon id="路径" points="36.9245712 70 36 69.6629562 36.0754288 69 37 69.3370438"></polygon>
                            <polygon id="路径" points="34.9252333 70 34 69.6643394 34.0747667 69 35 69.3356606"></polygon>
                            <polygon id="路径" points="41.690325 27 41 26.2632435 41.309675 26 42 26.7367565"></polygon>
                            <polygon id="路径" points="42.309675 27 43 27.7367565 42.690325 28 42 27.2632435"></polygon>
                            <polygon id="路径" points="40.690325 26 40 25.2632435 40.309675 25 41 25.7367565"></polygon>
                            <polygon id="路径" points="34 23.95 35 23.95 35 24.05 34 24.05"></polygon>
                            <polygon id="路径" points="38 23.95 39 23.95 39 24.05 38 24.05"></polygon>
                            <polygon id="路径" points="36 23.95 37 23.95 37 24.05 36 24.05"></polygon>
                            <polygon id="路径" points="52.162826 18 52 17.5486564 52.837174 17 53 17.4513436"></polygon>
                            <polygon id="路径" points="44.837174 21 45 21.4513436 44.162826 22 44 21.5486564"></polygon>
                            <polygon id="路径" points="54.162826 18 54 17.5486564 54.837174 17 55 17.4513436"></polygon>
                            <polygon id="路径" points="43.162826 23 43 22.5486564 43.837174 22 44 22.4513436"></polygon>
                            <polygon id="路径" points="47.162828 21 47 20.5486564 47.837174 20 48 20.4513436"></polygon>
                            <polygon id="路径" points="46.8371743 20 47 20.4513436 46.1628276 21 46 20.5486564"></polygon>
                            <polygon id="路径" points="49.162826 20 49 19.5486564 49.837174 19 50 19.4513436"></polygon>
                            <polygon id="路径" points="56 16.4513436 55.162826 17 55 16.5486564 55.837174 16"></polygon>
                            <polygon id="路径" points="50.162826 19 50 18.5486564 50.837174 18 51 18.4513436"></polygon>
                            <polygon id="路径" points="41.162826 24 41 23.5486564 41.837174 23 42 23.4513436"></polygon>
                            <polygon id="路径" points="56 20.8901687 56.4353595 20 57 20.1098313 56.5646405 21"></polygon>
                            <polygon id="路径" points="57.4360461 17 58 17.1099156 57.5639539 18 57 17.8900844"></polygon>
                            <polygon id="路径" points="56.4360461 19 57 19.1099156 56.5639539 20 56 19.8900844"></polygon>
                            <polygon id="路径" points="55.4360461 22 56 22.1099156 55.5639539 23 55 22.8900844"></polygon>
                            <polygon id="路径" points="55 24.8901687 55.4353595 24 56 24.1098313 55.5646405 25"></polygon>
                            <polygon id="路径" points="54.4360461 25 55 25.1099156 54.5639539 26 54 25.8900844"></polygon>
                            <polygon id="路径" points="54.5639539 28 54 27.8900844 54.4360461 27 55 27.1099156"></polygon>
                            <polygon id="路径" points="43.4153149 10 44 10.102386 43.5846851 11 43 10.897614"></polygon>
                            <polygon id="路径" points="42.5846851 14 42 13.897614 42.4153149 13 43 13.102386"></polygon>
                            <polygon id="路径" points="41.5846851 19 41 18.897614 41.4153149 18 42 18.102386"></polygon>
                            <polygon id="路径" points="42 17.1016938 41.5852047 18 41 17.8983062 41.4147953 17"></polygon>
                            <polygon id="路径" points="40.4153149 22 41 22.102386 40.5846851 23 40 22.897614"></polygon>
                            <polygon id="路径" points="42.4153149 15 43 15.102386 42.5846851 16 42 15.897614"></polygon>
                            <polygon id="路径" points="40.4153149 20 41 20.102386 40.5846851 21 40 20.897614"></polygon>
                            <polygon id="路径" points="43.5846851 13 43 12.897614 43.4153149 12 44 12.102386"></polygon>
                            <polygon id="路径" points="39 7.95 40 7.95 40 8.05 39 8.05"></polygon>
                            <polygon id="路径" points="42 7.95 43 7.95 43 8.05 42 8.05"></polygon>
                            <polygon id="路径" points="35 7.95 36 7.95 36 8.05 35 8.05"></polygon>
                            <polygon id="路径" points="41 7.95 42 7.95 42 8.05 41 8.05"></polygon>
                            <polygon id="路径" points="37 7.95 38 7.95 38 8.05 37 8.05"></polygon>
                            <polygon id="路径" points="34 7.95 35 7.95 35 8.05 34 8.05"></polygon>
                            <polygon id="路径" points="55.1765602 13 56 13.5734234 55.8234398 14 55 13.4265766"></polygon>
                            <polygon id="路径" points="53.1765602 12 54 12.5729975 53.8234398 13 53 12.4270025"></polygon>
                            <polygon id="路径" points="47.1765602 9 48 9.57342335 47.8234398 10 47 9.42657665"></polygon>
                            <polygon id="路径" points="52.1765602 11 53 11.5734234 52.8234398 12 52 11.4265766"></polygon>
                            <polygon id="路径" points="49.1765602 10 50 10.5734234 49.8234398 11 49 10.4265766"></polygon>
                            <polygon id="路径" points="46.1765602 8 47 8.57342335 46.8234398 9 46 8.42657665"></polygon>
                            <polygon id="路径" points="50.1765602 11 51 11.5734234 50.8234398 12 50 11.4265766"></polygon>
                            <polygon id="路径" points="32.95 28 33.05 28 33.05 29 32.95 29"></polygon>
                            <polygon id="路径" points="32.95 29 33.05 29 33.05 30 32.95 30"></polygon>
                            <polygon id="路径" points="32.95 36 33.05 36 33.05 37 32.95 37"></polygon>
                            <polygon id="路径" points="32.95 26 33.05 26 33.05 27 32.95 27"></polygon>
                            <polygon id="路径" points="32.95 33 33.05 33 33.05 34 32.95 34"></polygon>
                            <polygon id="路径" points="32.95 64 33.05 64 33.05 65 32.95 65"></polygon>
                            <polygon id="路径" points="32.95 59 33.05 59 33.05 60 32.95 60"></polygon>
                            <polygon id="路径" points="32.95 57 33.05 57 33.05 58 32.95 58"></polygon>
                            <polygon id="路径" points="32.95 74 33.05 74 33.05 75 32.95 75"></polygon>
                            <polygon id="路径" points="32.95 60 33.05 60 33.05 61 32.95 61"></polygon>
                            <polygon id="路径" points="32.95 72 33.05 72 33.05 73 32.95 73"></polygon>
                            <polygon id="路径" points="32.95 35 33.05 35 33.05 36 32.95 36"></polygon>
                            <polygon id="路径" points="32.95 71 33.05 71 33.05 72 32.95 72"></polygon>
                            <polygon id="路径" points="32.95 31 33.05 31 33.05 32 32.95 32"></polygon>
                            <path d="M32.8151877,52.911942 C32.3538721,53.0078581 32,53.4189316 32,53.9365613 C32,54.5234696 32.4484238,55 33.0014304,55 C33.5544369,55 34,54.5227096 34,53.9365613 C34,53.4097919 33.6353817,52.9926207 33.1626048,52.9073819 L33.1626048,52 L32.8151877,52 L32.8151877,52.911942 Z" id="路径"></path>
                            <polygon id="路径" points="32.95 45 33.05 45 33.05 46 32.95 46"></polygon>
                            <polygon id="路径" points="32.95 43 33.05 43 33.05 44 32.95 44"></polygon>
                            <polygon id="路径" points="32.95 41 33.05 41 33.05 42 32.95 42"></polygon>
                            <polygon id="路径" points="33 51 33.3157842 51 33.3157842 50.2955492 34 50.2955492 34 50 33.2118203 50 33.2118203 50.2608228 33 50.2608228"></polygon>
                            <polygon id="路径" points="32.95 48 33.05 48 33.05 49 32.95 49"></polygon>
                            <polygon id="路径" points="32.95 47 33.05 47 33.05 48 32.95 48"></polygon>
                            <polygon id="路径" points="32.95 11 33.05 11 33.05 12 32.95 12"></polygon>
                            <polygon id="路径" points="32.95 14 33.05 14 33.05 15 32.95 15"></polygon>
                            <polygon id="路径" points="32.95 12 33.05 12 33.05 13 32.95 13"></polygon>
                            <polygon id="路径" points="32.95 9 33.05 9 33.05 10 32.95 10"></polygon>
                            <polygon id="路径" points="32.95 21 33.05 21 33.05 22 32.95 22"></polygon>
                            <polygon id="路径" points="32.95 19 33.05 19 33.05 20 32.95 20"></polygon>
                            <polygon id="路径" points="32.95 17 33.05 17 33.05 18 32.95 18"></polygon>
                            <polygon id="路径" points="32.95 16 33.05 16 33.05 17 32.95 17"></polygon>
                        </g>
                        <g id="编组" transform="translate(16.000000, 10.000000)">
                            <path d="M9.78461538,0 L9.78461538,2.12280701 L8.67692308,2.12280701 L8.67692308,1.15789474 L5.53846154,1.15789474 L5.53846154,9.84210526 L6.83076924,9.84210526 L6.83076924,11 L3.13846153,11 L3.13846153,9.84210526 L4.43076923,9.84210526 L4.43076923,1.15789474 L1.10769231,1.15789474 L1.10769231,2.12280701 L0,2.12280701 L0,0 L9.78461538,0 Z M12,9.84210526 L12,11 L7.56923077,11 L7.56923077,9.84210526 L12,9.84210526 Z M12,7.52631579 L12,8.68421053 L7.56923077,8.68421053 L7.56923077,7.52631579 L12,7.52631579 Z M12,5.21052632 L12,6.36842105 L7.56923077,6.36842105 L7.56923077,5.21052632 L12,5.21052632 Z" id="形状"></path>
                        </g>
                    </g>
                </g>
            </g>
        </g>
    </g>
</svg>