<?xml version="1.0" encoding="UTF-8"?>
<svg width="272px" height="140px" viewBox="0 0 272 140" version="1.1" xmlns="http://www.w3.org/2000/svg" xmlns:xlink="http://www.w3.org/1999/xlink">
    <title>编组 61备份</title>
    <defs>
        <linearGradient x1="0%" y1="50%" x2="100%" y2="50%" id="linearGradient-1">
            <stop stop-color="#D675A3" offset="0%"></stop>
            <stop stop-color="#8D86D7" offset="45.7084176%"></stop>
            <stop stop-color="#8CBFC6" offset="100%"></stop>
        </linearGradient>
        <linearGradient x1="50.0100391%" y1="0%" x2="50%" y2="100%" id="linearGradient-2">
            <stop stop-color="#D675A3" offset="0%"></stop>
            <stop stop-color="#8D86D7" offset="45.7084176%"></stop>
            <stop stop-color="#8CBFC6" offset="100%"></stop>
        </linearGradient>
    </defs>
    <g id="页面-1" stroke="none" stroke-width="1" fill="none" fill-rule="evenodd">
        <g id="核心技术" transform="translate(-1303.000000, -3973.000000)">
            <g id="编组-61备份" transform="translate(1303.300000, 3990.845786)">
                <polygon id="路径备份-2" fill="#D575A3" fill-rule="nonzero" transform="translate(15.500000, 106.000000) scale(1, -1) rotate(90.000000) translate(-15.500000, -106.000000) " points="18.6 90.5 18.6 103.416667 31 103.416667 31 108.583333 18.6 108.583333 18.6 121.5 0 106"></polygon>
                <polygon id="路径备份-3" fill="#8DC0C6" fill-rule="nonzero" transform="translate(255.900000, 106.000000) scale(1, -1) rotate(-90.000000) translate(-255.900000, -106.000000) " points="244.828571 90.5 271.4 106 244.828571 121.5 244.828571 108.583333 240.4 108.583333 240.4 103.416667 244.828571 103.416667"></polygon>
                <path d="M255.660341,51.5 L255.660341,56.1255378 L255.660341,86.7181818 C255.660341,88.8068223 253.326248,90.5 250.446998,90.5 L20.873685,90.5 C17.9944348,90.5 15.6603413,88.8068223 15.6603413,86.7181818 L15.6603413,74.6260436 L15.6603413,57.1232751" id="路径备份" stroke="url(#linearGradient-1)" stroke-width="5" stroke-dasharray="12" transform="translate(135.660341, 71.000000) scale(1, -1) translate(-135.660341, -71.000000) "></path>
                <path id="直线-10备份-4" d="M141.2,33 L141.2,54 L136.2,54 L136.2,33 L141.2,33 Z M138.7,-14.5 C146.708129,-14.5 153.2,-8.00812887 153.2,8.87868929e-16 C153.2,7.15533339 148.017163,13.1001504 141.200793,14.2851479 L141.2,22 L136.2,22 L136.200211,14.2853224 C129.383346,13.100734 124.2,7.15568463 124.2,-8.87868929e-16 C124.2,-8.00812887 130.691871,-14.5 138.7,-14.5 Z" fill="url(#linearGradient-2)" fill-rule="nonzero"></path>
            </g>
        </g>
    </g>
</svg>