<?xml version="1.0" encoding="UTF-8"?>
<svg width="100px" height="153px" viewBox="0 0 100 153" version="1.1" xmlns="http://www.w3.org/2000/svg" xmlns:xlink="http://www.w3.org/1999/xlink">
    <title>直线 10备份 14</title>
    <defs>
        <linearGradient x1="0%" y1="50%" x2="100%" y2="50%" id="linearGradient-1">
            <stop stop-color="#D675A3" offset="0%"></stop>
            <stop stop-color="#8D86D7" offset="45.7084176%"></stop>
            <stop stop-color="#8CBFC6" offset="100%"></stop>
        </linearGradient>
    </defs>
    <g id="页面-1" stroke="none" stroke-width="1" fill="none" fill-rule="evenodd">
        <g id="核心技术" transform="translate(-157.000000, -1650.000000)" fill="url(#linearGradient-1)" fill-rule="nonzero">
            <g id="编组-10" transform="translate(24.000000, 1136.000000)">
                <g id="编组-6" transform="translate(40.000000, 201.000000)">
                    <g id="编组-5" transform="translate(86.750000, 66.500000)">
                        <path id="直线-10备份-14" d="M90.7954442,373.850492 L91.3398466,374.689316 L99.467,387.212 L104.500135,383.945645 L106.25,399.5 L92.7565967,391.567279 L97.789,388.301 L89.6621983,375.778121 L89.1177958,374.939297 L90.7954442,373.850492 Z M73.3745661,347.008118 L73.9189685,347.846942 L82.6294076,361.268129 L83.17381,362.106953 L81.4961617,363.195758 L80.9517592,362.356934 L72.2413202,348.935747 L71.6969177,348.096923 L73.3745661,347.008118 Z M55.953688,320.165745 L56.4980905,321.004569 L65.2085295,334.425756 L65.7529319,335.26458 L64.0752836,336.353385 L63.5308812,335.514561 L54.8204421,322.093374 L54.2760397,321.25455 L55.953688,320.165745 Z M38.5328099,293.323372 L39.0772124,294.162196 L47.7876514,307.583382 L48.3320539,308.422207 L46.6544055,309.511011 L46.1100031,308.672187 L37.399564,295.251001 L36.8551616,294.412176 L38.5328099,293.323372 Z M21.1119319,266.480998 L21.6563343,267.319822 L30.3667733,280.741009 L30.9111758,281.579833 L29.2335275,282.668638 L28.689125,281.829814 L19.978686,268.408627 L19.4342835,267.569803 L21.1119319,266.480998 Z M8.54442173,247.116773 L9.08882417,247.955598 L12.9458953,253.898636 L13.4902977,254.73746 L11.8126494,255.826265 L11.2682469,254.987441 L7.41117583,249.044402 L6.86677339,248.205578 L8.54442173,247.116773 Z"></path>
                    </g>
                </g>
            </g>
        </g>
    </g>
</svg>