<?xml version="1.0" encoding="UTF-8"?>
<svg width="100px" height="153px" viewBox="0 0 100 153" version="1.1" xmlns="http://www.w3.org/2000/svg" xmlns:xlink="http://www.w3.org/1999/xlink">
    <title>直线 10备份 14</title>
    <defs>
        <linearGradient x1="0%" y1="50%" x2="100%" y2="50%" id="linearGradient-1">
            <stop stop-color="#D675A3" offset="0%"></stop>
            <stop stop-color="#8D86D7" offset="45.7084176%"></stop>
            <stop stop-color="#8CBFC6" offset="100%"></stop>
        </linearGradient>
    </defs>
    <g id="页面-1" stroke="none" stroke-width="1" fill="none" fill-rule="evenodd">
        <g id="核心技术" transform="translate(-321.000000, -1651.000000)" fill="url(#linearGradient-1)" fill-rule="nonzero">
            <g id="编组-10" transform="translate(24.000000, 1136.000000)">
                <g id="编组-6" transform="translate(40.000000, 201.000000)">
                    <g id="编组-5备份" transform="translate(311.250000, 265.500000) scale(-1, 1) translate(-311.250000, -265.500000) translate(257.750000, 65.500000)">
                        <path id="直线-10备份-14" d="M97.8339827,384.695587 L98.3783851,385.534411 L107.088824,398.955598 L107.633227,399.794422 L105.955578,400.883227 L105.411176,400.044402 L96.7007368,386.623216 L96.1563344,385.784392 L97.8339827,384.695587 Z M80.4131046,357.853213 L80.9575071,358.692038 L89.6679461,372.113224 L90.2123485,372.952048 L88.5347002,374.040853 L87.9902978,373.202029 L79.2798587,359.780842 L78.7354563,358.942018 L80.4131046,357.853213 Z M62.9922266,331.01084 L63.536629,331.849664 L72.247068,345.270851 L72.7914705,346.109675 L71.1138221,347.19848 L70.5694197,346.359656 L61.8589807,332.938469 L61.3145782,332.099645 L62.9922266,331.01084 Z M45.5713485,304.168467 L46.1157509,305.007291 L54.82619,318.428477 L55.3705924,319.267302 L53.6929441,320.356107 L53.1485416,319.517282 L44.4381026,306.096096 L43.8937001,305.257272 L45.5713485,304.168467 Z M28.1504704,277.326093 L28.6948728,278.164917 L37.4053119,291.586104 L37.9497143,292.424928 L36.272066,293.513733 L35.7276636,292.674909 L27.0172245,279.253722 L26.4728221,278.414898 L28.1504704,277.326093 Z M8.25,248.5 L21.7434033,256.432721 L16.71,259.698 L19.9844338,264.743731 L20.5288363,265.582555 L18.8511879,266.67136 L18.3067855,265.832536 L15.032,260.787 L9.99986498,264.054355 L8.25,248.5 Z"></path>
                    </g>
                </g>
            </g>
        </g>
    </g>
</svg>