<?xml version="1.0" encoding="UTF-8"?>
<svg width="105px" height="104px" viewBox="0 0 105 104" version="1.1" xmlns="http://www.w3.org/2000/svg" xmlns:xlink="http://www.w3.org/1999/xlink">
    <title>编组 24</title>
    <defs>
        <linearGradient x1="0%" y1="50%" x2="100%" y2="50%" id="linearGradient-1">
            <stop stop-color="#D675A3" offset="0%"></stop>
            <stop stop-color="#8D86D7" offset="45.7084176%"></stop>
            <stop stop-color="#8CBFC6" offset="100%"></stop>
        </linearGradient>
    </defs>
    <g id="页面-1" stroke="none" stroke-width="1" fill="none" fill-rule="evenodd">
        <g id="核心技术" transform="translate(-917.000000, -1985.000000)">
            <g id="编组-24" transform="translate(917.750000, 1985.000000)">
                <rect id="矩形" fill="url(#linearGradient-1)" x="0" y="0" width="104" height="104" rx="52"></rect>
                <g id="衣服2" transform="translate(25.000000, 19.000000)" fill="#FFFFFF" fill-rule="nonzero">
                    <path d="M49.6399752,4.25837704 L43.7463107,4.25837704 C43.5491742,1.96499164 41.6392524,0 39.1211501,0 L16.1325651,0 C13.6210187,0 11.7063705,1.95777925 11.5086242,4.25837704 L5.35881938,4.25837704 C2.40421142,4.25837704 0,6.55958865 0,9.38837864 L0,61.8699984 C0,64.6987884 2.40436388,67 5.35881938,67 L49.6405851,67 C52.5951931,67 54.9994045,64.6987884 54.9994045,61.8699984 L55,9.38837864 C55,6.55958865 52.5956361,4.25837704 49.6405708,4.25837704 L49.6399752,4.25837704 Z M40.8494867,5.23725132 L36.0093513,20.1613667 L29.8720486,14.4295144 L39.4410204,2.86637113 C40.4832519,3.04979593 41.2056436,4.14076911 40.8495325,5.23709787 L40.8494867,5.23725132 Z M34.4441516,56.5648893 L27.4992448,63.318752 L21.3726147,57.3604001 L33.1582667,49.057102 L34.4441516,56.5648893 Z M25.8668083,25.5485589 L29.1316814,25.5485589 L29.9368765,30.2499606 L24.4278796,33.9460784 L25.8668083,25.5485589 Z M23.7679831,37.801636 L30.4608662,33.3100073 L31.1779216,37.4976416 L22.7268189,43.8767671 L23.7679831,37.801636 Z M22.0295838,47.9523792 L31.7170205,40.6399402 L32.628834,45.9640624 L20.9622567,54.1834207 L22.0295838,47.9523792 Z M29.6146887,22.709027 L25.383801,22.709027 L25.383801,18.5758693 L27.8881816,16.4485223 L29.6593607,18.1023071 C29.578364,18.4242097 29.6313698,18.2437742 29.6146932,22.709027 L29.6146887,22.709027 Z M27.9072396,12.366465 L19.6342154,2.83721468 L35.7923944,2.83721468 L27.9072396,12.366465 Z M14.6678394,3.58300612 C14.9680113,3.17239115 15.408725,2.91403426 15.901246,2.85229931 L25.9270013,14.400404 L19.0476542,20.2448922 L14.4093817,5.25479123 C14.407595,5.23500934 14.0728927,4.39639449 14.6678546,3.5828987 L14.6678394,3.58300612 Z M2.82028681,61.868295 L2.82028681,9.38667529 C2.82028681,8.12366368 3.95901306,7.09559172 5.35851445,7.09559172 L12.0247162,7.09559172 L16.9863658,23.1316422 C17.2859279,24.0991301 18.4728939,24.4485933 19.2423818,23.7940155 L22.5638192,20.9730517 L22.5638192,24.1290078 C22.5638192,24.562994 22.7579673,24.9508362 23.0628962,25.211587 L17.6485797,56.8217883 C17.5693699,57.2845473 17.7224305,57.7575111 18.0583279,58.083603 L24.3063197,64.1601152 L5.35804181,64.1595158 C3.95846419,64.1595158 2.81981417,63.1320884 2.81981417,61.8684322 L2.82028681,61.868295 Z M52.1791177,61.868295 C52.1791177,63.1319051 51.0403914,64.1599924 49.64089,64.1599924 L30.6926121,64.159393 L36.940604,58.0828808 C37.2764983,57.7561904 37.4295573,57.2838405 37.3503521,56.8210662 L31.9360357,25.2108648 C32.2409645,24.9507125 32.4351127,24.5628703 32.4351127,24.1288841 L32.4351127,20.694714 L35.7065417,23.7500037 C36.444439,24.4399528 37.682633,24.1492323 38.0066199,23.1499638 L43.2135847,7.09549872 L49.6396551,7.09549872 C51.0392327,7.09549872 52.1778827,8.12352465 52.1778827,9.3865823 L52.1791177,61.868295 Z" id="形状"></path>
                </g>
            </g>
        </g>
    </g>
</svg>