<?xml version="1.0" encoding="UTF-8"?>
<svg width="180px" height="181px" viewBox="0 0 180 181" version="1.1" xmlns="http://www.w3.org/2000/svg" xmlns:xlink="http://www.w3.org/1999/xlink">
    <title>编组 65</title>
    <defs>
        <linearGradient x1="0%" y1="50%" x2="100%" y2="50%" id="linearGradient-1">
            <stop stop-color="#757FD6" offset="0%"></stop>
            <stop stop-color="#86AAD7" offset="57.6072853%"></stop>
            <stop stop-color="#84BDB8" offset="100%"></stop>
        </linearGradient>
    </defs>
    <g id="页面-1" stroke="none" stroke-width="1" fill="none" fill-rule="evenodd">
        <g id="核心技术" transform="translate(-872.000000, -3722.000000)">
            <g id="编组-65" transform="translate(872.000000, 3722.845786)">
                <path d="M16,0 L164,0 C172.836556,-1.623249e-15 180,7.163444 180,16 L180,164 C180,172.836556 172.836556,180 164,180 L16,180 C7.163444,180 1.082166e-15,172.836556 0,164 L0,16 C-1.082166e-15,7.163444 7.163444,1.623249e-15 16,0 Z" id="矩形-1" fill="url(#linearGradient-1)"></path>
                <g id="动作2" transform="translate(34.347826, 26.000000)" fill="#FFFFFF" fill-rule="nonzero">
                    <path d="M101.185604,121.263931 L97.8124327,121.263931 L97.8124327,101.058366 C97.8124327,97.4848876 96.3916066,94.0595502 93.8609076,91.5329586 C91.3302086,89.0063669 87.8996052,87.5874205 84.3210461,87.5874205 L80.9478748,87.5874205 L80.9478748,60.6455292 C80.9184962,55.6602724 79.0449619,50.8627521 75.6863537,47.1745836 L110.326724,12.5184299 C110.958373,11.883744 111.309562,11.0224091 111.304289,10.1277253 L111.304289,3.39310583 C111.304289,1.53308107 109.795238,0.0250451491 107.932391,0.0250451491 C106.069544,0.0250451491 104.55922,1.53308107 104.55922,3.39310583 L104.55922,8.74803285 L83.4789498,29.796364 C85.0426721,24.0881511 84.400357,18.0013932 81.6775343,12.7454545 C78.9547117,7.48951577 74.3529062,3.44806141 68.7843976,1.42255549 C63.2145214,-0.601482678 57.0877603,-0.461465399 51.6166808,1.81588048 C46.1469688,4.09459171 41.7363298,8.34262446 39.2578666,13.7187145 C36.7807365,19.0934392 36.4175135,25.2030668 38.2429615,30.8337958 C40.0684095,36.4631594 43.9465037,41.2019695 49.1088863,44.1088128 C47.4917317,45.2528448 46.0482063,46.6261883 44.8264436,48.1837184 L15.4814387,77.4828971 L10.1183861,77.4828971 C8.25553889,77.4828971 6.74654791,78.990933 6.74654791,80.8509578 C6.74654791,82.7109825 8.25553889,84.2190185 10.1183861,84.2190185 L16.8645921,84.2190185 C17.7606335,84.2243519 18.6232754,83.8723545 19.2589244,83.2416624 L40.474228,62.0253924 L40.474228,89.5738431 L8.73622402,121.263761 L3.3731714,121.263761 C1.51032423,121.263761 0,122.771796 0,124.631821 C0,126.491846 1.51032423,127.999942 3.3731714,127.999942 L10.1193774,127.999942 L10.1180418,127.999942 C11.0154164,128.005215 11.8767251,127.653218 12.5137073,127.022526 L45.2304478,94.3219034 L84.3217958,94.3219034 C86.1112121,94.3219034 87.8271975,95.0312401 89.0917266,96.2952527 C90.3576572,97.5579341 91.0680703,99.2713196 91.0680703,101.057956 L91.0680703,124.631514 C91.0680703,125.524867 91.4232939,126.380877 92.0562421,127.0129 C92.6878913,127.644923 93.5465335,127.999942 94.4412417,127.999942 L101.187448,127.999942 L101.186112,127.999942 C103.04896,127.999942 104.559284,126.491539 104.559284,124.631514 C104.559284,122.771489 103.04896,121.263453 101.186112,121.263453 L101.185604,121.263931 Z M43.8459294,23.6000021 C43.8459294,19.1346047 45.6233123,14.8518236 48.7854212,11.693072 C51.9475984,8.53568582 56.2382456,6.7610641 60.7104189,6.7610641 C65.1825922,6.7610641 69.471872,8.53575409 72.6354167,11.693072 C75.7975939,14.8517895 77.5749085,19.1346047 77.5749085,23.6000021 C77.5749085,28.0667649 75.7975256,32.349546 72.6354167,35.5069322 C69.4719062,38.6643184 65.1825922,40.4389402 60.7104189,40.4389402 C56.2382456,40.4389402 51.9475984,38.6642502 48.7854212,35.5069322 C45.6232439,32.3496143 43.8459294,28.0667649 43.8459294,23.6000021 Z M47.218964,60.6455292 L47.218964,60.6468629 C47.2377962,57.6654711 48.246005,54.7761725 50.0861529,52.4294666 L52.4804851,50.038762 L52.4804851,50.0374287 C55.1499097,47.9854008 58.4923823,47.0053822 61.8507855,47.2893763 C65.2079238,47.5733806 68.3368384,49.1014088 70.6228361,51.5735227 C72.9090048,54.0455684 74.1856698,57.2817357 74.2017371,60.6469973 L74.2017371,87.5888886 L47.218964,87.5888886 L47.218964,60.6455292 Z" id="形状"></path>
                </g>
            </g>
        </g>
    </g>
</svg>