<?xml version="1.0" encoding="UTF-8"?>
<svg width="161px" height="161px" viewBox="0 0 161 161" version="1.1" xmlns="http://www.w3.org/2000/svg" xmlns:xlink="http://www.w3.org/1999/xlink">
    <title>编组 17备份 2</title>
    <defs>
        <linearGradient x1="0%" y1="50%" x2="100%" y2="50%" id="linearGradient-1">
            <stop stop-color="#757FD6" offset="0%"></stop>
            <stop stop-color="#86AAD7" offset="57.6072853%"></stop>
            <stop stop-color="#84BDB8" offset="100%"></stop>
        </linearGradient>
        <polygon id="path-2" points="0 0 16.95 0 16.95 16.95 0 16.95"></polygon>
        <polygon id="path-4" points="0 0 16.95 0 16.95 16.95 0 16.95"></polygon>
        <polygon id="path-6" points="0 0 16.95 0 16.95 16.95 0 16.95"></polygon>
        <polygon id="path-8" points="0 0 16.95 0 16.95 16.95 0 16.95"></polygon>
        <polygon id="path-10" points="0 0 72.5587324 0 72.5587324 113 0 113"></polygon>
    </defs>
    <g id="页面-1" stroke="none" stroke-width="1" fill="none" fill-rule="evenodd">
        <g id="核心技术" transform="translate(-758.000000, -4137.000000)">
            <g id="编组-10" transform="translate(758.800000, 4137.345786)">
                <rect id="矩形" fill="url(#linearGradient-1)" x="0" y="0" width="160" height="160" rx="24"></rect>
                <g id="人体" transform="translate(30.280000, 23.500000)">
                    <g id="Clipped">
                        <mask id="mask-3" fill="white">
                            <use xlink:href="#path-2"></use>
                        </mask>
                        <g id="路径"></g>
                        <path d="M1.85546,16.7711829 C2.7806588,16.7711829 3.5274984,16.0213297 3.5274984,15.0944273 L3.5274984,3.35527912 L15.2336204,3.35527912 C16.1588192,3.35527912 16.9056588,2.60542593 16.9056588,1.67852345 C16.9056588,0.75071441 16.1579152,0.00176777334 15.2336204,0.00176777334 L1.8555504,0.000882526842 C0.9303516,0.000882526842 0.1826306,0.750735714 0.1826306,1.6776382 L0.1826306,15.0943579 C0.1826306,16.0212604 0.9303742,16.7711829 1.8555504,16.7711829 L1.85546,16.7711829 Z" id="路径" fill="#FFFFFF" fill-rule="nonzero" mask="url(#mask-3)"></path>
                    </g>
                    <g id="Clipped" transform="translate(0.000000, 94.920000)">
                        <mask id="mask-5" fill="white">
                            <use xlink:href="#path-4"></use>
                        </mask>
                        <g id="路径"></g>
                        <path d="M15.23466,13.5952629 L3.528538,13.5952629 L3.528538,1.85674261 C3.528538,0.928983194 2.7807944,0.180076611 1.8564996,0.180076611 C0.9313008,0.180076611 0.1844612,0.929889696 0.1844612,1.85674261 L0.1844612,15.2727448 C0.1844612,16.2005042 0.9322048,16.9494108 1.8564996,16.9494108 L15.2354736,16.9494108 C16.1606724,16.9494108 16.907512,16.1995977 16.907512,15.2727448 C16.907512,14.3449854 16.1597684,13.5951949 15.2345922,13.5951949 L15.23466,13.5952629 Z" id="路径" fill="#FFFFFF" fill-rule="nonzero" mask="url(#mask-5)"></path>
                    </g>
                    <g id="Clipped" transform="translate(82.490000, 0.000000)">
                        <mask id="mask-7" fill="white">
                            <use xlink:href="#path-6"></use>
                        </mask>
                        <g id="路径"></g>
                        <path d="M15.09454,0 L1.715566,0 C0.7903672,0 0.0435276,0.749853187 0.0435276,1.67675567 C0.0435276,2.60456471 0.7912712,3.35351135 1.715566,3.35351135 L13.421688,3.35351135 L13.421688,15.0926595 C13.421688,16.0204685 14.1694316,16.7694152 15.0937264,16.7694152 C16.0189252,16.7694152 16.7657648,16.019562 16.7657648,15.0926595 L16.7666476,1.67684633 C16.7666476,0.749943842 16.0197854,0 15.0946092,0 L15.09454,0 Z" id="路径" fill="#FFFFFF" fill-rule="nonzero" mask="url(#mask-7)"></path>
                    </g>
                    <g id="Clipped" transform="translate(82.490000, 94.920000)">
                        <mask id="mask-9" fill="white">
                            <use xlink:href="#path-8"></use>
                        </mask>
                        <g id="路径"></g>
                        <path d="M15.09454,0.179034134 C14.1693412,0.179034134 13.4225016,0.928847218 13.4225016,1.85570013 L13.4225016,13.5942204 L1.7163796,13.5942204 C0.7911808,13.5942204 0.0443412,14.3440335 0.0443412,15.2708864 C0.0443412,16.1986459 0.7920848,16.9475524 1.7163796,16.9475524 L15.0953536,16.9475524 C16.0205524,16.9475524 16.767392,16.1977394 16.767392,15.2708864 L16.767392,1.85488428 C16.7665092,0.928915206 16.0196484,0.179034134 15.0944722,0.179034134 L15.09454,0.179034134 Z" id="路径" fill="#FFFFFF" fill-rule="nonzero" mask="url(#mask-9)"></path>
                    </g>
                    <g id="Clipped" transform="translate(14.301016, 0.000000)">
                        <mask id="mask-11" fill="white">
                            <use xlink:href="#path-10"></use>
                        </mask>
                        <g id="路径"></g>
                        <path d="M62.4426216,56.9701766 L62.4426216,42.6723546 C65.5243446,41.9006579 67.8149453,39.2220408 67.8149453,36.0140631 C67.8149453,32.2066595 64.6027802,29.1106368 60.6520083,29.1106368 C57.3224696,29.1106368 54.5432559,31.3182031 53.7434213,34.2883231 L42.4900742,34.2883231 C41.8377915,31.8738266 39.8771196,29.9824865 37.3721003,29.3557716 L37.3721003,25.503586 C42.4457868,24.6790373 46.3263765,20.4259594 46.3263765,15.3040173 L46.3254312,11.8518377 C46.3254312,6.1411988 41.5060946,1.49646497 35.5807838,1.49646497 C29.6554731,1.49646497 24.8361364,6.1411988 24.8361364,11.8518377 L24.8361364,15.3040173 C24.8361364,20.4243268 28.7167261,24.6774513 33.7904126,25.503586 L33.7904126,29.3557716 C31.2851513,29.9844223 29.3227128,31.8740598 28.6724388,34.2883231 L17.4190917,34.2883231 C16.6183858,31.3182498 13.8390753,29.1106368 10.5105046,29.1106368 C6.55997475,29.1106368 3.34756767,32.2064263 3.34756767,36.0140631 C3.34756767,39.2229738 5.63811992,41.9014976 8.71989137,42.6723546 L8.71989137,56.9701766 C5.63816832,57.7418732 3.34756767,60.4204903 3.34756767,63.6284681 C3.34756767,67.4358717 6.55973274,70.5318944 10.5105046,70.5318944 C14.4612764,70.5318944 17.6734415,67.4361049 17.6734415,63.6284681 C17.6734415,60.4195574 15.3828893,57.7410336 12.3011178,56.9701766 L12.3011178,42.6723546 C14.8063791,42.0437038 16.7688176,40.1540664 17.4190917,37.739803 L28.6724388,37.739803 C29.3247215,40.1542996 31.2853933,42.0456397 33.7904126,42.6723546 L33.7904126,53.517997 C30.7086896,54.2896936 28.4180889,56.9683107 28.4180889,60.1762885 C28.4180889,61.0500274 28.6043209,61.8782146 28.9125102,62.648162 L22.0058591,67.4032181 C21.5341382,67.7266515 21.2552488,68.2496214 21.2552488,68.807204 L21.2552488,77.6822049 C18.1735257,78.4539015 15.8829251,81.1325186 15.8829251,84.3404964 C15.8829251,87.5494071 18.1734773,90.2279309 21.2552488,90.9987878 L21.2552488,98.3922506 C18.1735257,99.1639472 15.8829251,101.842564 15.8829251,105.050542 C15.8829251,108.857946 19.0950902,111.953968 23.045862,111.953968 C26.9966339,111.953968 30.2087989,108.858179 30.2087989,105.050542 C30.2087989,101.841631 27.9182467,99.1631076 24.8364752,98.3922506 L24.8364752,90.9987878 C27.9181983,90.2270912 30.2087989,87.5484741 30.2087989,84.3404964 C30.2087989,81.1315856 27.9182467,78.4530618 24.8364752,77.6822049 L24.8364752,69.6965467 L31.0076656,65.447154 C32.252673,66.4511806 33.8343128,67.080741 35.5811226,67.080741 C37.3290699,67.080741 38.9106613,66.4511806 40.1545797,65.4462444 L46.32577,69.6956371 L46.32577,77.6812952 C43.244047,78.4529919 40.9534463,81.131609 40.9534463,84.3395867 C40.9534463,87.5484974 43.2439986,90.2270213 46.32577,90.9978782 L46.32577,98.391341 C43.244047,99.1630376 40.9534463,101.841655 40.9534463,105.049632 C40.9534463,108.857036 44.1656114,111.953968 48.1163833,111.953968 C52.0671551,111.953968 55.2793202,108.857269 55.2793202,105.049632 C55.2793202,101.840722 52.9887679,99.1621979 49.9069965,98.391341 L49.9069965,90.9978782 C52.9887195,90.2261816 55.2793202,87.5475645 55.2793202,84.3395867 C55.2793202,81.130676 52.9887679,78.4521522 49.9069965,77.6812952 L49.907942,68.8072274 C49.907942,68.2496447 49.628133,67.7266748 49.1573317,67.4041511 L42.2506806,62.6490949 C42.5588529,61.8792176 42.7451019,61.0510303 42.7451019,60.1772214 C42.7451019,56.9683107 40.4545496,54.2897869 37.3727782,53.5189299 L37.3727782,42.6732875 C39.8780395,42.0446368 41.840478,40.1549993 42.490752,37.740736 L53.7440991,37.740736 C54.3963818,40.1552326 56.3570537,42.0465727 58.862073,42.6732875 L58.862073,56.9711096 C55.7803499,57.7428062 53.4897493,60.4214233 53.4897493,63.6294011 C53.4897493,67.4368046 56.7019143,70.5328274 60.6526862,70.5328274 C64.603216,70.5328274 67.8156231,67.4370379 67.8156231,63.6294011 C67.8156231,60.4204903 65.5250709,57.7419665 62.4432994,56.9701766 L62.4426216,56.9701766 Z M26.6279369,105.050192 C26.6279369,106.953474 25.021806,108.502372 23.0459845,108.502372 C21.0711552,108.502372 19.464032,106.95443 19.464032,105.050192 C19.464032,103.14691 21.0701629,101.598013 23.0459845,101.598013 C25.0217576,101.598924 26.6279369,103.146864 26.6279369,105.050192 Z M26.6279369,84.3401465 C26.6279369,86.2434285 25.021806,87.7923261 23.0459845,87.7923261 C21.0711552,87.7923261 19.464032,86.2443847 19.464032,84.3401465 C19.464032,82.4368645 21.0701629,80.8879669 23.0459845,80.8879669 C25.021806,80.8879669 26.6279369,82.4359083 26.6279369,84.3401465 Z M51.6974902,105.050192 C51.6974902,106.953474 50.0913592,108.502372 48.1155377,108.502372 C46.1407084,108.502372 44.5335852,106.95443 44.5335852,105.050192 C44.5335852,103.14691 46.1397161,101.598013 48.1155377,101.598013 C50.0913108,101.598924 51.6974902,103.146864 51.6974902,105.050192 Z M51.6974902,84.3401465 C51.6974902,86.2434285 50.0913592,87.7923261 48.1155377,87.7923261 C46.1407084,87.7923261 44.5335852,86.2443847 44.5335852,84.3401465 C44.5335852,82.4368645 46.1397161,80.8879669 48.1155377,80.8879669 C50.0913592,80.8879669 51.6974902,82.4359083 51.6974902,84.3401465 Z M28.4175821,15.3035509 L28.4175821,11.8513712 C28.4175821,8.04396764 31.6297472,4.9479449 35.5805191,4.9479449 C39.5312909,4.9479449 42.743456,8.0437344 42.743456,11.8513712 L42.743456,15.3035509 C42.743456,19.1109544 39.5312909,22.2069772 35.5805191,22.2069772 C31.6297472,22.2069772 28.4175821,19.1102547 28.4175821,15.3035509 Z M14.0909823,63.6284681 C14.0909823,65.5317501 12.4848513,67.0806477 10.5090298,67.0806477 C8.53420049,67.0806477 6.92707733,65.5327063 6.92707733,63.6284681 C6.92707733,61.7251861 8.53320826,60.1762885 10.5090298,60.1762885 C12.4848029,60.1762885 14.0909823,61.7242298 14.0909823,63.6284681 Z M10.5099978,39.4648433 C8.53516852,39.4648433 6.92804536,37.9169019 6.92804536,36.0126636 C6.92804536,34.1093817 8.53417629,32.560484 10.5099978,32.560484 C12.4848271,32.560484 14.0919503,34.1084254 14.0919503,36.0126636 C14.091005,37.9168552 12.4848755,39.4648433 10.5099978,39.4648433 Z M39.1612615,60.175822 C39.1612615,60.9192733 38.9107354,61.603505 38.4947971,62.1674784 C38.4910158,62.1711228 38.4872344,62.1729449 38.4862891,62.1756782 C38.4843983,62.1775003 38.4843983,62.1793226 38.4825078,62.1811449 C37.8311689,63.0530645 36.7761615,63.6279536 35.5793862,63.6279536 C34.3835305,63.6279536 33.3285232,63.0530645 32.6762647,62.1829641 C32.6743741,62.1811421 32.6743741,62.1793198 32.6724833,62.1774975 C32.668702,62.1738533 32.6649206,62.172031 32.6620845,62.1692977 C32.2489778,61.603505 31.9984516,60.9192733 31.9984516,60.175822 C31.9984516,58.27254 33.6045826,56.7236423 35.5804041,56.7236423 C37.5552334,56.7236423 39.1613886,58.2724934 39.1613886,60.175822 L39.1612615,60.175822 Z M35.579309,39.4648433 C33.6044797,39.4648433 31.9973566,37.9169019 31.9973566,36.0126636 C31.9973566,34.1093817 33.6034875,32.560484 35.579309,32.560484 C37.5541383,32.560484 39.1612615,34.1084254 39.1612615,36.0126636 C39.1612615,37.9169019 37.5551306,39.4648433 35.579309,39.4648433 Z M57.0688458,36.0126636 C57.0688458,34.1093817 58.6749768,32.560484 60.6507983,32.560484 C62.6256276,32.560484 64.2327508,34.1084254 64.2327508,36.0126636 C64.2327508,37.9159456 62.6266198,39.4648433 60.6507983,39.4648433 C58.6750252,39.4648433 57.0688458,37.9169019 57.0688458,36.0126636 Z M60.6507983,67.0801813 C58.675969,67.0801813 57.0688458,65.5322399 57.0688458,63.6280016 C57.0688458,61.7247197 58.6749768,60.175822 60.6507983,60.175822 C62.6256276,60.175822 64.2327508,61.7237634 64.2327508,63.6280016 C64.2327508,65.5321932 62.625676,67.0801813 60.6507983,67.0801813 Z" id="形状" stroke="#FFFFFF" fill="#FFFFFF" fill-rule="nonzero" mask="url(#mask-11)"></path>
                    </g>
                </g>
            </g>
        </g>
    </g>
</svg>