<?xml version="1.0" encoding="UTF-8"?>
<svg width="105px" height="104px" viewBox="0 0 105 104" version="1.1" xmlns="http://www.w3.org/2000/svg" xmlns:xlink="http://www.w3.org/1999/xlink">
    <title>编组 36</title>
    <defs>
        <linearGradient x1="0%" y1="50%" x2="100%" y2="50%" id="linearGradient-1">
            <stop stop-color="#CBD675" offset="0%"></stop>
            <stop stop-color="#D7B786" offset="57.6072853%"></stop>
            <stop stop-color="#BD9A84" offset="100%"></stop>
        </linearGradient>
    </defs>
    <g id="页面-1" stroke="none" stroke-width="1" fill="none" fill-rule="evenodd">
        <g id="核心技术" transform="translate(-1235.000000, -2697.000000)">
            <g id="编组-48" transform="translate(563.000000, 2697.000000)">
                <g id="编组-36" transform="translate(672.500000, 0.000000)">
                    <rect id="矩形" fill="url(#linearGradient-1)" x="0" y="0" width="104" height="104" rx="52"></rect>
                    <g id="编组-35" transform="translate(11.500000, 17.000000)">
                        <g id="大脑" transform="translate(12.146067, 0.000000)" fill="#FFFFFF" fill-rule="nonzero">
                            <path d="M33.4854763,70 L34.1556524,70 C34.8387524,70 35.3932584,69.4725552 35.3932584,68.8199009 C35.3925781,68.1678942 34.8380731,67.6404494 34.1556524,67.6404494 L33.484797,67.6404494 C32.801697,67.6404494 32.247191,68.1678942 32.247191,68.8205486 C32.247191,69.4719075 32.801697,70 33.4854763,70 L33.4854763,70 Z" id="路径"></path>
                            <path d="M59.4273178,6.66150043 C55.5870165,3.18366726 49.5320387,1.99187722 45.5248037,1.20304292 C44.9874156,1.0965667 44.4873896,0.998428755 44.0395716,0.903502629 C32.7994202,-1.48713821 17.7804954,0.696967287 10.8128254,9.49086056 C7.95053828,13.1039975 6.88938721,17.6324056 6.22956998,21.5861009 C5.8558495,23.8169716 6.13420495,27.240946 6.61811985,29.2639349 C6.6883541,29.555774 6.71155162,29.8033767 6.69479721,30.0464638 C6.65033708,30.6641486 6.15288932,32.2722441 5.15221051,33.3683035 L5.07939803,33.4478404 C1.8712017,36.9660677 0.303475955,38.8146723 0.0753441475,39.7998942 C-0.159204383,40.8069223 0.164264417,41.9634414 0.900759008,42.7447223 C1.27126288,43.1372675 2.26163205,43.5817832 3.84667799,44.0654122 C4.30996866,44.2899114 4.4401341,44.4707982 4.44914061,44.4926044 C4.43496477,44.6093433 4.19784922,44.9313401 4.05544416,45.1250512 C3.62565571,45.7081055 2.97679145,46.5907 3.25000527,47.7509958 C3.38983044,48.3443128 3.82477206,48.8163983 4.3350912,49.1794362 C3.7751538,49.7220799 3.71200929,50.0350849 3.673344,50.2204544 C3.39241032,51.6149046 4.12825499,52.6751347 4.9311206,53.0702086 C5.29195815,53.2472366 5.1766221,53.90791 5.10252462,54.1458739 C5.0194025,54.4101432 4.90664138,54.6654306 4.79452194,54.9213584 C4.60637506,55.3536738 4.39308914,55.8437231 4.27968305,56.3902093 C3.88211018,58.3023607 4.88730874,61.1534286 6.96530413,62.1880757 C9.36423463,63.3817541 12.2631416,63.0623287 14.8219129,62.7813927 C15.3399684,62.7236653 15.8438543,62.6685027 16.323261,62.6287342 C19.0483062,62.4023138 22.767366,62.8718377 25.0219615,66.3791455 C25.4150146,66.9910668 25.7217306,67.6542853 25.9350165,68.3522164 C26.2352829,69.3374383 27.1335086,70 28.1683329,70 L30.0479873,70 C30.6949216,70 31.2200701,69.4785221 31.2200701,68.833251 C31.2200701,68.1886203 30.6949216,67.666502 30.0479873,67.666502 L28.1760858,67.6735575 C27.9002987,66.7723587 27.5033856,65.9134587 26.9949799,65.1219971 C24.7441784,61.6218323 20.8788041,59.9111587 16.1286149,60.3036054 C15.6286054,60.3446563 15.1027971,60.4023837 14.5628356,60.4620356 C12.3275398,60.7070603 9.79334677,60.9867155 8.01233511,60.1002786 C6.99941669,59.5961242 6.36343535,57.8694079 6.57284485,56.862347 C6.63792427,56.5499824 6.78613077,56.208094 6.94399204,55.8469773 C7.08123897,55.5307539 7.22363908,55.2036274 7.33768848,54.8405896 C7.76876358,53.4660245 7.51295244,51.7386186 6.00967434,51.0036431 C6.00903003,51.0036431 5.9677908,50.9619501 5.95812612,50.8580404 C6.1939613,50.6354624 6.71717987,50.2390748 7.19013686,49.9292718 C7.56773376,49.6829663 7.76812026,49.2423094 7.70819236,48.7971697 C7.64697946,48.3526705 7.33382855,47.9806343 6.90532675,47.8427361 C6.36858193,47.6708313 5.75000327,47.3565455 5.53607403,47.1551333 C5.57731261,47.0011924 5.80348146,46.6945914 5.94524319,46.5008803 C6.36536532,45.9300099 7.00133016,45.0679408 6.72555954,43.9493199 C6.51550673,43.1019963 5.85504618,42.4163311 4.76161356,41.9128663 C4.71264192,41.8904164 4.66173867,41.8711734 4.61019045,41.8551389 C3.23900777,41.4414278 2.70744251,41.1694573 2.55337519,41.0796543 C2.39035414,40.8647775 2.30401376,40.5524129 2.34460901,40.3663866 C2.64037209,39.5889808 5.5645171,36.3824778 6.81388103,35.0130194 L6.88669351,34.9334824 C8.31392767,33.369065 8.96016916,31.2062239 9.03175933,30.2119709 C9.06719811,29.7315438 9.02338278,29.2427917 8.89708898,28.7193926 C8.47696686,26.961921 8.22051239,23.8811322 8.54075469,21.9658609 C9.18316924,18.12054 10.1252233,14.1225097 12.6530656,10.9321971 C19.0257454,2.88884586 33.0183244,0.946645166 43.5490074,3.18506923 C44.0077784,3.28256514 44.5187573,3.38326303 45.0690284,3.49231067 C48.8217389,4.23122706 54.492703,5.34797604 57.8485335,8.38754968 C65.6980492,15.4957612 65.8488174,28.9474879 62.0058769,37.9934666 C60.8396005,40.7394441 59.1566211,43.3576712 57.528852,45.889363 C53.4972038,52.1617779 49.326829,58.6478218 52.4410014,67.6660501 L37.4210869,67.6660501 C36.7741526,67.6660501 36.249004,68.1875281 36.249004,68.8327991 C36.249004,69.4774298 36.7741526,70 37.4210869,70 L52.4410014,70 C53.1916754,70 53.8991644,69.6371507 54.3353366,69.0297286 C54.7767214,68.4139649 54.8933441,67.6166741 54.644626,66.8963948 C51.9113331,58.9568203 55.5995629,53.2200376 59.503685,47.1459806 C61.1842395,44.532187 62.9213733,41.8292308 64.1656236,38.9004947 C68.4247439,28.8706077 68.164446,14.5753669 59.4264864,6.66075133 L59.4273178,6.66150043 Z" id="路径"></path>
                            <path d="M28.8624946,17.9780989 C28.2981507,18.2041748 27.7815619,18.49156 27.2935021,18.8070494 C24.9413154,16.585855 22.8780716,17.2296188 21.5589356,18.1735202 C21.2178558,18.4174821 21.1335066,18.8996509 21.3704082,19.2515499 C21.6073097,19.6021572 22.0761436,19.6890202 22.4172392,19.4450583 C23.6389443,18.5707553 24.8022893,18.6761418 26.0556988,19.7547928 C24.739722,20.9943847 23.9043433,22.5934943 23.7412969,24.3191462 C23.7009861,24.745123 24.0036159,25.1238346 24.4166456,25.1647074 C24.4408311,25.167262 24.4656373,25.1685393 24.4904436,25.1685393 C24.8730867,25.1685393 25.1999099,24.8696607 25.2377265,24.4692375 C25.4423839,22.3042842 27.0404452,20.3705077 29.4088255,19.4201321 C29.7958028,19.265582 29.9868068,18.8159822 29.8361119,18.4181095 C29.6866537,18.0195992 29.2482081,17.8248155 28.8624692,17.9780887 L28.8624946,17.9780989 Z" id="路径"></path>
                            <path d="M45.2729298,20.2615357 C45.6616079,20.448637 46.1360951,20.287808 46.3258833,19.9007842 C46.5150225,19.5143935 46.3512316,19.049839 45.9593022,18.8627377 C45.2183362,18.5083836 44.4162706,18.2841278 43.5920247,18.1508472 C42.8725068,17.2146845 43.0824452,16.2631022 43.525727,15.6812608 C43.7863654,15.3384549 43.7161641,14.85146 43.3690826,14.5938718 C43.0226518,14.3356437 42.5280144,14.4048512 42.2660781,14.7482984 C41.5212018,15.7254705 41.3541596,16.9262259 41.7532539,18.0328238 C40.5248055,18.0866494 39.3378888,18.3916561 38.265484,18.9222194 C37.0935759,18.0770483 35.6863878,17.5022769 34.1772006,17.2357485 C34.3773883,16.7353026 34.4696867,16.1861702 34.4196356,15.6177962 C34.3182388,14.4535064 33.6884202,13.423793 32.645883,12.7202356 C32.2864402,12.4773779 31.796362,12.5690126 31.5500334,12.9220839 C31.304337,13.276438 31.3966387,13.759578 31.7547803,14.0017796 C32.4002033,14.4374963 32.789547,15.0584115 32.849981,15.7497645 C32.89223,16.2367594 32.7531351,16.7057922 32.4853468,17.0639847 C32.198701,17.0575771 31.9101251,17.0588586 31.6208836,17.0742371 C31.2581962,17.0953832 30.9033125,17.1331889 30.5536204,17.187013 C30.1239929,17.2530119 29.8301922,17.6509278 29.8971489,18.0751291 C29.9647462,18.4986742 30.3605875,18.7895949 30.7986678,18.7223067 C31.097011,18.6755297 31.4024924,18.6441329 31.7125331,18.6261905 C33.5526766,18.5223859 35.3419037,18.9529863 36.7861976,19.8129043 C36.3487662,20.1980154 35.9815362,20.6753813 35.7065879,21.2226108 C33.449962,21.0182035 30.9688715,21.6980575 30.2402352,24.2136729 C30.1212906,24.6263259 30.3630801,25.0556452 30.7823113,25.1735554 C30.8551084,25.1940601 30.9272549,25.2036711 30.9987557,25.2036711 C31.341293,25.2036711 31.6565251,24.9806783 31.7559784,24.6397918 C32.2538604,22.9193652 34.0646854,22.7021793 35.221618,22.7482739 C35.0051736,24.139395 35.3737115,25.4850776 36.26938,26.480786 C36.4247231,26.6537965 36.6418181,26.741573 36.8589115,26.741573 C37.0448061,26.741573 37.2313496,26.6768553 37.3814863,26.5454989 C37.7077669,26.260992 37.7370188,25.7701586 37.4484329,25.4484972 C36.8179521,24.7487784 36.5878634,23.7620264 36.8173032,22.7425326 C37.0441471,21.7288293 37.6869744,20.8843144 38.4948804,20.5388512 C38.4974801,20.5382104 38.4987802,20.5356473 38.5013801,20.5343657 C38.5124296,20.5298804 38.5208797,20.5221912 38.5312793,20.5164249 C38.5468787,20.5087355 38.5637776,20.5055317 38.5793769,20.4959202 C39.6219308,19.8935905 40.8341725,19.5706496 42.0852838,19.5603972 C43.2259931,19.5655234 44.2855024,19.7904272 45.2727138,20.2613956 L45.2729298,20.2615357 Z" id="路径"></path>
                            <path d="M43.5475726,36.9832108 C43.2058544,36.8932181 42.8795898,37.1711408 42.8090803,37.6052229 C42.650065,38.5878661 42.536844,39.6717076 42.4735409,40.826493 C42.4488388,41.2685198 42.7076899,41.6523076 43.0514633,41.6840698 C43.0663873,41.6847314 43.0818264,41.6853933 43.0962353,41.6853933 C43.4204447,41.6853933 43.6947493,41.3631477 43.71791,40.9403136 C43.7786362,39.8570989 43.8836179,38.8446924 44.0318301,37.932146 C44.1018193,37.4987246 43.8846455,37.0739086 43.5475647,36.9832469 L43.5475726,36.9832108 Z" id="路径"></path>
                            <path d="M53.4824523,18.9080914 C53.5004091,18.4744012 53.1675762,18.1081385 52.7385697,18.0898876 C52.3236653,18.0835003 51.9472257,18.4082847 51.9292657,18.8419583 C51.8349965,21.1017676 50.549228,21.7649238 49.7085513,21.9574316 C49.2955677,21.2248896 48.7639392,20.5500502 48.1111047,19.9621546 C47.7917467,19.6730278 47.3005201,19.7009082 47.0132244,20.0263327 C46.7278493,20.3498122 46.7567103,20.84703 47.0767118,21.1361568 C48.3548005,22.2868224 49.0851556,23.8367425 49.1321079,25.498284 C49.1859751,27.4832718 48.3054841,28.3707991 46.9747628,29.7127113 C45.7845374,30.9120017 44.3025837,32.4043355 43.3072269,35.120521 C43.1578069,35.5276252 43.3630181,35.9794709 43.765751,36.1305066 C43.854248,36.1635681 43.9459593,36.1797753 44.0363672,36.1797753 C44.3518837,36.1797753 44.6487997,35.9833509 44.7655075,35.6663437 C45.6434342,33.2729406 46.9336877,31.9725172 48.0726924,30.8251044 C48.1034741,30.7946367 48.1336139,30.7628712 48.1637553,30.7324036 C48.1849183,30.725921 48.2054395,30.7291623 48.2259606,30.7207349 C49.6476971,30.144423 50.8116227,30.7097145 51.3740657,31.3689884 C51.5279742,31.5491989 51.7460071,31.6419014 51.9633997,31.6419014 C52.1429678,31.6419014 52.3244402,31.5790194 52.4700089,31.4519659 C52.7957859,31.1680334 52.8323299,30.6721101 52.5514515,30.342789 C51.9242766,29.6070109 50.9053287,29.0300517 49.7105066,28.9367021 C50.3178006,28.0336745 50.7269426,26.9633311 50.6865406,25.4536385 C50.6660195,24.7509186 50.5416106,24.0682959 50.3376815,23.412226 C51.9069075,22.9448303 53.371525,21.5873848 53.4825032,18.9080413 L53.4824523,18.9080914 Z" id="路径"></path>
                            <path d="M58.2666966,18.3745036 C58.4303804,14.446168 55.0959773,11.103388 50.8351237,10.9222781 C50.4527747,10.9061701 50.0761709,10.9177679 49.6816602,10.9506273 C49.0947064,11.006039 48.5026293,10.7773028 48.0851046,10.3320827 C46.6726932,8.83597993 44.7110899,7.96297431 42.5627398,7.87208949 C41.2187483,7.81796766 39.8874914,8.08213075 38.7302468,8.6343179 C38.1196243,8.91846904 37.3114354,8.91716598 36.6375491,8.63302918 C35.7334579,8.25352319 34.7679525,8.03960572 33.7653891,7.99708284 C31.5530385,7.90494609 29.4858755,8.65622048 27.9578871,10.0821555 C27.5211786,10.4861394 26.883712,10.6749357 26.2570485,10.5937496 C26.0300681,10.5647556 25.8037261,10.5454256 25.5767458,10.5357615 C25.430964,10.5293182 25.283899,10.5260967 25.1362071,10.5260967 C22.16109,10.5260967 18.4366283,11.8752992 17.7308237,15.677996 C17.5882403,16.446014 17.1150942,17.4620436 16.5178938,17.8358095 C15.0108568,18.7797416 14.1950567,20.225536 14.1585552,22.0168412 C14.1016489,25.149481 15.9878856,27.4890642 19.2129479,28.2750282 L19.3555313,28.3078886 C19.6464465,28.3755425 20.1873724,28.5018312 20.286483,28.6087817 C21.1266393,30.7980997 22.9501098,32.269741 25.2878422,32.6466409 C25.8473135,32.7362012 26.3754393,32.780014 26.9035816,32.780014 L26.9042209,32.780014 C28.3415613,32.780014 29.5346199,32.4314352 30.4489578,32.1105672 L30.4495973,32.1118558 C30.6868079,32.6060482 31.3153374,33.92114 33.1132241,34.5035616 C33.7225699,34.7013639 34.3504447,34.8012383 34.9784013,34.8012383 C36.1440101,34.8012383 37.0436001,34.461682 37.5263036,34.2793351 C37.5697813,34.2632272 37.6075055,34.2484079 37.642033,34.2355223 C37.648427,34.2361668 37.6560995,34.2361668 37.6554602,34.2393883 C37.8018803,35.6491587 37.8638951,37.3598222 37.9176162,38.8694009 C37.9662106,40.2630562 38.0096883,41.4666285 38.1119907,42.1612129 C38.3735084,43.9330546 39.6509951,45.7951213 41.4521228,46.3493372 L41.4521228,47.0013822 C41.4521228,47.5406706 41.8862614,47.9775281 42.4208036,47.9775281 C42.9559679,47.9775281 43.3894845,47.5400439 43.3894845,47.0013822 L43.3894845,46.493021 C45.0160925,46.3087442 46.4272926,45.2385301 46.9861091,43.6986839 C48.7450555,38.8791492 50.0257177,38.0841132 50.4945082,37.9648578 C50.5149686,37.9603475 50.5354291,37.9539044 50.5558896,37.947461 C54.0022525,37.2857502 56.4995766,34.5609705 56.6364162,31.3051166 C56.6364162,31.3006063 56.6389738,31.2284434 56.6389738,31.2239322 C56.649204,30.8966149 56.7988209,30.6098906 57.0731124,30.3959896 C58.7041889,29.1266866 59.6863246,27.2607107 59.769476,25.2769144 C59.8353325,23.68803 59.339806,22.1591197 58.3353274,20.8544029 C58.077018,20.5225826 57.9913295,20.0773624 58.0993936,19.6263362 C58.1921057,19.2204224 58.2483721,18.7983936 58.2669076,18.3744348 L58.2666966,18.3745036 Z M55.8831328,28.8529793 C55.1561475,29.4206218 54.7245623,30.2653228 54.6970635,31.224067 C54.5985978,33.5783302 52.7322029,35.5571782 50.1376506,36.0403027 C50.0762692,36.0525446 50.0200028,36.0686519 49.9656516,36.0866936 C47.7059965,36.7090979 46.1446165,40.3398063 45.1644778,43.0279188 C44.8275182,43.9557357 43.9151119,44.5800864 42.8940195,44.5800864 L42.4585878,44.5639785 C41.1925916,44.5111449 40.2105541,43.1271571 40.0251004,41.8765258 C39.9387834,41.2908383 39.895944,40.0814269 39.8499096,38.801122 C39.7955616,37.2605666 39.7329018,35.5137636 39.5788164,34.0376687 C39.4669238,32.9700277 38.6951857,32.2955172 37.5461907,32.2767134 C37.3083418,32.2767134 37.1126905,32.3501652 36.8441345,32.4519677 C36.4496237,32.6001611 35.7904198,32.8495187 34.9751926,32.8495187 C34.548076,32.8495187 34.1203211,32.7805766 33.7034511,32.6459103 C32.6970575,32.3198796 32.3811968,31.6594554 32.1925676,31.2651373 C32.1548434,31.186531 32.1222343,31.1188771 32.093462,31.0666917 C31.6663454,30.2825586 30.7168483,29.9384993 29.8441189,30.2529179 C28.2028612,30.8392487 27.0564197,30.9552217 25.5916132,30.7193995 C23.9528107,30.4552233 22.6760769,29.4294784 22.0935262,27.9095575 C21.6913551,26.8477226 20.5462067,26.5822598 19.7878759,26.4057189 L19.6593579,26.3760799 C18.3044978,26.0455461 16.0398175,25.0442791 16.0941606,22.0546798 C16.1165394,20.9110155 16.5762585,20.0979345 17.5372626,19.4953896 C18.7521076,18.7370209 19.426665,17.1584456 19.633234,16.0373129 C20.1447459,13.2789338 23.0488243,12.389879 25.4932785,12.4876915 C25.6671925,12.494779 25.8385531,12.5095979 26.0143823,12.5321492 C27.2266574,12.6816308 28.4139871,12.3104958 29.2702172,11.5173566 C30.4064121,10.4568083 32.0330364,9.87240735 33.6819873,9.94780381 C34.4550168,9.9806642 35.1979777,10.1449628 35.8890999,10.4355469 C37.0566239,10.9271661 38.440276,10.9220033 39.550216,10.4046196 C40.4344851,9.98259076 41.4543499,9.77512265 42.4804837,9.82473818 C44.1013301,9.89239211 45.6313973,10.5689216 46.6781554,11.6770731 C47.4147326,12.4631361 48.4441401,12.9135191 49.5030108,12.9135191 C49.6238553,12.9135191 49.7453447,12.9083645 49.8540307,12.8974112 C50.1500693,12.8729267 50.4524915,12.8639075 50.753015,12.8755048 C53.9474685,13.010811 56.448721,15.4418876 56.3297228,18.2936257 C56.3162955,18.5951621 56.2772933,18.8941253 56.2114351,19.17506 C55.9633559,20.2027513 56.179466,21.256174 56.8035122,22.0583027 C57.521544,22.9912659 57.8764106,24.0769024 57.8290896,25.1993547 C57.7702649,26.6239371 57.0790903,27.920951 55.88338,28.8525616 L55.8831328,28.8529793 Z" id="形状"></path>
                            <path d="M44.4633696,63.7078652 C45.0185433,63.7078652 45.4682688,63.2767748 45.4682688,62.7459857 L45.4682688,59.3511267 L46.9726289,59.3511267 C47.5278026,59.3511267 47.9775281,58.9200363 47.9775281,58.3892472 C47.9775281,57.8737039 47.5503695,57.4603948 47.0184081,57.4356246 L47.0184081,54.1202449 C47.0184081,52.0511802 45.5007862,50.3177492 43.4771489,49.8784184 L43.4771489,48.9394075 C43.4771489,48.4080008 43.0267781,47.9775281 42.4722497,47.9775281 C41.917076,47.9775281 41.4673506,48.4086185 41.4673506,48.9394075 L41.4673506,49.8784184 C39.4422699,50.3177655 37.9254122,52.0516678 37.9254122,54.1202449 L37.9254122,57.4356246 C37.3921262,57.4597512 36.9662921,57.87307 36.9662921,58.3892472 C36.9662921,58.9206539 37.4166629,59.3511267 37.9711913,59.3511267 L39.4748892,59.3511267 L39.4748892,62.7459857 C39.4748892,63.2773924 39.92526,63.7078652 40.4797884,63.7078652 C41.0349621,63.7078652 41.4846875,63.2767748 41.4846875,62.7459857 L41.4846875,59.3511267 L43.457978,59.3511267 L43.457978,62.7459857 C43.4586413,63.2767585 43.9076865,63.7078652 44.4635394,63.7078652 L44.4633696,63.7078652 Z M39.9343615,54.1202774 C39.9343615,52.7806352 41.0719114,51.6918488 42.4714007,51.6918488 C43.8696335,51.6918488 45.0079305,52.7807002 45.0079305,54.1202774 L45.0079305,57.4268802 L39.9336822,57.4268802 L39.9336822,54.1202774 L39.9343615,54.1202774 Z" id="形状"></path>
                        </g>
                        <g id="编组" transform="translate(5.250000, 50.009668) rotate(-90.000000) translate(-5.250000, -50.009668) translate(-4.602820, 44.759668)" stroke="#FFFFFF" stroke-linecap="round" stroke-linejoin="round" stroke-width="2.5">
                            <path d="M0,3.92403112 C0.29006701,3.64913745 0.588814354,3.38867817 0.89532572,3.14265326 C6.42260974,-1.293564 14.4748266,-1.03310964 19.7056393,3.92403112" id="路径"></path>
                            <path d="M16.7497934,7.2905918 C12.9406933,3.48149173 6.76494596,3.48149173 2.95584589,7.2905918" id="路径"></path>
                            <path d="M13.7939475,10.5 C11.6173118,8.32336435 8.08832743,8.32336435 5.91169178,10.5" id="路径"></path>
                        </g>
                    </g>
                </g>
            </g>
        </g>
    </g>
</svg>