<?xml version="1.0" encoding="UTF-8"?>
<svg width="161px" height="161px" viewBox="0 0 161 161" version="1.1" xmlns="http://www.w3.org/2000/svg" xmlns:xlink="http://www.w3.org/1999/xlink">
    <title>编组 19</title>
    <defs>
        <linearGradient x1="0%" y1="50%" x2="100%" y2="50%" id="linearGradient-1">
            <stop stop-color="#D675A3" offset="0%"></stop>
            <stop stop-color="#8D86D7" offset="45.7084176%"></stop>
            <stop stop-color="#8CBFC6" offset="100%"></stop>
        </linearGradient>
        <polygon id="path-2" points="0 0 36 0 36 84 0 84"></polygon>
        <polygon id="path-4" points="0 0 31 0 31 91 0 91"></polygon>
        <polygon id="path-6" points="0 0 49 0 49 48 0 48"></polygon>
    </defs>
    <g id="页面-1" stroke="none" stroke-width="1" fill="none" fill-rule="evenodd">
        <g id="核心技术" transform="translate(-518.000000, -4137.000000)">
            <g id="编组-19" transform="translate(518.400000, 4137.345786)">
                <rect id="矩形备份-3" fill="url(#linearGradient-1)" x="0" y="0" width="160" height="160" rx="24"></rect>
                <g id="编组-18" transform="translate(21.000000, 12.000000)">
                    <g id="编组" transform="translate(47.000000, 32.000000)" stroke="#FFFFFF" stroke-linecap="round" stroke-width="3.5">
                        <polygon id="路径" stroke-linejoin="round" points="29 32 18 32 18 24 32 24 32 16 40 16 40 32 35 32 32 35"></polygon>
                        <polygon id="路径" stroke-linejoin="round" points="0 0 32 0 32 24 13 24 9 28 5 24 0 24"></polygon>
                        <line x1="8" y1="16" x2="14" y2="16" id="路径"></line>
                        <line x1="8" y1="8" x2="20" y2="8" id="路径"></line>
                    </g>
                    <g id="侧脸">
                        <g id="Clipped" transform="translate(0.000000, 52.000000)">
                            <mask id="mask-3" fill="white">
                                <use xlink:href="#path-2"></use>
                            </mask>
                            <g id="路径"></g>
                            <path d="M33.42,84.000058 L33.1499114,84.000058 C32.33854,83.8629924 31.7972257,83.0386915 31.9322829,82.2155326 C33.2849686,75.0776052 33.0148829,70.6844101 31.1209114,68.4878126 C29.6320829,66.8403354 27.0617686,66.0171766 22.4611971,66.1541668 C21.6498257,66.1541668 20.8373114,66.1541668 20.02594,66.2911744 C18.5371114,66.4281821 16.9142257,66.4281821 15.4253686,66.2911744 C12.0425114,66.0171621 9.47222571,64.5067071 8.11851143,62.3101675 C7.17096857,60.7997096 6.49462571,58.3291606 7.98346571,54.6229457 C8.79483714,52.8384783 8.11851143,51.7401506 7.44218,50.3677264 L7.17209143,49.9555673 C5.14194857,46.3867485 6.49574857,44.1898611 7.30713714,42.6793742 C7.71339429,41.8562153 8.11850857,41.307037 8.11850857,40.4827476 C8.11850857,39.796579 7.57722286,39.3844199 6.90088,39.3844199 C4.73570857,39.1104075 2.57059429,38.1491019 1.21773714,36.7767647 C-0.134948571,35.2663068 -0.406148571,33.0708397 0.676451429,31.4232466 C2.16528,28.9526106 3.38293714,27.0300516 4.32930857,25.5207241 C8.79359429,18.6567191 8.79359429,18.6567191 10.4175943,7.1255966 C10.6876829,5.47811947 10.95888,3.5567778 11.2289657,1.3598904 C11.3640114,0.536731564 12.0403371,-0.0124468063 12.8528514,0.124572415 C13.6642229,0.261580041 14.2055371,0.947731254 14.07048,1.77204955 C13.8003914,3.96867608 13.5291943,5.89016267 13.2591086,7.53775575 C11.5001943,19.4810664 11.5001943,19.7549889 6.89968,27.031182 C5.95213714,28.5416399 4.73450857,30.4631845 3.24682286,32.9337045 C2.84056571,33.4828539 2.97673429,34.3060418 3.38186857,34.7181719 C4.32941143,35.6794805 5.68209714,36.3656491 7.30586857,36.5026393 C9.47104,36.7766516 11.0950114,38.5622756 11.0950114,40.6207524 C11.0950114,42.1312103 10.4186686,43.3665573 9.87738286,44.3266774 C9.06601143,45.6990146 8.52469714,46.5233039 9.74233714,48.5818967 L10.0124257,48.9940558 C10.8237971,50.5045138 12.1775971,52.6999808 10.8237971,55.8580608 C10.0124257,57.7795474 10.0124257,59.5639858 10.8237971,60.8005502 C11.6351686,62.1728874 13.5302829,63.1341959 15.8303686,63.4082054 C17.1830543,63.545213 18.5368543,63.4082054 20.0246543,63.4082054 C20.8360257,63.4082054 21.64854,63.2711978 22.5949686,63.2711978 C26.5189686,63.2711978 30.9843971,63.5452101 33.5546829,66.7032002 C35.98994,69.7230146 36.5312543,74.665504 34.9073686,82.9017302 C34.63728,83.4508796 34.0959971,84.000058 33.4196543,84.000058 L33.42,84.000058 Z" id="路径" stroke="#FFFFFF" fill="#FFFFFF" fill-rule="nonzero" mask="url(#mask-3)"></path>
                        </g>
                        <g id="Clipped" transform="translate(77.000000, 44.000000)">
                            <mask id="mask-5" fill="white">
                                <use xlink:href="#path-4"></use>
                            </mask>
                            <g id="路径"></g>
                            <path d="M3.99842593,91 C3.45463426,91 2.91081389,90.5941124 2.63947778,90.0533191 C-0.759040741,80.9958518 0.0572638889,69.3701515 1.28052963,61.2595364 C1.9600037,57.2040861 4.27088148,53.5545519 7.6694,51.2552169 C13.1061685,47.7407027 17.4567889,43.6849669 19.9032056,40.1704526 L20.7183333,40.711246 L20.0388593,40.0355184 C20.1745302,39.9005955 28.6028963,28.6798579 27.786563,13.2684617 C27.515224,8.53734088 26.0195056,2.04753568 26.0195056,2.04753568 C25.8838346,1.23690235 26.2908445,0.4251272 27.1071176,0.290221462 C27.9222454,0.155298598 28.7385213,0.560064337 28.874175,1.37183663 C28.874175,1.64167951 30.5055787,8.13139622 30.7769148,13.1334132 C31.1850528,21.6502299 28.874175,28.9504401 26.9702296,33.6815609 C25.7469639,36.3855846 23.7074796,40.3061006 22.4841278,41.7924615 C19.765112,45.7128919 15.1434426,49.9033621 9.43398889,53.689058 C6.71497315,55.4463722 4.81211852,58.4201788 4.26847037,61.6649387 C3.18085833,68.0185821 2.093275,80.0499131 5.49173611,88.9726459 C5.76307509,89.7832793 5.35606519,90.5950544 4.67660833,90.8648944 C4.4063888,91 4.13393611,91 3.9982537,91 L3.99842593,91 Z" id="路径" stroke="#FFFFFF" fill="#FFFFFF" fill-rule="nonzero" mask="url(#mask-5)"></path>
                        </g>
                        <path d="M91.6432625,27 C91.2357209,27 90.9647812,26.8674619 90.5572396,26.6012865 C81.327292,17.5712772 68.2962213,12.9237792 53.0934488,12.7900242 L52.8225063,12.7900242 C32.0550525,12.7900242 20.6525432,24.6087005 20.5178329,24.741334 C19.9748358,25.2725687 19.0242971,25.405118 18.4812713,24.8738721 C17.9382455,24.3426261 17.80279,23.4126891 18.3457986,22.8814263 C18.8888072,22.3501635 30.8337289,10 52.8230337,10 L53.0939762,10 C69.1110294,10.1325381 82.8190909,15.1788729 92.5927522,24.6076238 C93.1357493,25.1388585 93.1357493,26.0688067 92.5927522,26.6000695 C92.3218097,26.7337012 92.0497551,27 91.6433313,27 L91.6432625,27 Z" id="路径" stroke="#FFFFFF" fill="#FFFFFF" fill-rule="nonzero"></path>
                        <path d="M97.5006176,86 L99,84 C98.1006366,84.2852087 97.0503341,84.714206 96,85.0005883 L97.5006176,86 Z" id="路径" fill="#FFFFFF" fill-rule="nonzero"></path>
                        <g id="Clipped" transform="translate(70.000000, 0.000000)">
                            <mask id="mask-7" fill="white">
                                <use xlink:href="#path-6"></use>
                            </mask>
                            <g id="路径"></g>
                            <path d="M34.0841667,47.8388393 C33.5316042,47.8388393 32.9790125,47.5667913 32.7033,47.0215816 C32.4275846,46.3403322 32.7033,45.3859152 33.3937333,45.1138701 C45.8248583,39.6628959 47.7594833,27.8049188 44.1673167,18.4014773 C40.5763167,8.45152827 29.6636083,-0.271009053 14.7469,4.22566341 C10.0504833,5.58816236 4.66398333,8.99544577 3.00615,14.5836945 C2.73043458,15.4009521 1.90099583,15.8101565 1.21059167,15.6741483 C0.382316667,15.4021004 -0.0324041667,14.5836945 0.1054375,13.9024738 C1.62528333,8.31422507 7.01210417,3.54444271 13.7796458,1.49942802 C30.6312708,-3.54346424 42.7867708,6.26921038 47.0675625,17.4457078 C50.9356458,27.8037388 48.7252792,41.7052917 34.6364375,47.9741567 C34.4974408,47.8381313 34.3595817,47.8381313 34.083875,47.8381313 L34.0841667,47.8388393 Z" id="路径" stroke="#FFFFFF" fill="#FFFFFF" fill-rule="nonzero" mask="url(#mask-7)"></path>
                        </g>
                        <path d="M50.3027768,101 L49.8978097,101 C45.7168423,100.862909 41.5350204,98.1171277 41.6705886,93.1758965 C41.6705886,90.4300982 43.4239177,87.9594971 45.851556,87.1362822 C47.0653182,86.7241241 48.5494477,86.8622705 49.763096,87.4102939 C51.1114864,88.0964609 52.0560205,89.194757 52.4609877,90.4301011 C52.7302186,91.2532579 52.3263708,92.0775743 51.5164536,92.3515831 C50.7076585,92.6255948 49.8977243,92.2145758 49.6284962,91.3902768 C49.4938793,90.8411288 49.0889292,90.4289706 48.5493338,90.1549618 C48.0097384,89.880953 47.3355716,89.8809501 46.7960047,90.0179545 C45.5822425,90.4301127 44.6377084,91.8024176 44.6377084,93.1748675 C44.6377084,96.4697559 47.3356001,97.9790798 50.0322386,98.1173451 L50.3014696,98.1173451 C53.9427276,98.1173451 57.5851249,95.646715 57.9889813,90.0182444 C58.1235982,87.4105954 57.3147861,84.8018449 55.8306851,82.4681468 C47.0640394,69.8387556 34.5202827,64.8974375 34.3844298,64.7591722 L34.1151988,64.6221649 C31.5530462,62.9746917 28.0453911,61.7393766 24.6732757,60.5040616 C22.2457513,59.6809047 19.9528837,58.8565884 17.9290448,57.7582632 C11.7245234,54.7384561 7.54355595,51.0313805 5.52000189,46.6393554 C2.8221102,40.8736629 3.76667276,33.4606712 7.94752626,28.6564589 C11.9937799,23.8522466 19.1430064,21.7924703 25.077246,23.7139813 C25.4822131,23.8509886 35.7330168,27.1459756 38.8348503,34.4209919 C39.1040812,35.1071589 38.8348503,36.0684651 38.0260552,36.3424739 C37.2172602,36.6164856 36.4073259,36.3424739 36.1380978,35.519317 C33.5759452,29.4797027 24.2684794,26.5970015 24.1340505,26.4587361 C19.2778056,24.8112629 13.4782797,26.4587361 10.1061643,30.4397336 C6.73404888,34.420731 5.92519687,40.4603453 8.21820687,45.1277416 C9.971536,48.971923 13.6127371,52.1285462 19.277834,54.8744315 C21.1657915,55.8357377 23.3240877,56.5219047 25.7514982,57.4820805 C29.2580425,58.7173955 32.9007246,60.0897294 35.5972777,61.875265 C37.216007,62.561432 49.354882,67.7777735 58.2570958,80.5442705 C60.2807923,83.4270587 61.2242156,86.7218602 60.9549875,89.8787732 C60.4187528,97.706271 55.1585945,101 50.3026344,101 L50.3027768,101 Z" id="路径" stroke="#FFFFFF" fill="#FFFFFF" fill-rule="nonzero"></path>
                    </g>
                </g>
            </g>
        </g>
    </g>
</svg>