<?xml version="1.0" encoding="UTF-8"?>
<svg width="105px" height="104px" viewBox="0 0 105 104" version="1.1" xmlns="http://www.w3.org/2000/svg" xmlns:xlink="http://www.w3.org/1999/xlink">
    <title>编组 38</title>
    <defs>
        <linearGradient x1="0%" y1="50%" x2="100%" y2="50%" id="linearGradient-1">
            <stop stop-color="#75D5D6" offset="0%"></stop>
            <stop stop-color="#A0D786" offset="57.6072853%"></stop>
            <stop stop-color="#B8BD84" offset="100%"></stop>
        </linearGradient>
    </defs>
    <g id="页面-1" stroke="none" stroke-width="1" fill="none" fill-rule="evenodd">
        <g id="核心技术" transform="translate(-582.000000, -2697.000000)">
            <g id="编组-48" transform="translate(563.000000, 2697.000000)">
                <g id="编组-38" transform="translate(19.500000, 0.000000)">
                    <circle id="椭圆形" fill="url(#linearGradient-1)" cx="52" cy="52" r="52"></circle>
                    <g id="编组-23" transform="translate(21.348315, 21.000000)">
                        <g id="眼睛扫描" fill="#FFFFFF" fill-rule="nonzero">
                            <path d="M28.5388229,42.2530393 C28.0274654,41.8320818 26.9374493,41.6228684 26.1318601,41.9794112 C25.8182498,42.1190941 25.6871111,42.4660734 25.8376817,42.7543642 C25.9910197,43.0420182 26.3657002,43.1651166 26.6806959,43.024792 C27.001944,42.8819202 27.5528581,42.9992792 27.6985618,43.1185518 C27.7533744,43.1644749 27.8158211,43.2384629 27.8914421,43.323928 C28.2841478,43.7640222 29.0147625,44.5842697 30.2401447,44.5842697 L31.0644198,44.5842697 C32.2606009,44.5842697 32.9509486,43.8201585 33.3644539,43.3634749 C33.4511834,43.2690783 33.5198736,43.1842402 33.5850966,43.1351413 C33.7724351,42.9935447 34.3032244,42.8825602 34.6223766,43.0247985 C34.9387578,43.1657567 35.3127421,43.0420199 35.4653909,42.7543707 C35.6166471,42.4660799 35.4848192,42.1197423 35.1712124,41.9794177 C34.3760674,41.6273489 33.3145242,41.8378211 32.7837881,42.2383667 C32.7019148,42.300236 32.6082473,42.3946326 32.5069456,42.5017897 C32.5069456,42.5017897 31.6722619,43.4374776 30.6022993,43.4374776 C29.5324078,43.4374776 28.7878852,42.5017897 28.7878852,42.5017897 C28.6949105,42.4003768 28.6102627,42.311713 28.5388052,42.2530458 L28.5388229,42.2530393 Z" id="路径"></path>
                            <path d="M35.5976328,30.6062549 C34.8314607,31.5416715 34.8314607,31.7229383 34.8314607,31.8829339 C34.8314607,32.3558031 35.2481634,32.741573 35.7622198,32.741573 L35.9499171,32.7157686 C35.9513177,32.7151234 36.2223462,32.644806 36.5270114,32.6802881 C36.7238165,32.7054468 37.0382709,32.7157686 37.6076378,32.7157686 C37.933997,32.7157686 38.3219955,32.7125429 38.7625078,32.7086724 C39.3410005,32.7035115 40.0112173,32.6977053 40.7535082,32.6977053 C45.3463456,32.6977053 46.6741573,32.4254749 46.6741573,31.4848892 C46.6741573,30.1875666 43.8467753,27.8651685 41.0651119,27.8651685 C38.2588859,27.8651685 36.309839,29.2315066 35.5975252,30.6063002 L35.5976328,30.6062549 Z M45.3204563,31.2694245 C44.9002395,31.373932 43.7705955,31.5242483 40.7534365,31.5242483 C40.0068606,31.5242483 39.3331297,31.5294092 38.7511409,31.5352152 C38.3141248,31.5390859 37.9303395,31.5423114 37.6074765,31.5423114 C37.4309883,31.5423114 36.8910211,31.5423114 36.6970308,31.5177968 C36.617891,31.507475 36.5408542,31.5016691 36.4659098,31.4990888 C36.5268392,31.4210298 36.590571,31.3429725 36.6543063,31.2655526 L36.7271423,31.1520131 C37.2425972,30.0998367 38.7848382,29.0386102 41.0643141,29.0386102 C43.1162727,29.0386102 44.9260123,30.590096 45.320268,31.2694336 L45.3204563,31.2694245 Z" id="形状"></path>
                            <path d="M22.539024,32.7086727 C22.9802849,32.7125434 23.3697255,32.7157688 23.6940233,32.7157688 C24.2655699,32.7157688 24.5786609,32.7054472 24.7740715,32.6802887 C25.0752564,32.6435171 25.3309148,32.7093182 25.3526291,32.7157688 L25.5410467,32.741573 C26.0537621,32.741573 26.4719101,32.3570948 26.4719101,31.8829419 C26.4719101,31.7236017 26.4719101,31.5416826 25.7056522,30.6062747 C24.9933123,29.2315599 23.0439932,27.8651685 20.2388873,27.8651685 C17.456733,27.8651685 14.6292135,30.1874625 14.6292135,31.4848556 C14.6292135,32.425416 15.9565106,32.6976605 20.5505259,32.6976605 C21.2915731,32.6983056 21.9618829,32.7041116 22.5390598,32.7086272 L22.539024,32.7086727 Z M20.2388515,29.0392673 C22.5194793,29.0392673 24.0609965,30.1004766 24.5765092,31.1526597 L24.6493533,31.2661981 C24.7123911,31.3436107 24.77613,31.421669 24.837771,31.4997322 C24.7621242,31.5029577 24.6843777,31.5094088 24.6052255,31.51844 C24.412612,31.5429544 23.8732872,31.5429544 23.6960764,31.5429544 C23.3731772,31.5429544 22.9893489,31.5397289 22.5522839,31.5358582 C21.9709291,31.5306974 21.2964234,31.5248915 20.5504811,31.5248915 C17.5323564,31.5248915 16.4032493,31.3745815 15.9829496,31.27007 C16.3758868,30.5907718 18.1857575,29.0392673 20.2386632,29.0392673 L20.2388515,29.0392673 Z" id="形状"></path>
                            <path d="M16.6526188,26.3045107 L16.6643859,26.3045107 C16.7329128,26.3004675 22.6401101,26.2324074 25.6199096,29.2701011 C26.856856,30.5315681 27.4176062,32.1832489 27.2839263,34.17917 C27.2610835,34.5174416 27.5241213,34.8092221 27.8702111,34.8301129 C27.884747,34.8307869 27.8978986,34.8314607 27.9124344,34.8314607 C28.2412295,34.8314607 28.5181049,34.5821344 28.5395638,34.2586813 C28.6966908,31.9054955 28.0204202,29.9425235 26.5294041,28.4230703 C23.1742945,25.0025755 16.9065443,25.0827919 16.6400351,25.0786517 C16.2925631,25.0853902 16.0156877,25.3643599 16.0225985,25.7026487 C16.0302126,26.0375564 16.3105489,26.3044095 16.6524923,26.3044095 L16.6526188,26.3045107 Z" id="路径"></path>
                            <path d="M33.3900074,34.8314607 C33.4045446,34.8314607 33.4176973,34.8307027 33.4322344,34.830029 C33.7790458,34.8084669 34.0421051,34.5173792 34.0185708,34.179131 C33.887043,32.185245 34.4456965,30.5337644 35.6813519,29.2731606 C38.6504267,26.2423987 44.5905256,26.3077749 44.6397916,26.3043249 C44.9997525,26.2921962 45.2745788,26.0401984 45.2808989,25.701933 C45.2863548,25.3636848 45.0108462,25.0853963 44.6633258,25.0786517 C44.4016489,25.0826945 38.1299082,25.00251 34.7745028,28.4228396 C33.2840819,29.9422914 32.6076843,31.9051971 32.7634571,34.2580481 C32.784225,34.5821516 33.0611266,34.8314607 33.3899507,34.8314607 L33.3900074,34.8314607 Z" id="路径"></path>
                            <polygon id="路径" points="0 34.1348315 0.696629213 34.1348315 0.696629213 34.8314607 0 34.8314607"></polygon>
                            <polygon id="路径" points="59.9101124 30.6516854 60.6067416 30.6516854 60.6067416 31.3483146 59.9101124 31.3483146"></polygon>
                            <polygon id="路径" points="34.8314607 59.2134831 35.5280899 59.2134831 35.5280899 59.9101124 34.8314607 59.9101124"></polygon>
                            <polygon id="路径" points="0 32.0449438 0.696629213 32.0449438 0.696629213 32.741573 0 32.741573"></polygon>
                            <polygon id="路径" points="0 27.8651685 0.696629213 27.8651685 0.696629213 28.5617978 0 28.5617978"></polygon>
                            <polygon id="路径" points="0 35.5280899 0.696629213 35.5280899 0.696629213 36.2247191 0 36.2247191"></polygon>
                            <polygon id="路径" points="59.9101124 23.6853933 60.6067416 23.6853933 60.6067416 24.3820225 59.9101124 24.3820225"></polygon>
                            <polygon id="路径" points="59.9101124 29.258427 60.6067416 29.258427 60.6067416 29.9550562 59.9101124 29.9550562"></polygon>
                            <polygon id="路径" points="59.9101124 27.1685393 60.6067416 27.1685393 60.6067416 27.8651685 59.9101124 27.8651685"></polygon>
                            <polygon id="路径" points="59.9101124 25.0786517 60.6067416 25.0786517 60.6067416 25.7752809 59.9101124 25.7752809"></polygon>
                            <polygon id="路径" points="0 29.258427 0.696629213 29.258427 0.696629213 29.9550562 0 29.9550562"></polygon>
                            <polygon id="路径" points="0 25.7752809 0.696629213 25.7752809 0.696629213 26.4719101 0 26.4719101"></polygon>
                            <polygon id="路径" points="0 23.6853933 0.696629213 23.6853933 0.696629213 24.3820225 0 24.3820225"></polygon>
                            <polygon id="路径" points="59.9101124 32.0449438 60.6067416 32.0449438 60.6067416 32.741573 59.9101124 32.741573"></polygon>
                            <polygon id="路径" points="0 30.6516854 0.696629213 30.6516854 0.696629213 31.3483146 0 31.3483146"></polygon>
                            <polygon id="路径" points="59.9101124 33.4382022 60.6067416 33.4382022 60.6067416 34.1348315 59.9101124 34.1348315"></polygon>
                            <polygon id="路径" points="59.9101124 36.9213483 60.6067416 36.9213483 60.6067416 37.6179775 59.9101124 37.6179775"></polygon>
                            <polygon id="路径" points="59.9101124 35.5280899 60.6067416 35.5280899 60.6067416 36.2247191 59.9101124 36.2247191"></polygon>
                            <polygon id="路径" points="36.9213483 2.78651685 37.6179775 2.78651685 37.6179775 3.48314607 36.9213483 3.48314607"></polygon>
                            <polygon id="路径" points="29.9550562 2.78651685 30.6516854 2.78651685 30.6516854 3.48314607 29.9550562 3.48314607"></polygon>
                            <polygon id="路径" points="31.3483146 2.78651685 32.0449438 2.78651685 32.0449438 3.48314607 31.3483146 3.48314607"></polygon>
                            <polygon id="路径" points="28.5617978 2.78651685 29.258427 2.78651685 29.258427 3.48314607 28.5617978 3.48314607"></polygon>
                            <polygon id="路径" points="34.8314607 2.78651685 35.5280899 2.78651685 35.5280899 3.48314607 34.8314607 3.48314607"></polygon>
                            <polygon id="路径" points="32.741573 2.78651685 33.4382022 2.78651685 33.4382022 3.48314607 32.741573 3.48314607"></polygon>
                            <polygon id="路径" points="0 37.6179775 0.696629213 37.6179775 0.696629213 38.3146067 0 38.3146067"></polygon>
                            <polygon id="路径" points="26.4719101 2.78651685 27.1685393 2.78651685 27.1685393 3.48314607 26.4719101 3.48314607"></polygon>
                            <polygon id="路径" points="32.741573 59.2134831 33.4382022 59.2134831 33.4382022 59.9101124 32.741573 59.9101124"></polygon>
                            <polygon id="路径" points="29.9550562 59.2134831 30.6516854 59.2134831 30.6516854 59.9101124 29.9550562 59.9101124"></polygon>
                            <polygon id="路径" points="27.8651685 59.2134831 28.5617978 59.2134831 28.5617978 59.9101124 27.8651685 59.9101124"></polygon>
                            <polygon id="路径" points="31.3483146 59.2134831 32.0449438 59.2134831 32.0449438 59.9101124 31.3483146 59.9101124"></polygon>
                            <polygon id="路径" points="26.4719101 59.2134831 27.1685393 59.2134831 27.1685393 59.9101124 26.4719101 59.9101124"></polygon>
                            <polygon id="路径" points="24.3820225 59.2134831 25.0786517 59.2134831 25.0786517 59.9101124 24.3820225 59.9101124"></polygon>
                            <polygon id="路径" points="25.0786517 2.78651685 25.7752809 2.78651685 25.7752809 3.48314607 25.0786517 3.48314607"></polygon>
                            <polygon id="路径" points="22.988764 2.78651685 23.6853933 2.78651685 23.6853933 3.48314607 22.988764 3.48314607"></polygon>
                            <path d="M59.6526727,38.4192342 L59.6526727,58.5860569 L40.0377948,58.5860569 C40.3244952,58.3454131 40.6595573,58.0822101 41.0286677,57.7984955 C41.2772403,57.7485886 41.4849477,57.5954446 41.5891327,57.369852 C41.6408904,57.3302009 41.6899215,57.2932836 41.7437225,57.2529482 C42.4873829,56.6882491 43.3209498,56.0551898 44.1680803,55.3572003 L44.6447928,55.3572003 L44.6447928,54.9579592 C47.3069489,52.6943327 49.9736379,49.7786053 50.3768839,46.2079768 C50.5362402,44.7914514 50.7296414,43.3661052 50.9373489,41.9768469 C53.1076947,41.0546124 55.1903481,38.1627744 56.2165073,34.413632 C57.6207555,29.2747063 56.5161612,24.6415699 53.7007959,23.8669595 C53.6361005,23.8498684 53.5686801,23.840298 53.5026248,23.8266241 C53.4719795,22.8913862 53.4413342,21.9349016 53.4413342,20.9690013 C53.4413342,15.490199 51.4561363,10.6725983 48.055829,7.03966499 L48.0857944,7.03966499 L48.0857944,6.62537269 L47.6506268,6.62537269 C46.4322938,5.39686438 45.0463512,4.31256732 43.514086,3.39794599 L59.6432305,3.39794599 L59.6432305,23.5647687 L61.2946913,23.5647687 L61.2933294,1.74056674 L40.119861,1.74056674 C37.5422593,0.73423826 34.6785673,0.13399395 31.6058429,0.023927866 L31.6058429,0 L30.8744386,0.00136738164 L30.6095305,0 L29.9904877,0.00820376478 L29.9904877,0.023927691 C26.921773,0.133995525 24.0629625,0.733555532 21.4907653,1.73988401 L0,1.73988401 L0,23.564086 L1.6514608,23.564086 L1.65077983,3.39726326 L18.1075073,3.39726326 C16.5786416,4.3119896 15.1962208,5.39626916 13.9812524,6.62468996 L13.6523271,6.62468996 L13.6523271,6.95625331 C10.22953,10.5823611 8.23143104,15.4067873 8.23143104,20.8945153 C8.23143104,21.8741892 8.19261273,22.8572934 8.15447608,23.8130429 C8.06866818,23.8287667 7.98286028,23.8417556 7.89840699,23.8649992 C5.08318124,24.6409397 3.9785695,29.273271 5.3826956,34.4116717 C6.40829691,38.1608141 8.49150818,41.0518645 10.6618541,41.9748865 C10.8702414,43.3647399 11.0622933,44.789456 11.2230164,46.2067165 C11.6261752,49.776645 14.2936487,52.6918473 16.9544101,54.9559989 L16.9544101,55.35524 L17.4297628,55.35524 C18.2769456,56.0532469 19.1098152,56.6869889 19.8548179,57.2516879 C20.5126686,57.7507568 21.097663,58.1951165 21.5600623,58.5827542 L1.66101179,58.5834378 L1.66101179,38.4201154 L0.00955098635,38.4201154 L0.00955098635,60.2443173 L22.9368695,60.2443173 L22.9368695,59.759617 C24.8852818,61.2697923 26.8193984,61.8666063 29.9901013,61.9794902 L29.9901013,62 L30.7221855,61.9986326 L30.9864137,62 L31.6054565,61.9945308 L31.6054565,61.9788069 C34.6230898,61.8707902 36.5190262,61.3190929 38.3746902,59.9654499 L38.3746902,60.2436866 L61.3020087,60.2436866 L61.3033708,38.4194846 L59.6526727,38.4192342 Z M54.3744576,33.1306197 C53.9570487,34.6589736 53.1433781,35.9427421 52.3194881,36.5229887 C52.6713291,34.3507381 53.0803649,32.4464735 53.3382547,31.5056673 C53.5994081,30.5524118 53.6121543,29.4789697 53.5833797,28.3417838 C54.6221934,28.7410579 54.9881699,30.8859202 54.3744856,33.1305261 L54.3744576,33.1306197 Z M7.07838401,33.5375899 C6.40908309,31.087568 6.81649551,28.7472152 7.9630276,28.3417838 C7.91964304,29.5810863 7.91964304,30.7494382 8.20124941,31.7780176 C8.4800903,32.7955491 8.92339652,34.8603098 9.30522386,37.2168798 C8.40756562,36.590914 7.53274613,35.198845 7.07839411,33.5374885 L7.07838401,33.5375899 Z M30.8094661,59.5616469 L30.6375212,59.5642723 L30.4668818,59.5616469 C26.822614,59.5019197 25.0631622,58.8843115 22.9343126,56.9211612 C22.4151806,56.4413707 21.6881515,55.890708 20.8473069,55.2527405 C20.4883701,54.9803579 20.1058835,54.6909042 19.7116304,54.3843962 L19.7240526,54.3843962 L19.7240526,53.9866515 L19.2062262,53.9866515 C16.4974203,51.8357855 13.4173754,48.9472974 13.0243777,45.4660232 C12.3444145,39.4474295 11.0752894,33.2240154 10.3920624,30.7285337 C9.89254683,28.9071614 9.98277899,26.6788367 10.0782333,24.3206301 C10.1187699,23.3380804 10.1599594,22.3219932 10.1599594,21.2995716 C10.1599594,15.9720576 12.2580119,11.3389838 15.804365,7.99683285 L16.5536384,7.99683285 L16.5536384,7.59908815 L16.2443786,7.59908815 C17.6441905,6.36253766 19.2499413,5.31968441 21.0296455,4.50057094 L23.0793265,4.50057094 L23.0793265,3.68145747 C25.3382269,2.9135407 27.8187325,2.47904931 30.4647725,2.43900937 L30.5818049,2.43572771 L30.8093352,2.43900937 C33.3395513,2.47642143 35.7208033,2.87415605 37.9012045,3.57908089 L37.9012045,4.49993245 L40.260865,4.49993245 C42.0437494,5.31904592 43.6535674,6.36196639 45.0571787,7.59844967 L44.8531814,7.59844967 L44.8531814,7.99619436 L45.4984978,7.99619436 C49.070292,11.3527953 51.1840778,16.0107366 51.1840778,21.3691668 C51.1840778,22.3175742 51.2141535,23.2567403 51.2442292,24.1743154 C51.3226865,26.5797366 51.3959133,28.8527555 50.8820118,30.7285673 C50.1981321,33.2279135 48.9284044,39.454016 48.2503661,45.4660568 C47.856113,48.947331 44.7759845,51.8358191 42.0685176,53.9866851 L41.5500383,53.9866851 L41.5500383,54.3844298 L41.5624608,54.3844298 C41.1682077,54.6909378 40.7863906,54.9803915 40.4274537,55.2527741 C40.4235309,55.2560557 40.4202618,55.2580248 40.416339,55.2613064 C40.3823417,55.256712 40.3529187,55.2416158 40.318267,55.2416158 C39.9384082,55.2416158 39.6363455,55.5290868 39.5853462,55.897293 C39.1028359,56.269431 38.6752416,56.6120472 38.3398378,56.9211933 C37.8573275,57.3674967 37.3918059,57.7343923 36.9204094,58.0514186 L36.9204094,58.0356664 L36.1279866,58.0356664 L36.1279866,58.4334111 L36.283594,58.4334111 C34.8543575,59.2170885 33.2591179,59.5216307 30.809242,59.5616538 L30.8094661,59.5616469 Z" id="形状"></path>
                            <polygon id="路径" points="43.8876404 6.26966292 44.5842697 6.26966292 44.5842697 6.96629213 43.8876404 6.96629213"></polygon>
                            <polygon id="路径" points="42.494382 6.26966292 43.1910112 6.26966292 43.1910112 6.96629213 42.494382 6.96629213"></polygon>
                            <path d="M33.3834532,53.3638048 C33.2441252,52.9998219 32.8905427,52.8441504 32.5895337,53.0101823 C30.3419348,54.278564 28.0482364,53.0285416 28.0172791,53.0101823 C27.7208801,52.8449494 27.3646695,52.9998054 27.2246888,53.3614139 C27.0853609,53.7245998 27.2141735,54.1556493 27.5131972,54.3264834 C27.5881188,54.3687893 28.7875264,55.0337079 30.3898681,55.0337079 C31.2159898,55.0337079 32.14989,54.8557033 33.0922361,54.3272803 C33.3912598,54.1588535 33.5207419,53.7262141 33.3833859,53.3638252 L33.3834532,53.3638048 Z" id="路径"></path>
                            <path d="M38.8396968,48.7242886 L39.1428268,48.5147716 C39.2658889,48.4314086 39.3646166,48.3465726 39.4410977,48.2624787 L39.5314814,48.1518204 C39.7094685,47.9039467 39.7261637,47.6641939 39.6955642,47.4819666 C39.6232569,47.0481831 39.2561494,46.8158145 38.9377304,46.7412919 L38.667973,46.6793244 L38.4406299,46.8475234 C38.1103747,47.0924509 37.2656298,47.0924509 36.9882189,47.0924509 C36.4000247,47.0924509 35.6713986,47.0459753 34.8265646,46.9928595 C33.6105562,46.9153983 32.0955293,46.8194953 30.3177933,46.8194953 C28.5699057,46.8194953 27.029836,46.8962181 25.7922912,46.958924 C24.9148677,47.0024497 24.1639932,47.0400736 23.5521445,47.0400736 C22.4772621,47.0400736 22.2360182,46.9094966 22.189439,46.8703977 L21.956525,46.6741573 L21.6659075,46.7405516 C21.3516533,46.812111 20.9873314,47.042287 20.9122386,47.472369 C20.8649616,47.7423766 20.9205817,48.1414862 21.4531594,48.508868 L21.6311466,48.6357566 C22.644837,49.3565071 25.7310814,51.5505618 30.319057,51.5505618 C34.7993504,51.5505618 37.5289618,49.6414154 38.8394814,48.7243301 L38.8396968,48.7242886 Z M25.8542859,48.2986258 C27.0772536,48.2366583 28.6013401,48.1606721 30.3199843,48.1606721 C32.0588301,48.1606721 33.5536554,48.2558385 34.7529331,48.3318229 C35.5663879,48.3834637 36.27556,48.4284644 36.8777441,48.4336277 C35.465665,49.2702036 33.3158646,50.2078364 30.3206962,50.2078364 C27.3255279,50.2078364 25.0707863,49.2170784 23.6483127,48.3805025 C24.2587554,48.3782895 24.9964232,48.3414036 25.8544639,48.2986163 L25.8542859,48.2986258 Z" id="形状"></path>
                        </g>
                        <path d="M43.8876404,20.8391709 L46.3727117,20.8391709 C47.4772812,20.8391709 48.3727117,21.7346014 48.3727117,22.8391709 L48.3727117,25.0211684 L48.3727117,25.0211684" id="路径-6" stroke="#FFFFFF" stroke-width="2" stroke-linecap="round" stroke-dasharray="1"></path>
                        <path d="M43.8876404,32.3762564 L46.3727117,32.3762564 C47.4772812,32.3762564 48.3727117,33.2716869 48.3727117,34.3762564 L48.3727117,36.5582539 L48.3727117,36.5582539" id="路径-6备份-2" stroke="#FFFFFF" stroke-width="2" stroke-linecap="round" stroke-dasharray="1" transform="translate(46.130176, 34.467255) scale(1, -1) translate(-46.130176, -34.467255) "></path>
                        <path d="M12.4383242,20.8391709 L14.9233954,20.8391709 C16.0279649,20.8391709 16.9233954,21.7346014 16.9233954,22.8391709 L16.9233954,25.0211684 L16.9233954,25.0211684" id="路径-6备份" stroke="#FFFFFF" stroke-width="2" stroke-linecap="round" stroke-dasharray="1" transform="translate(14.680860, 22.930170) scale(-1, 1) translate(-14.680860, -22.930170) "></path>
                        <path d="M12.4383242,32.3762564 L14.9233954,32.3762564 C16.0279649,32.3762564 16.9233954,33.2716869 16.9233954,34.3762564 L16.9233954,36.5582539 L16.9233954,36.5582539" id="路径-6备份-3" stroke="#FFFFFF" stroke-width="2" stroke-linecap="round" stroke-dasharray="1" transform="translate(14.680860, 34.467255) scale(-1, -1) translate(-14.680860, -34.467255) "></path>
                    </g>
                </g>
            </g>
        </g>
    </g>
</svg>