<?xml version="1.0" encoding="UTF-8"?>
<svg width="104px" height="105px" viewBox="0 0 104 105" version="1.1" xmlns="http://www.w3.org/2000/svg" xmlns:xlink="http://www.w3.org/1999/xlink">
    <title>编组 17</title>
    <defs>
        <linearGradient x1="0%" y1="50%" x2="100%" y2="50%" id="linearGradient-1">
            <stop stop-color="#CBD675" offset="0%"></stop>
            <stop stop-color="#D7B786" offset="57.6072853%"></stop>
            <stop stop-color="#BD9A84" offset="100%"></stop>
        </linearGradient>
        <polygon id="path-2" points="0 0 9.75 0 9.75 9.75 0 9.75"></polygon>
        <polygon id="path-4" points="0 0 9.75 0 9.75 9.75 0 9.75"></polygon>
        <polygon id="path-6" points="0 0 9.75 0 9.75 9.75 0 9.75"></polygon>
        <polygon id="path-8" points="0 0 9.75 0 9.75 9.75 0 9.75"></polygon>
        <polygon id="path-10" points="0 0 41.7373239 0 41.7373239 65 0 65"></polygon>
    </defs>
    <g id="页面-1" stroke="none" stroke-width="1" fill="none" fill-rule="evenodd">
        <g id="核心技术" transform="translate(-586.000000, -2130.000000)">
            <g id="编组-17" transform="translate(586.000000, 2130.250000)">
                <circle id="椭圆形" fill="url(#linearGradient-1)" cx="52" cy="52" r="52"></circle>
                <g id="人体" transform="translate(23.400000, 19.500000)">
                    <g id="Clipped">
                        <mask id="mask-3" fill="white">
                            <use xlink:href="#path-2"></use>
                        </mask>
                        <g id="路径"></g>
                        <path d="M1.0673,9.64714062 C1.599494,9.64714062 2.029092,9.21580914 2.029092,8.68263515 L2.029092,1.93002781 L8.762702,1.93002781 C9.294896,1.93002781 9.724494,1.49869633 9.724494,0.965522336 C9.724494,0.431826873 9.294376,0.00101686077 8.762702,0.00101686077 L1.067352,0.000507648184 C0.535158,0.000507648184 0.105053,0.431839127 0.105053,0.965013124 L0.105053,8.68259525 C0.105053,9.21576925 0.535171,9.64714062 1.067352,9.64714062 L1.0673,9.64714062 Z" id="路径" fill="#FFFFFF" fill-rule="nonzero" mask="url(#mask-3)"></path>
                    </g>
                    <g id="Clipped" transform="translate(0.000000, 54.600000)">
                        <mask id="mask-5" fill="white">
                            <use xlink:href="#path-4"></use>
                        </mask>
                        <g id="路径"></g>
                        <path d="M8.7633,7.82028398 L2.02969,7.82028398 L2.02969,1.06803778 C2.02969,0.534370864 1.599572,0.103583892 1.067898,0.103583892 C0.535704,0.103583892 0.106106,0.534892303 0.106106,1.06803778 L0.106106,8.78520717 C0.106106,9.31887409 0.536224,9.74966106 1.067898,9.74966106 L8.763768,9.74966106 C9.295962,9.74966106 9.72556,9.31835265 9.72556,8.78520717 C9.72556,8.25154025 9.295442,7.82024488 8.763261,7.82024488 L8.7633,7.82028398 Z" id="路径" fill="#FFFFFF" fill-rule="nonzero" mask="url(#mask-5)"></path>
                    </g>
                    <g id="Clipped" transform="translate(47.450000, 0.000000)">
                        <mask id="mask-7" fill="white">
                            <use xlink:href="#path-6"></use>
                        </mask>
                        <g id="路径"></g>
                        <path d="M8.6827,0 L0.98683,0 C0.454636,0 0.025038,0.431331479 0.025038,0.964505475 C0.025038,1.49820094 0.455156,1.92901095 0.98683,1.92901095 L7.72044,1.92901095 L7.72044,8.68161829 C7.72044,9.21531375 8.150558,9.64612376 8.682232,9.64612376 C9.214426,9.64612376 9.644024,9.21479228 9.644024,8.68161829 L9.64453178,0.964557622 C9.64453178,0.431383626 9.21492078,0 8.68273978,0 L8.6827,0 Z" id="路径" fill="#FFFFFF" fill-rule="nonzero" mask="url(#mask-7)"></path>
                    </g>
                    <g id="Clipped" transform="translate(47.450000, 54.600000)">
                        <mask id="mask-9" fill="white">
                            <use xlink:href="#path-8"></use>
                        </mask>
                        <g id="路径"></g>
                        <path d="M8.6827,0.102984236 C8.150506,0.102984236 7.720908,0.534292648 7.720908,1.06743813 L7.720908,7.81968433 L0.987298,7.81968433 C0.455104,7.81968433 0.025506,8.25099274 0.025506,8.78413822 C0.025506,9.31780514 0.455624,9.74859211 0.987298,9.74859211 L8.683168,9.74859211 C9.215362,9.74859211 9.64496,9.3172837 9.64496,8.78413822 L9.64496,1.06696883 C9.64445222,0.534331756 9.214842,0.102984236 8.682661,0.102984236 L8.6827,0.102984236 Z" id="路径" fill="#FFFFFF" fill-rule="nonzero" mask="url(#mask-9)"></path>
                    </g>
                    <g id="Clipped" transform="translate(8.226248, 0.000000)">
                        <mask id="mask-11" fill="white">
                            <use xlink:href="#path-10"></use>
                        </mask>
                        <g id="路径"></g>
                        <path d="M35.9183221,32.7704556 L35.9183221,24.5460447 C37.6909947,24.1021484 39.0085968,22.5613509 39.0085968,20.716054 C39.0085968,18.5259546 37.1608913,16.7450565 34.8883234,16.7450565 C32.973102,16.7450565 31.3744392,18.0148956 30.9143574,19.7233717 L24.4411931,19.7233717 C24.0659862,18.334502 22.9381661,17.246563 21.4972258,16.8860633 L21.4972258,14.6702043 C24.4157181,14.1959064 26.6479157,11.7494457 26.6479157,8.80319582 L26.6473719,6.81742877 C26.6473719,3.53254798 23.8751871,0.860798437 20.4668226,0.860798437 C17.058458,0.860798437 14.2862732,3.53254798 14.2862732,6.81742877 L14.2862732,8.80319582 C14.2862732,11.7485065 16.5184708,14.1949941 19.436963,14.6702043 L19.436963,16.8860633 C17.9958835,17.2476766 16.8670472,18.3346362 16.4929957,19.7233717 L10.0198315,19.7233717 C9.55924846,18.0149224 7.96053001,16.7450565 6.04586547,16.7450565 C3.7734368,16.7450565 1.92559202,18.5258204 1.92559202,20.716054 C1.92559202,22.5618876 3.24316632,24.1026314 5.01586672,24.5460447 L5.01586672,32.7704556 C3.24319417,33.2143519 1.92559202,34.7551493 1.92559202,36.6004462 C1.92559202,38.7905457 3.7732976,40.5714437 6.04586547,40.5714437 C8.31843335,40.5714437 10.1661389,38.7906798 10.1661389,36.6004462 C10.1661389,34.7546127 8.84856462,33.2138689 7.07586423,32.7704556 L7.07586423,24.5460447 C8.51694372,24.1844314 9.64578004,23.0974718 10.0198315,21.7087363 L16.4929957,21.7087363 C16.8682026,23.097606 17.9960227,24.185545 19.436963,24.5460447 L19.436963,30.7846885 C17.6642905,31.2285848 16.3466883,32.7693823 16.3466883,34.6146792 C16.3466883,35.1172724 16.4538129,35.5936633 16.6310899,36.0365533 L12.6582376,38.7717626 C12.3868936,38.9578084 12.2264705,39.2586318 12.2264705,39.5793652 L12.2264705,44.6844541 C10.453798,45.1283504 9.13619585,46.6691479 9.13619585,48.5144448 C9.13619585,50.3602784 10.4537702,51.9010222 12.2264705,52.3444355 L12.2264705,56.5973123 C10.453798,57.0412086 9.13619585,58.582006 9.13619585,60.427303 C9.13619585,62.6174024 10.9839014,64.3983004 13.2564693,64.3983004 C15.5290372,64.3983004 17.3767428,62.6175365 17.3767428,60.427303 C17.3767428,58.5814694 16.0591685,57.0407256 14.2864681,56.5973123 L14.2864681,52.3444355 C16.0591406,51.9005392 17.3767428,50.3597418 17.3767428,48.5144448 C17.3767428,46.6686112 16.0591685,45.1278674 14.2864681,44.6844541 L14.2864681,40.0909339 L17.8362678,37.646593 C18.5524225,38.2241305 19.4622153,38.586267 20.4670174,38.586267 C21.4724739,38.586267 22.3822388,38.2241305 23.0977671,37.6460698 L26.6475668,40.0904107 L26.6475668,44.6839309 C24.8748943,45.1278272 23.5572921,46.6686246 23.5572921,48.5139216 C23.5572921,50.3597552 24.8748664,51.900499 26.6475668,52.3439122 L26.6475668,56.5967891 C24.8748943,57.0406853 23.5572921,58.5814828 23.5572921,60.4267797 C23.5572921,62.6168791 25.4049977,64.3983004 27.6775656,64.3983004 C29.9501335,64.3983004 31.797839,62.6170133 31.797839,60.4267797 C31.797839,58.5809461 30.4802647,57.0402023 28.7075643,56.5967891 L28.7075643,52.3439122 C30.4802369,51.900016 31.797839,50.3592185 31.797839,48.5139216 C31.797839,46.668088 30.4802647,45.1273442 28.7075643,44.6839309 L28.7081082,39.5793786 C28.7081082,39.2586452 28.5471561,38.9578218 28.2763412,38.7722993 L24.3034889,36.03709 C24.4807561,35.5942402 24.5878905,35.1178493 24.5878905,34.6152159 C24.5878905,32.7693823 23.2703162,31.2286385 21.4976158,30.7852252 L21.4976158,24.5465813 C22.9386953,24.184968 24.0675316,23.0980085 24.441583,21.7092729 L30.9147473,21.7092729 C31.2899542,23.0981426 32.4177743,24.1860816 33.8587145,24.5465813 L33.8587145,32.7709922 C32.086042,33.2148885 30.7684398,34.755686 30.7684398,36.6009829 C30.7684398,38.7910823 32.6161454,40.5719803 34.8887133,40.5719803 C37.161142,40.5719803 39.0089867,38.7912165 39.0089867,36.6009829 C39.0089867,34.7551493 37.6914124,33.2144055 35.9187121,32.7704556 L35.9183221,32.7704556 Z M15.3169549,60.4271017 C15.3169549,61.5219099 14.3930743,62.4128688 13.2565397,62.4128688 C12.120576,62.4128688 11.1961246,61.52246 11.1961246,60.4271017 C11.1961246,59.3322935 12.1200052,58.4413347 13.2565397,58.4413347 C14.3930464,58.4418587 15.3169549,59.3322667 15.3169549,60.4271017 Z M15.3169549,48.5142436 C15.3169549,49.6090518 14.3930743,50.5000106 13.2565397,50.5000106 C12.120576,50.5000106 11.1961246,49.6096018 11.1961246,48.5142436 C11.1961246,47.4194354 12.1200052,46.5284765 13.2565397,46.5284765 C14.3930743,46.5284765 15.3169549,47.4188853 15.3169549,48.5142436 Z M29.7374943,60.4271017 C29.7374943,61.5219099 28.8136137,62.4128688 27.6770792,62.4128688 C26.5411154,62.4128688 25.6166641,61.52246 25.6166641,60.4271017 C25.6166641,59.3322935 26.5405447,58.4413347 27.6770792,58.4413347 C28.8135859,58.4418587 29.7374943,59.3322667 29.7374943,60.4271017 Z M29.7374943,48.5142436 C29.7374943,49.6090518 28.8136137,50.5000106 27.6770792,50.5000106 C26.5411154,50.5000106 25.6166641,49.6096018 25.6166641,48.5142436 C25.6166641,47.4194354 26.5405447,46.5284765 27.6770792,46.5284765 C28.8136137,46.5284765 29.7374943,47.4188853 29.7374943,48.5142436 Z M16.3463968,8.80292749 L16.3463968,6.81716044 C16.3463968,4.62706103 18.1941024,2.84616299 20.4666703,2.84616299 C22.7392381,2.84616299 24.5869437,4.62692687 24.5869437,6.81716044 L24.5869437,8.80292749 C24.5869437,10.9930269 22.7392381,12.7739249 20.4666703,12.7739249 C18.1941024,12.7739249 16.3463968,10.9926244 16.3463968,8.80292749 Z M8.10543228,36.6004462 C8.10543228,37.6952545 7.18155166,38.5862133 6.04501714,38.5862133 C4.90905338,38.5862133 3.984602,37.6958045 3.984602,36.6004462 C3.984602,35.505638 4.90848263,34.6146792 6.04501714,34.6146792 C7.18152381,34.6146792 8.10543228,35.505088 8.10543228,36.6004462 Z M6.04557397,22.701016 C4.90961021,22.701016 3.98515883,21.8106073 3.98515883,20.715249 C3.98515883,19.6204408 4.90903946,18.7294819 6.04557397,18.7294819 C7.18153774,18.7294819 8.10598911,19.6198907 8.10598911,20.715249 C8.10544537,21.8105804 7.18156558,22.701016 6.04557397,22.701016 Z M22.5263894,34.6144109 C22.5263894,35.0420598 22.3822814,35.4356445 22.1430249,35.760054 C22.1408498,35.7621503 22.1386747,35.7631984 22.1381309,35.7647706 C22.1370433,35.7658187 22.1370433,35.766867 22.1359558,35.7679152 C21.7612918,36.2694619 21.1544292,36.6001503 20.4660186,36.6001503 C19.778137,36.6001503 19.1712744,36.2694619 18.7960815,35.7689617 C18.794994,35.7679136 18.794994,35.7668654 18.7939063,35.7658171 C18.7917312,35.7637209 18.7895561,35.7626727 18.7879247,35.7611004 C18.5502969,35.4356445 18.406189,35.0420598 18.406189,34.6144109 C18.406189,33.5196027 19.3300696,32.6286438 20.4666041,32.6286438 C21.6025679,32.6286438 22.5264624,33.5195758 22.5264624,34.6144109 L22.5263894,34.6144109 Z M20.4659742,22.701016 C19.3300105,22.701016 18.4055591,21.8106073 18.4055591,20.715249 C18.4055591,19.6204408 19.3294397,18.7294819 20.4659742,18.7294819 C21.601938,18.7294819 22.5263894,19.6198907 22.5263894,20.715249 C22.5263894,21.8106073 21.6025087,22.701016 20.4659742,22.701016 Z M32.8272122,20.715249 C32.8272122,19.6204408 33.7510928,18.7294819 34.8876273,18.7294819 C36.0235911,18.7294819 36.9480425,19.6198907 36.9480425,20.715249 C36.9480425,21.8100572 36.0241619,22.701016 34.8876273,22.701016 C33.7511207,22.701016 32.8272122,21.8106073 32.8272122,20.715249 Z M34.8876273,38.585945 C33.7516636,38.585945 32.8272122,37.6955362 32.8272122,36.6001779 C32.8272122,35.5053697 33.7510928,34.6144109 34.8876273,34.6144109 C36.0235911,34.6144109 36.9480425,35.5048196 36.9480425,36.6001779 C36.9480425,37.6955094 36.0236189,38.585945 34.8876273,38.585945 Z" id="形状" stroke="#FFFFFF" fill="#FFFFFF" fill-rule="nonzero" mask="url(#mask-11)"></path>
                    </g>
                </g>
            </g>
        </g>
    </g>
</svg>