<?xml version="1.0" encoding="UTF-8"?>
<svg width="204px" height="148px" viewBox="0 0 204 148" version="1.1" xmlns="http://www.w3.org/2000/svg" xmlns:xlink="http://www.w3.org/1999/xlink">
    <title>直线 10备份 11</title>
    <defs>
        <linearGradient x1="0%" y1="50%" x2="100%" y2="50%" id="linearGradient-1">
            <stop stop-color="#D675A3" offset="0%"></stop>
            <stop stop-color="#8D86D7" offset="45.7084176%"></stop>
            <stop stop-color="#8CBFC6" offset="100%"></stop>
        </linearGradient>
    </defs>
    <g id="页面-1" stroke="none" stroke-width="1" fill="none" fill-rule="evenodd">
        <g id="核心技术" transform="translate(-457.000000, -1032.000000)" fill="url(#linearGradient-1)" fill-rule="nonzero">
            <path id="直线-10备份-11" d="M462.174863,1173.14254 L464.516973,1176.38515 L462.895668,1177.55621 L461.421055,1178.62131 L459.79975,1179.79236 L457.45764,1176.54975 L459.078945,1175.37869 L460.553558,1174.31359 L462.174863,1173.14254 Z M488.115747,1154.40566 L490.457856,1157.64827 L488.836551,1158.81933 L475.866109,1168.18777 L474.244804,1169.35882 L471.902694,1166.11621 L473.524,1164.94516 L486.494441,1155.57672 L488.115747,1154.40566 Z M514.05663,1135.66879 L516.39874,1138.9114 L514.777434,1140.08245 L501.806993,1149.45089 L500.185687,1150.62194 L497.843578,1147.37933 L499.464883,1146.20828 L512.435325,1136.83984 L514.05663,1135.66879 Z M539.997513,1116.93191 L542.339623,1120.17452 L540.718318,1121.34557 L527.747876,1130.71401 L526.126571,1131.88507 L523.784461,1128.64246 L525.405766,1127.4714 L538.376208,1118.10296 L539.997513,1116.93191 Z M565.938397,1098.19503 L568.280506,1101.43764 L566.659201,1102.6087 L553.68876,1111.97713 L552.067454,1113.14819 L549.725345,1109.90558 L551.34665,1108.73452 L564.317092,1099.36609 L565.938397,1098.19503 Z M591.87928,1079.45815 L594.22139,1082.70076 L592.600085,1083.87182 L579.629643,1093.24026 L578.008338,1094.41131 L575.666228,1091.1687 L577.287533,1089.99765 L590.257975,1080.62921 L591.87928,1079.45815 Z M617.820164,1060.72128 L620.162273,1063.96389 L618.540968,1065.13494 L605.570526,1074.50338 L603.949221,1075.67444 L601.607111,1072.43182 L603.228417,1071.26077 L616.198858,1061.89233 L617.820164,1060.72128 Z M661,1032 L648.570666,1055.78049 L642.715,1047.673 L631.51141,1055.7665 L629.890105,1056.93756 L627.547995,1053.69495 L629.1693,1052.52389 L640.373,1044.431 L634.518008,1036.32483 L661,1032 Z"></path>
        </g>
    </g>
</svg>