<?xml version="1.0" encoding="UTF-8"?>
<svg width="186px" height="24px" viewBox="0 0 186 24" version="1.1" xmlns="http://www.w3.org/2000/svg" xmlns:xlink="http://www.w3.org/1999/xlink">
    <title>直线 10备份 10</title>
    <defs>
        <linearGradient x1="0%" y1="50%" x2="100%" y2="50%" id="linearGradient-1">
            <stop stop-color="#D675A3" offset="0%"></stop>
            <stop stop-color="#8D86D7" offset="45.7084176%"></stop>
            <stop stop-color="#8CBFC6" offset="100%"></stop>
        </linearGradient>
    </defs>
    <g id="页面-1" stroke="none" stroke-width="1" fill="none" fill-rule="evenodd">
        <g id="核心技术" transform="translate(-1246.000000, -1251.000000)" fill="url(#linearGradient-1)" fill-rule="nonzero">
            <path id="直线-10备份-10" d="M1408,1251 L1432,1263 L1408,1275 L1408,1265 L1392,1265 L1392,1261 L1408,1261 L1408,1251 Z M1380,1261 L1380,1265 L1360,1265 L1360,1261 L1380,1261 Z M1348,1261 L1348,1265 L1328,1265 L1328,1261 L1348,1261 Z M1316,1261 L1316,1265 L1296,1265 L1296,1261 L1316,1261 Z M1284,1261 L1284,1265 L1264,1265 L1264,1261 L1284,1261 Z M1252,1261 L1252,1265 L1246.5,1265 L1246.5,1261 L1252,1261 Z"></path>
        </g>
    </g>
</svg>