<?xml version="1.0" encoding="UTF-8"?>
<svg width="191px" height="168px" viewBox="0 0 191 168" version="1.1" xmlns="http://www.w3.org/2000/svg" xmlns:xlink="http://www.w3.org/1999/xlink">
    <title>直线 10备份 8</title>
    <defs>
        <linearGradient x1="0%" y1="50%" x2="100%" y2="50%" id="linearGradient-1">
            <stop stop-color="#D675A3" offset="0%"></stop>
            <stop stop-color="#8D86D7" offset="45.7084176%"></stop>
            <stop stop-color="#8CBFC6" offset="100%"></stop>
        </linearGradient>
    </defs>
    <g id="页面-1" stroke="none" stroke-width="1" fill="none" fill-rule="evenodd">
        <g id="核心技术" transform="translate(-860.000000, -1029.000000)" fill="url(#linearGradient-1)" fill-rule="nonzero">
            <path id="直线-10备份-8" d="M1022.39702,1169.16524 L1023.89844,1170.4865 L1034.304,1179.643 L1040.91041,1172.13637 L1051,1197 L1025.05534,1190.15349 L1031.661,1182.646 L1021.25593,1173.48935 L1019.7545,1172.1681 L1022.39702,1169.16524 Z M998.374183,1148.02515 L999.87561,1149.3464 L1011.88703,1159.91645 L1013.38845,1161.23771 L1010.74594,1164.24056 L1009.24451,1162.91931 L997.233098,1152.34926 L995.731671,1151.028 L998.374183,1148.02515 Z M974.35135,1126.88506 L975.852778,1128.20631 L987.864194,1138.77636 L989.365621,1140.09761 L986.723109,1143.10047 L985.221682,1141.77921 L973.210266,1131.20917 L971.708839,1129.88791 L974.35135,1126.88506 Z M950.328518,1105.74496 L951.829945,1107.06622 L963.841361,1117.63627 L965.342788,1118.95752 L962.700277,1121.96038 L961.19885,1120.63912 L949.187433,1110.06907 L947.686006,1108.74782 L950.328518,1105.74496 Z M926.305685,1084.60487 L927.807112,1085.92613 L939.818529,1096.49617 L941.319956,1097.81743 L938.677444,1100.82028 L937.176017,1099.49903 L925.164601,1088.92898 L923.663174,1087.60773 L926.305685,1084.60487 Z M902.282853,1063.46478 L903.78428,1064.78603 L915.795696,1075.35608 L917.297123,1076.67734 L914.654612,1079.68019 L913.153185,1078.35893 L901.141768,1067.78889 L899.640341,1066.46763 L902.282853,1063.46478 Z M878.26002,1042.32469 L879.761447,1043.64594 L891.772864,1054.21599 L893.274291,1055.53724 L890.631779,1058.5401 L889.130352,1057.21884 L877.118936,1046.6488 L875.617509,1045.32754 L878.26002,1042.32469 Z M863.319829,1029.17732 L864.821256,1030.49857 L867.750031,1033.0759 L869.251458,1034.39715 L866.608947,1037.40001 L865.10752,1036.07875 L862.178744,1033.50143 L860.677317,1032.18017 L863.319829,1029.17732 Z"></path>
        </g>
    </g>
</svg>