<?xml version="1.0" encoding="UTF-8"?>
<svg width="204px" height="148px" viewBox="0 0 204 148" version="1.1" xmlns="http://www.w3.org/2000/svg" xmlns:xlink="http://www.w3.org/1999/xlink">
    <title>直线 10备份 12</title>
    <defs>
        <linearGradient x1="0%" y1="50%" x2="100%" y2="50%" id="linearGradient-1">
            <stop stop-color="#D675A3" offset="0%"></stop>
            <stop stop-color="#8D86D7" offset="45.7084176%"></stop>
            <stop stop-color="#8CBFC6" offset="100%"></stop>
        </linearGradient>
    </defs>
    <g id="页面-1" stroke="none" stroke-width="1" fill="none" fill-rule="evenodd">
        <g id="核心技术" transform="translate(-457.000000, -1331.000000)" fill="url(#linearGradient-1)" fill-rule="nonzero">
            <path id="直线-10备份-12" d="M629.890105,1454.06244 L631.51141,1455.2335 L642.715,1463.326 L648.570666,1455.21951 L661,1479 L634.518008,1474.67517 L640.373,1466.568 L629.1693,1458.47611 L627.547995,1457.30505 L629.890105,1454.06244 Z M603.949221,1435.32556 L605.570526,1436.49662 L618.540968,1445.86506 L620.162273,1447.03611 L617.820164,1450.27872 L616.198858,1449.10767 L603.228417,1439.73923 L601.607111,1438.56818 L603.949221,1435.32556 Z M578.008338,1416.58869 L579.629643,1417.75974 L592.600085,1427.12818 L594.22139,1428.29924 L591.87928,1431.54185 L590.257975,1430.37079 L577.287533,1421.00235 L575.666228,1419.8313 L578.008338,1416.58869 Z M552.067454,1397.85181 L553.68876,1399.02287 L566.659201,1408.3913 L568.280506,1409.56236 L565.938397,1412.80497 L564.317092,1411.63391 L551.34665,1402.26548 L549.725345,1401.09442 L552.067454,1397.85181 Z M526.126571,1379.11493 L527.747876,1380.28599 L540.718318,1389.65443 L542.339623,1390.82548 L539.997513,1394.06809 L538.376208,1392.89704 L525.405766,1383.5286 L523.784461,1382.35754 L526.126571,1379.11493 Z M500.185687,1360.37806 L501.806993,1361.54911 L514.777434,1370.91755 L516.39874,1372.0886 L514.05663,1375.33121 L512.435325,1374.16016 L499.464883,1364.79172 L497.843578,1363.62067 L500.185687,1360.37806 Z M474.244804,1341.64118 L475.866109,1342.81223 L488.836551,1352.18067 L490.457856,1353.35173 L488.115747,1356.59434 L486.494441,1355.42328 L473.524,1346.05484 L471.902694,1344.88379 L474.244804,1341.64118 Z M459.79975,1331.20764 L461.421055,1332.37869 L462.895668,1333.44379 L464.516973,1334.61485 L462.174863,1337.85746 L460.553558,1336.68641 L459.078945,1335.62131 L457.45764,1334.45025 L459.79975,1331.20764 Z"></path>
        </g>
    </g>
</svg>