<?xml version="1.0" encoding="UTF-8"?>
<svg width="191px" height="168px" viewBox="0 0 191 168" version="1.1" xmlns="http://www.w3.org/2000/svg" xmlns:xlink="http://www.w3.org/1999/xlink">
    <title>直线 10备份 9</title>
    <defs>
        <linearGradient x1="0%" y1="50%" x2="100%" y2="50%" id="linearGradient-1">
            <stop stop-color="#D675A3" offset="0%"></stop>
            <stop stop-color="#8D86D7" offset="45.7084176%"></stop>
            <stop stop-color="#8CBFC6" offset="100%"></stop>
        </linearGradient>
    </defs>
    <g id="页面-1" stroke="none" stroke-width="1" fill="none" fill-rule="evenodd">
        <g id="核心技术" transform="translate(-860.000000, -1314.000000)" fill="url(#linearGradient-1)" fill-rule="nonzero">
            <path id="直线-10备份-9" d="M866.608947,1473.59999 L869.251458,1476.60285 L867.750031,1477.9241 L864.821256,1480.50143 L863.319829,1481.82268 L860.677317,1478.81983 L862.178744,1477.49857 L865.10752,1474.92125 L866.608947,1473.59999 Z M890.631779,1452.4599 L893.274291,1455.46276 L891.772864,1456.78401 L879.761447,1467.35406 L878.26002,1468.67531 L875.617509,1465.67246 L877.118936,1464.3512 L889.130352,1453.78116 L890.631779,1452.4599 Z M914.654612,1431.31981 L917.297123,1434.32266 L915.795696,1435.64392 L903.78428,1446.21397 L902.282853,1447.53522 L899.640341,1444.53237 L901.141768,1443.21111 L913.153185,1432.64107 L914.654612,1431.31981 Z M938.677444,1410.17972 L941.319956,1413.18257 L939.818529,1414.50383 L927.807112,1425.07387 L926.305685,1426.39513 L923.663174,1423.39227 L925.164601,1422.07102 L937.176017,1411.50097 L938.677444,1410.17972 Z M962.700277,1389.03962 L965.342788,1392.04248 L963.841361,1393.36373 L951.829945,1403.93378 L950.328518,1405.25504 L947.686006,1402.25218 L949.187433,1400.93093 L961.19885,1390.36088 L962.700277,1389.03962 Z M986.723109,1367.89953 L989.365621,1370.90239 L987.864194,1372.22364 L975.852778,1382.79369 L974.35135,1384.11494 L971.708839,1381.11209 L973.210266,1379.79083 L985.221682,1369.22079 L986.723109,1367.89953 Z M1010.74594,1346.75944 L1013.38845,1349.76229 L1011.88703,1351.08355 L999.87561,1361.6536 L998.374183,1362.97485 L995.731671,1359.972 L997.233098,1358.65074 L1009.24451,1348.08069 L1010.74594,1346.75944 Z M1051,1314 L1040.91041,1338.86363 L1034.304,1331.356 L1023.89844,1340.5135 L1022.39702,1341.83476 L1019.7545,1338.8319 L1021.25593,1337.51065 L1031.661,1328.353 L1025.05534,1320.84651 L1051,1314 Z"></path>
        </g>
    </g>
</svg>