<?xml version="1.0" encoding="UTF-8"?>
<svg width="988px" height="119px" viewBox="0 0 988 119" version="1.1" xmlns="http://www.w3.org/2000/svg" xmlns:xlink="http://www.w3.org/1999/xlink">
    <title>编组 63</title>
    <defs>
        <linearGradient x1="0%" y1="50%" x2="100%" y2="50%" id="linearGradient-1">
            <stop stop-color="#D675A3" offset="0%"></stop>
            <stop stop-color="#8D86D7" offset="45.7084176%"></stop>
            <stop stop-color="#8CBFC6" offset="100%"></stop>
        </linearGradient>
        <linearGradient x1="50.0030722%" y1="0%" x2="50%" y2="100%" id="linearGradient-2">
            <stop stop-color="#D675A3" offset="0%"></stop>
            <stop stop-color="#8D86D7" offset="45.7084176%"></stop>
            <stop stop-color="#8CBFC6" offset="100%"></stop>
        </linearGradient>
    </defs>
    <g id="页面-1" stroke="none" stroke-width="1" fill="none" fill-rule="evenodd">
        <g id="核心技术" transform="translate(-467.000000, -3584.000000)">
            <g id="编组-62" transform="translate(467.500000, 3600.764151)">
                <polygon id="路径" fill="#D575A3" fill-rule="nonzero" transform="translate(15.500000, 86.581635) scale(1, -1) rotate(90.000000) translate(-15.500000, -86.581635) " points="18.6 71.0816351 18.6 83.9983018 31 83.9983018 31 89.1649684 18.6 89.1649684 18.6 102.081635 0 86.5816351"></polygon>
                <polygon id="路径" fill="#8DC0C6" fill-rule="nonzero" transform="translate(971.500000, 86.581635) scale(1, -1) rotate(-90.000000) translate(-971.500000, -86.581635) " points="960.428571 71.0816351 987 86.5816351 960.428571 102.081635 960.428571 89.1649684 956 89.1649684 956 83.9983018 960.428571 83.9983018"></polygon>
                <path d="M971.460341,31.9540816 L971.460341,36.5796195 L971.460341,67.1722635 C971.460341,69.260904 962.162869,70.9540816 950.693856,70.9540816 L36.226827,70.9540816 C24.7578136,70.9540816 15.4603413,69.260904 15.4603413,67.1722635 L15.4603413,55.0801252 L15.4603413,37.5773568" id="路径" stroke="url(#linearGradient-1)" stroke-width="5" stroke-dasharray="12" transform="translate(493.460341, 51.454082) scale(1, -1) translate(-493.460341, -51.454082) "></path>
                <path id="直线-10备份-3" d="M497,48.5932301 L497,64.593 L509,64.5932301 L494.5,93.5932301 L480,64.5932301 L492,64.593 L492,48.5932301 L497,48.5932301 Z M497,16.5932301 L497,37.5932301 L492,37.5932301 L492,16.5932301 L497,16.5932301 Z M494.5,-14.2641509 C502.508129,-14.2641509 509,-7.77227982 509,0.235849057 C509,8.24397793 502.508129,14.7358491 494.5,14.7358491 C486.491871,14.7358491 480,8.24397793 480,0.235849057 C480,-7.77227982 486.491871,-14.2641509 494.5,-14.2641509 Z" fill="url(#linearGradient-2)" fill-rule="nonzero"></path>
            </g>
        </g>
    </g>
</svg>