<?xml version="1.0" encoding="UTF-8"?>
<svg width="99px" height="161px" viewBox="0 0 99 161" version="1.1" xmlns="http://www.w3.org/2000/svg" xmlns:xlink="http://www.w3.org/1999/xlink">
    <title>直线 10备份 13</title>
    <defs>
        <linearGradient x1="0%" y1="50%" x2="100%" y2="50%" id="linearGradient-1">
            <stop stop-color="#D675A3" offset="0%"></stop>
            <stop stop-color="#8D86D7" offset="45.7084176%"></stop>
            <stop stop-color="#8CBFC6" offset="100%"></stop>
        </linearGradient>
    </defs>
    <g id="页面-1" stroke="none" stroke-width="1" fill="none" fill-rule="evenodd">
        <g id="核心技术" transform="translate(-149.000000, -1404.000000)" fill="url(#linearGradient-1)" fill-rule="nonzero">
            <g id="编组-10" transform="translate(24.000000, 1136.000000)">
                <g id="编组-6" transform="translate(40.000000, 201.000000)">
                    <g id="编组-5" transform="translate(86.750000, 66.500000)">
                        <path id="直线-10备份-13" d="M7.00548865,146.885063 L8.71404137,147.924701 L8.19422226,148.778978 L1.35427636,160.019819 L0.834457254,160.874095 L-0.874095464,159.834457 L-0.354276359,158.980181 L6.48566954,147.73934 L7.00548865,146.885063 Z M23.6397,119.54822 L25.3482527,120.587858 L24.8284336,121.442134 L16.5113279,135.110556 L15.9915088,135.964832 L14.2829561,134.925194 L14.8027752,134.070918 L23.1198809,120.402496 L23.6397,119.54822 Z M40.2739114,92.2113762 L41.9824641,93.2510144 L41.462645,94.1052908 L33.1455393,107.773713 L32.6257202,108.627989 L30.9171675,107.588351 L31.4369866,106.734074 L39.7540923,93.0656526 L40.2739114,92.2113762 Z M56.9081228,64.8745327 L58.6166755,65.9141709 L58.0968564,66.7684473 L49.7797507,80.436869 L49.2599316,81.2911454 L47.5513789,80.2515072 L48.071198,79.3972308 L56.3883037,65.7288091 L56.9081228,64.8745327 Z M73.5423341,37.5376892 L75.2508868,38.5773274 L74.7310677,39.4316038 L66.4139621,53.1000256 L65.894143,53.9543019 L64.1855902,52.9146637 L64.7054093,52.0603873 L73.022515,38.3919656 L73.5423341,37.5376892 Z M97.25,0.5 L95.952467,16.0986028 L90.826,12.979 L83.0481734,25.7631821 L82.5283543,26.6174584 L80.8198016,25.5778202 L81.3396207,24.7235439 L89.118,11.94 L83.992598,8.82113529 L97.25,0.5 Z"></path>
                    </g>
                </g>
            </g>
        </g>
    </g>
</svg>