<?xml version="1.0" encoding="UTF-8"?>
<svg width="99px" height="161px" viewBox="0 0 99 161" version="1.1" xmlns="http://www.w3.org/2000/svg" xmlns:xlink="http://www.w3.org/1999/xlink">
    <title>直线 10备份 13</title>
    <defs>
        <linearGradient x1="0%" y1="50%" x2="100%" y2="50%" id="linearGradient-1">
            <stop stop-color="#D675A3" offset="0%"></stop>
            <stop stop-color="#8D86D7" offset="45.7084176%"></stop>
            <stop stop-color="#8CBFC6" offset="100%"></stop>
        </linearGradient>
    </defs>
    <g id="页面-1" stroke="none" stroke-width="1" fill="none" fill-rule="evenodd">
        <g id="核心技术" transform="translate(-330.000000, -1401.000000)" fill="url(#linearGradient-1)" fill-rule="nonzero">
            <g id="编组-10" transform="translate(24.000000, 1136.000000)">
                <g id="编组-6" transform="translate(40.000000, 201.000000)">
                    <g id="编组-5备份" transform="translate(311.250000, 265.500000) scale(-1, 1) translate(-311.250000, -265.500000) translate(257.750000, 65.500000)">
                        <path id="直线-10备份-13" d="M13.7444859,135.810122 L15.4530386,136.84976 L14.9332195,137.704037 L8.631,148.059 L13.757402,151.178865 L0.5,159.5 L1.79753296,143.901397 L6.923,147.02 L13.2246668,136.664398 L13.7444859,135.810122 Z M30.3786973,108.473279 L32.08725,109.512917 L31.5674309,110.367193 L23.2503252,124.035615 L22.7305061,124.889891 L21.0219534,123.850253 L21.5417725,122.995977 L29.8588782,109.327555 L30.3786973,108.473279 Z M47.0129086,81.136435 L48.7214614,82.1760732 L48.2016422,83.0303496 L39.8845366,96.6987713 L39.3647175,97.5530477 L37.6561647,96.5134095 L38.1759838,95.6591331 L46.4930895,81.9907114 L47.0129086,81.136435 Z M63.64712,53.7995915 L65.3556727,54.8392297 L64.8358536,55.6935061 L56.5187479,69.3619278 L55.9989288,70.2162042 L54.2903761,69.176566 L54.8101952,68.3222896 L63.1273009,54.6538679 L63.64712,53.7995915 Z M80.2813314,26.462748 L81.9898841,27.5023862 L81.470065,28.3566626 L73.1529593,42.0250843 L72.6331402,42.8793607 L70.9245875,41.8397225 L71.4444066,40.9854461 L79.7615123,27.3170244 L80.2813314,26.462748 Z M96.9155427,-0.874095464 L98.6240955,0.165542746 L98.1042764,1.01981911 L89.7871707,14.6882409 L89.2673516,15.5425172 L87.5587989,14.502879 L88.078618,13.6486026 L96.3957236,-0.0198191053 L96.9155427,-0.874095464 Z"></path>
                    </g>
                </g>
            </g>
        </g>
    </g>
</svg>