<?xml version="1.0" encoding="UTF-8"?>
<svg width="104px" height="105px" viewBox="0 0 104 105" version="1.1" xmlns="http://www.w3.org/2000/svg" xmlns:xlink="http://www.w3.org/1999/xlink">
    <title>编组 33</title>
    <defs>
        <linearGradient x1="0%" y1="50%" x2="100%" y2="50%" id="linearGradient-1">
            <stop stop-color="#75D5D6" offset="0%"></stop>
            <stop stop-color="#A0D786" offset="57.6072853%"></stop>
            <stop stop-color="#B8BD84" offset="100%"></stop>
        </linearGradient>
    </defs>
    <g id="页面-1" stroke="none" stroke-width="1" fill="none" fill-rule="evenodd">
        <g id="核心技术" transform="translate(-1336.000000, -2409.000000)">
            <g id="编组-46" transform="translate(479.500000, 2409.500000)">
                <g id="编组-34" transform="translate(829.000000, 0.000000)">
                    <g id="编组-33" transform="translate(27.500000, 0.000000)">
                        <rect id="矩形" fill="url(#linearGradient-1)" x="0" y="0" width="104" height="104" rx="52"></rect>
                        <g id="编组-32" transform="translate(22.965347, 17.500000)" fill="#FFFFFF" fill-rule="nonzero">
                            <g id="侧脸4">
                                <path d="M56.6379735,16.1805773 C54.2180856,9.46922049 49.3959499,4.13649489 43.7386402,1.91685976 C38.8287856,-0.0138067449 33.2774762,-0.146554232 29.4850357,0.0842968862 L29.4844093,0.0842968862 C26.8735283,0.240492113 24.1855124,0.626246599 21.7130253,1.19727125 C15.3698401,2.65678131 10.4612684,6.4573095 7.12249666,12.493273 C5.25634458,15.8637641 4.4978244,19.5662858 4.9851696,22.9184836 C5.3773069,25.6105055 5.37543064,27.6360379 4.16268035,29.4161494 L3.90961044,29.7867253 C0.0903891554,35.376204 0.0865404272,35.4046961 0.0257625944,35.8638082 C-0.274919296,37.9753027 2.12043292,39.231871 3.86951952,40.1487999 C4.13700613,40.2885539 4.49530669,40.4763625 4.63751719,40.5680554 C4.68449894,40.6135861 4.71644659,40.6496319 4.73711747,40.6755582 C4.66570592,40.8538931 4.43643558,41.1852438 4.27794816,41.4141684 C3.78433273,42.1255816 3.16917767,43.0096475 3.21491339,44.1762875 C3.24686104,44.9863547 3.63211553,45.5219747 4.03990432,45.877398 C3.64337306,46.5173542 3.39907504,47.4576921 4.34873268,48.5124356 C4.45835569,48.633851 4.5861511,48.7350305 4.72772016,48.8134486 C4.84298155,49.0739898 4.88369949,49.8119687 4.76467917,50.3507455 C4.74400669,50.44244 4.73273152,50.535394 4.73022664,50.6308912 C4.72270959,50.9293788 4.69577411,51.2272189 4.67071728,51.5225334 C4.53102609,53.1540324 4.31992175,55.6197361 7.41373794,56.8704764 C9.23466747,57.6097181 11.0438905,57.4130575 12.641273,57.2410524 C13.473785,57.1512552 14.261748,57.0684159 15.0059958,57.1069904 C15.0304256,57.1101522 15.0554824,57.1120493 15.0805392,57.113314 C16.0502423,57.1746547 16.5920951,57.3574075 17.1553244,57.8108211 C17.8663128,58.380583 18.7645739,60.4238421 19.0777642,62.1837176 C19.1065799,62.3437075 19.1310097,62.662418 19.1648368,63.0563867 C19.4103857,65.8426269 19.6415499,68.4745887 21.5953087,68.5111752 L28.3331489,68.6370166 L28.3337752,68.6370166 L47.7441945,69 L47.7717578,69 C48.247204,69 48.6919726,68.7653931 48.965088,68.3714245 C49.2425974,67.9698633 49.3033591,67.4551106 49.1273279,66.9991716 C47.8394152,63.659601 45.9006504,57.3775689 47.3870613,52.8257871 C48.241495,50.222965 49.8375787,47.9565445 51.5276514,45.5585097 C53.3091315,43.028375 55.1526723,40.4135732 56.1480496,37.2820276 C58.5239978,29.8199999 58.7069728,21.9318852 56.6372871,16.1800337 L56.6379735,16.1805773 Z M53.3793836,36.3840974 C52.5211814,39.0817853 50.8874925,41.4013049 49.1573288,43.8561621 C47.4165811,46.3255891 45.617461,48.8790356 44.6251306,51.9037357 C43.1806067,56.3247127 44.247394,61.7207362 45.6825366,66.0233736 L28.3953324,65.6983365 L28.3922004,65.6983365 L28.3896945,65.6983365 L22.4098935,65.5870391 C22.2370054,64.8009959 22.1135895,63.3983244 22.0603488,62.7938377 C22.0152465,62.2809791 21.9826734,61.9104194 21.9388236,61.6625215 C21.5623378,59.5466561 20.4698602,56.7173538 18.9658414,55.5121038 C17.6967072,54.4895596 16.4263222,54.2618977 15.3408205,54.1860211 C15.3082475,54.1815945 15.2756728,54.179065 15.2430981,54.1765355 C15.2192937,54.1752707 15.1961164,54.1733737 15.172939,54.1727414 L15.0232251,54.1626234 L15.0232251,54.1664176 C14.0942383,54.1278431 13.1984468,54.2252279 12.3302379,54.3188198 C10.8900919,54.4743836 9.64542924,54.6090835 8.49594242,54.1430265 C7.47675109,53.730716 7.4253866,53.4341387 7.56758107,51.7717031 C7.59389034,51.4637451 7.6202012,51.15072 7.63210179,50.8395891 C7.83193097,49.7898478 7.85260185,48.0230759 6.96622371,46.9157676 C7.37840646,46.4073447 7.54504035,45.8736189 7.46046455,45.3259869 C7.32014634,44.4185283 6.60478002,44.023297 6.20512167,43.8095573 C6.3185036,43.5888565 6.52020422,43.2979615 6.65864618,43.0987755 C7.25625745,42.2381185 8.65629647,40.2226878 6.50830523,38.3161425 C6.48074192,38.2914806 6.4525532,38.2687144 6.42311203,38.2465812 C6.13370371,38.0258804 5.72589888,37.8121408 5.21098716,37.542113 C4.72676904,37.2885329 3.56725949,36.6795619 3.07301864,36.2311991 C3.80342707,35.111895 5.56186288,32.5387145 6.30354487,31.4522896 L6.55786563,31.0804509 C8.50035082,28.2297796 8.25050421,25.1519805 7.86332216,22.4897458 C7.46868319,19.7748978 8.10699476,16.7327139 9.66180077,13.9236476 C12.622916,8.57003854 16.7760145,5.34362705 22.3606795,4.05856661 C24.6816229,3.52294669 27.2054264,3.16059461 29.6585096,3.01389245 L29.659136,3.01389245 C33.1627615,2.80394096 38.2636093,2.9139773 42.6837133,4.6523526 C47.572881,6.57039191 51.7675136,11.2549212 53.9048407,17.1827441 C56.0910787,23.2591794 55.0674773,31.0848057 53.3799062,36.3841825 L53.3793836,36.3840974 Z" id="形状"></path>
                            </g>
                            <path d="M41.8494233,13.7168675 L21.2078354,13.7168675 C20.5514539,13.7168675 20.0193515,14.2489698 20.0193515,14.9053513 C20.0193515,15.5617329 20.5514539,16.0938352 21.2078354,16.0938352 L30.3401455,16.0938352 L30.3401455,38.2994679 C30.3401455,38.9558495 30.8722478,39.4879518 31.5286294,39.4879518 C32.1850109,39.4879518 32.7171132,38.9558495 32.7171132,38.2994679 L32.7171132,16.0938352 L41.8494233,16.0938352 C42.5058049,16.0938352 43.0379072,15.5617329 43.0379072,14.9053513 C43.0379072,14.2489698 42.5058049,13.7168675 41.8494233,13.7168675" id="路径" stroke="#FFFFFF"></path>
                        </g>
                    </g>
                </g>
            </g>
        </g>
    </g>
</svg>