<?xml version="1.0" encoding="UTF-8"?>
<svg width="241px" height="240px" viewBox="0 0 241 240" version="1.1" xmlns="http://www.w3.org/2000/svg" xmlns:xlink="http://www.w3.org/1999/xlink">
    <title>编组 42</title>
    <defs>
        <linearGradient x1="0%" y1="50%" x2="100%" y2="50%" id="linearGradient-1">
            <stop stop-color="#D675A3" offset="0%"></stop>
            <stop stop-color="#8D86D7" offset="45.7084176%"></stop>
            <stop stop-color="#8CBFC6" offset="100%"></stop>
        </linearGradient>
        <rect id="path-2" x="0" y="0" width="240" height="240"></rect>
    </defs>
    <g id="页面-1" stroke="none" stroke-width="1" fill="none" fill-rule="evenodd">
        <g id="核心技术" transform="translate(-849.000000, -2354.000000)">
            <g id="编组-42" transform="translate(849.750000, 2354.000000)">
                <rect id="矩形" fill="url(#linearGradient-1)" x="0" y="0" width="240" height="240" rx="120"></rect>
                <g id="编组" opacity="0.0888192313">
                    <g id="网格">
                        <mask id="mask-3" fill="white">
                            <use xlink:href="#path-2"></use>
                        </mask>
                        <rect stroke="#FFFFFF" x="0.5" y="0.5" width="239" height="239"></rect>
                        <g mask="url(#mask-3)">
                            <g transform="translate(-9.000000, -1.000000)">
                                <g id="编组-19" stroke="none" stroke-width="1" fill="none" fill-rule="evenodd" transform="translate(57.000000, 1.000000)">
                                    <line x1="48.5" y1="5.2971948e-15" x2="48.5" y2="240" id="直线" stroke="#FFFFFF"></line>
                                    <line x1="144.5" y1="5.2971948e-15" x2="144.5" y2="240" id="直线备份-4" stroke="#FFFFFF"></line>
                                    <line x1="24.5" y1="5.2971948e-15" x2="24.5" y2="240" id="直线备份" stroke="#FFFFFF"></line>
                                    <line x1="120.5" y1="5.2971948e-15" x2="120.5" y2="240" id="直线备份-5" stroke="#FFFFFF"></line>
                                    <line x1="0.5" y1="5.2971948e-15" x2="0.5" y2="240" id="直线备份-2" stroke="#FFFFFF"></line>
                                    <line x1="96.5" y1="5.2971948e-15" x2="96.5" y2="240" id="直线备份-6" stroke="#FFFFFF"></line>
                                </g>
                                <g id="编组-18" stroke="none" stroke-width="1" fill="none" fill-rule="evenodd" transform="translate(9.000000, 48.500000)">
                                    <line x1="0" y1="0.5" x2="240" y2="0.5" id="直线-2备份" stroke="#FFFFFF"></line>
                                    <line x1="0" y1="24.5" x2="240" y2="24.5" id="直线-2备份-2" stroke="#FFFFFF"></line>
                                    <line x1="0" y1="48.5" x2="240" y2="48.5" id="直线-2备份-3" stroke="#FFFFFF"></line>
                                    <line x1="0" y1="96.5" x2="240" y2="96.5" id="直线-2备份-5" stroke="#FFFFFF"></line>
                                    <line x1="0" y1="120.5" x2="240" y2="120.5" id="直线-2备份-6" stroke="#FFFFFF"></line>
                                    <line x1="0" y1="144.5" x2="240" y2="144.5" id="直线-2备份-7" stroke="#FFFFFF"></line>
                                </g>
                                <g id="编组" stroke="none" stroke-width="1" fill="none" fill-rule="evenodd">
                                    <line x1="0.5" y1="24.5" x2="24.5" y2="0.5" id="直线-3" stroke="#FFFFFF"></line>
                                    <line x1="8.5" y1="24.5" x2="32.5" y2="0.5" id="直线-3备份" stroke="#FFFFFF"></line>
                                    <line x1="16.5" y1="24.5" x2="40.5" y2="0.5" id="直线-3备份-2" stroke="#FFFFFF"></line>
                                    <line x1="24.5" y1="24.5" x2="48.5" y2="0.5" id="直线-3备份-3" stroke="#FFFFFF"></line>
                                    <line x1="32.5" y1="24.5" x2="56.5" y2="0.5" id="直线-3备份-4" stroke="#FFFFFF"></line>
                                    <line x1="40.5" y1="24.5" x2="64.5" y2="0.5" id="直线-3备份-5" stroke="#FFFFFF"></line>
                                    <line x1="48.5" y1="24.5" x2="72.5" y2="0.5" id="直线-3备份-6" stroke="#FFFFFF"></line>
                                    <line x1="56.5" y1="24.5" x2="80.5" y2="0.5" id="直线-3备份-7" stroke="#FFFFFF"></line>
                                    <line x1="64.5" y1="24.5" x2="88.5" y2="0.5" id="直线-3备份-8" stroke="#FFFFFF"></line>
                                    <line x1="72.5" y1="24.5" x2="96.5" y2="0.5" id="直线-3备份-9" stroke="#FFFFFF"></line>
                                    <line x1="80.5" y1="24.5" x2="104.5" y2="0.5" id="直线-3备份-10" stroke="#FFFFFF"></line>
                                    <line x1="88.5" y1="24.5" x2="112.5" y2="0.5" id="直线-3备份-11" stroke="#FFFFFF"></line>
                                    <line x1="96.5" y1="24.5" x2="120.5" y2="0.5" id="直线-3备份-12" stroke="#FFFFFF"></line>
                                    <line x1="104.5" y1="24.5" x2="128.5" y2="0.5" id="直线-3备份-13" stroke="#FFFFFF"></line>
                                    <line x1="112.5" y1="24.5" x2="136.5" y2="0.5" id="直线-3备份-14" stroke="#FFFFFF"></line>
                                    <line x1="120.5" y1="24.5" x2="144.5" y2="0.5" id="直线-3备份-15" stroke="#FFFFFF"></line>
                                    <line x1="128.5" y1="24.5" x2="152.5" y2="0.5" id="直线-3备份-16" stroke="#FFFFFF"></line>
                                    <line x1="136.5" y1="24.5" x2="160.5" y2="0.5" id="直线-3备份-17" stroke="#FFFFFF"></line>
                                    <line x1="144.5" y1="24.5" x2="168.5" y2="0.5" id="直线-3备份-18" stroke="#FFFFFF"></line>
                                    <line x1="152.5" y1="24.5" x2="176.5" y2="0.5" id="直线-3备份-19" stroke="#FFFFFF"></line>
                                    <line x1="160.5" y1="24.5" x2="184.5" y2="0.5" id="直线-3备份-20" stroke="#FFFFFF"></line>
                                    <line x1="168.5" y1="24.5" x2="192.5" y2="0.5" id="直线-3备份-21" stroke="#FFFFFF"></line>
                                    <line x1="176.5" y1="24.5" x2="200.5" y2="0.5" id="直线-3备份-22" stroke="#FFFFFF"></line>
                                    <line x1="184.5" y1="24.5" x2="208.5" y2="0.5" id="直线-3备份-23" stroke="#FFFFFF"></line>
                                    <line x1="192.5" y1="24.5" x2="216.5" y2="0.5" id="直线-3备份-24" stroke="#FFFFFF"></line>
                                    <line x1="200.5" y1="24.5" x2="224.5" y2="0.5" id="直线-3备份-25" stroke="#FFFFFF"></line>
                                    <line x1="208.5" y1="24.5" x2="232.5" y2="0.5" id="直线-3备份-26" stroke="#FFFFFF"></line>
                                    <line x1="216.5" y1="24.5" x2="240.5" y2="0.5" id="直线-3备份-27" stroke="#FFFFFF"></line>
                                    <line x1="224.5" y1="24.5" x2="248.5" y2="0.5" id="直线-3备份-28" stroke="#FFFFFF"></line>
                                    <line x1="232.5" y1="24.5" x2="256.5" y2="0.5" id="直线-3备份-29" stroke="#FFFFFF"></line>
                                </g>
                                <g id="编组备份" stroke="none" stroke-width="1" fill="none" fill-rule="evenodd" transform="translate(0.000000, 217.000000)">
                                    <line x1="0.5" y1="24.5" x2="24.5" y2="0.5" id="直线-3" stroke="#FFFFFF"></line>
                                    <line x1="8.5" y1="24.5" x2="32.5" y2="0.5" id="直线-3备份" stroke="#FFFFFF"></line>
                                    <line x1="16.5" y1="24.5" x2="40.5" y2="0.5" id="直线-3备份-2" stroke="#FFFFFF"></line>
                                    <line x1="24.5" y1="24.5" x2="48.5" y2="0.5" id="直线-3备份-3" stroke="#FFFFFF"></line>
                                    <line x1="32.5" y1="24.5" x2="56.5" y2="0.5" id="直线-3备份-4" stroke="#FFFFFF"></line>
                                    <line x1="40.5" y1="24.5" x2="64.5" y2="0.5" id="直线-3备份-5" stroke="#FFFFFF"></line>
                                    <line x1="48.5" y1="24.5" x2="72.5" y2="0.5" id="直线-3备份-6" stroke="#FFFFFF"></line>
                                    <line x1="56.5" y1="24.5" x2="80.5" y2="0.5" id="直线-3备份-7" stroke="#FFFFFF"></line>
                                    <line x1="64.5" y1="24.5" x2="88.5" y2="0.5" id="直线-3备份-8" stroke="#FFFFFF"></line>
                                    <line x1="72.5" y1="24.5" x2="96.5" y2="0.5" id="直线-3备份-9" stroke="#FFFFFF"></line>
                                    <line x1="80.5" y1="24.5" x2="104.5" y2="0.5" id="直线-3备份-10" stroke="#FFFFFF"></line>
                                    <line x1="88.5" y1="24.5" x2="112.5" y2="0.5" id="直线-3备份-11" stroke="#FFFFFF"></line>
                                    <line x1="96.5" y1="24.5" x2="120.5" y2="0.5" id="直线-3备份-12" stroke="#FFFFFF"></line>
                                    <line x1="104.5" y1="24.5" x2="128.5" y2="0.5" id="直线-3备份-13" stroke="#FFFFFF"></line>
                                    <line x1="112.5" y1="24.5" x2="136.5" y2="0.5" id="直线-3备份-14" stroke="#FFFFFF"></line>
                                    <line x1="120.5" y1="24.5" x2="144.5" y2="0.5" id="直线-3备份-15" stroke="#FFFFFF"></line>
                                    <line x1="128.5" y1="24.5" x2="152.5" y2="0.5" id="直线-3备份-16" stroke="#FFFFFF"></line>
                                    <line x1="136.5" y1="24.5" x2="160.5" y2="0.5" id="直线-3备份-17" stroke="#FFFFFF"></line>
                                    <line x1="144.5" y1="24.5" x2="168.5" y2="0.5" id="直线-3备份-18" stroke="#FFFFFF"></line>
                                    <line x1="152.5" y1="24.5" x2="176.5" y2="0.5" id="直线-3备份-19" stroke="#FFFFFF"></line>
                                    <line x1="160.5" y1="24.5" x2="184.5" y2="0.5" id="直线-3备份-20" stroke="#FFFFFF"></line>
                                    <line x1="168.5" y1="24.5" x2="192.5" y2="0.5" id="直线-3备份-21" stroke="#FFFFFF"></line>
                                    <line x1="176.5" y1="24.5" x2="200.5" y2="0.5" id="直线-3备份-22" stroke="#FFFFFF"></line>
                                    <line x1="184.5" y1="24.5" x2="208.5" y2="0.5" id="直线-3备份-23" stroke="#FFFFFF"></line>
                                    <line x1="192.5" y1="24.5" x2="216.5" y2="0.5" id="直线-3备份-24" stroke="#FFFFFF"></line>
                                    <line x1="200.5" y1="24.5" x2="224.5" y2="0.5" id="直线-3备份-25" stroke="#FFFFFF"></line>
                                    <line x1="208.5" y1="24.5" x2="232.5" y2="0.5" id="直线-3备份-26" stroke="#FFFFFF"></line>
                                    <line x1="216.5" y1="24.5" x2="240.5" y2="0.5" id="直线-3备份-27" stroke="#FFFFFF"></line>
                                    <line x1="224.5" y1="24.5" x2="248.5" y2="0.5" id="直线-3备份-28" stroke="#FFFFFF"></line>
                                    <line x1="232.5" y1="24.5" x2="256.5" y2="0.5" id="直线-3备份-29" stroke="#FFFFFF"></line>
                                </g>
                                <line x1="33.5" y1="1" x2="33.5" y2="241" id="直线备份-3" stroke="#FFFFFF" stroke-width="1" fill="none"></line>
                                <line x1="9" y1="25" x2="249" y2="25" id="直线-2" stroke="#FFFFFF" stroke-width="1" fill="none"></line>
                                <line x1="9" y1="121.5" x2="249" y2="121.5" id="直线-2备份-4" stroke="#FFFFFF" stroke-width="1" fill="none"></line>
                                <line x1="9" y1="217.5" x2="249" y2="217.5" id="直线-2备份-8" stroke="#FFFFFF" stroke-width="1" fill="none"></line>
                                <line x1="129.5" y1="1" x2="129.5" y2="241" id="直线备份-7" stroke="#FFFFFF" stroke-width="1" fill="none"></line>
                                <line x1="225.5" y1="1" x2="225.5" y2="241" id="直线备份-8" stroke="#FFFFFF" stroke-width="1" fill="none"></line>
                                <circle id="椭圆形" stroke="#FFFFFF" stroke-width="1" fill="none" cx="129" cy="121" r="96"></circle>
                                <rect id="矩形" stroke="none" fill="#FFFFFF" fill-rule="evenodd" x="224.5" y="24.5" width="2" height="2"></rect>
                                <rect id="矩形备份-15" stroke="none" fill="#FFFFFF" fill-rule="evenodd" x="224.6" y="120.5" width="2" height="2"></rect>
                                <rect id="矩形备份-19" stroke="none" fill="#FFFFFF" fill-rule="evenodd" x="224.5" y="216.5" width="2" height="2"></rect>
                                <rect id="矩形备份-41" stroke="none" fill="#FFFFFF" fill-rule="evenodd" x="128.5" y="24" width="2" height="2"></rect>
                                <rect id="矩形备份-40" stroke="none" fill="#FFFFFF" fill-rule="evenodd" x="128.5" y="120.5" width="2" height="2"></rect>
                                <rect id="矩形备份-30" stroke="none" fill="#FFFFFF" fill-rule="evenodd" x="128.5" y="216.5" width="2" height="2"></rect>
                                <rect id="矩形备份-44" stroke="none" fill="#FFFFFF" fill-rule="evenodd" x="32.5" y="24" width="2" height="2"></rect>
                                <rect id="矩形备份-43" stroke="none" fill="#FFFFFF" fill-rule="evenodd" x="32" y="121" width="2" height="2"></rect>
                                <rect id="矩形备份-42" stroke="none" fill="#FFFFFF" fill-rule="evenodd" x="32.5" y="216.5" width="2" height="2"></rect>
                            </g>
                        </g>
                    </g>
                </g>
                <g id="人体骨骼扫描" transform="translate(33.500000, 33.500000)" fill="#FFFFFF" fill-rule="nonzero">
                    <path d="M100,41.9992095 C100,43.6555771 98.6571581,45 97.0007905,45 C95.3428419,45 94,43.6555771 94,41.9992095 C94,40.3428419 95.3428419,39 97.0007905,39 C98.6571581,39 100,40.3428419 100,41.9992095" id="路径"></path>
                    <polygon id="路径" points="72 33 78 33 78 39 72 39"></polygon>
                    <polygon id="路径" points="72 44 78 44 78 50 72 50"></polygon>
                    <path d="M164.630857,100.453103 C160.998421,100.453103 157.92883,102.793691 156.773802,106.03439 L141.27916,106.03439 L137.972266,95.7881405 C135.079267,86.8145646 127.501976,80.2758494 118.202928,78.7248842 L99.9257361,75.680196 L98.3938066,69.5464738 C103.838237,66.6048816 108.05373,61.7056719 110.149975,55.8061218 L111.614142,55.807595 C117.769764,55.807595 122.775262,50.8024989 122.775262,44.6465285 C122.775262,42.3722322 122.082961,40.2598576 120.911907,38.493952 L121.950376,34.3357967 C122.496856,32.1513228 122.776732,29.8963333 122.776732,27.6364417 C122.776732,12.398294 110.378379,0 95.1401579,0 L78.1888157,0 C62.8608473,0 50.3946176,12.4703179 50.3946176,27.7940648 C50.3946176,29.9284613 50.6435576,32.0657237 51.1311128,34.149892 L52.1327402,38.4143863 C50.9307647,40.1952623 50.2266616,42.3413863 50.2266616,44.6465285 C50.2266616,50.8021218 55.2317817,55.807595 61.3877816,55.807595 L62.8534187,55.807595 C64.9495131,61.7071452 69.1651569,66.6062795 74.6095872,69.5479471 L73.0776577,75.6816693 L54.8004658,78.7263575 C45.4999095,80.2774358 37.9241645,86.8160379 35.0311274,95.7896138 L31.7242336,106.034355 L16.2295913,106.034355 C15.0732815,102.793732 12.0050482,100.453068 8.37102856,100.453068 C3.75619692,100.453068 0,104.209209 0,108.824056 C0,113.438903 3.75615921,117.195045 8.37102856,117.195045 C12.0034644,117.195045 15.0730553,114.854456 16.228083,111.613757 L29.9224959,111.613757 L10.117711,173 L162.880781,173 L143.077504,111.613757 L156.771917,111.613757 C157.926756,114.852872 160.99646,117.195045 164.628971,117.195045 C169.243803,117.195045 173,113.438903 173,108.824056 C173,104.209209 169.245311,100.453068 164.628971,100.453068 L164.630857,100.453103 Z M8.37215983,111.614169 C6.8343477,111.614169 5.58229463,110.360652 5.58229463,108.824317 C5.58229463,107.286513 6.83581835,106.034466 8.37215983,106.034466 C9.90997197,106.034466 11.1620263,107.287983 11.1620263,108.824317 C11.1634983,110.362122 9.90997197,111.614169 8.37215983,111.614169 Z M132.664908,97.5012537 L135.41944,106.03439 L89.2937492,106.03439 L89.2937492,94.2194522 L102.167991,101.942225 L107.503065,82.5972064 L117.285166,84.226342 C124.521906,85.435665 130.411303,90.5191955 132.663287,97.5009898 L132.664908,97.5012537 Z M122.779485,135.296838 L132.92133,167.420256 L122.779485,167.420256 L122.779485,135.296838 Z M117.198171,167.420256 L89.2949936,167.420256 L89.2949936,111.611153 L117.198171,111.611153 L117.198171,167.420256 Z M51.4939491,131.293289 C52.4617138,133.427685 53.9612512,135.252718 55.8112565,136.653602 L55.8112565,147.545051 C55.8112565,154.228191 55.0305663,160.899264 53.5649293,167.420256 L40.0869662,167.420256 L51.4939491,131.293289 Z M61.1067362,154.550601 C62.8169163,155.617045 64.8157591,156.257794 66.9723765,156.257794 L72.5536907,156.257794 L72.5536907,150.676507 L66.9723765,150.676507 C63.8952439,150.676507 61.3910623,148.173883 61.3910623,145.095219 L61.3910623,139.232624 C62.2925345,139.418223 63.2279071,139.516915 64.1823982,139.516915 L78.1347409,139.516915 L78.1347409,133.935627 L64.1823982,133.935627 C59.5675665,133.935627 55.8113696,130.179486 55.8113696,125.564639 L55.8113696,111.612363 L83.7145468,111.612363 L83.7145468,167.417696 L59.2745673,167.417696 C60.1701569,163.173941 60.7917526,158.877394 61.1070001,154.549549 L61.1067362,154.550601 Z M101.972017,81.6744708 L98.7431808,93.3804302 L91.0052869,88.7377162 L98.6251515,81.1178881 L101.972017,81.6744708 Z M106.037428,47.4344546 C106.037428,57.253463 98.7460089,65.3816064 89.2953707,66.7440273 L89.2953707,61.3852221 C93.8012233,61.3852221 97.8534361,58.8825986 99.8686069,54.8495236 L100.161734,54.2603227 L95.1698123,51.7635818 L94.8752105,52.3557239 C93.8131732,54.4827295 91.6758252,55.8054807 89.2953707,55.8054807 L89.2953707,31.6216616 L103.51435,32.9856663 C104.952007,33.1256 106.037613,34.3172413 106.037613,35.7622823 L106.037428,47.4344546 Z M111.617234,50.2243064 L111.452257,50.2243064 C111.556839,49.3066237 111.617234,48.3771759 111.617234,47.4344546 L111.617234,39.0634662 C114.694366,39.0634662 117.198548,41.5660896 117.198548,44.6447536 C117.198548,47.7218715 114.695912,50.2245327 111.617234,50.2245327 L111.617234,50.2243064 Z M61.3887998,50.2243064 C58.3116671,50.2243064 55.8074856,47.7216829 55.8074856,44.643019 C55.8074856,41.5659011 58.3101211,39.0617315 61.3887998,39.0617315 L61.3887998,47.43272 C61.3887998,48.3754413 61.4506652,49.3048891 61.5537768,50.2225718 L61.3887998,50.2243064 Z M61.7938702,33.4823296 L61.3887998,33.4823296 C59.80091,33.4823296 58.2969606,33.8255405 56.9300835,34.4250509 L56.5677223,32.8769139 C56.1773584,31.2109368 55.978518,29.5008025 55.978518,27.7948917 C55.9755725,15.5440393 65.9404914,5.57909768 78.1898942,5.57909768 L95.1412364,5.57909768 C107.305417,5.57909768 117.196497,15.47013 117.196497,27.634252 C117.196497,29.4371877 116.975544,31.2372198 116.538059,32.9813674 L116.163914,34.4764481 C114.771922,33.8474644 113.239993,33.4821787 111.61545,33.4821787 L111.266347,33.4821787 C110.351602,30.2312607 107.56909,27.7670249 104.042805,27.4295306 L88.6763732,25.9535684 C85.8467249,25.6412938 83.7123559,23.256518 83.7123559,20.4092356 L83.7123559,11.1603851 L78.1310417,11.1603851 L78.1310417,20.410744 C78.1310417,20.801106 78.1501907,21.1870185 78.189962,21.5685189 L71.995876,23.0974998 C66.8078671,24.3775269 62.9604143,28.4547967 61.7936967,33.482141 L61.7938702,33.4823296 Z M66.9701894,47.4346054 L66.9701894,36.6419544 C66.9701894,32.7828303 69.5877243,29.4403175 73.3350973,28.513811 L80.1611867,26.8286778 C81.0876977,28.1426051 82.3044174,29.2370291 83.7126236,30.0516158 L83.7126236,66.7442158 C79.5190019,66.1417415 75.7511151,64.2165536 72.858078,61.386919 L78.1313094,61.3854461 L78.1313094,55.8041586 L72.5499952,55.8041586 L72.5499952,61.0773647 C69.1046339,57.5554332 66.9701894,52.7418226 66.9701894,47.4343015 L66.9701894,47.4346054 Z M40.3427089,97.5006504 C42.5949564,90.5214958 48.4855978,85.4353256 55.7208302,84.2305277 L77.6052684,80.5833651 L79.8457129,71.626004 C81.9683168,72.2122635 84.1954501,72.5495692 86.5021117,72.5495692 C88.8103194,72.5495692 91.0358689,72.2122522 93.1600188,71.626004 L94.572637,77.2762986 L83.712058,88.1353172 L83.712058,106.033825 L37.586367,106.033825 L40.3427089,97.5006504 Z M35.7882117,111.613566 L50.2281322,111.613566 L50.2281322,116.764595 L34.2312056,167.422669 L17.7881812,167.422669 L35.7882117,111.613566 Z M138.775356,167.422669 L126.893993,129.79489 L141.33693,124.378767 L155.21838,167.423424 L138.775356,167.422669 Z M139.620868,119.061065 L125.211869,124.462481 L122.778467,116.764595 L122.778467,111.613566 L137.218387,111.613566 L139.620868,119.061065 Z M164.632516,111.613566 C163.094704,111.613566 161.842651,110.360048 161.842651,108.823714 C161.842651,107.285909 163.096175,106.033862 164.632516,106.033862 C166.170328,106.033862 167.422383,107.28738 167.422383,108.823714 C167.423854,110.361519 166.170328,111.613566 164.632516,111.613566 Z" id="形状"></path>
                    <path d="M67,123.000791 C67,124.657158 65.6571581,126 64.0007905,126 C62.3444229,126 61,124.657158 61,123.000791 C61,121.342842 62.3444229,120 64.0007905,120 C65.6571581,120 67,121.342842 67,123.000791" id="路径"></path>
                    <polygon id="路径" points="33.6653903 5.66730483 45 5.66730483 45 0 28 0 28 17 33.6657732 17"></polygon>
                    <polygon id="路径" points="45 66.3330781 33.6656456 66.3330781 33.6656456 55 28 55 28 72 44.9996171 72"></polygon>
                    <polygon id="路径" points="139.334227 17 145 17 145 0 128 0 128 5.66730483 139.33461 5.66730483"></polygon>
                    <polygon id="路径" points="145 55 139.334354 55 139.334354 66.3328228 128 66.3328228 128 72 144.999617 72"></polygon>
                </g>
            </g>
        </g>
    </g>
</svg>