<?xml version="1.0" encoding="UTF-8"?>
<svg width="160px" height="160px" viewBox="0 0 160 160" version="1.1" xmlns="http://www.w3.org/2000/svg" xmlns:xlink="http://www.w3.org/1999/xlink">
    <title>编组 14</title>
    <defs>
        <linearGradient x1="0%" y1="50%" x2="100%" y2="50%" id="linearGradient-1">
            <stop stop-color="#D675A3" offset="0%"></stop>
            <stop stop-color="#8D86D7" offset="45.7084176%"></stop>
            <stop stop-color="#8CBFC6" offset="100%"></stop>
        </linearGradient>
    </defs>
    <g id="页面-1" stroke="none" stroke-width="1" fill="none" fill-rule="evenodd">
        <g id="核心技术" transform="translate(-880.000000, -3361.000000)">
            <g id="编组-14" transform="translate(880.000000, 3361.000000)">
                <rect id="矩形备份" fill="url(#linearGradient-1)" x="0" y="0" width="160" height="160" rx="24"></rect>
                <g id="人头网格" transform="translate(20.000000, 12.000000)" fill="#FFFFFF" fill-rule="nonzero">
                    <path d="M116.189969,56.735245 C114.809736,55.3512497 113.039943,54.4170714 111.114987,54.0566421 C111.114987,36.2680582 106.545724,22.5952918 97.5069322,13.4188494 C88.8478001,4.64062851 75.8796791,0 60.0007106,0 C44.1247081,0 31.1565872,4.64062851 22.4944889,13.4321357 C13.4556972,22.6082091 8.88643386,36.2680582 8.88643386,54.0699284 C6.96310918,54.4274606 5.19476276,55.3559 3.81293508,56.7355772 C0.564435062,59.9908449 -0.615809652,65.5396326 0.300823718,73.2309559 C2.58330495,92.1514634 11.9334621,95.9528371 15.8090309,96.7042543 C23.1793964,118.774735 34.578826,128.269312 42.9239232,132.350806 C51.3876641,136.488399 58.4191537,136.064343 59.9863621,135.907379 C60.6728639,135.972253 61.3607745,136.002528 62.0501683,135.999835 C67.2627026,135.930446 72.3925571,134.681971 77.0485785,132.350806 C91.9339066,125.070253 99.9705304,109.226644 104.163471,96.7042543 C108.053499,95.9646841 117.403731,92.1499871 119.699114,73.242766 C120.615896,65.5400017 119.435525,59.9911032 116.187003,56.7355772 L116.189969,56.735245 Z M113.116691,59.8723011 C114.714153,61.5157863 115.548367,64.3387307 115.587482,68.148962 C113.445482,69.5343967 108.976065,72.0817231 101.909724,74.5238289 L101.911172,54.0609971 C101.908275,48.170344 101.415872,42.2911319 100.439694,36.4813042 C101.751856,35.8051764 103.021973,35.048297 104.241481,34.2178998 C106.033,40.5307637 106.848379,47.8013524 106.690546,56.0304039 L106.615237,58.5302316 L109.1092,58.2462247 C110.616864,58.1986485 112.073845,58.7897473 113.11676,59.8724007 L113.116691,59.8723011 Z M92.578364,111.611581 C88.4781139,114.370936 84.0567844,116.621275 79.4089197,118.313809 C80.5834917,114.434194 81.4466613,110.466741 81.9897526,106.450202 C82.2533417,104.666878 82.472039,102.835944 82.6617576,100.974747 C89.2153358,99.7334694 94.7548817,98.2485716 98.3683221,97.1774331 L98.3683221,97.1788747 C97.7962373,99.8084657 97.0634274,102.401888 96.1727103,104.943642 C95.0980955,107.230113 93.8974589,109.456205 92.5780674,111.611178 L92.578364,111.611581 Z M69.3130872,130.609962 C66.6395639,131.352411 63.868827,131.688334 61.0955319,131.606143 L61.0955319,123.981252 C66.0514993,123.88466 70.9744689,123.158051 75.7435726,121.81875 C74.6283965,124.544925 73.0120993,127.03918 70.977435,129.172747 C70.4575163,129.690288 69.9028202,130.170368 69.3176846,130.610072 L69.3130872,130.609962 Z M48.2245504,129.172636 C46.2534346,127.206219 44.6516342,124.619846 43.3393984,121.538887 C48.3895392,123.064161 53.6280268,123.89024 58.9054444,123.991143 L58.9054444,131.611605 L58.9054444,131.610164 C55.6887927,131.706755 52.4808911,131.245424 49.4235927,130.247796 C49.0050402,129.910448 48.6053223,129.55148 48.2244021,129.172302 L48.2245504,129.172636 Z M21.2023484,98.7391334 C21.0618632,98.1624687 20.9257271,97.5684948 20.7939177,96.9644454 C25.9771619,98.5690311 31.2434566,99.8939022 36.5701854,100.931899 C37.2117879,107.197522 38.2082092,112.969705 39.7303329,117.933266 L39.7317811,117.934708 C35.2622526,116.204714 31.0288992,113.922598 27.1333093,111.140214 C24.7856482,107.18863 22.7998502,103.035168 21.2026102,98.7303891 L21.2023484,98.7391334 Z M20.7635153,37.2565261 C24.3407694,39.0038294 29.3807514,40.9140382 36.2064684,42.3252705 C35.8820522,45.3844906 35.670607,48.5820365 35.6097651,51.9383173 C25.373414,52.3751432 21.830789,56.1726048 21.4396357,56.6265553 C20.6561057,57.5477795 20.7719686,58.9274567 21.6988795,59.7074026 C22.624337,60.4859092 24.0103543,60.3705763 24.7924383,59.4493447 C24.8141627,59.4190699 27.5094148,56.6914296 35.577887,56.3166068 L35.577887,59.9034797 C33.0361323,60.3143602 30.2133405,61.3537961 26.4478879,62.9626998 C25.0662085,63.5609918 24.1335212,64.8757873 24.0292631,66.3736762 C23.9249865,67.8701257 24.6665278,69.3016936 25.9525878,70.0846289 C29.8237074,72.4359816 32.7872031,73.9683043 35.4952443,74.734115 C35.4952443,76.092165 35.5024856,77.445897 35.5169687,78.7982634 C30.0830898,77.9058632 24.7244756,76.6083768 19.485988,74.9171715 L19.485988,54.0620231 C19.4642636,48.4322992 19.8958647,42.8084805 20.776423,37.2477719 L20.7635153,37.2565261 Z M29.9513531,12.7871201 C31.5850019,11.5890969 33.3171621,10.5280338 35.1260698,9.6140064 C37.8981043,10.9893656 40.7875961,12.1152734 43.7607316,12.9788496 C40.0835202,21.641922 37.6316752,30.7718623 36.4745289,40.1051575 C29.5776257,38.646205 24.6231413,36.6841056 21.1806218,34.9496827 C23.0720981,25.0554081 26.3293852,17.5445578 29.9643298,12.7695895 L29.9513531,12.7871201 Z M58.9055927,4.38792942 L58.9055927,13.1273984 C54.8186899,13.0365751 50.7532913,12.4887307 46.7891106,11.4939887 C47.8188262,9.27239945 48.9658878,7.1083844 50.2273292,5.00950939 C53.1036219,4.62313481 56.001567,4.41553552 58.9053702,4.38815086 L58.9055927,4.38792942 Z M68.9087348,4.9170216 C70.2266803,7.08672026 71.4214959,9.32993675 72.4859889,11.6336431 C68.7579832,12.5505492 64.939141,13.0522567 61.0995361,13.131532 L61.0995361,4.39206296 C63.7108085,4.42233776 66.3176318,4.59677985 68.9085124,4.91683707 L68.9087348,4.9170216 Z M88.2535808,11.537317 C92.3060027,16.2384722 96.019178,24.2745026 98.0642978,35.171897 C93.1746966,37.433862 88.0277871,39.1005984 82.7355391,40.1354578 C81.5855856,30.8423907 79.152464,21.7515714 75.5071752,13.1187623 C78.6354743,12.2076136 81.6581065,10.9663728 84.522609,9.41814339 C85.8057771,10.0539324 87.0513128,10.7617629 88.25321,11.5373908 L88.2535808,11.537317 Z M71.3854209,68.081829 C80.4720409,63.0260019 82.2984114,62.8946146 91.1922355,66.7007124 C82.3896187,72.001599 80.027498,72.1717381 71.3854209,68.081829 L71.3854209,68.081829 Z M81.3930121,51.8876077 C70.5641844,52.1456657 64.713199,56.0381174 64.4710918,56.2097328 C63.678886,56.7518161 63.3327431,57.7451187 63.61949,58.6591092 C63.904802,59.5731366 64.7549467,60.1959345 65.7180736,60.1944952 C66.1525688,60.1959367 66.5783512,60.0661859 66.9375448,59.8239904 C66.9896813,59.7893905 72.03848,56.503841 81.4231921,56.2630997 C81.4231921,57.4207471 81.4231921,58.5783946 81.4449165,59.6971426 C77.8502737,59.8499578 74.3033107,61.4444459 68.6491996,64.6001766 L68.6491996,64.5987347 C67.337038,65.3339868 66.5433862,66.7338519 66.5911773,68.2317408 C66.6375225,69.7310691 67.5180808,71.0790067 68.8736586,71.7306655 C73.7817978,74.0820181 77.2143067,75.3002293 80.5585743,75.3002293 C80.8829905,75.3002293 81.2045148,75.3002293 81.528931,75.2613039 C81.528931,76.6164752 81.528931,77.9701702 81.5028621,79.3165947 L81.5028621,79.3151527 C74.743882,80.2522467 67.9281755,80.7279721 61.1035707,80.7409632 L61.1035707,44.472905 C67.7179538,44.4455137 74.3178772,43.8702949 80.8351208,42.751547 C81.1334688,45.6521797 81.3318669,48.7027268 81.3927089,51.8873922 L81.3930121,51.8876077 Z M48.6195596,68.081829 C39.9763702,72.1718119 37.6198108,72.0145901 28.8127449,66.7007124 C37.7024906,62.8949099 39.5329396,63.0259281 48.6195596,68.081829 Z M39.4491475,75.3003795 C42.7802161,75.3003795 46.2270364,74.080729 51.1340633,71.7308157 L51.1355119,71.7308157 C52.4910896,71.0791938 53.3702019,69.7312193 53.4179931,68.231891 C53.4643383,66.7340021 52.6721324,65.334137 51.3585248,64.5988849 C45.2873072,61.2037784 41.6490257,59.6264666 37.7504697,59.6829336 L37.7504697,56.2488906 C47.6453496,56.3180904 52.9776398,59.7881541 53.0225019,59.8184544 C54.024707,60.5003766 55.3904437,60.2437285 56.0740535,59.2461078 C56.4013653,58.7674668 56.5259375,58.1792873 56.417297,57.6098194 C56.3101247,57.0403514 55.9799098,56.5372415 55.4990693,56.2099542 C55.2441709,56.0355118 49.1164121,51.9583207 37.7822366,51.8793407 C37.8430637,48.6846366 38.0458257,45.635492 38.3485004,42.7335307 L38.3485004,42.7349722 C45.1249063,43.9128076 51.9914071,44.4966691 58.8694015,44.4822755 L58.8694015,80.7503337 C51.777107,80.7171758 44.6951938,80.1852208 37.6766808,79.1544211 C37.6766808,77.8439436 37.6549564,76.5320268 37.6506118,75.1954564 C38.2473152,75.2689816 38.8483565,75.3035815 39.4508437,75.3006991 L39.4491475,75.3003795 Z M45.8677686,13.5593526 C50.1300415,14.6521922 54.5039135,15.2476054 58.9052219,15.3341143 L58.9052219,42.2987716 C52.1084242,42.3175131 45.3246032,41.7336586 38.6334725,40.550029 C39.6270017,32.4062315 41.6140603,24.4133819 44.5511949,16.7497386 C44.995812,15.6194757 45.4346451,14.5555339 45.8676944,13.5593526 L45.8677686,13.5593526 Z M58.9052219,82.9215803 L58.9052219,92.5648904 C56.3808559,92.1929463 54.4182676,90.5768458 54.4182676,88.7026209 C54.4182676,87.6242487 53.5391553,86.7491577 52.4558276,86.7491577 C51.3724999,86.7491577 50.4933876,87.6242487 50.4933876,88.7026209 C50.4933876,92.7221123 54.1763829,96.0477608 58.9037389,96.4976515 L58.9037389,101.129792 L58.9052219,101.129792 C52.0850318,101.0332 45.2871218,100.348406 38.5856098,99.0840619 C38.0758129,93.4860777 37.8354112,87.5090633 37.7383458,81.3877444 C44.7494436,82.381047 51.8213463,82.8928301 58.9052219,82.9216541 L58.9052219,82.9215803 Z M61.0993507,96.4976515 C65.8265954,96.0608257 69.509739,92.7221123 69.509739,88.7026209 C69.509739,87.6242487 68.6320727,86.7491577 67.548745,86.7491577 C66.4639713,86.7491577 65.586305,87.6242487 65.586305,88.7026209 C65.586305,90.576772 63.623865,92.1986668 61.0993507,92.5648904 L61.0993507,82.926009 C67.9120911,82.910151 74.7163041,82.4488075 81.4682396,81.5448924 C81.3712039,87.6230307 81.1307874,93.5568645 80.6253507,99.1142515 L80.6253507,99.115693 C74.1804055,100.297846 67.6516683,100.965338 61.0995732,101.112411 L61.0993507,96.4976515 Z M61.0993878,42.2930142 L61.0993878,15.3338929 C65.2459831,15.2560422 69.3692204,14.7082163 73.3908692,13.6990438 C73.8036378,14.6519707 74.2250823,15.6697793 74.6421889,16.758264 L74.6407407,16.758264 C77.5807672,24.4237526 79.5692717,32.4177095 80.5629122,40.5629831 C74.1353929,41.6860492 67.6251937,42.2655926 61.0993878,42.2930142 L61.0993878,42.2930142 Z M74.6017759,11.0767234 C73.5170022,8.7124165 72.5075673,6.78633792 71.6863679,5.33443458 L71.6878161,5.33587652 C75.2158331,5.92697169 78.6685114,6.90584389 81.9808936,8.25525776 C79.605722,9.39995105 77.1365254,10.3442418 74.6020005,11.0780177 L74.6017759,11.0767234 Z M44.6687263,10.9412062 L44.6687263,10.9426478 C42.2964466,10.2506501 39.9748872,9.39718638 37.7199164,8.38657455 C40.8467696,7.08041515 44.1025736,6.10873973 47.434977,5.48882055 C46.6442171,6.89588244 45.6926951,8.71814292 44.6687633,10.9425002 L44.6687263,10.9412062 Z M35.5387272,81.0488722 C35.6314175,87.118153 35.8674887,93.0608442 36.3555516,98.6543997 C30.9302003,97.5760274 25.5701029,96.1920321 20.3026959,94.5083188 C19.4988853,90.0909749 19.0644271,85.3322454 19.4771586,81.2160589 L19.4771586,81.1064907 L19.4771586,77.2789133 C24.7301059,78.9267166 30.0987308,80.1867428 35.5385418,81.0503928 L35.5387272,81.0488722 Z M38.8046159,101.341491 C45.4364248,102.562655 52.1605533,103.22151 58.9054444,103.3123 L58.9054444,108.303172 C55.0617611,108.036463 51.2499633,107.423763 47.5175084,106.472275 C46.3487573,106.153669 45.1423369,106.841341 44.8222586,108.004746 C44.5036336,109.16959 45.1944659,110.370529 46.363217,110.687667 C50.4705116,111.74729 54.6704966,112.413343 58.9054444,112.675711 L58.9054444,121.795687 C53.2571542,121.670264 47.6623649,120.682733 42.3167273,118.867669 C40.6048478,113.89968 39.5027225,107.922666 38.8046159,101.341491 L38.8046159,101.341491 Z M61.0996102,121.796019 L61.0996102,112.729447 C65.4301032,112.717914 69.7283399,112.008626 73.8300731,110.627509 C74.9655299,110.203674 75.5419526,108.943648 75.1161702,107.813385 C74.6903878,106.683122 73.4245714,106.109336 72.2891147,106.533171 C68.6770831,107.725437 64.8998403,108.341001 61.0954577,108.35975 L61.0954577,103.303923 C67.5752544,103.165523 74.0331762,102.521098 80.4099012,101.377844 C79.7031559,108.08893 78.5662161,114.177033 76.7877479,119.196691 L76.7891961,119.196691 C71.7101359,120.801277 66.4267862,121.676368 61.1000574,121.796019 L61.0996102,121.796019 Z M99.7292388,81.2171661 C100.168072,85.4123326 99.69448,90.2577924 98.8515725,94.7415681 C93.5941761,96.3331627 88.2589197,97.6565944 82.8639708,98.7045926 C83.359271,92.9582441 83.5794291,86.9897182 83.6634065,81.2260236 C89.1017345,80.4172537 94.4703594,79.2091549 99.7292388,77.611766 L99.7292388,81.107812 C99.7292388,81.1438538 99.730687,81.1813372 99.7335834,81.2173801 L99.7292388,81.2171661 Z M83.7067856,78.984073 L83.7067856,74.9287343 C86.6352073,74.2554852 89.7954291,72.6610118 94.0447253,70.0788457 C95.3308224,69.296021 96.0723452,67.8644532 95.96805,66.3678929 C95.8637733,64.8700041 94.9310675,63.5552085 93.5494252,62.9569166 C89.3883702,61.1606014 86.3718555,60.0822292 83.6241429,59.7708487 C83.6241429,58.6305104 83.6241429,57.4468807 83.6024185,56.2748027 C92.3238386,56.5069117 95.196127,59.4464771 95.2220803,59.4781798 L95.1873214,59.4392545 L98.5415626,56.6164946 C98.1418447,56.1494054 94.4283358,52.1500649 83.5780039,51.902422 C83.5128314,48.5765152 83.3057241,45.3917391 82.9856384,42.3587595 L82.982742,42.3587595 C88.31392,41.3409509 93.5060624,39.7003444 98.4520193,37.4730715 C99.3137429,42.9658721 99.7366333,48.5191994 99.7163897,54.0780626 L99.7163897,75.2705368 C94.4808682,76.9053859 89.1292984,78.1466636 83.7069132,78.984073 L83.7067856,78.984073 Z M103.574405,31.9983072 C102.440394,32.7970017 101.257147,33.5264595 100.031891,34.1824363 C98.7414564,27.5580812 96.7660026,21.2880289 94.0578132,16.1934499 L94.3778841,16.4990841 C98.4388335,20.6149016 101.507625,25.802116 103.570171,31.9983552 L103.574405,31.9983072 Z M24.2685451,17.9664402 C22.0743792,22.6332723 20.3840781,28.1172153 19.2428745,33.8897675 L19.2414263,33.8897675 C18.2696237,33.3289726 17.3282234,32.7148108 16.4230466,32.0501978 C18.0596244,26.877377 20.7272155,22.0883842 24.2683575,17.9666616 L24.2685451,17.9664402 Z M10.8399385,58.2462394 L13.333902,58.5259209 L13.2861072,56.0304113 C13.1224494,47.8415879 13.9334936,40.5946194 15.7177828,34.2872915 L15.7163342,34.2887331 C16.7055256,34.9850488 17.7309033,35.6280346 18.7896124,36.2148117 C17.7830694,42.1113698 17.2747185,48.0810028 17.2703435,54.0609697 L17.2703435,74.1606412 C10.6863629,71.8179247 6.45894155,69.4421399 4.38638541,68.1256836 C4.42983494,64.3283696 5.26405176,61.509817 6.85717635,59.8722738 L6.85862455,59.8722738 C7.89416109,58.7939015 9.34098324,58.2028433 10.8398603,58.2460977 L10.8399385,58.2462394 Z M4.69493934,72.7102821 C4.61093964,72.0456691 4.55445414,71.3998046 4.51100832,70.7784461 L4.50956013,70.7784461 C8.56754348,73.1297987 12.8546574,75.0644027 17.3067601,76.5509982 L17.3067601,81.0561797 C16.9693079,84.5118499 17.2140697,88.5456242 17.7933844,92.5215659 L17.4776588,92.5215659 C17.3024147,92.5215659 7.04257966,92.3341508 4.69491858,72.7101345 L4.69493934,72.7102821 Z M30.2993498,115.828194 C33.5956409,117.755712 37.0687111,119.364579 40.672141,120.634533 C41.6352679,123.35783 42.970565,125.936896 44.6404001,128.298546 C39.2499003,125.619943 34.4344515,121.407356 30.281924,115.828194 L30.2993498,115.828194 Z M75.3691036,128.298546 C74.956335,128.504702 74.5479413,128.697874 74.1438485,128.87521 C75.961432,126.480603 77.4097372,123.830824 78.4409729,121.009688 C82.2761287,119.745344 85.9778103,118.111934 89.4941113,116.133965 C85.4027594,121.555905 80.6625751,125.676151 75.3688441,128.29873 L75.3691036,128.298546 Z M102.531824,92.5165466 L101.425324,92.5165466 C102.004639,88.5446646 102.250861,84.5111487 101.911948,81.0596489 L101.911948,76.9135681 L101.913396,76.9121265 C106.65803,75.3825349 111.221361,73.339684 115.519968,70.8210709 C115.472174,71.4323171 115.414242,72.0623486 115.336037,72.7125312 C112.992714,92.1231575 102.94445,92.5165813 102.54477,92.52101 L102.531824,92.5165466 Z" id="形状"></path>
                </g>
            </g>
        </g>
    </g>
</svg>