<?xml version="1.0" encoding="UTF-8"?>
<svg width="160px" height="161px" viewBox="0 0 160 161" version="1.1" xmlns="http://www.w3.org/2000/svg" xmlns:xlink="http://www.w3.org/1999/xlink">
    <title>编组 17</title>
    <defs>
        <linearGradient x1="100%" y1="50%" x2="0%" y2="50%" id="linearGradient-1">
            <stop stop-color="#FCA5FD" offset="0%"></stop>
            <stop stop-color="#9BE6EA" offset="45.7084176%"></stop>
            <stop stop-color="#96C68C" offset="100%"></stop>
        </linearGradient>
    </defs>
    <g id="页面-1" stroke="none" stroke-width="1" fill="none" fill-rule="evenodd">
        <g id="核心技术" transform="translate(-278.000000, -4137.000000)">
            <g id="编组-17" transform="translate(278.000000, 4137.345786)">
                <rect id="矩形" fill="url(#linearGradient-1)" x="0" y="0" width="160" height="160" rx="24"></rect>
                <g id="编组-15" transform="translate(12.000000, 14.000000)" fill="#FFFFFF" fill-rule="nonzero">
                    <g id="虚拟人" transform="translate(37.547470, 0.000000)" stroke="#FFFFFF">
                        <path d="M22.4839718,41 L6.85221659,41 C6.38170601,41 6,40.635806 6,40.1871344 L6,12.8126605 C6,12.3639889 6.38170601,12 6.85221659,12 L22.4839718,12 C22.8344579,12 23.1489613,12.2048851 23.2773746,12.5162126 L26.2001511,19.6105093 C30.0580798,19.8886493 33,22.8738682 33,26.6362394 C33,30.1902738 30.0004029,33.114609 26.2001511,33.3906335 L23.2773746,40.4849302 C23.1501413,40.7951207 22.8356563,41 22.4839718,41 L22.4839718,41 Z M7.70431026,39.3733019 L21.9029011,39.3733019 L24.8172888,32.2995165 C24.9457236,31.9881832 25.2602055,31.7833039 25.6106916,31.7833039 C28.7446632,31.7833039 31.2954132,29.4734893 31.2954132,26.6337781 C31.2954132,23.5433007 28.8515667,21.2129161 25.6106916,21.2129161 C25.2602055,21.2129161 24.9457021,21.008031 24.8172888,20.6967035 L21.9029011,13.6229182 L7.70431026,13.6252075 L7.70431026,39.3733019 Z" id="形状" stroke-width="2"></path>
                        <path d="M8.06932192,41 L0.930678081,41 C0.416848746,41 0,40.6360085 0,40.1873338 L0,12.8126662 C0,12.3639915 0.416848746,12 0.930678081,12 L8.06932192,12 C8.58315125,12 9,12.3639915 9,12.8126662 L9,40.1873338 C9,40.6360085 8.58315125,41 8.06932192,41 Z M1.86122193,39.3734955 L7.13743578,39.3734955 L7.13743578,13.625391 L1.86122193,13.625391 L1.86122193,39.3734955 Z" id="形状" stroke-width="2"></path>
                        <path d="M30.9994053,120 C30.8082126,120 30.6204638,119.932741 30.4718888,119.80634 C30.2876074,119.649789 30.1816441,119.419015 30.1816441,119.176651 L30.1816441,92.8781972 C27.0016846,93.1112871 24.5564917,93.2527571 22.4580428,93.2527571 C17.4155144,93.2527571 13.6275737,92.4723177 11.5244071,88.6640501 C9.62170915,85.2188831 9.20131172,79.3194986 9.18288358,70.9424439 C6.79527499,70.2884114 4.16011016,68.911918 1.3372142,66.8453522 C1.01933618,66.6122624 0.909917269,66.1831855 1.07922026,65.8260222 L8.86975265,49.3278139 L7.01773948,40.5390016 C6.96591071,40.2954769 7.02695355,40.042666 7.18243986,39.8490183 C7.33792617,39.6565164 7.5717306,39.5440446 7.81819589,39.5440446 L21.4423398,39.5440446 L24.2388172,32.3773255 C24.3620557,32.061902 24.6638143,31.854331 25.0001204,31.854331 C28.0072978,31.854331 30.4548494,29.5141706 30.4548494,26.6371519 C30.4548494,23.5060726 28.1098762,21.145072 25.0001204,21.145072 C24.6638143,21.145072 24.3620351,20.9374951 24.2388172,20.6220775 L21.4423398,13.4553584 L20.9090737,13.4553584 C20.5785171,13.4553584 20.2802172,13.2547402 20.15352,12.9462872 C20.0268258,12.6389682 20.0970827,12.2841204 20.3308901,12.0487329 C28.0477099,4.27907247 38.5196102,0 49.8188601,0 C60.8539243,0 71.2046411,4.30341575 78.9653936,12.1170128 C86.7258513,19.9306098 91,30.3524995 91,41.4631257 C91,52.9552289 86.3319314,63.9741225 78.1799126,71.752689 L77.909249,111.21551 C77.9069456,111.614443 77.6201572,111.95421 77.2297077,112.021451 L31.138722,119.98467 C31.0938046,119.996266 31.0465814,120 31.000511,120 L30.9994053,120 Z M30.9994053,91.1677676 C31.2055705,91.1677676 31.4036745,91.2454642 31.5556992,91.3881009 C31.7227053,91.5434942 31.8171488,91.7626608 31.8171488,91.9922891 L31.8171488,118.200198 L76.2776128,110.518708 L76.5459736,71.3913487 C76.5471253,71.1640597 76.64157,70.9483605 76.8062704,70.794137 C84.7866863,63.3133303 89.363941,52.6236646 89.363941,41.4667268 C89.363941,19.5123597 71.6233933,1.65063128 49.8186302,1.65063128 C39.5068336,1.65063128 29.9162406,5.35348066 22.6325558,12.1105202 C22.6855374,12.1766211 22.7304549,12.2508384 22.7627056,12.3331721 L25.5672324,19.520672 C29.2690768,19.8024662 32.0919728,22.8269042 32.0919728,26.6387046 C32.0919728,30.2394309 29.2137334,33.2021854 25.5672324,33.4818362 L22.7627056,40.6693361 C22.639467,40.9847596 22.3377085,41.1923306 22.0014023,41.1923306 L8.82985352,41.1923306 L10.528692,49.2588601 C10.5655483,49.436287 10.5448168,49.6206843 10.4676492,49.7841702 L2.8534372,65.9112919 C5.53356669,67.8026752 7.99591981,69.0064501 10.1798754,69.4956905 C10.5541877,69.579185 10.8202605,69.913148 10.8202605,70.3004732 C10.8202605,78.7553076 11.1772947,84.6428174 12.9567747,87.8656293 C14.4621325,90.593115 17.0386811,91.6076654 22.4597971,91.6076654 C24.6965014,91.6076654 27.3628613,91.4406765 30.9414584,91.1716239 C30.9610385,91.1681449 30.9817703,91.1669851 31.0013484,91.1669851 L30.9994053,91.1677676 Z" id="形状" stroke-width="2"></path>
                        <path d="M89.1823011,31 L89.1765428,31 L30.8178973,31 C30.4873634,31 30.1890839,30.7878452 30.0623955,30.4617415 C29.93571,30.1368368 30.005962,29.7616835 30.2397534,29.5128263 C30.7729829,28.9451845 31.0908391,27.8736454 31.0908391,26.6452091 C31.0908391,25.2708607 30.8224966,24.3280657 30.1637462,23.3939645 C29.9783247,23.1303748 29.947229,22.7772982 30.0865833,22.4818333 C30.2247849,22.1863651 30.5081017,22 30.8179091,22 L86.4493773,22 C86.7591847,22 87.0424868,22.1863526 87.1818529,22.4818333 C88.2632893,24.7842568 89.3804001,27.1626965 89.9539328,29.8402105 C89.9838757,29.930934 90,30.0277903 90,30.129549 C90,30.6089028 89.6337622,31 89.1823185,31 L89.1823011,31 Z M32.2889606,29.2577861 L88.1238615,29.2577861 C87.6021599,27.3415322 86.8028758,25.5724773 85.9448911,23.7420633 L32.232766,23.7420633 C32.5713487,24.5966017 32.7279919,25.5369486 32.7279919,26.6452405 C32.7279919,27.1760982 32.6715585,28.2329175 32.2891964,29.2578489 L32.2889606,29.2577861 Z" id="形状"></path>
                        <path d="M39.8027006,109 C39.4271454,109 39.0912046,108.707257 39.0153927,108.283146 C38.9294225,107.801497 39.2122168,107.333619 39.6477178,107.238531 L68.0400869,101.017024 C68.475585,100.921943 68.8986312,101.234706 68.9846073,101.716359 C69.0705775,102.198009 68.7877832,102.665887 68.3522822,102.760974 L39.9599131,108.982481 C39.9067493,108.993741 39.8535826,109 39.8026803,109 L39.8027006,109 Z" id="路径" stroke-width="2"></path>
                        <path d="M19.8569958,29 C18.2282302,29 17,27.7717698 17,26.1430042 C17,24.2922269 18.1751364,23 19.8569958,23 C21.7656852,23 23,24.2330485 23,26.1430042 C23,27.8248636 21.7078349,29 19.8569958,29 Z M19.8569958,24.7145063 C19.1415423,24.7145063 18.7144446,25.2489962 18.7144446,26.1430042 C18.7144446,26.816236 19.1849686,27.2855554 19.8569958,27.2855554 C20.7510038,27.2855554 21.2854937,26.8584577 21.2854937,26.1430042 C21.2854937,25.1814167 20.8185833,24.7145063 19.8569958,24.7145063 L19.8569958,24.7145063 Z" id="形状"></path>
                        <path d="M39.8027006,101 C39.4271454,101 39.0912046,100.70727 39.0153927,100.283178 C38.9294225,99.8015493 39.2122168,99.3336917 39.6477178,99.2386086 L68.0400869,93.0173742 C68.475585,92.9210485 68.8986312,93.2350469 68.9846073,93.7166786 C69.0705775,94.198307 68.7877832,94.6661646 68.3522822,94.7612477 L39.9599131,100.982482 C39.9067493,100.993741 39.8535826,101 39.8026803,101 L39.8027006,101 Z" id="路径" stroke-width="2"></path>
                        <path d="M66.1771849,133 L8.82281507,133 C8.36853713,133 8,132.552102 8,132 C8,131.447898 8.36853713,131 8.82281507,131 L66.1771849,131 C66.6314629,131 67,131.447898 67,132 C67,132.552102 66.6314629,133 66.1771849,133 Z" id="路径" stroke-width="2"></path>
                        <path d="M82.1858523,125 L42.8141477,125 C42.364655,125 42,124.552102 42,124 C42,123.447898 42.364655,123 42.8141477,123 L82.1858523,123 C82.635345,123 83,123.447898 83,124 C83,124.552102 82.635345,125 82.1858523,125 Z" id="路径" stroke-width="2"></path>
                        <path d="M98.1252996,125 L92.8747004,125 C92.3917765,125 92,124.552102 92,124 C92,123.447898 92.3917765,123 92.8747004,123 L98.1252996,123 C98.6082235,123 99,123.447898 99,124 C99,124.552102 98.6082235,125 98.1252996,125 Z" id="路径" stroke-width="2"></path>
                        <path d="M27.1895951,125 L8.81040488,125 C8.36297863,125 8,124.552102 8,124 C8,123.447898 8.36297863,123 8.81040488,123 L27.1895951,123 C27.6370214,123 28,123.447898 28,124 C28,124.552102 27.6370214,125 27.1895951,125 Z" id="路径" stroke-width="2"></path>
                    </g>
                    <g id="编组-6" transform="translate(-0.000000, 2.659513)">
                        <g id="编组" transform="translate(38.547470, 80.340487) rotate(-36.000000) translate(-38.547470, -80.340487) translate(30.547470, 70.340487)">
                            <path d="M15.2650251,8.88589522 C15.1630411,8.87129062 15.071984,8.79826759 14.9918537,8.66682614 C14.9117234,8.53538469 14.8498045,8.2944087 14.8060971,7.94389817 C14.7332514,7.37431856 14.5474948,6.95443615 14.2488274,6.68425095 C13.95016,6.41406575 13.4875897,6.22055472 12.8611166,6.10371788 C12.2055052,5.97227643 11.6263818,5.70574238 11.1237464,5.30411573 C10.621111,4.90248908 10.2022481,4.52642049 9.86715785,4.17590996 C9.54663672,3.86921324 9.2989613,3.7596787 9.12413159,3.84730633 C8.94930188,3.93493396 8.86188703,4.09558462 8.86188703,4.32925831 L8.86188703,5.27125537 L8.86188703,7.33050474 C8.86188703,8.14836265 8.85824474,9.03194128 8.85096017,9.98124064 C8.8436756,10.93054 8.84003331,11.8287232 8.84003331,12.6757903 L8.84003331,14.910295 L8.84003331,16.1589888 C8.85460245,16.5094993 8.79996817,16.9001725 8.67613046,17.3310083 C8.55229275,17.7618442 8.31918647,18.167122 7.97681163,18.5468418 C7.63443678,18.9265615 7.17915108,19.251514 6.61095453,19.5216992 C6.04275797,19.7918844 5.33615457,19.9488839 4.49114431,19.9926977 C3.63156491,20.0365115 2.85575808,19.8831632 2.16372381,19.5326526 C1.47168955,19.1821421 0.936273566,18.7403528 0.557475864,18.2072847 C0.178678161,17.6742166 -0.00707840409,17.0900324 0.000206167109,16.454732 C0.0074907383,15.8194317 0.280662158,15.224294 0.819720427,14.669319 C1.35877869,14.114344 1.94154439,13.7273219 2.56801751,13.5082529 C3.19449064,13.2891838 3.79911005,13.1686958 4.38187574,13.1467889 C4.96464144,13.124882 5.48548828,13.1650446 5.94441626,13.2672769 C6.40334425,13.3695091 6.74207681,13.464439 6.96061394,13.5520667 L6.96061394,7.35241165 C6.96061394,5.6290682 6.96789852,3.68665567 6.98246766,1.52517406 C6.98246766,1.1016405 7.09173623,0.75478112 7.31027336,0.484595918 C7.5288105,0.214410717 7.82019334,0.0574112078 8.1844219,0.0135973913 C8.49037389,-0.0302164251 8.7416916,0.0318531482 8.93837502,0.199806111 C9.13505845,0.367759074 9.33538415,0.601432762 9.53935215,0.900827175 C9.74332014,1.20022159 9.99463785,1.53977866 10.2933053,1.91949841 C10.5919727,2.29921815 10.9962664,2.67163559 11.5061864,3.03675073 C11.9432606,3.37265665 12.3257006,3.61363264 12.6535063,3.7596787 C12.981312,3.90572475 13.287264,4.04081735 13.5713623,4.1649565 C13.8554606,4.28909565 14.1359166,4.43879285 14.4127303,4.61404812 C14.689544,4.78930339 14.995496,5.07409319 15.3305862,5.46841754 C15.6656765,5.84813728 15.8696445,6.24246163 15.9424902,6.65139059 C16.0153359,7.06031954 16.0189782,7.43273698 15.9534171,7.7686429 C15.8878559,8.10454883 15.7822297,8.37838518 15.6365382,8.59015196 C15.4908468,8.80191874 15.3670091,8.90049983 15.2650251,8.88589522 L15.2650251,8.88589522 Z" id="路径"></path>
                        </g>
                        <g id="编组备份" transform="translate(25.047470, 52.840487) rotate(-30.000000) translate(-25.047470, -52.840487) translate(15.547470, 41.340487)">
                            <path d="M18.1272173,10.2187795 C18.0061113,10.2019842 17.897981,10.1180077 17.8028263,9.96685006 C17.7076715,9.8156924 17.6341429,9.53857001 17.5822403,9.1354829 C17.495736,8.48046634 17.2751501,7.99760157 16.9204826,7.68688859 C16.565815,7.37617561 16.0165128,7.15363793 15.272576,7.01927556 C14.4940374,6.86811789 13.8063284,6.56160374 13.2094488,6.09973309 C12.6125693,5.63786244 12.1151696,5.20538356 11.7172499,4.80229645 C11.3366311,4.44959523 11.0425165,4.3236305 10.8349063,4.42440228 C10.627296,4.52517406 10.5234908,4.70992232 10.5234908,4.97864706 L10.5234908,6.06194367 L10.5234908,8.43008045 C10.5234908,9.37061704 10.5191656,10.3867325 10.5105152,11.4784267 C10.5018648,12.570121 10.4975396,13.6030317 10.4975396,14.5771589 L10.4975396,17.1468392 L10.4975396,18.5828371 C10.5148404,18.9859242 10.4499622,19.4351984 10.3029049,19.9306596 C10.1558476,20.4261208 9.87903394,20.8921903 9.47246381,21.328868 C9.06589368,21.7655457 8.52524191,22.1392411 7.8505085,22.449954 C7.17577509,22.760667 6.33668355,22.9412165 5.33323387,22.9916024 C4.31248333,23.0419882 3.39121271,22.8656376 2.56942203,22.4625505 C1.74763134,22.0594634 1.11182486,21.5514057 0.662002588,20.9383774 C0.212180317,20.3253491 -0.00840560485,19.6535372 0.000244823442,18.9229418 C0.00889525174,18.1923464 0.333286313,17.5079381 0.973418007,16.8697168 C1.6135497,16.2314956 2.30558396,15.7864202 3.0495208,15.5344908 C3.79345763,15.2825613 4.51144318,15.1440002 5.20347744,15.1188072 C5.89551171,15.0936143 6.51401733,15.1398013 7.05899431,15.2573684 C7.60397129,15.3749355 8.00621621,15.4841049 8.26572906,15.5848767 L8.26572906,8.4552734 C8.26572906,6.47342843 8.27437949,4.23965402 8.29168034,1.75395017 C8.29168034,1.26688658 8.42143677,0.867998288 8.68094962,0.557285306 C8.94046247,0.246572324 9.2864796,0.0660228889 9.71900101,0.015637 C10.082319,-0.0347488889 10.3807588,0.0366311204 10.6143203,0.229777028 C10.8478819,0.422922936 11.0857687,0.691647676 11.3279807,1.03595125 C11.5701927,1.38025483 11.8686324,1.77074546 12.2233,2.20742317 C12.5779676,2.64410087 13.0580663,3.07238093 13.6635963,3.49226334 C14.182622,3.87855515 14.6367695,4.15567754 15.0260388,4.3236305 C15.415308,4.49158347 15.778626,4.64693996 16.1159927,4.78969998 C16.4533594,4.93245999 16.7864009,5.10461178 17.1151172,5.30615534 C17.4438335,5.50769889 17.8071515,5.83520717 18.2050712,6.28868017 C18.6029909,6.72535788 18.8452029,7.17883088 18.9317071,7.64909917 C19.0182114,8.11936747 19.0225366,8.54764753 18.9446828,8.93393934 C18.8668289,9.32023116 18.7413977,9.63514296 18.5683892,9.87867476 C18.3953806,10.1222066 18.2483233,10.2355748 18.1272173,10.2187795 L18.1272173,10.2187795 Z" id="路径"></path>
                        </g>
                        <g id="编组备份-2" transform="translate(17.047470, 18.840487) rotate(-20.000000) translate(-17.047470, -18.840487) translate(4.547470, 3.340487)">
                            <path d="M23.8516017,13.7731376 C23.6922517,13.7505005 23.549975,13.6373148 23.4247714,13.4335805 C23.2995678,13.2298463 23.2028196,12.8563335 23.1345268,12.3130422 C23.0207053,11.4301938 22.7304607,10.779376 22.2637929,10.360589 C21.797125,9.94180191 21.074359,9.64185982 20.0954947,9.46076271 C19.0711019,9.25702847 18.1662216,8.84390069 17.3808537,8.22137938 C16.5954859,7.59885807 15.9410127,7.01595175 15.4174341,6.47266043 C14.9166199,5.99728052 14.529627,5.82750198 14.2564556,5.96332481 C13.9832842,6.09914765 13.8466985,6.34815617 13.8466985,6.71035038 L13.8466985,8.17044582 L13.8466985,11.3622823 C13.8466985,12.6299621 13.8410074,13.999509 13.8296253,15.470923 C13.8182431,16.942337 13.8125521,18.334521 13.8125521,19.647475 L13.8125521,23.1109572 L13.8125521,25.0464326 C13.8353163,25.5897239 13.7499503,26.1952674 13.5564538,26.8630629 C13.3629574,27.5308585 12.9987289,28.1590391 12.4637682,28.7476047 C11.9288075,29.3361703 11.2174236,29.8398467 10.3296164,30.2586337 C9.44180933,30.6774208 8.33774151,30.92077 7.01741298,30.9886814 C5.67432017,31.0565928 4.46212199,30.8189029 3.38081846,30.2756116 C2.29951492,29.7323202 1.46292745,29.0475468 0.871056037,28.2212912 C0.279184627,27.3950357 -0.0110600064,26.4895502 0.000322136108,25.5048346 C0.0117042786,24.5201191 0.438534622,23.5976557 1.28081317,22.7374444 C2.12309171,21.8772332 3.03366311,21.277349 4.01252736,20.9377919 C4.99139162,20.5982349 5.93610945,20.4114785 6.84668085,20.3775228 C7.75725224,20.343567 8.57107543,20.4058192 9.28815041,20.5642791 C10.0052254,20.7227391 10.534495,20.8698805 10.8759593,21.0057034 L10.8759593,11.3962381 C10.8759593,8.72505571 10.8873414,5.71431629 10.9101057,2.36401979 C10.9101057,1.70754278 11.0808379,1.16991074 11.4223021,0.751123673 C11.7637664,0.332336611 12.2190521,0.0889873721 12.7881592,0.0210759565 C13.2662092,-0.046835459 13.6588931,0.0493723797 13.966211,0.309699472 C14.2735288,0.570026565 14.5865377,0.932220781 14.9052377,1.39628212 C15.2239377,1.86034346 15.6166216,2.38665693 16.0832895,2.97522253 C16.5499573,3.56378813 17.1816662,4.14103516 17.9784162,4.70696363 C18.6613448,5.22761781 19.2589072,5.6011306 19.7711036,5.82750198 C20.2833001,6.05387337 20.76135,6.2632669 21.2052536,6.45568258 C21.6491572,6.64809825 22.0873696,6.88012892 22.5198911,7.15177459 C22.9524125,7.42342025 23.4304625,7.86484445 23.954041,8.47604719 C24.4776196,9.06461279 24.7963196,9.67581553 24.910141,10.3096554 C25.0239624,10.9434953 25.0296535,11.5207423 24.9272142,12.0413965 C24.8247749,12.5620507 24.6597338,12.986497 24.432091,13.3147355 C24.2044481,13.6429741 24.0109517,13.7957747 23.8516017,13.7731376 L23.8516017,13.7731376 Z" id="路径"></path>
                        </g>
                    </g>
                </g>
            </g>
        </g>
    </g>
</svg>