<?xml version="1.0" encoding="UTF-8"?>
<svg width="182px" height="182px" viewBox="0 0 182 182" version="1.1" xmlns="http://www.w3.org/2000/svg" xmlns:xlink="http://www.w3.org/1999/xlink">
    <title>编组 52</title>
    <defs>
        <linearGradient x1="0%" y1="50%" x2="100%" y2="50%" id="linearGradient-1">
            <stop stop-color="#757FD6" offset="0%"></stop>
            <stop stop-color="#86AAD7" offset="57.6072853%"></stop>
            <stop stop-color="#84BDB8" offset="100%"></stop>
        </linearGradient>
    </defs>
    <g id="页面-1" stroke="none" stroke-width="1" fill="none" fill-rule="evenodd">
        <g id="核心技术" transform="translate(-392.000000, -3722.000000)">
            <g id="编组-52" transform="translate(393.000000, 3722.845786)">
                <path d="M16,0 L164,0 C172.836556,-1.623249e-15 180,7.163444 180,16 L180,164 C180,172.836556 172.836556,180 164,180 L16,180 C7.163444,180 1.082166e-15,172.836556 0,164 L0,16 C-1.082166e-15,7.163444 7.163444,1.623249e-15 16,0 Z" id="矩形-1" stroke-opacity="0.0846169212" stroke="#FFFFFF" fill="url(#linearGradient-1)" stroke-dasharray="0,0"></path>
                <g id="编组-50" transform="translate(26.500002, 25.000000)">
                    <g id="编组" transform="translate(10.656848, 80.500000) rotate(-90.000000) translate(-10.656848, -80.500000) translate(-9.343152, 69.843152)" stroke="#FFFFFF" stroke-linecap="round" stroke-linejoin="round" stroke-width="4">
                        <path d="M0,7.96529575 C0.5888,7.40729575 1.19522,6.87859575 1.8174,6.37919575 C13.0371,-2.62577425 29.3821,-2.09708425 40,7.96529575" id="路径"></path>
                        <path d="M34,14.7989958 C26.268,7.06699575 13.732,7.06699575 6,14.7989958" id="路径"></path>
                        <path d="M28,21.3136958 C23.5817,16.8953958 16.4183,16.8953958 12,21.3136958" id="路径"></path>
                    </g>
                    <g id="侧脸4备份" transform="translate(30.499998, 0.000000)" fill="#FFFFFF" fill-rule="nonzero">
                        <path d="M99.8609668,28.3746356 C95.5943533,16.6054446 87.0922283,7.25385336 77.1175702,3.36144973 C68.460784,-0.0242118279 58.67302,-0.2570009 51.9863969,0.147824974 L51.9852925,0.147824974 C47.3819304,0.421732546 42.6425683,1.09820056 38.2832146,2.09956263 C27.0992586,4.65899331 18.4447343,11.3236877 12.5579953,21.9084932 C9.26769831,27.8190646 7.93031715,34.3118925 8.78957748,40.1903843 C9.48097244,44.9111764 9.47766433,48.463197 7.33940957,51.5848417 L6.89321058,52.2346922 C0.159369199,62.0365316 0.152583332,62.0864961 0.0454231927,62.8916056 C-0.484722616,66.5943713 3.73863096,68.7979186 6.82252447,70.4058666 C7.29414218,70.6509424 7.92587807,70.9802878 8.17661583,71.1410826 C8.25945146,71.2209264 8.31577981,71.2841371 8.35222557,71.329602 C8.22631664,71.6423342 7.82207976,72.2233985 7.54264344,72.6248461 C6.6723278,73.8723968 5.58772016,75.4227152 5.66835887,77.4685621 C5.72468722,78.8891148 6.40394679,79.8283904 7.1229376,80.4516689 C6.42379545,81.573911 5.99306258,83.2229093 7.66744683,85.072532 C7.86072809,85.2854488 8.08604996,85.4628795 8.33565674,85.6003954 C8.5388793,86.0572865 8.61067094,87.3514235 8.40082085,88.2962348 C8.36437227,88.4570324 8.34449251,88.6200387 8.34007604,88.7875049 C8.32682239,89.3109397 8.27933123,89.8332389 8.23515241,90.3511094 C7.98885656,93.2121439 7.61664896,97.5360589 13.0714959,99.7293862 C16.2820589,101.025737 19.4719816,100.680869 22.2883989,100.379237 C23.7562383,100.221766 25.1455314,100.076497 26.4577483,100.144143 C26.5008216,100.149687 26.5450004,100.153014 26.5891792,100.155232 C28.2989065,100.2628 29.2542717,100.58328 30.2473266,101.378396 C31.5009024,102.377544 33.084667,105.960651 33.6368669,109.046809 C33.6876732,109.327371 33.7307465,109.886269 33.7903886,110.577142 C34.2233269,115.463157 34.630903,120.078627 38.0756632,120.142785 L49.9554533,120.363464 L49.9565577,120.363464 L84.1799437,121 L84.2285418,121 C85.0668225,121 85.8510141,120.588588 86.3325562,119.897715 C86.8218454,119.193528 86.9289773,118.290846 86.6186087,117.491301 C84.3478317,111.634952 80.929508,100.618635 83.5502662,92.6365252 C85.0567568,88.072156 87.8708838,84.0977084 90.8507274,79.892459 C93.9917353,75.4555561 97.2421653,70.8701791 98.9971599,65.3786281 C103.186301,52.2930434 103.508913,38.4602625 99.8597567,28.3736823 L99.8609668,28.3746356 Z M93.8071315,63.9387019 C92.3163182,68.5996422 89.4783798,72.6072005 86.4728517,76.848589 C83.4489378,81.1151506 80.3236231,85.5268771 78.5998111,90.7528137 C76.0904778,98.3911729 77.9436315,107.714172 80.4366682,115.14807 L50.4064586,114.586486 L50.4010178,114.586486 L50.3966648,114.586486 L40.0089423,114.394191 C39.7086124,113.036102 39.4942223,110.612631 39.4017359,109.568227 C39.3233872,108.682134 39.2668033,108.041898 39.1906302,107.613592 C38.5366235,103.957897 36.6388424,99.0695601 34.0261585,96.9871849 C31.821501,95.2204805 29.6146706,94.8271367 27.7290074,94.6960408 C27.6724236,94.6883926 27.615837,94.6840223 27.5592504,94.679652 C27.5178989,94.6774667 27.4776367,94.6741891 27.4373745,94.6730966 L27.1773012,94.6556153 L27.1773012,94.6621706 C25.5635257,94.5955234 24.0074148,94.7637805 22.4992186,94.9254841 C19.9974904,95.1942602 17.8353432,95.4269883 15.8385292,94.6217566 C14.0680561,93.9093857 13.9788291,93.3969732 14.2258401,90.5246939 C14.2715429,89.9926184 14.3172484,89.4517882 14.3379213,88.9142305 C14.6850516,87.1005363 14.7209597,84.0479896 13.1812011,82.1348336 C13.8972182,81.2564042 14.1866838,80.3342574 14.0397642,79.3880843 C13.7960125,77.8202194 12.5533246,77.1373569 11.859064,76.7680675 C12.0560238,76.3867509 12.406405,75.8841559 12.6468974,75.5400115 C13.6850289,74.0530083 16.1170859,70.5708406 12.3857348,67.2768 C12.3378536,67.2341903 12.288886,67.1948559 12.2377427,67.1566152 C11.7350014,66.7752986 11.0265893,66.4060091 10.132118,65.9394676 C9.29096574,65.5013437 7.27674097,64.4491918 6.41817784,63.6745314 C7.68699598,61.7406496 10.7416366,57.2948275 12.0300384,55.417753 L12.4718279,54.7753073 C15.8461872,49.8500495 15.4121699,44.5323709 14.7395823,39.9326852 C14.0540411,35.2420966 15.1628746,29.9859523 17.8637827,25.1325776 C23.00764,15.88286 30.2221332,10.3084157 39.9234509,8.08814787 C43.9552434,7.16272859 48.3394311,6.53667347 52.600768,6.28320827 L52.6018561,6.28320827 C58.6881271,5.92046382 67.548989,6.1105795 75.2273068,9.11406378 C83.7204518,12.4279632 91.0070955,20.5216759 94.7199214,30.7634935 C98.5177122,41.2620769 96.7395784,54.7828313 93.8080393,63.938849 L93.8071315,63.9387019 Z" id="形状"></path>
                    </g>
                </g>
            </g>
        </g>
    </g>
</svg>