<?xml version="1.0" encoding="UTF-8"?>
<svg width="160px" height="161px" viewBox="0 0 160 161" version="1.1" xmlns="http://www.w3.org/2000/svg" xmlns:xlink="http://www.w3.org/1999/xlink">
    <title>编组 49</title>
    <defs>
        <linearGradient x1="0%" y1="50%" x2="100%" y2="50%" id="linearGradient-1">
            <stop stop-color="#D6AD75" offset="0%"></stop>
            <stop stop-color="#D78E86" offset="57.6072853%"></stop>
            <stop stop-color="#BD8484" offset="100%"></stop>
        </linearGradient>
    </defs>
    <g id="页面-1" stroke="none" stroke-width="1" fill="none" fill-rule="evenodd">
        <g id="核心技术" transform="translate(-1480.000000, -4137.000000)">
            <g id="编组-49" transform="translate(1480.000000, 4137.345786)">
                <rect id="路径" fill="url(#linearGradient-1)" x="0" y="0" width="160" height="160" rx="16"></rect>
                <g id="表情4" transform="translate(15.514169, 14.000000)" fill="#FFFFFF" fill-rule="nonzero">
                    <path d="M122.598175,112.159359 C119.664527,105.661958 113.669049,100.982467 106.437051,99.623835 L81.7072867,97.1837792 C81.6794628,97.1813598 81.6516376,97.1934571 81.6238146,97.1934571 C81.6020394,97.1922475 81.5838919,97.1813598 81.5621172,97.1813598 C79.7995191,97.1813598 78.3586322,95.8397611 78.1687892,94.1267452 L96.975637,92.971428 C100.856425,92.7343193 103.896701,89.501915 103.896701,85.6112168 L103.896701,55.1607663 C104.200347,54.920028 104.496735,54.6659666 104.773757,54.3889444 C106.653698,52.5090029 107.690464,50.0095475 107.690464,47.3505063 C107.690464,44.2765357 106.281104,41.4275896 103.903824,39.5610578 L103.903824,32.7285669 C103.903824,14.6826396 89.2295458,0 71.1938385,0 L57.7766126,0 C39.7393568,0 25.0666274,14.6742779 25.0666274,32.7099852 L25.0666274,39.1411114 C22.7741722,40.805722 21.2753413,43.49852 21.2753413,46.5422024 L21.2753413,48.1511608 C21.2753413,51.1912507 22.7717875,53.8817569 25.0607432,55.5463675 L25.0740505,85.6072217 C25.0740505,89.5038041 28.1129326,92.7351617 31.9889203,92.967433 L50.8004136,94.129997 C50.6080651,95.8417741 49.1684758,97.182196 47.4070856,97.182196 C47.38531,97.182196 47.3671628,97.1942933 47.3453881,97.1942933 C47.3175639,97.1955033 47.289739,97.182196 47.261916,97.1846153 L22.407654,99.6428193 C15.3004636,100.98321 9.30600735,105.6636 6.32519304,112.274968 L0.0805031931,130.088624 C-0.0731333961,130.526564 -0.00417980588,131.015294 0.264384595,131.393927 C0.531738089,131.773799 0.967237383,132 1.43419549,132 L127.535803,132 C128.000345,132 128.435838,131.773777 128.705614,131.393927 C128.976597,131.015263 129.045566,130.528949 128.889495,130.088624 L122.598175,112.159359 Z M64.4857675,111.387599 C72.8546553,111.387599 81.8224933,107.867296 82.898064,100.182835 L86.8296419,100.569953 C83.5586434,110.007289 74.6062902,116.4635 64.4857675,116.4635 C54.3661739,116.4635 45.4153692,110.00574 42.1394156,100.571192 L46.0709935,100.182835 C47.148887,107.868256 56.1178088,111.38763 64.4857675,111.38763 L64.4857675,111.387599 Z M35.8869287,58.5861176 L35.8869287,36.045578 C44.2315579,39.2679312 76.9667464,51.3501775 92.8064507,49.2001383 L92.8064507,58.5864182 C92.8064507,74.2797203 80.038188,87.045578 64.3472909,87.045578 C48.6563938,87.045578 35.8881311,74.2797203 35.8881311,58.5864182 L35.8869287,58.5861176 Z M100.519167,84.8676421 C100.519167,87.0705336 98.7974604,88.8999164 96.6003116,89.0357325 L79.2925144,90.1001518 L79.2925144,86.9674799 C89.4399596,82.1972618 96.4848823,71.8804054 96.4848823,59.9452411 L96.4848823,58.626188 L97.4685585,58.626188 C98.525139,58.626188 99.5503066,58.4399965 100.520545,58.1001518 L100.519167,84.8676421 Z M102.372491,52.1914592 C101.129638,53.4331924 99.4819479,54.1151952 97.7274061,54.1151952 L96.7436566,54.1151952 L96.7436566,48.5190394 C100.468971,47.2918939 102.11669,45.1403259 102.85153,43.4466618 C103.769089,44.5908184 104.297433,46.0232539 104.297433,47.5452831 C104.297433,49.3007725 103.61319,50.9495537 102.372577,52.1915166 L102.372491,52.1914592 Z M28.9376704,31.6255834 C28.9376704,15.7707168 41.837339,2.86985431 57.6942947,2.86985431 L70.6241063,2.86985431 C86.4789729,2.86985431 99.3807307,15.7763872 99.3807307,31.6405056 L99.3807307,38.9058397 C99.3760675,39.0737147 99.2140226,42.9849797 93.1996457,44.4306451 C77.0275325,47.7496469 35.4595791,31.1743352 35.0387722,31.0066094 C34.61325,30.8340726 34.1294415,30.8876971 33.7482383,31.1441744 C33.368199,31.4018156 33.140844,31.8296717 33.140844,32.2889778 L33.140844,36.1362265 L31.3326878,36.1362265 C30.5014601,36.1362265 29.7005543,36.2586365 28.9376704,36.4754684 L28.9376704,31.6255834 Z M24.1903301,46.9114964 C24.1903301,43.7346486 26.7752995,41.1496223 29.9510671,41.1496223 L31.673262,41.1496223 L31.673262,54.1509344 L29.9510671,54.1509344 C26.7742193,54.1509344 24.1903301,51.565965 24.1903301,48.3890603 L24.1903301,46.9114964 Z M27.9442073,84.8321704 L27.9317961,58.1001518 C28.6719691,58.3111467 29.4493747,58.4296119 30.2561273,58.4296119 L32.0061419,58.4296119 L32.0061419,59.7621545 C32.0061419,71.7684117 39.0930283,82.145566 49.2997623,86.9441983 L49.2997623,90.1001518 L31.8807819,89.0237308 C29.6715566,88.8928479 27.9440721,87.0514475 27.9440721,84.8319682 L27.9442073,84.8321704 Z M4.79503545,127.731048 L10.1739489,113.657456 C12.6534307,108.626826 17.7264194,105.001614 23.6256007,103.978261 L39.5885167,102.533256 C42.9728188,112.277325 52.896771,119.000752 64.158598,119.000752 C75.4228351,119.000752 85.346486,112.277325 88.7307881,102.531048 L104.571394,103.960952 C110.590475,105.001558 115.663615,108.625804 118.099565,113.554017 L123.523366,127.731048 L4.79503545,127.731048 Z M54.2978396,94.3610063 L54.2978396,93.5626439 C54.2989836,93.5512061 54.3047023,93.5431999 54.305846,93.5317618 C54.3069897,93.5111738 54.2978396,93.4940163 54.2978396,93.4734292 L54.2978396,89.9231674 C57.4856086,91.0589291 60.9134778,91.6822818 64.4854072,91.6822818 C68.0573365,91.6822818 71.4863769,91.0577871 74.6729748,89.9231674 L74.6729748,93.4974392 C74.6729748,93.5065893 74.6683997,93.5157395 74.6683997,93.5260333 C74.6683997,93.5317521 74.6729748,93.5351835 74.6729748,93.5409023 L74.6729748,94.3587069 C74.6729748,97.1472069 76.6048149,99.4760615 79.1932998,100.123454 C78.3251913,105.747361 71.166341,108.323167 64.4845288,108.323167 C57.8038878,108.323167 50.643632,105.748532 49.7757577,100.123454 C52.3664093,99.4783747 54.2981324,97.1497251 54.2981324,94.3610493 L54.2978396,94.3610063 Z" id="形状"></path>
                    <path d="M56.046579,50.8010387 L41.1970137,50.8010387 C40.4034203,50.8010387 39.761051,51.4434081 39.761051,52.2370015 C39.761051,53.0305949 40.4034203,53.6729643 41.1970137,53.6729643 L46.8551413,53.6729643 L46.8551413,55.6460621 C46.8551413,58.5688086 49.239545,60.9458725 52.1682686,60.9458725 C55.0970541,60.9458725 57.4813976,58.5675078 57.4813976,55.6460621 L57.4813976,52.2394171 C57.4826055,51.4434081 56.8402343,50.8010387 56.0466409,50.8010387 L56.046579,50.8010387 Z M54.6106162,55.6449781 C54.6106162,56.985369 53.5145746,58.0753715 52.1669369,58.0753715 C50.820476,58.0753715 49.7232576,56.9841922 49.7232576,55.6449781 L49.7232576,53.6718804 L54.6080767,53.6718804 L54.6092867,55.6449781 L54.6106162,55.6449781 Z" id="形状"></path>
                    <path d="M72.9280531,53.6719113 L78.5883484,53.6719113 L78.5883484,55.6450091 C78.5883484,58.5677556 80.9727521,60.9448195 83.9014758,60.9448195 C86.8302613,60.9448195 89.2133643,58.5664549 89.2133643,55.6450091 L89.2133643,52.2383642 C89.2133643,51.4447707 88.5709949,50.8024014 87.7774015,50.8024014 L72.9265975,50.8024014 C72.1330041,50.8024014 71.4906347,51.4447707 71.4906347,52.2383642 C71.4918444,53.029542 72.1342119,53.6719113 72.9278053,53.6719113 L72.9280531,53.6719113 Z M86.3428014,53.6719113 L86.3428014,55.6450091 C86.3428014,56.9854 85.2492064,58.0754025 83.9003299,58.0754025 C82.553869,58.0754025 81.4566506,56.9842232 81.4566506,55.6450091 L81.4566506,53.6719113 L86.3428014,53.6719113 Z" id="形状"></path>
                    <path d="M70.6146624,79.3177537 C70.6146624,78.5241603 69.9722621,77.8817909 69.1786687,77.8817909 L59.7933619,77.8830006 C58.9997685,77.8830006 58.3573991,78.52537 58.3573991,79.3189634 C58.3573991,80.1125568 58.9997685,80.7549262 59.7933619,80.7549262 L69.1799075,80.7537162 C69.9722931,80.7525065 70.6146624,80.1113468 70.6146624,79.3177534 L70.6146624,79.3177537 Z" id="路径"></path>
                </g>
                <g id="编组备份-6" transform="translate(138.000000, 91.000000) scale(-1, 1) translate(-138.000000, -91.000000) translate(124.500000, 75.500000)" stroke="#FFFFFF" stroke-linejoin="round" stroke-width="3.5">
                    <path d="M7.5,15 C11.6421,15 15,11.6421 15,7.5 C15,3.3578625 11.6421,0 7.5,0 C3.3579,0 0,3.3578625 0,7.5 C0,11.6421 3.3579,15 7.5,15 Z" id="路径"></path>
                    <path d="M15.1692714,8 C15.1801347,8.01095935 18.732192,12.5489747 25.8255188,21.6138161 C26.074921,21.9183789 26.0547787,22.3657964 25.7790482,22.645988 L22.6984863,25.7755348 C22.4227558,26.0556498 21.982266,26.0761123 21.6825458,25.8227443 L9,14.7426847" id="路径" stroke-linecap="round"></path>
                    <line x1="16" y1="15" x2="18" y2="17" id="路径" stroke-linecap="round"></line>
                    <path d="M9,30.4536419 C10.4241858,28.7011283 12.1557091,27.8248364 14.1945701,27.8248364 C17.2528615,27.8248364 20.8617004,31.4520619 23.9405751,30.9528168 C27.0193755,30.4536419 27.9005933,27.587104 26.0054439,26" id="路径" stroke-linecap="round"></path>
                </g>
            </g>
        </g>
    </g>
</svg>