<?xml version="1.0" encoding="UTF-8"?>
<svg width="161px" height="161px" viewBox="0 0 161 161" version="1.1" xmlns="http://www.w3.org/2000/svg" xmlns:xlink="http://www.w3.org/1999/xlink">
    <title>编组 44</title>
    <defs>
        <linearGradient x1="0%" y1="50%" x2="100%" y2="50%" id="linearGradient-1">
            <stop stop-color="#75D5D6" offset="0%"></stop>
            <stop stop-color="#A0D786" offset="57.6072853%"></stop>
            <stop stop-color="#B8BD84" offset="100%"></stop>
        </linearGradient>
        <polygon id="path-2" points="0 0 112.4 0 112.4 128.5 0 128.5"></polygon>
    </defs>
    <g id="页面-1" stroke="none" stroke-width="1" fill="none" fill-rule="evenodd">
        <g id="核心技术" transform="translate(-999.000000, -4137.000000)">
            <g id="编组-44" transform="translate(999.200000, 4137.345786)">
                <path d="M16,0 L144,0 C152.836556,-1.623249e-15 160,7.163444 160,16 L160,144 C160,152.836556 152.836556,160 144,160 L16,160 C7.163444,160 1.082166e-15,152.836556 0,144 L0,16 C-1.082166e-15,7.163444 7.163444,1.623249e-15 16,0 Z" id="矩形-2" fill="url(#linearGradient-1)"></path>
                <g id="Clipped" transform="translate(24.310938, 15.600000)">
                    <mask id="mask-3" fill="white">
                        <use xlink:href="#path-2"></use>
                    </mask>
                    <g id="路径"></g>
                    <path d="M39.4123887,126.9 C39.2878203,126.9 39.1632545,126.9 39.0376503,126.775243 C38.2892277,126.525731 37.9144893,125.775121 38.1636209,125.025565 C39.2867819,121.5251 39.4113608,116.775111 38.4127551,112.025121 C38.0380167,109.900137 36.2909857,108.15038 34.1691108,107.650465 C31.7982098,107.025649 29.4263073,106.775111 27.0554326,106.775111 C26.1814032,106.775111 25.1827948,106.899868 24.3097932,106.899868 C22.5627622,107.024625 20.8146243,107.14938 19.0675669,106.899868 C15.3233454,106.524562 12.577706,105.024393 11.0797012,102.525211 C10.0810928,100.900301 9.33267014,98.1505543 10.8305669,94.1501742 C11.8291753,92.02519 11.0797012,90.6497097 10.0821443,89.1507549 L9.83301009,88.6507074 C7.71124066,84.775966 8.95898066,82.5252903 10.0821443,80.775586 C10.5814353,79.9002323 11.0807527,79.1506757 11.0807527,78.1505543 C11.0807527,77.2752006 10.4568827,76.6503854 9.45830067,76.525644 C6.96179285,76.2761323 4.71549716,75.2760136 3.21749231,73.6509977 C1.71959289,72.1508288 1.47046129,69.7762564 2.59362231,67.9009133 L4.21607436,65.2758816 C11.205358,53.9002956 11.205358,53.9002956 12.9532061,41.4010875 C13.3279445,38.9007971 13.7016287,35.7758499 14.3265265,32.0256915 C15.5742665,23.6506546 20.6917294,15.6506863 28.3058845,10.0251848 C35.6696694,4.65043287 48.8997615,-0.975068626 70.2415867,2.52539592 C78.9787184,4.02556485 85.9680021,6.525776 91.4592809,10.2756704 C107.560461,21.2759238 113.426505,42.9021538 106.311509,65.5250475 C105.188348,69.2749419 103.565869,73.0248364 102.067864,76.9006335 C98.0735363,86.7759449 93.829892,97.0255332 95.8270561,107.275649 L99.8213843,123.775501 C99.9459527,124.525058 99.5722501,125.27567 98.8227759,125.400412 C98.0743533,125.525169 97.3248765,125.1509 97.2003239,124.40029 L93.2059957,107.775855 C91.0842262,96.5261719 95.4523177,86.026098 99.5711985,75.7749261 C101.193651,71.9001848 102.691603,68.2751373 103.814843,64.6500897 C110.55481,43.2756651 105.062583,22.774905 89.961197,12.3991501 C84.8415203,9.39675345 78.2262108,7.02228663 69.8635803,5.64685903 C49.5200736,2.27229718 36.914853,7.64707547 30.0494367,12.6467323 C22.9357585,17.7720544 18.3173495,25.1469963 17.0686608,32.8964789 C16.4447908,36.6463734 16.0700524,39.6466584 15.6953403,42.147028 C13.9483093,55.1474714 13.8227025,55.3969013 6.58449803,67.146764 L4.96204598,69.7717957 C4.46275496,70.5213523 4.58730758,71.5214737 5.21118021,72.1462889 C6.33434124,73.2711517 7.95681964,74.021764 9.82932569,74.1465053 C12.2002267,74.396017 13.9483119,76.2714895 13.8236539,78.5211622 C13.8236539,80.1460725 13.0752313,81.3958085 12.4503334,82.5215423 C11.451725,84.1464526 10.952434,85.146574 12.325765,87.6468643 L12.5748992,88.0221705 C13.5735076,89.7718485 14.9458002,92.0225506 13.4489287,95.3971124 C12.5748992,97.6468379 12.5748992,99.7717693 13.4489287,101.272044 C14.4475371,103.021722 16.5693328,104.021843 19.4393667,104.272329 C20.9372662,104.397086 22.5597709,104.272329 24.1821703,104.147572 C25.0561997,104.147572 26.0548081,104.022815 27.0524677,104.022815 C29.6735282,104.022815 32.294694,104.272326 34.9156754,104.898168 C38.0360796,105.647725 40.5324029,108.27273 41.1564838,111.397862 C42.2796448,116.648031 42.1550922,121.773353 40.7817454,125.772677 C40.533639,126.522234 40.0343506,126.89754 39.4104806,126.89754 L39.4123887,126.9 Z" id="路径" stroke="#FFFFFF" fill="#FFFFFF" fill-rule="nonzero" mask="url(#mask-3)"></path>
                </g>
                <g id="编组" transform="translate(88.500000, 60.500000) scale(-1, 1) translate(-88.500000, -60.500000) translate(75.000000, 45.000000)" stroke="#FFFFFF" stroke-linejoin="round" stroke-width="3.5">
                    <path d="M7.5,15 C11.6421,15 15,11.6421 15,7.5 C15,3.3578625 11.6421,0 7.5,0 C3.3579,0 0,3.3578625 0,7.5 C0,11.6421 3.3579,15 7.5,15 Z" id="路径"></path>
                    <path d="M15.1692714,8 C15.1801347,8.01095935 18.732192,12.5489747 25.8255188,21.6138161 C26.074921,21.9183789 26.0547787,22.3657964 25.7790482,22.645988 L22.6984863,25.7755348 C22.4227558,26.0556498 21.982266,26.0761123 21.6825458,25.8227443 L9,14.7426847" id="路径" stroke-linecap="round"></path>
                    <line x1="16" y1="15" x2="18" y2="17" id="路径" stroke-linecap="round"></line>
                    <path d="M9,30.4536419 C10.4241858,28.7011283 12.1557091,27.8248364 14.1945701,27.8248364 C17.2528615,27.8248364 20.8617004,31.4520619 23.9405751,30.9528168 C27.0193755,30.4536419 27.9005933,27.587104 26.0054439,26" id="路径" stroke-linecap="round"></path>
                </g>
            </g>
        </g>
    </g>
</svg>