<?xml version="1.0" encoding="UTF-8"?>
<svg width="222px" height="156px" viewBox="0 0 222 156" version="1.1" xmlns="http://www.w3.org/2000/svg" xmlns:xlink="http://www.w3.org/1999/xlink">
    <title>直线 10备份</title>
    <defs>
        <linearGradient x1="0%" y1="50%" x2="100%" y2="50%" id="linearGradient-1">
            <stop stop-color="#D675A3" offset="0%"></stop>
            <stop stop-color="#8D86D7" offset="45.7084176%"></stop>
            <stop stop-color="#8CBFC6" offset="100%"></stop>
        </linearGradient>
    </defs>
    <g id="页面-1" stroke="none" stroke-width="1" fill="none" fill-rule="evenodd">
        <g id="产品中心-元宇宙" transform="translate(-1068.000000, -2138.000000)" fill="url(#linearGradient-1)" fill-rule="nonzero">
            <path id="直线-10备份" d="M1277.22181,2269.90513 L1290,2293.5 L1263.45719,2289.56563 L1269.192,2281.374 L1268.23593,2280.70408 L1266.59756,2279.55703 L1268.89166,2276.28028 L1270.53004,2277.42733 L1271.486,2278.096 L1277.22181,2269.90513 Z M1242.67767,2257.92745 L1244.31604,2259.0745 L1257.42304,2268.25091 L1259.06141,2269.39797 L1256.76731,2272.67472 L1255.12894,2271.52766 L1242.02194,2262.35125 L1240.38356,2261.2042 L1242.67767,2257.92745 Z M1216.46367,2239.57462 L1218.10204,2240.72167 L1231.20904,2249.89808 L1232.84742,2251.04513 L1230.55331,2254.32188 L1228.91494,2253.17483 L1215.80794,2243.99842 L1214.16957,2242.85137 L1216.46367,2239.57462 Z M1190.24967,2221.22178 L1191.88805,2222.36884 L1204.99505,2231.54525 L1206.63342,2232.6923 L1204.33932,2235.96905 L1202.70094,2234.822 L1189.59394,2225.64559 L1187.95557,2224.49853 L1190.24967,2221.22178 Z M1164.03568,2202.86895 L1165.67405,2204.01601 L1178.78105,2213.19242 L1180.41943,2214.33947 L1178.12532,2217.61622 L1176.48695,2216.46917 L1163.37995,2207.29276 L1161.74157,2206.1457 L1164.03568,2202.86895 Z M1137.82168,2184.51612 L1139.46006,2185.66318 L1152.56705,2194.83959 L1154.20543,2195.98664 L1151.91132,2199.26339 L1150.27295,2198.11634 L1137.16595,2188.93992 L1135.52758,2187.79287 L1137.82168,2184.51612 Z M1111.60768,2166.16329 L1113.24606,2167.31034 L1126.35306,2176.48676 L1127.99143,2177.63381 L1125.69733,2180.91056 L1124.05895,2179.76351 L1110.95196,2170.58709 L1109.31358,2169.44004 L1111.60768,2166.16329 Z M1068,2138.07431 L1094.54281,2142.00869 L1088.807,2150.2 L1100.13906,2158.13393 L1101.77744,2159.28098 L1099.48333,2162.55773 L1097.84496,2161.41068 L1086.513,2153.477 L1080.77819,2161.66918 L1068,2138.07431 Z"></path>
        </g>
    </g>
</svg>