<?xml version="1.0" encoding="UTF-8"?>
<svg width="200px" height="157px" viewBox="0 0 200 157" version="1.1" xmlns="http://www.w3.org/2000/svg" xmlns:xlink="http://www.w3.org/1999/xlink">
    <title>直线 10备份 2</title>
    <defs>
        <linearGradient x1="0%" y1="50%" x2="100%" y2="50%" id="linearGradient-1">
            <stop stop-color="#D675A3" offset="0%"></stop>
            <stop stop-color="#8D86D7" offset="45.7084176%"></stop>
            <stop stop-color="#8CBFC6" offset="100%"></stop>
        </linearGradient>
    </defs>
    <g id="页面-1" stroke="none" stroke-width="1" fill="none" fill-rule="evenodd">
        <g id="产品中心-元宇宙" transform="translate(-620.000000, -2142.000000)" fill="url(#linearGradient-1)" fill-rule="nonzero">
            <path id="直线-10备份-2" d="M651.478799,2271.20467 L653.932128,2274.36397 L652.352478,2275.59064 L640.182,2285.041 L646.315787,2292.93941 L620,2298.18149 L631.595814,2273.98361 L637.728,2281.881 L649.899149,2272.43134 L651.478799,2271.20467 Z M676.7532,2251.57804 L679.206529,2254.73734 L677.626879,2255.96401 L664.989678,2265.77732 L663.410028,2267.00399 L660.956699,2263.84469 L662.53635,2262.61802 L675.17355,2252.80471 L676.7532,2251.57804 Z M702.027601,2231.95141 L704.48093,2235.11071 L702.901279,2236.33737 L690.264079,2246.15069 L688.684429,2247.37736 L686.2311,2244.21805 L687.81075,2242.99139 L700.447951,2233.17807 L702.027601,2231.95141 Z M727.302001,2212.32478 L729.75533,2215.48408 L728.17568,2216.71074 L715.53848,2226.52406 L713.95883,2227.75072 L711.505501,2224.59142 L713.085151,2223.36476 L725.722351,2213.55144 L727.302001,2212.32478 Z M752.576402,2192.69815 L755.029731,2195.85745 L753.450081,2197.08411 L740.812881,2206.89743 L739.23323,2208.12409 L736.779902,2204.96479 L738.359552,2203.73813 L750.996752,2193.92481 L752.576402,2192.69815 Z M777.850803,2173.07152 L780.304132,2176.23082 L778.724482,2177.45748 L766.087281,2187.2708 L764.507631,2188.49746 L762.054302,2185.33816 L763.633952,2184.1115 L776.271153,2174.29818 L777.850803,2173.07152 Z M820,2142.8731 L808.404186,2167.07098 L802.27,2159.172 L791.361682,2167.64416 L789.782032,2168.87083 L787.328703,2165.71153 L788.908353,2164.48486 L799.817,2156.013 L793.684213,2148.11518 L820,2142.8731 Z"></path>
        </g>
    </g>
</svg>