<?xml version="1.0" encoding="UTF-8"?>
<svg width="282px" height="155px" viewBox="0 0 282 155" version="1.1" xmlns="http://www.w3.org/2000/svg" xmlns:xlink="http://www.w3.org/1999/xlink">
    <title>直线 10备份 3</title>
    <defs>
        <linearGradient x1="0%" y1="50%" x2="100%" y2="50%" id="linearGradient-1">
            <stop stop-color="#D675A3" offset="0%"></stop>
            <stop stop-color="#8D86D7" offset="45.7084176%"></stop>
            <stop stop-color="#8CBFC6" offset="100%"></stop>
        </linearGradient>
    </defs>
    <g id="页面-1" stroke="none" stroke-width="1" fill="none" fill-rule="evenodd">
        <g id="产品中心-元宇宙" transform="translate(-428.000000, -3188.000000)" fill="url(#linearGradient-1)" fill-rule="nonzero">
            <path id="直线-10备份-3" d="M438.634148,3333.56334 L440.547792,3337.07589 L438.79152,3338.03271 L431.956822,3341.75627 L430.20055,3342.71309 L428.286906,3339.20055 L430.043178,3338.24373 L436.877875,3334.52017 L438.634148,3333.56334 Z M466.734501,3318.25419 L468.648145,3321.76673 L466.891873,3322.72356 L452.841696,3330.37813 L451.085424,3331.33495 L449.17178,3327.82241 L450.928052,3326.86559 L464.978228,3319.21101 L466.734501,3318.25419 Z M494.834854,3302.94504 L496.748498,3306.45758 L494.992226,3307.4144 L480.942049,3315.06898 L479.185777,3316.0258 L477.272133,3312.51326 L479.028405,3311.55644 L493.078581,3303.90186 L494.834854,3302.94504 Z M522.935207,3287.63588 L524.848851,3291.14843 L523.092579,3292.10525 L509.042402,3299.75983 L507.28613,3300.71665 L505.372486,3297.2041 L507.128758,3296.24728 L521.178934,3288.59271 L522.935207,3287.63588 Z M551.035559,3272.32673 L552.949204,3275.83928 L551.192932,3276.7961 L537.142755,3284.45067 L535.386483,3285.4075 L533.472839,3281.89495 L535.229111,3280.93813 L549.279287,3273.28355 L551.035559,3272.32673 Z M579.135912,3257.01758 L581.049557,3260.53012 L579.293285,3261.48694 L565.243108,3269.14152 L563.486836,3270.09834 L561.573192,3266.5858 L563.329464,3265.62898 L577.37964,3257.9744 L579.135912,3257.01758 Z M607.236265,3241.70843 L609.14991,3245.22097 L607.393638,3246.17779 L593.343461,3253.83237 L591.587189,3254.78919 L589.673545,3251.27665 L591.429817,3250.31982 L605.479993,3242.66525 L607.236265,3241.70843 Z M635.336618,3226.39927 L637.250263,3229.91182 L635.493991,3230.86864 L621.443814,3238.52322 L619.687542,3239.48004 L617.773898,3235.96749 L619.53017,3235.01067 L633.580346,3227.35609 L635.336618,3226.39927 Z M663.436971,3211.09012 L665.350616,3214.60266 L663.594343,3215.55949 L649.544167,3223.21406 L647.787895,3224.17088 L645.874251,3220.65834 L647.630523,3219.70152 L661.680699,3212.04694 L663.436971,3211.09012 Z M710,3188 L694.665668,3210.0195 L689.881,3201.238 L677.64452,3207.90491 L675.888248,3208.86173 L673.974604,3205.34919 L675.730876,3204.39237 L687.967,3197.725 L683.183803,3188.94423 L710,3188 Z"></path>
        </g>
    </g>
</svg>