<?xml version="1.0" encoding="UTF-8"?>
<svg width="282px" height="163px" viewBox="0 0 282 163" version="1.1" xmlns="http://www.w3.org/2000/svg" xmlns:xlink="http://www.w3.org/1999/xlink">
    <title>直线 10备份 4</title>
    <defs>
        <linearGradient x1="0%" y1="50%" x2="100%" y2="50%" id="linearGradient-1">
            <stop stop-color="#D675A3" offset="0%"></stop>
            <stop stop-color="#8D86D7" offset="45.7084176%"></stop>
            <stop stop-color="#8CBFC6" offset="100%"></stop>
        </linearGradient>
    </defs>
    <g id="页面-1" stroke="none" stroke-width="1" fill="none" fill-rule="evenodd">
        <g id="产品中心-元宇宙" transform="translate(-428.000000, -2951.000000)" fill="url(#linearGradient-1)" fill-rule="nonzero">
            <path id="直线-10备份-4" d="M695.15029,3091.65081 L710,3114 L683.210825,3112.47026 L688.185,3103.795 L676.048156,3096.83495 L674.313202,3095.83999 L676.303113,3092.37008 L678.038067,3093.36504 L690.175,3100.325 L695.15029,3091.65081 Z M648.543857,3076.4508 L665.893392,3086.40035 L663.903481,3089.87026 L646.553946,3079.9207 L648.543857,3076.4508 Z M620.784601,3060.53151 L638.134136,3070.48106 L636.144225,3073.95097 L634.409271,3072.95602 L618.79469,3064.00142 L620.784601,3060.53151 Z M593.025344,3044.61222 L594.760298,3045.60718 L608.639926,3053.56682 L610.374879,3054.56178 L608.384969,3058.03168 L606.650015,3057.03673 L592.770387,3049.07709 L591.035433,3048.08213 L593.025344,3044.61222 Z M565.266088,3028.69294 L567.001041,3029.68789 L580.88067,3037.64753 L582.615623,3038.64249 L580.625712,3042.1124 L578.890759,3041.11744 L565.011131,3033.1578 L563.276177,3032.16284 L565.266088,3028.69294 Z M537.506832,3012.77365 L554.856367,3022.7232 L552.866456,3026.19311 L535.516921,3016.24356 L537.506832,3012.77365 Z M509.747575,2996.85436 L511.482529,2997.84932 L525.362157,3005.80896 L527.097111,3006.80392 L525.1072,3010.27382 L523.372246,3009.27887 L509.492618,3001.31923 L507.757665,3000.32427 L509.747575,2996.85436 Z M481.988319,2980.93508 L483.723273,2981.93003 L497.602901,2989.88967 L499.337854,2990.88463 L497.347943,2994.35454 L495.61299,2993.35958 L481.733362,2985.39994 L479.998408,2984.40498 L481.988319,2980.93508 Z M454.229063,2965.01579 L455.964016,2966.01074 L469.843644,2973.97039 L471.578598,2974.96534 L469.588687,2978.43525 L467.853734,2977.44029 L453.974106,2969.48065 L452.239152,2968.4857 L454.229063,2965.01579 Z M430.260002,2951.27009 L431.994955,2952.26505 L442.084388,2958.0511 L443.819342,2959.04606 L441.829431,2962.51596 L440.094477,2961.52101 L430.005045,2955.73495 L428.270091,2954.74 L430.260002,2951.27009 Z"></path>
        </g>
    </g>
</svg>