<?xml version="1.0" encoding="UTF-8"?>
<svg width="94px" height="129px" viewBox="0 0 94 129" version="1.1" xmlns="http://www.w3.org/2000/svg" xmlns:xlink="http://www.w3.org/1999/xlink">
    <title>直线 10备份 15</title>
    <defs>
        <linearGradient x1="0%" y1="50%" x2="100%" y2="50%" id="linearGradient-1">
            <stop stop-color="#D675A3" offset="0%"></stop>
            <stop stop-color="#8D86D7" offset="45.7084176%"></stop>
            <stop stop-color="#8CBFC6" offset="100%"></stop>
        </linearGradient>
    </defs>
    <g id="页面-1" stroke="none" stroke-width="1" fill="none" fill-rule="evenodd">
        <g id="产品中心-元宇宙" transform="translate(-155.000000, -4111.000000)" fill="url(#linearGradient-1)" fill-rule="nonzero">
            <g id="编组-16" transform="translate(24.000000, 3497.000000)">
                <path id="直线-10备份-15" d="M142.120965,726.70452 L143.74064,727.877828 L143.153986,728.687666 L133.809838,741.586654 L133.223184,742.396492 L131.603508,741.223184 L132.190162,740.413346 L141.534311,727.514358 L142.120965,726.70452 Z M160.893895,700.789715 L162.51357,701.963024 L161.926916,702.772861 L152.540451,715.730264 L151.953797,716.540101 L150.334122,715.366793 L150.920776,714.556956 L160.307241,701.599553 L160.893895,700.789715 Z M179.666824,674.87491 L181.2865,676.048219 L180.699846,676.858056 L171.313381,689.815459 L170.726727,690.625296 L169.107051,689.451988 L169.693705,688.642151 L179.08017,675.684748 L179.666824,674.87491 Z M198.439754,648.960106 L200.059429,650.133414 L199.472775,650.943251 L190.08631,663.900654 L189.499656,664.710491 L187.879981,663.537183 L188.466635,662.727346 L197.8531,649.769943 L198.439754,648.960106 Z M225,614 L222.455707,629.444306 L217.596,625.924 L208.85924,637.985849 L208.272586,638.795686 L206.652911,637.622378 L207.239565,636.812541 L215.977,624.751 L211.11798,621.231149 L225,614 Z"></path>
            </g>
        </g>
    </g>
</svg>