<?xml version="1.0" encoding="UTF-8"?>
<svg width="99px" height="125px" viewBox="0 0 99 125" version="1.1" xmlns="http://www.w3.org/2000/svg" xmlns:xlink="http://www.w3.org/1999/xlink">
    <title>直线 10备份 13</title>
    <defs>
        <linearGradient x1="0%" y1="50%" x2="100%" y2="50%" id="linearGradient-1">
            <stop stop-color="#D675A3" offset="0%"></stop>
            <stop stop-color="#8D86D7" offset="45.7084176%"></stop>
            <stop stop-color="#8CBFC6" offset="100%"></stop>
        </linearGradient>
    </defs>
    <g id="页面-1" stroke="none" stroke-width="1" fill="none" fill-rule="evenodd">
        <g id="产品中心-元宇宙" transform="translate(-163.000000, -3889.000000)" fill="url(#linearGradient-1)" fill-rule="nonzero">
            <g id="编组-16" transform="translate(24.000000, 3497.000000)">
                <path id="直线-10备份-13" d="M220.263709,492.920203 L220.883354,493.705086 L230.109,505.392 L234.819159,501.674131 L238,517 L223.830801,510.349151 L228.54,506.631 L219.313588,494.944374 L218.693944,494.159491 L220.263709,492.920203 Z M200.435092,467.803954 L201.054736,468.588837 L210.969045,481.146961 L211.588689,481.931844 L210.018924,483.171133 L209.39928,482.38625 L199.484971,469.828126 L198.865327,469.043243 L200.435092,467.803954 Z M180.606475,442.687706 L181.226119,443.472589 L191.140428,456.030713 L191.760072,456.815596 L190.190307,458.054884 L189.570662,457.270001 L179.656354,444.711877 L179.036709,443.926994 L180.606475,442.687706 Z M160.777858,417.571457 L161.397502,418.35634 L171.311811,430.914464 L171.931455,431.699347 L170.361689,432.938636 L169.742045,432.153753 L159.827736,419.595629 L159.208092,418.810746 L160.777858,417.571457 Z M140.94924,392.455209 L141.568885,393.240092 L151.483193,405.798216 L152.102838,406.583099 L150.533072,407.822387 L149.913428,407.037504 L139.999119,394.47938 L139.379475,393.694497 L140.94924,392.455209 Z"></path>
            </g>
        </g>
    </g>
</svg>