<?xml version="1.0" encoding="UTF-8"?>
<svg width="274px" height="85px" viewBox="0 0 274 85" version="1.1" xmlns="http://www.w3.org/2000/svg" xmlns:xlink="http://www.w3.org/1999/xlink">
    <title>直线 10备份 7</title>
    <defs>
        <linearGradient x1="0%" y1="50%" x2="100%" y2="50%" id="linearGradient-1">
            <stop stop-color="#D675A3" offset="0%"></stop>
            <stop stop-color="#8D86D7" offset="45.7084176%"></stop>
            <stop stop-color="#8CBFC6" offset="100%"></stop>
        </linearGradient>
    </defs>
    <g id="页面-1" stroke="none" stroke-width="1" fill="none" fill-rule="evenodd">
        <g id="产品中心-元宇宙" transform="translate(-819.000000, -3185.000000)" fill="url(#linearGradient-1)" fill-rule="nonzero">
            <path id="直线-10备份-7" d="M1073.13183,3245.96515 L1093,3264 L1066.65122,3269.07363 L1069.351,3259.444 L1055.90246,3255.67342 L1053.97675,3255.13337 L1055.05685,3251.28196 L1056.98256,3251.82201 L1070.431,3255.593 L1073.13183,3245.96515 Z M1024.24555,3242.64115 L1026.17125,3243.1812 L1041.5769,3247.5016 L1043.50261,3248.04165 L1042.42251,3251.89307 L1040.4968,3251.35302 L1025.09115,3247.03261 L1023.16545,3246.49256 L1024.24555,3242.64115 Z M993.434243,3234.00034 L995.359949,3234.54039 L1010.7656,3238.86079 L1012.69131,3239.40085 L1011.61121,3243.25226 L1009.6855,3242.71221 L994.279848,3238.3918 L992.354142,3237.85175 L993.434243,3234.00034 Z M962.622939,3225.35953 L964.548646,3225.89958 L979.954298,3230.21999 L981.880004,3230.76004 L980.799903,3234.61145 L978.874197,3234.0714 L963.468545,3229.751 L961.542838,3229.21094 L962.622939,3225.35953 Z M931.811636,3216.71872 L933.737342,3217.25877 L949.142994,3221.57918 L951.0687,3222.11923 L949.988599,3225.97064 L948.062893,3225.43059 L932.657241,3221.11019 L930.731535,3220.57014 L931.811636,3216.71872 Z M901.000332,3208.07791 L902.926039,3208.61797 L918.33169,3212.93837 L920.257397,3213.47842 L919.177296,3217.32983 L917.251589,3216.78978 L901.845937,3212.46938 L899.920231,3211.92933 L901.000332,3208.07791 Z M870.189028,3199.43711 L872.114735,3199.97716 L887.520387,3204.29756 L889.446093,3204.83761 L888.365992,3208.68902 L886.440286,3208.14897 L871.034634,3203.82857 L869.108927,3203.28852 L870.189028,3199.43711 Z M839.377725,3190.7963 L841.303431,3191.33635 L856.709083,3195.65675 L858.63479,3196.1968 L857.554689,3200.04822 L855.628982,3199.50817 L840.22333,3195.18776 L838.297624,3194.64771 L839.377725,3190.7963 Z M820.614344,3185.53424 L822.540051,3186.07429 L825.897779,3187.01594 L827.823486,3187.55599 L826.743385,3191.40741 L824.817678,3190.86736 L821.459949,3189.92571 L819.534243,3189.38566 L820.614344,3185.53424 Z"></path>
        </g>
    </g>
</svg>