<?xml version="1.0" encoding="UTF-8"?>
<svg width="274px" height="86px" viewBox="0 0 274 86" version="1.1" xmlns="http://www.w3.org/2000/svg" xmlns:xlink="http://www.w3.org/1999/xlink">
    <title>直线 10备份 6</title>
    <defs>
        <linearGradient x1="0%" y1="50%" x2="100%" y2="50%" id="linearGradient-1">
            <stop stop-color="#D675A3" offset="0%"></stop>
            <stop stop-color="#8D86D7" offset="45.7084176%"></stop>
            <stop stop-color="#8CBFC6" offset="100%"></stop>
        </linearGradient>
    </defs>
    <g id="页面-1" stroke="none" stroke-width="1" fill="none" fill-rule="evenodd">
        <g id="产品中心-元宇宙" transform="translate(-819.000000, -3041.000000)" fill="url(#linearGradient-1)" fill-rule="nonzero">
            <path id="直线-10备份-6" d="M827.393199,3120.85555 L828.50612,3124.6976 L826.585091,3125.25406 L822.55646,3126.42103 L820.635432,3126.97749 L819.522511,3123.13543 L821.44354,3122.57897 L825.472171,3121.41201 L827.393199,3120.85555 Z M858.129661,3111.95218 L859.242582,3115.79424 L857.321553,3116.3507 L841.953322,3120.80238 L840.032293,3121.35884 L838.919373,3117.51678 L840.840401,3116.96032 L856.208632,3112.50864 L858.129661,3111.95218 Z M888.866123,3103.04881 L889.979043,3106.89087 L888.058015,3107.44733 L872.689784,3111.89901 L870.768755,3112.45547 L869.655834,3108.61342 L871.576863,3108.05696 L886.945094,3103.60527 L888.866123,3103.04881 Z M919.602584,3094.14545 L920.715505,3097.9875 L918.794476,3098.54397 L903.426245,3102.99565 L901.505216,3103.55211 L900.392296,3099.71005 L902.313325,3099.15359 L917.681555,3094.70191 L919.602584,3094.14545 Z M950.339046,3085.24208 L951.451967,3089.08414 L949.530938,3089.6406 L934.162707,3094.09228 L932.241678,3094.64874 L931.128757,3090.80668 L933.049786,3090.25022 L948.418017,3085.79854 L950.339046,3085.24208 Z M981.075507,3076.33871 L982.188428,3080.18077 L980.267399,3080.73723 L964.899168,3085.18892 L962.97814,3085.74538 L961.865219,3081.90332 L963.786248,3081.34686 L979.154479,3076.89518 L981.075507,3076.33871 Z M1011.81197,3067.43535 L1012.92489,3071.27741 L1011.00386,3071.83387 L995.63563,3076.28555 L993.714601,3076.84201 L992.60168,3072.99995 L994.522709,3072.44349 L1009.89094,3067.99181 L1011.81197,3067.43535 Z M1042.54843,3058.53198 L1043.66135,3062.37404 L1041.74032,3062.9305 L1026.37209,3067.38218 L1024.45106,3067.93864 L1023.33814,3064.09659 L1025.25917,3063.54013 L1040.6274,3059.08844 L1042.54843,3058.53198 Z M1066.60889,3041.15135 L1093,3046 L1073.28642,3064.2037 L1070.504,3054.598 L1057.10855,3058.47882 L1055.18752,3059.03528 L1054.0746,3055.19322 L1055.99563,3054.63676 L1069.391,3050.756 L1066.60889,3041.15135 Z"></path>
        </g>
    </g>
</svg>