<?xml version="1.0" encoding="UTF-8"?>
<svg width="80px" height="80px" viewBox="0 0 80 80" version="1.1" xmlns="http://www.w3.org/2000/svg" xmlns:xlink="http://www.w3.org/1999/xlink">
    <title>编组 18</title>
    <defs>
        <linearGradient x1="0%" y1="50%" x2="100%" y2="50%" id="linearGradient-1">
            <stop stop-color="#D675A3" offset="0%"></stop>
            <stop stop-color="#8D86D7" offset="45.7084176%"></stop>
            <stop stop-color="#8CBFC6" offset="100%"></stop>
        </linearGradient>
    </defs>
    <g id="页面-1" stroke="none" stroke-width="1" fill="none" fill-rule="evenodd">
        <g id="产品中心-元宇宙" transform="translate(-338.000000, -2901.000000)">
            <g id="编组-18" transform="translate(338.000000, 2901.000000)">
                <circle id="椭圆形" fill="url(#linearGradient-1)" cx="40" cy="40" r="40"></circle>
                <g id="编组-29" transform="translate(8.000000, 8.000000)">
                    <rect id="矩形" fill="#D8D8D8" opacity="0" x="0" y="0" width="64" height="64"></rect>
                    <g id="编组" transform="translate(9.142857, 9.142857)" stroke="#FFFFFF" stroke-linecap="round" stroke-linejoin="round" stroke-width="2">
                        <path d="M22.6285714,11.4285714 C29.0666286,11.4285714 34.2857143,16.5453714 34.2857143,22.8571429 C34.2857143,29.1689143 29.0666286,34.2857143 22.6285714,34.2857143 C19.6429714,34.2857143 16.9195429,33.1853714 14.8571429,31.3756571" id="路径"></path>
                        <path d="M22.8571429,0 C35.4808,0 45.7142857,10.2334857 45.7142857,22.8571429 C45.7142857,35.4808 35.4808,45.7142857 22.8571429,45.7142857 C16.6692571,45.7142857 11.0556571,43.2554286 6.94011429,39.2613714 C2.65980571,35.1074286 0,29.2929143 0,22.8571429 C0,16.7229714 2.41637714,11.1531429 6.34921143,7.04765714" id="路径"></path>
                        <polyline id="路径" points="6.34932571 7.048 22.8572571 22.8574857 6.94022857 39.2616"></polyline>
                    </g>
                </g>
            </g>
        </g>
    </g>
</svg>