<?xml version="1.0" encoding="UTF-8"?>
<svg width="15px" height="163px" viewBox="0 0 15 163" version="1.1" xmlns="http://www.w3.org/2000/svg" xmlns:xlink="http://www.w3.org/1999/xlink">
    <title>直线 10</title>
    <defs>
        <linearGradient x1="100%" y1="4.31351455%" x2="100%" y2="97.3979347%" id="linearGradient-1">
            <stop stop-color="#D675A3" offset="0%"></stop>
            <stop stop-color="#8D86D7" offset="45.7084176%"></stop>
            <stop stop-color="#8CBFC6" offset="100%"></stop>
        </linearGradient>
    </defs>
    <g id="页面-1" stroke="none" stroke-width="1" fill="none" fill-rule="evenodd">
        <g id="产品中心-元宇宙" transform="translate(-368.000000, -2714.000000)" fill="url(#linearGradient-1)" fill-rule="nonzero">
            <g id="编组-5" transform="translate(24.000000, 2297.000000)">
                <path id="直线-10" d="M352.478439,557.25924 L352.478,565.092 L358.478439,565.092916 L351.478439,579.092916 L344.478439,565.092916 L350.478,565.092 L350.478439,557.25924 L352.478439,557.25924 Z M352.478439,525.25924 L352.478439,543.25924 L350.478439,543.25924 L350.478439,525.25924 L352.478439,525.25924 Z M352.478439,493.25924 L352.478439,511.25924 L350.478439,511.25924 L350.478439,493.25924 L352.478439,493.25924 Z M352.478439,461.25924 L352.478439,479.25924 L350.478439,479.25924 L350.478439,461.25924 L352.478439,461.25924 Z M351.478439,417.25924 L358.478439,431.25924 L352.478,431.259 L352.478439,447.25924 L350.478439,447.25924 L350.478,431.259 L344.478439,431.25924 L351.478439,417.25924 Z"></path>
            </g>
        </g>
    </g>
</svg>