<?xml version="1.0" encoding="UTF-8"?>
<svg width="168px" height="156px" viewBox="0 0 168 156" version="1.1" xmlns="http://www.w3.org/2000/svg" xmlns:xlink="http://www.w3.org/1999/xlink">
    <title>直线 10备份 2</title>
    <defs>
        <linearGradient x1="0%" y1="50%" x2="100%" y2="50%" id="linearGradient-1">
            <stop stop-color="#D675A3" offset="0%"></stop>
            <stop stop-color="#8D86D7" offset="45.7084176%"></stop>
            <stop stop-color="#8CBFC6" offset="100%"></stop>
        </linearGradient>
    </defs>
    <g id="页面-1" stroke="none" stroke-width="1" fill="none" fill-rule="evenodd">
        <g id="产品中心-元宇宙" transform="translate(-143.000000, -3012.000000)" fill="url(#linearGradient-1)" fill-rule="nonzero">
            <g id="编组-5" transform="translate(24.000000, 2297.000000)">
                <path id="直线-10备份-2" d="M136.869402,853.042343 L138.230304,854.50793 L137.497511,855.188381 L129.939,862.206 L134.022267,866.603239 L119,871 L124.495951,856.34413 L128.578,860.741 L136.136608,853.722794 L136.869402,853.042343 Z M160.318794,831.267908 L161.679696,832.733495 L160.946902,833.413946 L149.222206,844.301164 L148.489413,844.981615 L147.128511,843.516028 L147.861304,842.835577 L159.586,831.948359 L160.318794,831.267908 Z M183.768185,809.493473 L185.129087,810.95906 L184.396294,811.639511 L172.671598,822.526728 L171.938805,823.20718 L170.577902,821.741593 L171.310696,821.061141 L183.035392,810.173924 L183.768185,809.493473 Z M207.217577,787.719038 L208.578479,789.184625 L207.845686,789.865076 L196.12099,800.752293 L195.388196,801.432744 L194.027294,799.967157 L194.760088,799.286706 L206.484784,788.399489 L207.217577,787.719038 Z M230.666969,765.944602 L232.027871,767.410189 L231.295077,768.09064 L219.570382,778.977858 L218.837588,779.658309 L217.476686,778.192722 L218.209479,777.512271 L229.934175,766.625053 L230.666969,765.944602 Z M254.11636,744.170167 L255.477263,745.635754 L254.744469,746.316205 L243.019773,757.203423 L242.28698,757.883874 L240.926078,756.418287 L241.658871,755.737836 L253.383567,744.850618 L254.11636,744.170167 Z M287,715 L281.504049,729.65587 L277.421,725.258 L266.469165,735.428988 L265.736372,736.109439 L264.375469,734.643852 L265.108263,733.963401 L276.06,723.793 L271.977733,719.396761 L287,715 Z"></path>
            </g>
        </g>
    </g>
</svg>