<?xml version="1.0" encoding="UTF-8"?>
<svg width="165px" height="156px" viewBox="0 0 165 156" version="1.1" xmlns="http://www.w3.org/2000/svg" xmlns:xlink="http://www.w3.org/1999/xlink">
    <title>直线 10备份</title>
    <defs>
        <linearGradient x1="0%" y1="50%" x2="100%" y2="50%" id="linearGradient-1">
            <stop stop-color="#D675A3" offset="0%"></stop>
            <stop stop-color="#8D86D7" offset="45.7084176%"></stop>
            <stop stop-color="#8CBFC6" offset="100%"></stop>
        </linearGradient>
    </defs>
    <g id="页面-1" stroke="none" stroke-width="1" fill="none" fill-rule="evenodd">
        <g id="产品中心-元宇宙" transform="translate(-439.000000, -3012.000000)" fill="url(#linearGradient-1)" fill-rule="nonzero">
            <g id="编组-5" transform="translate(24.000000, 2297.000000)">
                <path id="直线-10备份" d="M564.294155,854.7852 L565.021035,855.471964 L570.51,860.658 L574.63103,856.297138 L580,871 L565.016328,866.473459 L569.137,862.112 L563.647507,856.925725 L562.920626,856.23896 L564.294155,854.7852 Z M541.033993,832.808739 L541.760873,833.495503 L553.390954,844.483734 L554.117834,845.170498 L552.744305,846.624258 L552.017425,845.937494 L540.387344,834.949264 L539.660464,834.262499 L541.033993,832.808739 Z M517.77383,810.832278 L518.50071,811.519042 L530.130792,822.507273 L530.857672,823.194037 L529.484143,824.647797 L528.757263,823.961033 L517.127181,812.972803 L516.400301,812.286038 L517.77383,810.832278 Z M494.513668,788.855817 L495.240548,789.542581 L506.870629,800.530812 L507.597509,801.217576 L506.22398,802.671336 L505.4971,801.984572 L493.867019,790.996342 L493.140139,790.309577 L494.513668,788.855817 Z M471.253505,766.879356 L471.980385,767.56612 L483.610466,778.554351 L484.337346,779.241115 L482.963818,780.694875 L482.236938,780.008111 L470.606856,769.019881 L469.879976,768.333116 L471.253505,766.879356 Z M447.993342,744.902895 L448.720223,745.589659 L460.350304,756.57789 L461.077184,757.264654 L459.703655,758.718414 L458.976775,758.03165 L447.346694,747.04342 L446.619814,746.356655 L447.993342,744.902895 Z M415.355236,715.441791 L430.338908,719.968332 L426.218,724.329 L437.090141,734.601429 L437.817021,735.288193 L436.443493,736.741954 L435.716612,736.055189 L424.844,725.783 L420.724206,730.144653 L415.355236,715.441791 Z"></path>
            </g>
        </g>
    </g>
</svg>