<?xml version="1.0" encoding="UTF-8"?>
<svg width="80px" height="80px" viewBox="0 0 80 80" version="1.1" xmlns="http://www.w3.org/2000/svg" xmlns:xlink="http://www.w3.org/1999/xlink">
    <title>编组 14</title>
    <defs>
        <linearGradient x1="0%" y1="56.5726299%" x2="100%" y2="56.5726299%" id="linearGradient-1">
            <stop stop-color="#0CEC87" offset="0%"></stop>
            <stop stop-color="#00E077" offset="100%"></stop>
        </linearGradient>
    </defs>
    <g id="页面-1" stroke="none" stroke-width="1" fill="none" fill-rule="evenodd">
        <g id="首页5-核心技术" transform="translate(-942.000000, -569.000000)">
            <g id="编组-14" transform="translate(942.000000, 569.000000)">
                <rect id="矩形备份-4" fill="#D8D8D8" opacity="0" x="0" y="0" width="80" height="80"></rect>
                <g id="编组-13" transform="translate(10.000000, 3.333333)">
                    <path d="M30.9770115,16.8458418 L55.4012386,67.5987843 C56.3592036,69.5894119 55.5220651,71.9797185 53.5314375,72.9376834 C52.9902867,73.1981056 52.3974415,73.3333333 51.7968885,73.3333333 L10.1571345,73.3333333 C7.94799549,73.3333333 6.15713449,71.5424723 6.15713449,69.3333333 C6.15713449,68.7327804 6.29236223,68.1399351 6.55278437,67.5987843 L30.9770115,16.8458418 L30.9770115,16.8458418 Z" id="矩形" fill="url(#linearGradient-1)"></path>
                    <circle id="椭圆形" fill-opacity="0.310178103" fill="#F0FFD6" cx="30.6609195" cy="30.6609195" r="30.6609195"></circle>
                    <path d="M40.4548155,37.7999766 C40.4511751,41.3126847 38.5647723,44.5430395 35.5340129,46.2269542 C32.606364,47.8626346 29.0468734,47.8041225 26.1727404,46.0730706 C23.2987896,44.3422584 21.5373639,41.1966449 21.5401178,37.7999766 L21.4991882,37.7999766 C21.4442342,36.9633986 21.8515149,36.1652054 22.5557823,35.7292518 C23.2602719,35.2933145 24.1450238,35.2933145 24.8495134,35.7292518 C25.5542221,36.1647459 25.961542,36.9633135 25.905714,37.7999766 C25.9072882,39.6753954 26.9164591,41.3963302 28.5313096,42.292617 C28.5366226,42.3057242 28.5416404,42.3190314 28.5472485,42.3320385 C30.1172018,43.2248119 32.0359729,43.1993426 33.5824769,42.2652021 C35.1291442,41.331495 36.0682625,39.6298706 36.0487815,37.7999766 C35.9930444,36.9633327 36.4003412,36.1648103 37.1049821,35.7292518 C37.8095085,35.2933195 38.6942853,35.2933195 39.3988117,35.7292518 C40.1028358,36.1653761 40.5098679,36.9635281 40.4548155,37.7999766 L40.4548155,37.7999766 Z" id="路径" fill="#FFFFFF" fill-rule="nonzero"></path>
                    <polyline id="路径" stroke="#FFFFFF" stroke-width="4" stroke-linecap="round" stroke-linejoin="round" points="44.6185486 17.2301104 40.0631057 21.7855533 44.6185486 26.3409962"></polyline>
                    <polyline id="路径" stroke="#FFFFFF" stroke-width="4" stroke-linecap="round" stroke-linejoin="round" points="15.7674104 17.2301104 20.3228533 21.7855533 15.7674104 26.3409962"></polyline>
                </g>
            </g>
        </g>
    </g>
</svg>