<?xml version="1.0" encoding="UTF-8"?>
<svg width="80px" height="80px" viewBox="0 0 80 80" version="1.1" xmlns="http://www.w3.org/2000/svg" xmlns:xlink="http://www.w3.org/1999/xlink">
    <title>编组 8</title>
    <g id="页面-1" stroke="none" stroke-width="1" fill="none" fill-rule="evenodd">
        <g id="首页5-核心技术" transform="translate(-1061.000000, -569.000000)">
            <g id="编组-8" transform="translate(1061.000000, 569.000000)">
                <rect id="矩形" fill="#D8D8D8" opacity="0" x="0" y="0" width="80" height="80"></rect>
                <rect id="矩形" fill="#1677FF" x="6" y="6" width="56" height="56" rx="8"></rect>
                <rect id="矩形" stroke-opacity="0.189912383" stroke="#FFFFFF" stroke-width="0.5" fill-opacity="0.36" fill="#9AD3FF" x="15.25" y="17.25" width="58.5" height="58.5" rx="8"></rect>
                <g id="动作" transform="translate(32.000000, 23.000000)" fill="#FFFFFF" fill-rule="nonzero">
                    <path d="M27.0604506,24.6382853 C26.3939276,22.8104662 24.086421,16.7836596 22.7534183,15.2524974 C20.7027032,12.9307718 18.0872592,11.8440732 14.2932034,11.8440732 L10.8066304,11.8440732 C7.67907605,11.8440732 6.03815749,10.0162541 5.57671682,8.88021702 C4.44877478,6.36092884 3.47435758,1.42082085 3.47435758,1.37158666 C3.26924276,0.433206055 2.34641555,-0.159679921 1.42364246,0.0379869843 C0.449647516,0.235601735 -0.16574025,1.12468557 0.0394287036,2.01371725 C-0.0121677696,2.2606392 1.01342365,7.34863751 2.29531278,10.2138167 C3.21812917,12.2886412 5.52561405,14.4126999 8.80712636,15.0548305 C10.0378153,17.6732129 10.0890263,23.2549299 9.98627943,26.0709792 C8.44810775,27.5529073 7.01224988,29.7760602 5.62803612,32.591588 C4.85873375,34.172506 3.73084584,41.2860111 3.26940517,44.3483357 C3.11545808,45.4350343 3.78199192,46.5713843 4.85878788,46.8676239 C5.0639027,46.9169269 5.26902835,46.9662289 5.47414317,46.9662289 C6.6020852,46.9662289 7.5765024,46.1757594 7.73002724,45.0890713 C8.39655026,40.643287 9.3709458,35.3079495 9.72963959,34.4682563 C11.2166002,31.3560718 12.5497112,29.7258153 13.4724843,28.9353563 C12.8059613,31.1584049 12.4984894,33.9246984 12.857129,36.7402262 C13.4724843,41.3836774 15.7284117,45.632212 15.7795145,45.7801231 C16.3436912,46.8668217 17.7279158,47.3113897 18.8558578,46.7682178 C19.9837999,46.2246703 20.4452405,44.8910602 19.8814536,43.8043616 C19.8814536,43.7550586 17.9330522,40.0500464 17.3688647,36.1474028 C17.0098028,33.5787761 17.5228118,30.7628311 18.2405134,28.9349077 C19.0609835,26.810849 19.5224133,24.538462 19.5735161,22.3153091 C19.6246903,20.2898231 19.4711687,18.1164259 19.0093393,16.4861694 C19.4195798,16.7823881 19.7270409,17.0790241 20.0349351,17.474264 C20.6502904,18.2154367 22.4447771,22.3646163 23.726677,25.8226918 C23.9829704,26.5141505 24.6494934,26.9587289 25.3675956,26.9587289 C25.5727104,26.9587289 25.7778361,26.9094259 25.9829509,26.8601239 C26.9066118,26.4661148 27.3684639,25.5273587 27.0605589,24.6382227 L27.0604506,24.6382853 Z" id="路径"></path>
                    <path d="M17.7555556,4.70020894 C17.7555556,7.29602134 15.6510546,9.4 13.0557645,9.4 C10.4599521,9.4 8.35555556,7.29591687 8.35555556,4.70020894 C8.35555556,2.104501 10.4600566,0 13.0557645,0 C15.651159,0 17.7555556,2.104501 17.7555556,4.70020894" id="路径"></path>
                </g>
            </g>
        </g>
    </g>
</svg>