<?xml version="1.0" encoding="UTF-8"?>
<svg width="80px" height="80px" viewBox="0 0 80 80" version="1.1" xmlns="http://www.w3.org/2000/svg" xmlns:xlink="http://www.w3.org/1999/xlink">
    <title>编组 12</title>
    <defs>
        <linearGradient x1="50%" y1="0%" x2="50%" y2="100%" id="linearGradient-1">
            <stop stop-color="#84C0FF" offset="0%"></stop>
            <stop stop-color="#9192FF" offset="100%"></stop>
        </linearGradient>
    </defs>
    <g id="页面-1" stroke="none" stroke-width="1" fill="none" fill-rule="evenodd">
        <g id="首页5-核心技术" transform="translate(-1501.000000, -569.000000)">
            <g id="编组-12" transform="translate(1501.000000, 569.000000)">
                <rect id="矩形" fill="#D8D8D8" opacity="0" x="0" y="0" width="80" height="80"></rect>
                <g id="录像" transform="translate(4.000000, 9.000000)" fill-rule="nonzero">
                    <g id="编组-14">
                        <path d="M72,11.6020062 L72,30.924122 C72,33.6855458 69.7614237,35.924122 67,35.924122 C66.603981,35.924122 66.2093643,35.8770733 65.8244462,35.783965 L19.1183891,24.4861755 C16.9711754,23.9667832 15.6515654,21.8050719 16.1709578,19.6578581 C16.5326104,18.1627542 17.7195636,17.0074863 19.2239034,16.6864098 L65.9563391,6.71214198 C68.6569365,6.13574399 71.3134662,7.85774787 71.8898642,10.5583453 C71.9630848,10.9014057 72,11.251219 72,11.6020062 Z" id="路径" fill="url(#linearGradient-1)"></path>
                        <path d="M46.7660402,0 C51.6858276,0 55.6738574,3.68663908 55.6738574,8.23415947 L55.6738574,41.5825047 C55.6738574,44.2733307 54.2776802,46.6626241 52.1184155,48.1651735 L57.1781339,55.8061931 C58.1947975,57.3411972 57.7826902,59.4151127 56.257916,60.4383751 C55.7142171,60.8047711 55.074627,61.0002525 54.4203568,61 C53.3479491,61 52.2958922,60.4775672 51.6566069,59.5119836 L45.236,49.816 L12.5,49.816 L6.07929735,59.5122057 C5.44001105,60.4775681 4.38773391,60.9999995 3.31554782,60.9999995 C2.6613131,60.9999995 2.02175241,60.8048272 1.47798853,60.4385977 C-0.046785353,59.4153346 -0.458892364,57.3414199 0.557549798,55.8064155 L5.05792079,49.010033 C2.06584708,47.6824633 0,44.8555522 0,41.5825047 L0,8.23415947 C0,3.68663908 3.98825245,0 8.90781718,0 L46.7660402,0 Z" id="形状结合" fill-opacity="0.599198775" fill="#C9DCFF"></path>
                        <path d="M12.1644583,37.2777778 C10.3282763,37.2777778 8.83665619,35.6327244 8.83018868,33.5973991 C8.82376291,31.5576413 10.3116039,29.8983069 12.1531212,29.89092 L29.9369669,29.8222222 L29.9487493,29.8222222 C31.7849309,29.8222222 33.2765518,31.4672755 33.2830189,33.5026009 C33.2894426,35.5423585 31.8016028,37.2016931 29.9600856,37.2090801 L12.1762404,37.2777778 L12.1644583,37.2777778 Z" id="路径" fill="#FFFFFF"></path>
                    </g>
                </g>
            </g>
        </g>
    </g>
</svg>