<?xml version="1.0" encoding="UTF-8"?>
<svg width="80px" height="80px" viewBox="0 0 80 80" version="1.1" xmlns="http://www.w3.org/2000/svg" xmlns:xlink="http://www.w3.org/1999/xlink">
    <title>编组 16</title>
    <defs>
        <linearGradient x1="50%" y1="0%" x2="50%" y2="100%" id="linearGradient-1">
            <stop stop-color="#FFFFFF" offset="0%"></stop>
            <stop stop-color="#CFF8F2" offset="0%"></stop>
            <stop stop-color="#00DBB0" offset="100%"></stop>
        </linearGradient>
        <path d="M42.7538012,0 L42.7777778,5.60014564 C42.7777778,16.3977344 33.5545914,25.2300346 22.1132965,25.5875164 C22.2724582,25.7737195 22.3673469,26.0086058 22.3673469,26.2636805 L22.3673469,26.2636805 L22.3673469,37.4940791 L32.0231823,37.4940791 C32.6847557,37.4940791 33.2210402,37.9970824 33.2210402,38.6081506 C33.2210402,39.2192189 32.6849064,39.7222222 32.0233331,39.7222222 L32.0233331,39.7222222 L10.299362,39.7222222 C9.63778861,39.7222222 9.10165485,39.2192189 9.10165485,38.6081506 C9.10165485,37.9970824 9.63778861,37.4940791 10.299362,37.4940791 L10.299362,37.4940791 L19.9550466,37.4940791 L19.9550466,26.2636805 C19.9550466,26.000736 20.0558808,25.7592448 20.2234817,25.5694311 C8.9716559,25.0223798 0,16.2626209 0,5.59127733 L0,5.59127733 L0,0 L42.7538012,0 Z" id="path-2"></path>
        <filter x="-19.4%" y="-11.5%" width="138.8%" height="123.0%" filterUnits="objectBoundingBox" id="filter-4">
            <feGaussianBlur stdDeviation="2" in="SourceGraphic"></feGaussianBlur>
        </filter>
    </defs>
    <g id="页面-1" stroke="none" stroke-width="1" fill="none" fill-rule="evenodd">
        <g id="首页5-核心技术" transform="translate(-1361.000000, -569.000000)">
            <g id="编组-16" transform="translate(1361.000000, 569.000000)">
                <rect id="矩形备份-7" fill="#D8D8D8" opacity="0" x="0" y="0" width="80" height="80"></rect>
                <g id="microphone" transform="translate(18.333333, 3.333333)">
                    <path d="M36.6666667,38.3993037 C36.6666667,46.70508 29.8309719,53.4722222 21.3917679,53.4722222 L21.3917679,53.4722222 C12.9525638,53.4722222 6.11111111,46.7389361 6.11111111,38.4331597 L6.11111111,15.0390625 C6.11111111,6.73328616 12.9525638,0 21.3917679,0 L21.3917679,0 C29.8309719,0 36.6666667,6.73328616 36.6666667,15.0390625 L36.6666667,38.3993037 Z" id="Shape" fill="#00DBB0" fill-rule="nonzero"></path>
                    <g id="Shape" transform="translate(0.000000, 33.611111)">
                        <mask id="mask-3" fill="white">
                            <use xlink:href="#path-2"></use>
                        </mask>
                        <use id="蒙版" stroke="url(#linearGradient-1)" stroke-width="0.5" fill="#E4F5F1" fill-rule="nonzero" xlink:href="#path-2"></use>
                        <path d="M36.8617021,4.73920892 C36.8617021,12.8287714 29.9387432,19.4197531 21.3918046,19.4197531 C12.844866,19.4197531 5.91607565,12.8617461 5.91607565,4.77218364 L5.91607565,-18.0129244 C5.91607565,-26.1024869 12.844866,-32.6604938 21.3918046,-32.6604938 C29.9387432,-32.6604938 36.8617021,-26.1024869 36.8617021,-18.0129244 L36.8617021,4.73920892 Z" fill="#00D69F" fill-rule="nonzero" filter="url(#filter-4)" mask="url(#mask-3)"></path>
                    </g>
                </g>
            </g>
        </g>
    </g>
</svg>