<?xml version="1.0" encoding="UTF-8"?>
<svg width="80px" height="80px" viewBox="0 0 80 80" version="1.1" xmlns="http://www.w3.org/2000/svg" xmlns:xlink="http://www.w3.org/1999/xlink">
    <title>编组 7</title>
    <defs>
        <linearGradient x1="99.7396685%" y1="94.9996819%" x2="0.260331481%" y2="0%" id="linearGradient-1">
            <stop stop-color="#FF6818" offset="0%"></stop>
            <stop stop-color="#FFC858" offset="100%"></stop>
        </linearGradient>
    </defs>
    <g id="页面-1" stroke="none" stroke-width="1" fill="none" fill-rule="evenodd">
        <g id="首页5-核心技术" transform="translate(-603.000000, -569.000000)">
            <g id="编组-7" transform="translate(603.000000, 569.000000)">
                <rect id="矩形" fill="#D8D8D8" opacity="0" x="0" y="0" width="80" height="80"></rect>
                <g id="三维建模" transform="translate(5.000000, 9.000000)">
                    <path d="M47.5694567,38.1453394 C47.5694567,24.9825398 36.9242173,14.3062194 23.7769581,14.3062194 C10.6452394,14.3062194 0,24.9825398 0,38.1453394 C0,51.3236796 10.6452394,62 23.7769581,62 C36.9242173,62 47.5694567,51.3236796 47.5694567,38.1453394 Z" id="路径" fill="url(#linearGradient-1)"></path>
                    <path d="M71.3572255,30.3972092 C71.3572255,13.613474 57.7748325,0 41.0221783,0 C24.2850647,0 10.7026717,13.613474 10.7026717,30.3972092 C10.7026717,47.1809443 24.2850647,60.7944183 41.0221783,60.7944183 C57.7748325,60.7944183 71.3572255,47.1809443 71.3572255,30.3972092 Z" id="路径" fill-opacity="0.28" fill="#FFF4E8"></path>
                    <g id="人头网格" transform="translate(23.000000, 9.000000)" fill="#FFFFFF" fill-rule="nonzero">
                        <path d="M35.8252405,17.5211999 C35.3996685,17.093789 34.8539825,16.8052924 34.2604544,16.6939832 C34.2604544,11.2004433 32.8515982,6.97796623 30.0646374,4.14406145 C27.3947384,1.43313701 23.3962344,0 18.5002191,0 C13.6051183,0 9.60661437,1.43313701 6.93580076,4.14816459 C4.14883996,6.98195539 2.73998377,11.2004433 2.73998377,16.6980864 C2.14695866,16.8085008 1.60171852,17.0952251 1.17565498,17.5213024 C0.174034144,18.5266069 -0.189874643,20.2402052 0.0927539798,22.6154697 C0.796519027,28.4585747 3.67948416,29.6325297 4.87445119,29.8645853 C7.14698057,36.6804774 10.6618047,39.6126296 13.2348763,40.8730927 C15.8445298,42.1508801 18.0125724,42.0199214 18.495795,41.9714473 C18.7074664,41.9914821 18.9195722,42.0008315 19.1321352,42 C20.7393333,41.9785709 22.3210384,41.5930121 23.756645,40.8730927 C28.3462879,38.6246838 30.8242469,33.7317985 32.1170702,29.8645853 C33.3164956,29.6361884 36.1994836,28.4581187 36.9072269,22.6191169 C37.1899013,20.2403192 36.8259536,18.5266867 35.8243259,17.5213024 L35.8252405,17.5211999 Z M35.1844384,18.6379039 C35.7117307,19.1272072 35.9870888,19.9676625 36,21.1020558 C35.2929662,21.5145315 33.8176955,22.2729291 31.4852291,23 L31.4857072,16.9077454 C31.4847511,15.1539628 31.3222179,13.4035865 31,11.6738674 C31.4331199,11.4725686 31.8523617,11.2472283 32.2548985,11 C32.8462452,12.8794844 33.1153863,15.0441055 33.0632886,17.494083 L33.0384305,18.2383391 L33.861641,18.1537837 C34.3592925,18.1396192 34.8402146,18.3156029 35.1844611,18.6379336 L35.1844384,18.6379039 Z M28.167677,34.7803387 C26.8700886,35.6941889 25.4708896,36.4394622 24,37 C24.3717117,35.7151388 24.6448753,34.4011874 24.816745,33.0709796 C24.9001619,32.4803737 24.9693721,31.8740003 25.0294115,31.2576043 C27.1033941,30.8465148 28.8564701,30.3547424 30,30 L30,30.0004774 C29.8189548,30.8713522 29.5870456,31.7302487 29.3051642,32.5720332 C28.9650855,33.3292726 28.5851253,34.0665155 28.1675832,34.780205 L28.167677,34.7803387 Z M21.8050015,39.6913186 C20.8924142,39.91861 19.9466437,40.0214487 19,39.996287 L19,37.6620227 C20.6916827,37.6324523 22.3721019,37.4100103 24,37 C23.6193429,37.8345842 23.0676319,38.5981689 22.3731143,39.2513335 C22.1956439,39.409772 22.0063025,39.5567425 21.8065708,39.6913525 L21.8050015,39.6913186 Z M14.5691692,39.2710857 C13.9360232,38.6860648 13.4215058,37.9166033 13,37 C14.6221656,37.4537779 16.3048304,37.6995414 18,37.7295605 L18,39.9966934 L18,39.9962645 C16.9667731,40.0250011 15.9363567,39.8877522 14.9543159,39.5909519 C14.8198719,39.4905889 14.6914777,39.3837938 14.5691216,39.2709862 L14.5691692,39.2710857 Z M6.12940132,30.5077727 C6.08489201,30.3427778 6.04176059,30.1728303 6,30 C7.64218445,30.4591032 9.31068145,30.8381746 10.9983255,31.1351655 C11.2016016,32.9278823 11.5172934,34.5794162 11.9995412,35.9995874 L12,36 C10.5839389,35.505015 9.24270417,34.8520573 8.00848157,34.055963 C7.26468243,32.9253382 6.63553079,31.7369518 6.12948425,30.5052708 L6.12940132,30.5077727 Z M6.38224036,11.002739 C7.45191269,11.5494218 8.95897064,12.1470734 11,12.5886089 C10.9029929,13.5457543 10.8397664,14.546178 10.8215735,15.5962655 C7.7606946,15.7329362 6.70137708,16.921057 6.58441424,17.0630855 C6.35012269,17.3513111 6.38476809,17.782974 6.66193344,18.0269975 C6.93866421,18.2705707 7.35311179,18.2344862 7.58697097,17.9462583 C7.593467,17.9367862 8.39940265,17.0833829 10.8120413,16.9661112 L10.8120413,18.0883446 C10.0520045,18.2168978 9.20793187,18.5421085 8.08198433,19.04549 C7.66883387,19.232679 7.38994123,19.6440422 7.35876592,20.1126902 C7.32758507,20.5808879 7.54932112,21.0287859 7.93387944,21.2737447 C9.09142358,22.0094179 9.97756957,22.4888393 10.7873294,22.7284404 C10.7873294,23.1533366 10.7894947,23.5768819 10.7938254,24 C9.16898424,23.7207927 7.5666487,23.314845 6.0002335,22.7857137 L6.0002335,16.2607143 C5.99373746,14.4993294 6.12279504,12.739792 6.38610002,11 L6.38224036,11.002739 Z M9.71899117,3.93660037 C10.2254343,3.58298272 10.7624167,3.26979128 11.3231914,3 C12.1825424,3.40596147 13.0783061,3.73829299 14,3.9931927 C12.8600374,6.55025104 12.0999475,9.24511361 11.7412236,12 C9.6031329,11.5693645 8.06720633,10.9902163 7,10.4782709 C7.58637155,7.55780152 8.59615448,5.34084186 9.72301402,3.9314259 L9.71899117,3.93660037 Z M18,1 L18,4 C16.6507956,3.96882306 15.3086903,3.78076436 14,3.43929899 C14.3399388,2.67669341 14.7186169,1.93385135 15.1350551,1.21336993 C16.0846022,1.08073902 17.0412974,1.00947635 17.9999266,1.00007601 L18,1 Z M21.7433298,1.1802027 C22.206317,1.92499578 22.6260493,2.69502534 23,3.48581926 C21.6903715,3.80056588 20.3488327,3.97278716 19,4 L19,1 C19.917326,1.01039244 20.8330891,1.07027323 21.7432516,1.18013936 L21.7433298,1.1802027 Z M26.9555062,3.62090592 C28.2130671,4.99831791 29.3653517,7.35282951 30,10.5457047 C28.482643,11.2084477 26.8854372,11.696792 25.2431295,12 C24.8862722,9.27718371 24.1312179,6.61362489 23,4.08426048 C23.970784,3.81729905 24.9087771,3.45362249 25.7976989,3 C26.1958958,3.18628259 26.5824145,3.39367295 26.9553912,3.62092755 L26.9555062,3.62090592 Z M22,21.1716176 C24.7525738,19.7047008 25.3058291,19.6665796 28,20.7708952 C25.3334581,22.3089146 24.6179102,22.3582794 22,21.1716176 L22,21.1716176 Z M24.9600735,15.8858756 C21.7790786,15.9673903 20.0603372,17.196928 19.9892176,17.2511375 C19.7565052,17.4223693 19.6548249,17.7361313 19.7390575,18.0248402 C19.8228686,18.3135609 20.0726007,18.5102887 20.3555216,18.509834 C20.4831557,18.5102894 20.6082303,18.469304 20.7137443,18.3927999 C20.7290595,18.3818706 22.2121566,17.3440396 24.9689389,17.2679948 C24.9689389,17.6336696 24.9689389,17.9993443 24.9753205,18.3527316 C23.9193853,18.4010025 22.8774562,18.9046653 21.2165471,19.9014895 L21.2165471,19.901034 C20.8310964,20.1332836 20.5979592,20.5754694 20.611998,21.0486187 C20.625612,21.5222227 20.8842782,21.9480058 21.2824825,22.1538501 C22.7242605,22.8965894 23.7325684,23.2813948 24.7149553,23.2813948 C24.8102534,23.2813948 24.9047019,23.2813948 25,23.2690992 C25,23.6971673 25,24.124769 24.9923422,24.5500741 L24.9923422,24.5496186 C23.0068751,24.8456255 21.0047445,24.9958964 19,25 L19,13.5437382 C20.9429914,13.5350859 22.8817351,13.3533873 24.7961915,13 C24.883832,13.9162445 24.9421119,14.8798435 24.9599844,15.8858075 L24.9600735,15.8858756 Z M15,21.1708472 C12.3817528,22.3567777 11.6678896,22.3111897 9,20.770379 C11.6929355,19.6668493 12.2474262,19.7048393 15,21.1708472 Z M11.5933302,23.2797225 C12.6922374,23.2797225 13.8293306,22.8947399 15.4481406,22.1529901 L15.4486185,22.1529901 C15.8958186,21.9473057 16.1858345,21.5218176 16.2016006,21.0485548 C16.2168897,20.5757464 15.9555439,20.1338791 15.5221896,19.9017968 C13.5193175,18.8301318 12.3190619,18.3322535 11.0329428,18.3500773 L11.0329428,17.266122 C14.2972269,17.2879649 16.0563297,18.3832902 16.0711295,18.3928544 C16.4017533,18.6081031 16.8523047,18.5270922 17.0778251,18.2121933 C17.185804,18.0611103 17.2268999,17.8754515 17.1910598,17.695699 C17.1557041,17.5159465 17.0467674,17.3571399 16.8881399,17.2538317 C16.8040499,17.198769 14.782525,15.911804 11.0434225,15.886874 C11.0634892,14.878466 11.1303796,13.9160038 11.2302309,13 L11.2302309,13.000455 C13.465742,13.3722386 15.7309752,13.5565345 18,13.5519911 L18,25 C15.6602784,24.9895337 13.3239815,24.8216222 11.0086001,24.4962503 C11.0086001,24.0825983 11.0014333,23.6684918 11,23.2466035 C11.1968502,23.2698118 11.3951315,23.2807332 11.5938898,23.2798234 L11.5933302,23.2797225 Z M14.1411954,4 C15.4027361,4.34222706 16.6973078,4.52868307 18,4.55577369 L18,12.9998631 C15.9882947,13.0057321 13.9804302,12.8228957 12,12.4522374 C12.2940632,9.90197492 12.8821896,7.39898234 13.751518,4.99908202 C13.8831151,4.64513574 14.0130002,4.31195815 14.1411735,4 L14.1411954,4 Z M18,25.4661632 L18,28.3969566 C17.1651786,28.2839154 16.51614,27.7927503 16.51614,27.2231362 C16.51614,26.8953974 16.2254129,26.6294399 15.8671506,26.6294399 C15.5088882,26.6294399 15.2181611,26.8953974 15.2181611,27.2231362 C15.2181611,28.4447394 16.4361475,29.45547 17.9995095,29.5922007 L17.9995095,31 L18,31 C15.7445264,30.9706438 13.4964209,30.7625215 11.2801947,30.3782622 C11.1116022,28.6769237 11.0321,26.8603903 11,25 C13.3186078,25.3018844 15.6573241,25.4574254 18,25.4661856 L18,25.4661632 Z M19,29.5849736 C20.3924897,29.4510294 21.4774218,28.4272777 21.4774218,27.1947786 C21.4774218,26.8641167 21.2188904,26.595787 20.8997779,26.595787 C20.5802395,26.595787 20.3217081,26.8641167 20.3217081,27.1947786 C20.3217081,27.7694507 19.7436383,28.2667733 19,28.3790687 L19,25.4234926 C21.0068077,25.4186301 23.0111034,25.277168 25,25 C24.9714165,26.8637432 24.9005978,28.6832383 24.7517128,30.3873032 L24.7517128,30.3877452 C22.8532455,30.7502297 20.9300957,30.954903 19.0000655,31 L19,29.5849736 Z M19,13 L19,4.51457148 C20.2782665,4.49006785 21.5493325,4.31763872 22.7890819,4 C22.9163257,4.29993534 23.0462439,4.62029229 23.1748249,4.96289465 L23.1743785,4.96289465 C24.0806973,7.37562003 24.6936915,9.89173132 25,12.4554698 C23.0185954,12.8089568 21.0117033,12.991369 19,13 L19,13 Z M22.8495995,2.9995493 C22.533478,2.17626292 22.2393115,1.50557407 22,1 L22.000422,1.0005021 C23.0285462,1.20633012 24.0347155,1.5471878 25,2.01707353 C24.3078346,2.41567255 23.5882686,2.74448847 22.849665,3 L22.8495995,2.9995493 Z M14.1457848,2.99947135 L14.1457848,3 C13.4132275,2.74623411 12.6963325,2.43325619 12,2.06264972 C12.9655688,1.58366154 13.9709575,1.22733363 15,1 C14.7558142,1.51599063 14.4619853,2.1842408 14.1457963,2.99994586 L14.1457848,2.99947135 Z M10.7602783,24.2345783 C10.7874811,26.2221338 10.8567633,28.1682341 11,30 C9.4077676,29.6468569 7.83468594,29.193629 6.28880705,28.64225 C6.05290465,27.1956674 5.92539984,25.6372885 6.04652832,24.2893283 L6.04652832,24.2534471 L6.04652832,23 C7.58816358,23.5396192 9.16374789,23.95225 10.7602239,24.2350763 L10.7602783,24.2345783 Z M12,31 C13.9795629,31.3582141 15.9866827,31.5514817 18,31.5781139 L18,33.042128 C16.8526791,32.9638921 15.714876,32.7841636 14.6007562,32.5050558 C14.2518897,32.4115962 13.891779,32.6133168 13.7962372,32.9545881 C13.7011292,33.2962816 13.9073393,33.648563 14.2562058,33.7415917 C15.4822134,34.05242 16.7358886,34.2477987 18,34.3247615 L18,37 C16.3140127,36.9632086 14.6439952,36.673528 13.0483482,36.1411002 C12.5373605,34.6837984 12.2083814,32.9305108 12,31 L12,31 Z M19.00129,37 L19.00129,34.3357349 C20.3465505,34.3323458 21.6817906,34.1239173 22.9559873,33.7180681 C23.308715,33.5935218 23.4877798,33.2232557 23.3555112,32.8911214 C23.2232426,32.5589871 22.8300188,32.3903767 22.4772911,32.514923 C21.3552194,32.8652773 20.1818252,33.0461644 19,33.0516738 L19,31.5659894 C21.0129382,31.5253199 23.0190809,31.3359518 25,31 C24.7804507,32.9720917 24.4272623,34.7611163 23.874784,36.2361724 L23.8752339,36.2361724 C22.2974323,36.7076892 20.6561684,36.9648399 19.0014289,37 L19.00129,37 Z M30.9510344,25.1965111 C31.07986,26.5887458 30.9408305,28.196791 30.6933833,29.6848054 C29.1500013,30.2130022 27.5837624,30.6522046 26,31 C26.1454023,29.0929801 26.2100327,27.112227 26.2346855,25.1994506 C27.8311825,24.931047 29.4072171,24.5301197 30.9510344,24 L30.9510344,25.1602201 C30.9510344,25.1721812 30.9514596,25.1846207 30.9523099,25.1965821 L30.9510344,25.1965111 Z M26.2163347,24 L26.2163347,22.7299896 C27.0913084,22.5191482 28.0355408,22.019807 29.3051744,21.21115 C29.6894432,20.9659928 29.9110004,20.5176687 29.8798384,20.048991 C29.8486819,19.5798971 29.5700017,19.1681426 29.1571853,18.9807755 C27.913917,18.4182235 27.0126223,18.0805097 26.1916421,17.9829947 C26.1916421,17.6258749 26.1916421,17.2551976 26.1851511,16.888138 C28.7909962,16.9608276 29.649198,17.8814112 29.6569525,17.8913396 L29.646567,17.8791493 L30.6487699,16.9951456 C30.5293395,16.8488673 29.4197921,15.5963939 26.1778564,15.5188396 C26.1583837,14.4772654 26.0965028,13.479889 26.0008654,12.5300509 L26,12.5300509 C27.5928855,12.2113037 29.144229,11.697515 30.6220156,11 C30.8794872,12.7201803 31.0058413,14.4593158 30.9997928,16.2001849 L30.9997928,22.8370319 C29.4354881,23.3490176 27.8365098,23.7377485 26.2163728,24 L26.2163347,24 Z M32,10.2715112 C31.6425157,10.5379057 31.2695099,10.7812072 30.8832618,11 C30.4764665,8.79052973 29.8537267,6.69923269 29,5 L29.1008988,5.10194042 C30.381068,6.47471954 31.3484706,8.20484962 31.9986652,10.2715272 L32,10.2715112 Z M7,5 C6.4406561,6.46540735 6.00975903,8.18739135 5.71883971,10 L5.71847053,10 C5.47073544,9.82390775 5.23075063,9.63105806 5,9.42236644 C5.41720174,7.79807625 6.09723274,6.29430989 6.99995218,5.00006953 L7,5 Z M3.792252,18.2105147 L4.48486443,18.2946857 L4.47159106,17.5436548 C4.42614075,15.0792047 4.65138034,12.8982086 5.14690517,11 L5.14650288,11.0004338 C5.4212167,11.2099921 5.70598002,11.4035005 6,11.5800928 C5.72046736,13.354679 5.57929041,15.1512573 5.57807541,16.9509457 L5.57807541,23 C3.74960165,22.2949527 2.57558105,21.5799534 2,21.183762 C2.01206661,20.0409494 2.24374159,19.1926978 2.68617705,18.6998745 L2.68657923,18.6998745 C2.97416382,18.3753352 3.37596882,18.1974545 3.79223027,18.2104721 L3.792252,18.2105147 Z M1.05582104,22.6219371 C1.03052721,22.4079709 1.0135184,22.2000407 1.00043608,22 L1,22 C2.22193226,22.7569966 3.51285987,23.3798248 4.85346861,23.8584207 L4.85346861,25.308823 C4.75185565,26.4213447 4.82555787,27.7199817 5,29 L4.90492932,29 C4.85216015,29 1.76273804,28.9396634 1.05581478,22.6218895 L1.05582104,22.6219371 Z M10.0048545,36 C10.9231389,36.6182722 11.8906706,37.1343337 12.894518,37.5416852 C13.162827,38.4152121 13.5348155,39.2424754 14,40 C12.4983087,39.1408091 11.1568157,37.7895765 10,36 L10.0048545,36 Z M23.3990991,39.8189613 C23.2646491,39.8836822 23.1316241,39.944327 23,40 C23.5920366,39.2482345 24.0637892,38.4163601 24.3996908,37.5306897 C25.6489058,37.1337601 26.8546447,36.6209657 28,36 C26.6673349,37.7021696 25.1233274,38.995684 23.3990145,39.8190192 L23.3990991,39.8189613 Z M32.3140201,28.9985602 L32,28.9985602 C32.164407,27.7173043 32.234284,26.4161665 32.1381019,25.3027764 L32.1381019,23.9653272 L32.1385129,23.9648622 C33.4850196,23.4714441 34.7800735,22.8124581 36,22 C35.986436,22.1971767 35.9699953,22.4004133 35.9478012,22.6101502 C35.282776,28.8716601 32.4311216,28.9985714 32.3176939,29 L32.3140201,28.9985602 Z" id="形状"></path>
                    </g>
                </g>
            </g>
        </g>
    </g>
</svg>