<?xml version="1.0" encoding="UTF-8"?>
<svg width="80px" height="80px" viewBox="0 0 80 80" version="1.1" xmlns="http://www.w3.org/2000/svg" xmlns:xlink="http://www.w3.org/1999/xlink">
    <title>编组 20</title>
    <g id="页面-1" stroke="none" stroke-width="1" fill="none" fill-rule="evenodd">
        <g id="首页5-核心技术" transform="translate(-810.000000, -569.000000)">
            <g id="编组-20" transform="translate(810.000000, 569.000000)">
                <rect id="矩形" fill="#D8D8D8" opacity="0" x="0" y="0" width="80" height="80"></rect>
                <g id="音乐" transform="translate(10.000000, 1.666667)" fill-rule="nonzero">
                    <g id="编组-10">
                        <path d="M30,18.3333333 C13.4314575,18.3333333 0,31.7647908 0,48.3333333 C0,64.9018758 13.4314575,78.3333333 30,78.3333333 C46.5685425,78.3333333 60,64.9018758 60,48.3333333 C60,31.7647908 46.5685425,18.3333333 30,18.3333333 L30,18.3333333 Z" id="路径" fill="#F55E55"></path>
                        <path d="M57.6728146,0.0541755969 C58.4139782,-0.107120777 59.1838689,0.0959686641 59.768965,0.607119042 C60.3540612,1.11826942 60.6921542,1.88313425 60.6896413,2.68958573 L60.6896413,2.68958573 L60.6896413,19.75275 C60.6896413,20.4595128 60.4233883,21.1366989 59.9506991,21.6322385 C59.4780099,22.1277781 58.8384327,22.4001392 58.1755917,22.3881602 L58.1755917,22.3881602 L47.952457,22.3881602 L47.9523199,41.885755 C48.4926338,43.5747859 48.785825,45.3709919 48.7903743,47.2338071 C48.8080822,54.5220764 44.3389833,61.1023726 37.4688469,63.9035336 C30.5987104,66.7046946 22.6820134,65.1744595 17.4136441,60.0270211 C12.1452748,54.8795826 10.5639148,47.1297805 13.4076179,40.3946096 C16.2513211,33.6594386 22.9594392,29.2667461 30.4011529,29.2667461 C32.7268343,29.2667461 34.9518664,29.6896276 37.0003488,30.4612328 L36.8913604,22.3881602 L36.8913604,10.3724765 C36.8987016,7.19695507 38.9696615,4.45103184 41.8772335,3.761617 L41.8772335,3.761617 Z" id="形状结合" fill-opacity="0.323672421" fill="#FFE8E7"></path>
                        <path d="M29.9996895,53.3333333 C27.9717912,53.3331769 26.1448318,52.1081529 25.3747196,50.2321705 C24.6046074,48.356188 25.0438872,46.2008439 26.4867618,44.7758909 C27.9296363,43.3509379 30.0902992,42.9386324 31.956506,43.7321346 C33.8227128,44.5256368 35.0248029,46.3677687 34.9996116,48.3955138 C34.9490957,51.1255624 32.7301516,53.3169456 29.9996895,53.3333333 L29.9996895,53.3333333 Z" id="路径" fill="#FFFFFF"></path>
                    </g>
                </g>
            </g>
        </g>
    </g>
</svg>