<?xml version="1.0" encoding="UTF-8"?>
<svg width="80px" height="80px" viewBox="0 0 80 80" version="1.1" xmlns="http://www.w3.org/2000/svg" xmlns:xlink="http://www.w3.org/1999/xlink">
    <title>原画生成</title>
    <defs>
        <linearGradient x1="10.1244083%" y1="19.9525992%" x2="168.582648%" y2="139.851163%" id="linearGradient-1">
            <stop stop-color="#FFFFFF" stop-opacity="0.59" offset="0%"></stop>
            <stop stop-color="#FFFFFF" stop-opacity="0" offset="100%"></stop>
        </linearGradient>
    </defs>
    <g id="页面-1" stroke="none" stroke-width="1" fill="none" fill-rule="evenodd">
        <g id="首页5-核心技术" transform="translate(-470.000000, -569.000000)">
            <g id="原画生成" transform="translate(470.000000, 569.000000)">
                <path d="M0,0 L80,0 L80,80 L0,80 L0,0 Z" id="矩形备份" fill-opacity="0" fill="#D8D8D8"></path>
                <g id="编组" transform="translate(6.000000, 6.000000)">
                    <path d="M41.1816839,42.7727944 C46.1422049,37.1727094 63.3636364,39.7309655 63.3636364,31.6818182 C63.3636364,14.1796025 49.1684347,0 31.6818182,0 C14.1796025,0 0,14.1796025 0,31.6818182 C0,49.1684347 14.1796025,63.3636364 31.6818182,63.3636364 C41.1192874,63.3636364 35.3788103,49.3244259 41.1816839,42.7727944 Z" id="路径" fill="#6EEDB7"></path>
                    <path d="M45.8180475,47.4091581 C50.7785686,41.809073 68,44.3673291 68,36.3181818 C68,18.8159662 53.8047984,4.63636364 36.3181818,4.63636364 C18.8159662,4.63636364 4.63636364,18.8159662 4.63636364,36.3181818 C4.63636364,53.8047984 18.8159662,68 36.3181818,68 C45.755651,68 40.0151739,53.9607896 45.8180475,47.4091581 Z" id="路径" stroke="url(#linearGradient-1)" stroke-width="0.3" fill-opacity="0.3" fill="#FFFFFF" stroke-linejoin="round" stroke-dasharray="0,0"></path>
                    <path d="M49.4545455,20.8556466 C49.4545455,17.8674634 47.0256479,15.4545455 44.0374648,15.4545455 C41.0492816,15.4545455 38.6363636,17.8674634 38.6363636,20.8556466 C38.6363636,23.8438297 41.0492816,26.2727273 44.0374648,26.2727273 C47.0256479,26.2727273 49.4545455,23.8438297 49.4545455,20.8556466 Z" id="路径" fill-opacity="0.87" fill="#FFFFFF"></path>
                    <path d="M29.3636364,28.5829193 C29.3636364,25.5947361 26.9347388,23.1818182 23.9465557,23.1818182 C20.9583725,23.1818182 18.5454545,25.5947361 18.5454545,28.5829193 C18.5454545,31.5711025 20.9583725,34 23.9465557,34 C26.9347388,34 29.3636364,31.5711025 29.3636364,28.5829193 Z" id="路径" fill-opacity="0.87" fill="#FFFFFF"></path>
                    <path d="M30.9090909,47.1283738 C30.9090909,44.1401907 28.4801934,41.7272727 25.4920102,41.7272727 C22.503827,41.7272727 20.0909091,44.1401907 20.0909091,47.1283738 C20.0909091,50.116557 22.503827,52.5454545 25.4920102,52.5454545 C28.4801934,52.5454545 30.9090909,50.116557 30.9090909,47.1283738 Z" id="路径" fill-opacity="0.87" fill="#FFFFFF"></path>
                </g>
            </g>
        </g>
    </g>
</svg>