<?xml version="1.0" encoding="UTF-8"?>
<svg width="80px" height="80px" viewBox="0 0 80 80" version="1.1" xmlns="http://www.w3.org/2000/svg" xmlns:xlink="http://www.w3.org/1999/xlink">
    <title>智能绑骨</title>
    <defs>
        <linearGradient x1="34.1899712%" y1="-3.07891625%" x2="80.0897316%" y2="85.3277899%" id="linearGradient-1">
            <stop stop-color="#21BAFF" offset="0%"></stop>
            <stop stop-color="#2980FF" offset="100%"></stop>
        </linearGradient>
        <radialGradient cx="68.0143607%" cy="30.0806567%" fx="68.0143607%" fy="30.0806567%" r="85.4420466%" gradientTransform="translate(0.680144,0.300807),scale(1.000000,0.763158),rotate(102.171418),translate(-0.680144,-0.300807)" id="radialGradient-2">
            <stop stop-color="#9FCEFF" offset="0%"></stop>
            <stop stop-color="#E6F1FF" offset="100%"></stop>
        </radialGradient>
        <rect id="path-3" x="0" y="8.29545455" width="48.1136364" height="63.0454545" rx="6"></rect>
        <mask id="mask-4" maskContentUnits="userSpaceOnUse" maskUnits="objectBoundingBox" x="0" y="0" width="48.1136364" height="63.0454545" fill="white">
            <use xlink:href="#path-3"></use>
        </mask>
    </defs>
    <g id="页面-1" stroke="none" stroke-width="1" fill="none" fill-rule="evenodd">
        <g id="首页5-核心技术" transform="translate(-338.000000, -569.000000)">
            <g id="智能绑骨" transform="translate(338.000000, 569.000000)">
                <path d="M0,0 L80,0 L80,80 L0,80 L0,0 Z" id="矩形备份-3" fill="#D8D8D8" opacity="0"></path>
                <g id="添加" transform="translate(9.000000, 4.000000)">
                    <path d="M23.722648,1.55291427 L59.5133224,11.1429966 C62.714119,12.0006474 64.613614,15.2906692 63.7559631,18.4914658 L50.7033597,67.204445 C49.8457088,70.4052417 46.555687,72.3047366 43.3548904,71.4470857 L7.56421601,61.8570034 C4.36341939,60.9993526 2.46392445,57.7093308 3.32157532,54.5085342 L16.3741788,5.79555496 C17.2318296,2.59475834 20.5218514,0.695263401 23.722648,1.55291427 Z" id="矩形备份-8" fill="url(#linearGradient-1)"></path>
                    <g id="矩形" stroke-dasharray="0,0" fill="url(#radialGradient-2)" fill-opacity="0.3" stroke="#FFFFFF" stroke-opacity="0.46">
                        <use mask="url(#mask-4)" xlink:href="#path-3"></use>
                    </g>
                </g>
                <g id="骨骼" transform="translate(15.000000, 18.000000)" fill="#FFFFFF" fill-rule="nonzero">
                    <path d="M18.4995366,0 C19.9487674,0 21.2626075,0.580630704 22.2133326,1.51597415 C23.1673588,2.45224808 23.7564519,3.74735714 23.7564519,5.17687919 C23.7564519,6.60404559 23.1668445,7.8978826 22.2170403,8.83413297 C21.5031533,9.53622064 20.5906773,10.0372777 19.5713,10.2451632 C25.653716,10.4995962 31.6619781,12.9126935 36.3073627,17.4860569 C37.0759084,18.2429015 37.1422522,19.1579747 36.8109995,19.9184941 L36.786238,19.9700238 C36.6638362,20.2336556 36.4947054,20.471976 36.2924088,20.670274 C36.0784268,20.8819168 35.8172615,21.0581307 35.5262073,21.1809657 C34.7553294,21.5057853 33.8284412,21.4413703 33.0593933,20.6840663 C31.5077821,19.1560784 29.7764076,17.9253726 27.9370314,16.9910068 C26.3307617,16.1761898 24.6367033,15.5812721 22.903415,15.2100227 L22.903415,26.6505571 C24.4362485,29.7257314 25.8505552,33.7336227 26.836324,37.8012295 C27.7721226,41.6604797 28.3243063,45.5845101 28.2267101,48.8266996 L28.2262428,48.8506235 C28.1874651,49.906517 27.5632828,50.5741298 26.7853842,50.8561003 C26.5008604,50.9586991 26.1892345,51.0070028 25.8808857,50.999182 C25.5692598,50.9913606 25.2585788,50.9260287 24.9796524,50.8082454 L24.9039663,50.771899 C24.1732631,50.4314379 23.6248111,49.7376303 23.6527982,48.7080022 C23.7322219,46.0224512 23.3070735,42.8681273 22.5885219,39.7229903 C21.8167111,36.3427602 20.7066867,32.980904 19.5251276,30.2309262 L17.4732167,30.2309262 C16.2916695,32.9799618 15.182578,36.342289 14.4107791,39.7225192 C13.6922276,42.8676562 13.2661415,46.0229224 13.3455699,48.7048221 C13.3754707,49.7745197 12.7877291,50.4816837 12.0186931,50.8078225 C11.7397786,50.9256047 11.4290856,50.9909385 11.1169933,50.9987592 C10.809111,51.0065806 10.4979515,50.9601113 10.2124948,50.8565961 C9.42899875,50.5717989 8.80201534,49.8973193 8.77163616,48.8275629 C8.67399098,45.5861979 9.22575719,41.6631098 10.1620223,37.8033885 C11.1482815,33.7353105 12.5624566,29.7270659 14.0949312,26.6517738 L14.0949312,15.2112394 C12.361643,15.5820648 10.6675846,16.1769589 9.06131488,16.9922234 C7.22146029,17.9271193 5.49008571,19.157884 3.93895302,20.685283 C3.17040738,21.4421276 2.24118692,21.5074614 1.46890966,21.1812519 L1.41611565,21.1564069 C1.1530845,21.0377061 0.911067611,20.8697723 0.707838012,20.6696368 C0.492456737,20.4607619 0.313984981,20.2049509 0.189250901,19.9192349 C-0.142456356,19.1623903 -0.0761244727,18.2477883 0.69429894,17.4895068 C3.09856059,15.1177275 5.88256211,13.3239052 8.8539817,12.1115735 C11.6016239,10.9908056 14.5061853,10.369222 17.4252187,10.2463752 C16.4043823,10.0375003 15.4919541,9.53692615 14.7817509,8.83805394 L14.7350315,8.78744412 C13.8118391,7.8539263 13.2419063,6.58044205 13.2419063,5.17848102 C13.2419063,3.74895897 13.8315138,2.45429749 14.7817963,1.51757599 C15.7325453,0.582220763 17.0481556,0.00160183735 18.4993001,0.00160183735 L18.4995366,0 Z" id="路径"></path>
                </g>
            </g>
        </g>
    </g>
</svg>