<?xml version="1.0" encoding="UTF-8"?>
<svg width="80px" height="80px" viewBox="0 0 80 80" version="1.1" xmlns="http://www.w3.org/2000/svg" xmlns:xlink="http://www.w3.org/1999/xlink">
    <title>编组 17</title>
    <defs>
        <linearGradient x1="0%" y1="50%" x2="100%" y2="50%" id="linearGradient-1">
            <stop stop-color="#757FD6" offset="0%"></stop>
            <stop stop-color="#86AAD7" offset="57.6072853%"></stop>
            <stop stop-color="#84BDB8" offset="100%"></stop>
        </linearGradient>
    </defs>
    <g id="页面-1" stroke="none" stroke-width="1" fill="none" fill-rule="evenodd">
        <g id="产品中心-虚拟人及内容生成SaaS" transform="translate(-556.000000, -5175.000000)">
            <g id="编组-44" transform="translate(520.000000, 5175.000000)">
                <g id="编组-17" transform="translate(36.000000, 0.000000)">
                    <circle id="椭圆形" fill="url(#linearGradient-1)" cx="40" cy="40" r="40"></circle>
                    <g id="编组-43" transform="translate(8.000000, 8.000000)">
                        <rect id="矩形" fill="#D8D8D8" opacity="0" x="0" y="0" width="64" height="64"></rect>
                        <g id="编组" transform="translate(9.000000, 12.000000)" stroke="#FFFFFF" stroke-linejoin="round" stroke-width="2">
                            <polygon id="路径" points="23 6.78947368 39.1 15.8421053 39.1 33.9473684 23 43 6.9 33.9473684 6.9 15.8421053"></polygon>
                            <line x1="23" y1="0" x2="23" y2="6.78947368" id="路径" stroke-linecap="round"></line>
                            <polyline id="路径" stroke-linecap="round" points="6.9 15.8421053 23 24.8947368 39.1 15.8421053"></polyline>
                            <line x1="39.1" y1="33.9473684" x2="46" y2="37.3421053" id="路径" stroke-linecap="round"></line>
                            <line x1="0" y1="37.3421053" x2="6.9" y2="33.9473684" id="路径" stroke-linecap="round"></line>
                            <line x1="23" y1="24.8947368" x2="23" y2="43" id="路径" stroke-linecap="round"></line>
                            <path d="M31.05,11.3157895 L39.1,15.8421053 L39.1,24.8947368 M14.95,11.3157895 L6.9,15.8421053 L6.9,24.8947368 M14.95,38.4736842 L23,43 L31.05,38.4736842" id="形状"></path>
                        </g>
                    </g>
                </g>
            </g>
        </g>
    </g>
</svg>