<?xml version="1.0" encoding="UTF-8"?>
<svg width="164px" height="60px" viewBox="0 0 164 60" version="1.1" xmlns="http://www.w3.org/2000/svg" xmlns:xlink="http://www.w3.org/1999/xlink">
    <title>直线 13</title>
    <defs>
        <linearGradient x1="0%" y1="50%" x2="100%" y2="50%" id="linearGradient-1">
            <stop stop-color="#D675A3" offset="0%"></stop>
            <stop stop-color="#8D86D7" offset="45.7084176%"></stop>
            <stop stop-color="#8CBFC6" offset="100%"></stop>
        </linearGradient>
    </defs>
    <g id="页面-1" stroke="none" stroke-width="1" fill="none" fill-rule="evenodd">
        <g id="产品中心-虚拟人及内容生成SaaS" transform="translate(-158.000000, -7213.000000)" fill="url(#linearGradient-1)" fill-rule="nonzero">
            <g id="编组-9" transform="translate(24.000000, 6931.000000)">
                <g id="编组-8" transform="translate(40.000000, 233.000000)">
                    <path id="直线-13" d="M247.075351,95.7905374 L258,107 L242.477641,109.014041 L247.075351,95.7905374 Z M215.78448,91.2632674 L216.729016,91.5916753 L231.841592,96.8462017 L232.786128,97.1746096 L232.129312,99.0636816 L231.184776,98.7352737 L216.0722,93.4807473 L215.127664,93.1523394 L215.78448,91.2632674 Z M185.559328,80.7542146 L186.503864,81.0826225 L201.61644,86.3371489 L202.560976,86.6655568 L201.90416,88.5546288 L200.959624,88.2262209 L185.847048,82.9716945 L184.902512,82.6432866 L185.559328,80.7542146 Z M155.334176,70.2451617 L156.278712,70.5735696 L171.391288,75.8280961 L172.335824,76.156504 L171.679008,78.045576 L170.734472,77.7171681 L155.621896,72.4626416 L154.67736,72.1342337 L155.334176,70.2451617 Z M125.109024,59.7361089 L126.05356,60.0645168 L141.166136,65.3190432 L142.110672,65.6474511 L141.453856,67.5365231 L140.50932,67.2081152 L125.396744,61.9535888 L124.452208,61.6251809 L125.109024,59.7361089 Z M94.8838719,49.2270561 L95.8284079,49.555464 L110.940984,54.8099904 L111.88552,55.1383983 L111.228704,57.0274703 L110.284168,56.6990624 L95.1715921,51.444536 L94.2270561,51.1161281 L94.8838719,49.2270561 Z"></path>
                </g>
            </g>
        </g>
    </g>
</svg>