<?xml version="1.0" encoding="UTF-8"?>
<svg width="205px" height="84px" viewBox="0 0 205 84" version="1.1" xmlns="http://www.w3.org/2000/svg" xmlns:xlink="http://www.w3.org/1999/xlink">
    <title>直线 13</title>
    <defs>
        <linearGradient x1="0%" y1="50%" x2="100%" y2="50%" id="linearGradient-1">
            <stop stop-color="#D675A3" offset="0%"></stop>
            <stop stop-color="#8D86D7" offset="45.7084176%"></stop>
            <stop stop-color="#8CBFC6" offset="100%"></stop>
        </linearGradient>
    </defs>
    <g id="页面-1" stroke="none" stroke-width="1" fill="none" fill-rule="evenodd">
        <g id="产品中心-虚拟人及内容生成SaaS" transform="translate(-597.000000, -4081.000000)" fill="url(#linearGradient-1)" fill-rule="nonzero">
            <path id="直线-13" d="M775.633906,4132.64421 L801.5,4160.5 L763.695709,4164.4794 L775.633906,4132.64421 Z M749.557051,4137.81739 L752.366039,4138.87076 L767.347306,4144.48874 L770.156293,4145.54211 L768.049552,4151.16008 L765.240565,4150.10671 L750.259298,4144.48874 L747.450311,4143.43537 L749.557051,4137.81739 Z M719.594518,4126.58144 L722.403505,4127.63481 L737.384772,4133.25279 L740.193759,4134.30616 L738.087019,4139.92413 L735.278031,4138.87076 L720.296764,4133.25279 L717.487777,4132.19942 L719.594518,4126.58144 Z M689.631984,4115.34549 L692.440971,4116.39886 L707.422238,4122.01684 L710.231226,4123.07021 L708.124485,4128.68818 L705.315498,4127.63481 L690.334231,4122.01684 L687.525243,4120.96347 L689.631984,4115.34549 Z M659.66945,4104.10954 L662.478438,4105.16291 L677.459705,4110.78089 L680.268692,4111.83426 L678.161951,4117.45223 L675.352964,4116.39886 L660.371697,4110.78089 L657.56271,4109.72752 L659.66945,4104.10954 Z M629.706916,4092.87359 L632.515904,4093.92696 L647.497171,4099.54494 L650.306158,4100.59831 L648.199418,4106.21628 L645.39043,4105.16291 L630.409163,4099.54494 L627.600176,4098.49157 L629.706916,4092.87359 Z M599.744383,4081.63764 L602.55337,4082.69101 L617.534637,4088.30899 L620.343625,4089.36236 L618.236884,4094.98033 L615.427897,4093.92696 L600.44663,4088.30899 L597.637642,4087.25562 L599.744383,4081.63764 Z"></path>
        </g>
    </g>
</svg>