<?xml version="1.0" encoding="UTF-8"?>
<svg width="133px" height="68px" viewBox="0 0 133 68" version="1.1" xmlns="http://www.w3.org/2000/svg" xmlns:xlink="http://www.w3.org/1999/xlink">
    <title>直线 10备份 8</title>
    <defs>
        <linearGradient x1="0%" y1="62.3127367%" x2="97.1200146%" y2="37.6872633%" id="linearGradient-1">
            <stop stop-color="#D675A3" offset="0%"></stop>
            <stop stop-color="#8D86D7" offset="45.7084176%"></stop>
            <stop stop-color="#8CBFC6" offset="100%"></stop>
        </linearGradient>
    </defs>
    <g id="页面-1" stroke="none" stroke-width="1" fill="none" fill-rule="evenodd">
        <g id="产品中心-虚拟人及内容生成SaaS" transform="translate(-192.000000, -8087.000000)" fill="url(#linearGradient-1)" fill-rule="nonzero">
            <g id="编组-10" transform="translate(58.000000, 7813.000000)">
                <path id="直线-10备份-8" d="M160.355657,326.804895 L161.244692,328.596435 L160.348922,329.040953 L146.985,335.672 L149.652405,341.047146 L134,341 L143.42916,328.506364 L146.096,333.88 L159.459887,327.249413 L160.355657,326.804895 Z M189.020302,312.580334 L189.909337,314.371875 L189.013567,314.816392 L174.681244,321.928673 L173.785474,322.37319 L172.896439,320.58165 L173.792209,320.137132 L188.124532,313.024852 L189.020302,312.580334 Z M217.684947,298.355774 L218.573982,300.147314 L217.678212,300.591832 L203.345889,307.704112 L202.450119,308.148629 L201.561084,306.357089 L202.456854,305.912572 L216.789177,298.800291 L217.684947,298.355774 Z M246.349592,284.131213 L247.238627,285.922753 L246.342857,286.367271 L232.010534,293.479551 L231.114764,293.924069 L230.225729,292.132529 L231.121499,291.688011 L245.453822,284.575731 L246.349592,284.131213 Z M251.347595,274.952854 L267,275 L257.57084,287.493636 L251.347595,274.952854 Z"></path>
            </g>
        </g>
    </g>
</svg>