<?xml version="1.0" encoding="UTF-8"?>
<svg width="215px" height="95px" viewBox="0 0 215 95" version="1.1" xmlns="http://www.w3.org/2000/svg" xmlns:xlink="http://www.w3.org/1999/xlink">
    <title>直线 10备份 7</title>
    <defs>
        <linearGradient x1="0%" y1="0%" x2="0%" y2="100%" id="linearGradient-1">
            <stop stop-color="#D675A3" offset="0%"></stop>
            <stop stop-color="#8D86D7" offset="45.7084176%"></stop>
            <stop stop-color="#8CBFC6" offset="100%"></stop>
        </linearGradient>
    </defs>
    <g id="页面-1" stroke="none" stroke-width="1" fill="none" fill-rule="evenodd">
        <g id="产品中心-虚拟人及内容生成SaaS" transform="translate(-654.000000, -4981.000000)" fill="url(#linearGradient-1)" fill-rule="nonzero">
            <path id="直线-10备份-7" d="M851.575562,5053.59439 L869,5074 L842.220848,5075.69618 L851.575562,5053.59439 Z M820.370289,5051.24542 L822.212105,5052.02498 L836.946635,5058.26146 L838.788452,5059.04102 L837.229333,5062.72465 L835.387517,5061.94509 L820.652987,5055.70861 L818.81117,5054.92906 L820.370289,5051.24542 Z M790.901229,5038.77247 L792.743045,5039.55203 L807.477575,5045.78851 L809.319392,5046.56807 L807.760273,5050.2517 L805.918457,5049.47214 L791.183927,5043.23566 L789.34211,5042.4561 L790.901229,5038.77247 Z M761.432169,5026.29952 L763.273986,5027.07908 L778.008516,5033.31556 L779.850332,5034.09512 L778.291213,5037.77875 L776.449397,5036.99919 L761.714867,5030.76271 L759.87305,5029.98315 L761.432169,5026.29952 Z M731.963109,5013.82657 L733.804926,5014.60613 L748.539456,5020.8426 L750.381272,5021.62216 L748.822153,5025.3058 L746.980337,5024.52624 L732.245807,5018.28976 L730.40399,5017.5102 L731.963109,5013.82657 Z M702.494049,5001.35362 L704.335866,5002.13318 L719.070396,5008.36965 L720.912212,5009.14921 L719.353093,5012.83285 L717.511277,5012.05329 L702.776747,5005.81681 L700.934931,5005.03725 L702.494049,5001.35362 Z M680.779152,4981.30382 L676.881,4990.513 L689.601336,4995.8967 L691.443152,4996.67626 L689.884033,5000.35989 L688.042217,4999.58034 L675.322,4994.196 L671.424438,5003.40561 L654,4983 L680.779152,4981.30382 Z"></path>
        </g>
    </g>
</svg>