<?xml version="1.0" encoding="UTF-8"?>
<svg width="215px" height="86px" viewBox="0 0 215 86" version="1.1" xmlns="http://www.w3.org/2000/svg" xmlns:xlink="http://www.w3.org/1999/xlink">
    <title>直线 10备份 8</title>
    <defs>
        <linearGradient x1="0%" y1="56.9226609%" x2="97.1200146%" y2="43.0773391%" id="linearGradient-1">
            <stop stop-color="#D675A3" offset="0%"></stop>
            <stop stop-color="#8D86D7" offset="45.7084176%"></stop>
            <stop stop-color="#8CBFC6" offset="100%"></stop>
        </linearGradient>
    </defs>
    <g id="页面-1" stroke="none" stroke-width="1" fill="none" fill-rule="evenodd">
        <g id="产品中心-虚拟人及内容生成SaaS" transform="translate(-654.000000, -5120.000000)" fill="url(#linearGradient-1)" fill-rule="nonzero">
            <path id="直线-10备份-8" d="M672.30852,5183.38373 L675.795,5192.755 L688.754175,5187.93425 L690.628619,5187.23678 L692.023554,5190.98567 L690.14911,5191.68313 L677.19,5196.504 L680.678129,5205.87705 L654,5203 L672.30852,5183.38373 Z M720.619718,5176.0773 L722.014653,5179.82619 L720.140209,5180.52366 L705.144659,5186.1034 L703.270216,5186.80086 L701.875281,5183.05198 L703.749725,5182.35451 L718.745274,5176.77477 L720.619718,5176.0773 Z M750.610817,5164.91782 L752.005752,5168.66671 L750.131308,5169.36418 L735.135759,5174.94392 L733.261315,5175.64138 L731.86638,5171.8925 L733.740824,5171.19503 L748.736373,5165.61529 L750.610817,5164.91782 Z M780.601916,5153.75834 L781.996851,5157.50723 L780.122408,5158.2047 L765.126858,5163.78444 L763.252414,5164.48191 L761.857479,5160.73302 L763.731923,5160.03555 L778.727473,5154.45581 L780.601916,5153.75834 Z M810.593016,5142.59886 L811.98795,5146.34775 L810.113507,5147.04522 L795.117957,5152.62496 L793.243513,5153.32243 L791.848579,5149.57354 L793.723022,5148.87607 L808.718572,5143.29633 L810.593016,5142.59886 Z M842.321871,5120.12295 L869,5123 L850.69148,5142.61627 L842.321871,5120.12295 Z M840.584115,5131.43939 L841.97905,5135.18827 L840.104606,5135.88574 L825.109056,5141.46548 L823.234613,5142.16295 L821.839678,5138.41406 L823.714122,5137.71659 L838.709671,5132.13685 L840.584115,5131.43939 Z"></path>
        </g>
    </g>
</svg>