<?xml version="1.0" encoding="UTF-8"?>
<svg width="133px" height="72px" viewBox="0 0 133 72" version="1.1" xmlns="http://www.w3.org/2000/svg" xmlns:xlink="http://www.w3.org/1999/xlink">
    <title>直线 10备份 7</title>
    <defs>
        <linearGradient x1="0%" y1="0%" x2="0%" y2="100%" id="linearGradient-1">
            <stop stop-color="#D675A3" offset="0%"></stop>
            <stop stop-color="#8D86D7" offset="45.7084176%"></stop>
            <stop stop-color="#8CBFC6" offset="100%"></stop>
        </linearGradient>
    </defs>
    <g id="页面-1" stroke="none" stroke-width="1" fill="none" fill-rule="evenodd">
        <g id="产品中心-虚拟人及内容生成SaaS" transform="translate(-192.000000, -7934.000000)" fill="url(#linearGradient-1)" fill-rule="nonzero">
            <g id="编组-10" transform="translate(58.000000, 7813.000000)">
                <path id="直线-10备份-7" d="M258.020788,180.179167 L267,193 L251.355807,192.490869 L258.020788,180.179167 Z M229.415215,171.51622 L230.294622,171.99229 L244.365139,179.609412 L245.244547,180.085482 L244.292406,181.844297 L243.412999,181.368227 L229.342482,173.751105 L228.463075,173.275035 L229.415215,171.51622 Z M201.274181,156.281976 L202.153588,156.758046 L216.224105,164.375168 L217.103512,164.851238 L216.151372,166.610053 L215.271965,166.133983 L201.201448,158.516861 L200.32204,158.04079 L201.274181,156.281976 Z M173.133146,141.047732 L174.012554,141.523802 L188.083071,149.140924 L188.962478,149.616994 L188.010338,151.375809 L187.130931,150.899739 L173.060413,143.282616 L172.181006,142.806546 L173.133146,141.047732 Z M134,121 L149.644193,121.509131 L146.788,126.785 L159.942037,133.90668 L160.821444,134.38275 L159.869304,136.141565 L158.989896,135.665494 L145.835,128.544 L142.979212,133.820833 L134,121 Z"></path>
            </g>
        </g>
    </g>
</svg>