<?xml version="1.0" encoding="UTF-8"?>
<svg width="211px" height="103px" viewBox="0 0 211 103" version="1.1" xmlns="http://www.w3.org/2000/svg" xmlns:xlink="http://www.w3.org/1999/xlink">
    <title>直线 5</title>
    <defs>
        <linearGradient x1="0%" y1="50%" x2="100%" y2="50%" id="linearGradient-1">
            <stop stop-color="#D675A3" offset="0%"></stop>
            <stop stop-color="#8D86D7" offset="45.7084176%"></stop>
            <stop stop-color="#8CBFC6" offset="100%"></stop>
        </linearGradient>
    </defs>
    <g id="页面-1" stroke="none" stroke-width="1" fill="none" fill-rule="evenodd">
        <g id="产品中心-虚拟人及内容生成SaaS" transform="translate(-591.000000, -4243.000000)" fill="url(#linearGradient-1)" fill-rule="nonzero">
            <path id="直线-5" d="M611.411638,4330.69168 L613.967689,4336.12 L611.253532,4337.39802 L596.778026,4344.21416 L594.063868,4345.49218 L591.507817,4340.06387 L594.221974,4338.78584 L608.697481,4331.96971 L611.411638,4330.69168 Z M640.362651,4317.05941 L642.918702,4322.48772 L640.204545,4323.76575 L625.729038,4330.58188 L623.014881,4331.85991 L620.45883,4326.4316 L623.172987,4325.15357 L637.648493,4318.33743 L640.362651,4317.05941 Z M669.313664,4303.42713 L671.869715,4308.85545 L669.155557,4310.13348 L654.680051,4316.94961 L651.965893,4318.22764 L649.409842,4312.79932 L652.124,4311.5213 L666.599506,4304.70516 L669.313664,4303.42713 Z M698.264676,4289.79486 L700.820727,4295.22318 L698.10657,4296.5012 L683.631064,4303.31734 L680.916906,4304.59536 L678.360855,4299.16705 L681.075012,4297.88902 L695.550519,4291.07289 L698.264676,4289.79486 Z M727.215689,4276.16259 L729.77174,4281.5909 L727.057583,4282.86893 L712.582076,4289.68507 L709.867919,4290.96309 L707.311868,4285.53478 L710.026025,4284.25675 L724.501531,4277.44061 L727.215689,4276.16259 Z M756.166701,4262.53032 L758.722753,4267.95863 L756.008595,4269.23666 L741.533089,4276.05279 L738.818931,4277.33082 L736.26288,4271.9025 L738.977038,4270.62448 L753.452544,4263.80834 L756.166701,4262.53032 Z M763.497404,4243.60406 L801.5,4244.5 L777.981694,4274.36452 L772.017,4261.698 L770.484102,4262.42052 L767.769944,4263.69855 L765.213893,4258.27023 L767.92805,4256.9922 L769.461,4256.27 L763.497404,4243.60406 Z"></path>
        </g>
    </g>
</svg>