<?xml version="1.0" encoding="UTF-8"?>
<svg width="165px" height="62px" viewBox="0 0 165 62" version="1.1" xmlns="http://www.w3.org/2000/svg" xmlns:xlink="http://www.w3.org/1999/xlink">
    <title>直线 5</title>
    <defs>
        <linearGradient x1="0%" y1="50%" x2="100%" y2="50%" id="linearGradient-1">
            <stop stop-color="#D675A3" offset="0%"></stop>
            <stop stop-color="#8D86D7" offset="45.7084176%"></stop>
            <stop stop-color="#8CBFC6" offset="100%"></stop>
        </linearGradient>
    </defs>
    <g id="页面-1" stroke="none" stroke-width="1" fill="none" fill-rule="evenodd">
        <g id="产品中心-虚拟人及内容生成SaaS" transform="translate(-158.000000, -7304.000000)" fill="url(#linearGradient-1)" fill-rule="nonzero">
            <g id="编组-9" transform="translate(24.000000, 6931.000000)">
                <g id="编组-8" transform="translate(40.000000, 233.000000)">
                    <path id="直线-5" d="M111.6927,193.386441 L112.359857,195.271885 L111.417135,195.605464 L96.3335787,200.942722 L95.3908564,201.276301 L94.7236991,199.390856 L95.6664213,199.057278 L110.749978,193.720019 L111.6927,193.386441 Z M141.859813,182.711924 L142.52697,184.597368 L141.584248,184.930947 L126.500691,190.268205 L125.557969,190.601784 L124.890812,188.71634 L125.833534,188.382761 L140.91709,183.045503 L141.859813,182.711924 Z M172.026925,172.037407 L172.694083,173.922852 L171.75136,174.25643 L156.667804,179.593689 L155.725082,179.927267 L155.057925,178.041823 L156.000647,177.708244 L171.084203,172.370986 L172.026925,172.037407 Z M202.194038,161.36289 L202.861195,163.248335 L201.918473,163.581913 L186.834917,168.919172 L185.892195,169.25275 L185.225037,167.367306 L186.16776,167.033727 L201.251316,161.696469 L202.194038,161.36289 Z M232.361151,150.688373 L233.028308,152.573818 L232.085586,152.907397 L217.00203,158.244655 L216.059307,158.578234 L215.39215,156.692789 L216.334872,156.35921 L231.418429,151.021952 L232.361151,150.688373 Z M242.966838,140.571045 L258.5,142.5 L247.636939,153.769157 L242.966838,140.571045 Z"></path>
                </g>
            </g>
        </g>
    </g>
</svg>