<?xml version="1.0" encoding="UTF-8"?>
<svg width="540px" height="189px" viewBox="0 0 540 189" version="1.1" xmlns="http://www.w3.org/2000/svg" xmlns:xlink="http://www.w3.org/1999/xlink">
    <title>编组 6备份</title>
    <defs>
        <linearGradient x1="0%" y1="50%" x2="100%" y2="50%" id="linearGradient-1">
            <stop stop-color="#D675A3" offset="0%"></stop>
            <stop stop-color="#8D86D7" offset="45.7084176%"></stop>
            <stop stop-color="#8CBFC6" offset="100%"></stop>
        </linearGradient>
    </defs>
    <g id="页面-1" stroke="none" stroke-width="1" fill="none" fill-rule="evenodd">
        <g id="产品中心-虚拟人及内容生成SaaS" transform="translate(-118.000000, -7811.000000)">
            <g id="编组-10" transform="translate(58.000000, 7813.000000)">
                <g id="编组-6备份" transform="translate(329.750000, 93.250000) scale(1, -1) translate(-329.750000, -93.250000) translate(60.000000, 0.000000)">
                    <polygon id="路径" fill="#D575A3" fill-rule="nonzero" transform="translate(8.500000, 141.000000) rotate(90.000000) translate(-8.500000, -141.000000) " points="11.6 132.5 11.6 139.583333 24 139.583333 24 142.416667 11.6 142.416667 11.6 149.5 -7 141"></polygon>
                    <polygon id="路径" fill="#8DC0C6" fill-rule="nonzero" transform="translate(531.000000, 11.000000) rotate(-90.000000) translate(-531.000000, -11.000000) " points="523.142857 2.5 542 11 523.142857 19.5 523.142857 12.4166667 520 12.4166667 520 9.58333333 523.142857 9.58333333"></polygon>
                    <path d="M531,29.5 L531,74.5626488 L531,174.184848 C531,180.986319 525.913621,186.5 519.639255,186.5 L19.3607448,186.5 C13.0863787,186.5 8,180.986319 8,174.184848 L8,134.807886" id="路径" stroke="url(#linearGradient-1)" stroke-width="4" stroke-dasharray="12"></path>
                </g>
            </g>
        </g>
    </g>
</svg>